G04 Layer_Color=65535*
%FSLAX25Y25*%
%MOIN*%
G70*
G01*
G75*
%ADD12C,0.01000*%
%ADD48C,0.00800*%
%ADD50C,0.02000*%
%ADD51C,0.01200*%
%ADD109C,0.01181*%
%ADD110R,0.75000X0.15100*%
D12*
X100945Y366949D02*
G03*
X99665Y366949I-640J0D01*
G01*
X100945Y418414D02*
G03*
X99665Y418414I-640J0D01*
G01*
X100945Y443270D02*
G03*
X99665Y443270I-640J0D01*
G01*
X100945Y366949D02*
X106305D01*
X94305D02*
X99665D01*
X94305D02*
Y368689D01*
X106305Y366949D02*
Y368689D01*
X94305Y381229D02*
X106305D01*
Y379729D02*
Y381229D01*
X94305Y379729D02*
Y381229D01*
X100945Y418414D02*
X106305D01*
X94305D02*
X99665D01*
X94305D02*
Y420154D01*
X106305Y418414D02*
Y420154D01*
X94305Y432694D02*
X106305D01*
Y431194D02*
Y432694D01*
X94305Y431194D02*
Y432694D01*
X121225Y177750D02*
Y203750D01*
Y177750D02*
X127225Y171750D01*
X266825D01*
Y177750D02*
Y203750D01*
X121225D02*
X266825D01*
Y171750D02*
Y177750D01*
X121225Y335250D02*
Y361250D01*
Y335250D02*
X127225Y329250D01*
X266825D01*
Y335250D02*
Y361250D01*
X121225D02*
X266825D01*
Y329250D02*
Y335250D01*
X100945Y443270D02*
X106305D01*
X94305D02*
X99665D01*
X94305D02*
Y445010D01*
X106305Y443270D02*
Y445010D01*
X94305Y457550D02*
X106305D01*
Y456050D02*
Y457550D01*
X94305Y456050D02*
Y457550D01*
X58965Y74602D02*
X83768D01*
X58965Y140154D02*
X83768D01*
D48*
X105277Y400611D02*
G03*
X105277Y399331I0J-640D01*
G01*
X131450Y425700D02*
G03*
X128950Y425700I-1250J0D01*
G01*
X151528Y125401D02*
G03*
X152850Y126723I661J661D01*
G01*
X186886Y440378D02*
G03*
X185981Y439473I-453J-453D01*
G01*
X185500Y57000D02*
X189500D01*
X191500Y55000D01*
X148500Y95500D02*
X150500Y93500D01*
X215000Y60000D02*
Y61000D01*
Y60000D02*
X217500Y57500D01*
X205500Y55000D02*
X206500Y56000D01*
X207000D01*
X211000Y55000D02*
X212000Y56000D01*
Y58500D01*
X187500Y105500D02*
X189000Y104000D01*
X202500Y102500D02*
X204000Y104000D01*
X202500Y89500D02*
X204000Y91000D01*
X237478Y446601D02*
X240660Y449783D01*
X233730Y450349D02*
X236912Y453531D01*
X228073Y444692D02*
X231609Y448227D01*
X231821Y440944D02*
X235356Y444480D01*
X236912Y453531D02*
X240660Y449783D01*
X228073Y444692D02*
X231821Y440944D01*
X232878Y451301D02*
X236060Y454483D01*
X229130Y455049D02*
X232312Y458231D01*
X223473Y449392D02*
X227009Y452927D01*
X227221Y445644D02*
X230756Y449180D01*
X232312Y458231D02*
X236060Y454483D01*
X223473Y449392D02*
X227221Y445644D01*
X107012Y392455D02*
Y396955D01*
X112312Y392455D02*
Y396955D01*
Y399955D02*
Y404955D01*
X107012Y399955D02*
Y404955D01*
Y392455D02*
X112312D01*
X107012Y404955D02*
X112312D01*
X158654Y80056D02*
Y84556D01*
X153354Y80056D02*
Y84556D01*
Y72056D02*
Y77056D01*
X158654Y72056D02*
Y77056D01*
X153354Y84556D02*
X158654D01*
X153354Y72056D02*
X158654D01*
X205527Y79007D02*
Y83507D01*
X200227Y79007D02*
Y83507D01*
Y71007D02*
Y76007D01*
X205527Y71007D02*
Y76007D01*
X200227Y83507D02*
X205527D01*
X200227Y71007D02*
X205527D01*
X148374Y103715D02*
X151556Y100533D01*
X152122Y107463D02*
X155304Y104281D01*
X146465Y113120D02*
X150000Y109584D01*
X142717Y109372D02*
X146253Y105836D01*
X151556Y100533D02*
X155304Y104281D01*
X142717Y109372D02*
X146465Y113120D01*
X150844Y117467D02*
X154026Y114285D01*
X147096Y113719D02*
X150278Y110537D01*
X152400Y108416D02*
X155935Y104880D01*
X156147Y112164D02*
X159683Y108628D01*
X147096Y113719D02*
X150844Y117467D01*
X155935Y104880D02*
X159683Y108628D01*
X195900Y162700D02*
Y167200D01*
X190600Y162700D02*
Y167200D01*
Y154700D02*
Y159700D01*
X195900Y154700D02*
Y159700D01*
X190600Y167200D02*
X195900D01*
X190600Y154700D02*
X195900D01*
X162401Y125922D02*
X165583Y122740D01*
X166149Y129670D02*
X169330Y126488D01*
X160492Y135327D02*
X164027Y131791D01*
X156744Y131579D02*
X160280Y128044D01*
X165583Y122740D02*
X169330Y126488D01*
X156744Y131579D02*
X160492Y135327D01*
X167201Y130622D02*
X170383Y127440D01*
X170949Y134370D02*
X174130Y131188D01*
X165292Y140027D02*
X168827Y136491D01*
X161544Y136279D02*
X165080Y132744D01*
X170383Y127440D02*
X174130Y131188D01*
X161544Y136279D02*
X165292Y140027D01*
X135100Y447431D02*
X139600D01*
X135100Y452731D02*
X139600D01*
X127100D02*
X132100D01*
X127100Y447431D02*
X132100D01*
X139600D02*
Y452731D01*
X127100Y447431D02*
Y452731D01*
X150400Y442800D02*
Y447300D01*
X145100Y442800D02*
Y447300D01*
Y434800D02*
Y439800D01*
X150400Y434800D02*
Y439800D01*
X145100Y447300D02*
X150400D01*
X145100Y434800D02*
X150400D01*
X137200Y375000D02*
X141700D01*
X137200Y380300D02*
X141700D01*
X129200D02*
X134200D01*
X129200Y375000D02*
X134200D01*
X141700D02*
Y380300D01*
X129200Y375000D02*
Y380300D01*
X137200Y381200D02*
X141700D01*
X137200Y386500D02*
X141700D01*
X129200D02*
X134200D01*
X129200Y381200D02*
X134200D01*
X141700D02*
Y386500D01*
X129200Y381200D02*
Y386500D01*
X254478Y434901D02*
X257660Y438083D01*
X250730Y438649D02*
X253912Y441831D01*
X245073Y432992D02*
X248609Y436527D01*
X248821Y429244D02*
X252356Y432780D01*
X253912Y441831D02*
X257660Y438083D01*
X245073Y432992D02*
X248821Y429244D01*
X157417Y439360D02*
X160599Y436178D01*
X153669Y435612D02*
X156851Y432430D01*
X158973Y430309D02*
X162508Y426773D01*
X162720Y434057D02*
X166256Y430521D01*
X153669Y435612D02*
X157417Y439360D01*
X162508Y426773D02*
X166256Y430521D01*
X137200Y393600D02*
X141700D01*
X137200Y398900D02*
X141700D01*
X129200D02*
X134200D01*
X129200Y393600D02*
X134200D01*
X141700D02*
Y398900D01*
X129200Y393600D02*
Y398900D01*
Y392700D02*
X133700D01*
X129200Y387400D02*
X133700D01*
X136700D02*
X141700D01*
X136700Y392700D02*
X141700D01*
X129200Y387400D02*
Y392700D01*
X141700Y387400D02*
Y392700D01*
X150800Y387700D02*
X155300D01*
X150800Y393000D02*
X155300D01*
X142800D02*
X147800D01*
X142800Y387700D02*
X147800D01*
X155300D02*
Y393000D01*
X142800Y387700D02*
Y393000D01*
X157100Y393100D02*
X161600D01*
X157100Y387800D02*
X161600D01*
X164600D02*
X169600D01*
X164600Y393100D02*
X169600D01*
X157100Y387800D02*
Y393100D01*
X169600Y387800D02*
Y393100D01*
X163440Y425217D02*
X166622Y428399D01*
X167188Y421470D02*
X170370Y424652D01*
X172491Y426773D02*
X176027Y430308D01*
X168743Y430520D02*
X172279Y434056D01*
X163440Y425217D02*
X167188Y421470D01*
X172279Y434056D02*
X176027Y430308D01*
X198978Y438601D02*
X202160Y441783D01*
X195230Y442349D02*
X198412Y445531D01*
X189573Y436692D02*
X193109Y440227D01*
X193321Y432944D02*
X196856Y436480D01*
X198412Y445531D02*
X202160Y441783D01*
X189573Y436692D02*
X193321Y432944D01*
X163801Y434622D02*
X166983Y431440D01*
X167549Y438370D02*
X170730Y435188D01*
X161892Y444027D02*
X165427Y440491D01*
X158144Y440279D02*
X161680Y436744D01*
X166983Y431440D02*
X170730Y435188D01*
X158144Y440279D02*
X161892Y444027D01*
X190078Y429701D02*
X193260Y432883D01*
X186330Y433449D02*
X189512Y436631D01*
X180673Y427792D02*
X184209Y431327D01*
X184421Y424044D02*
X187956Y427580D01*
X189512Y436631D02*
X193260Y432883D01*
X180673Y427792D02*
X184421Y424044D01*
X211617Y445460D02*
X214799Y442278D01*
X207869Y441712D02*
X211051Y438530D01*
X213173Y436409D02*
X216708Y432873D01*
X216920Y440157D02*
X220456Y436621D01*
X207869Y441712D02*
X211617Y445460D01*
X216708Y432873D02*
X220456Y436621D01*
X240740Y437517D02*
X243922Y440699D01*
X244488Y433770D02*
X247670Y436952D01*
X249791Y439073D02*
X253327Y442608D01*
X246043Y442820D02*
X249579Y446356D01*
X240740Y437517D02*
X244488Y433770D01*
X249579Y446356D02*
X253327Y442608D01*
X220517Y436560D02*
X223699Y433378D01*
X216769Y432812D02*
X219951Y429630D01*
X222073Y427509D02*
X225608Y423973D01*
X225820Y431257D02*
X229356Y427721D01*
X216769Y432812D02*
X220517Y436560D01*
X225608Y423973D02*
X229356Y427721D01*
X237000Y416400D02*
X241500D01*
X237000Y421700D02*
X241500D01*
X229000D02*
X234000D01*
X229000Y416400D02*
X234000D01*
X241500D02*
Y421700D01*
X229000Y416400D02*
Y421700D01*
X121302Y447431D02*
X125802D01*
X121302Y452731D02*
X125802D01*
X113302D02*
X118302D01*
X113302Y447431D02*
X118302D01*
X125802D02*
Y452731D01*
X113302Y447431D02*
Y452731D01*
X229000Y427000D02*
X233500D01*
X229000Y421700D02*
X233500D01*
X236500D02*
X241500D01*
X236500Y427000D02*
X241500D01*
X229000Y421700D02*
Y427000D01*
X241500Y421700D02*
Y427000D01*
X182300Y103000D02*
X187600D01*
X182300Y90500D02*
X187600D01*
X182300Y98000D02*
Y103000D01*
X187600Y98000D02*
Y103000D01*
Y90500D02*
Y95000D01*
X182300Y90500D02*
Y95000D01*
X220008Y105973D02*
X223756Y109721D01*
X211169Y114812D02*
X214917Y118560D01*
X220220Y113257D02*
X223756Y109721D01*
X216473Y109509D02*
X220008Y105973D01*
X211169Y114812D02*
X214351Y111630D01*
X214917Y118560D02*
X218099Y115378D01*
X211000Y103000D02*
X216300D01*
X211000Y90500D02*
X216300D01*
X211000Y98000D02*
Y103000D01*
X216300Y98000D02*
Y103000D01*
Y90500D02*
Y95000D01*
X211000Y90500D02*
Y95000D01*
X204800Y90500D02*
X210100D01*
X204800Y103000D02*
X210100D01*
Y90500D02*
Y95500D01*
X204800Y90500D02*
Y95500D01*
Y98500D02*
Y103000D01*
X210100Y98500D02*
Y103000D01*
X224100D02*
X229400D01*
X224100Y90500D02*
X229400D01*
X224100Y98000D02*
Y103000D01*
X229400Y98000D02*
Y103000D01*
Y90500D02*
Y95000D01*
X224100Y90500D02*
Y95000D01*
X217700Y103000D02*
X223000D01*
X217700Y90500D02*
X223000D01*
X217700Y98000D02*
Y103000D01*
X223000Y98000D02*
Y103000D01*
Y90500D02*
Y95000D01*
X217700Y90500D02*
Y95000D01*
X196300Y91900D02*
X201600D01*
X196300Y104400D02*
X201600D01*
Y91900D02*
Y96900D01*
X196300Y91900D02*
Y96900D01*
Y99900D02*
Y104400D01*
X201600Y99900D02*
Y104400D01*
X190000Y91900D02*
X195300D01*
X190000Y104400D02*
X195300D01*
Y91900D02*
Y96900D01*
X190000Y91900D02*
Y96900D01*
Y99900D02*
Y104400D01*
X195300Y99900D02*
Y104400D01*
X167173Y109992D02*
X170921Y106244D01*
X176012Y118831D02*
X179760Y115083D01*
X170921Y106244D02*
X174456Y109780D01*
X167173Y109992D02*
X170709Y113527D01*
X172830Y115649D02*
X176012Y118831D01*
X176578Y111901D02*
X179760Y115083D01*
X169400Y103000D02*
X174700D01*
X169400Y90500D02*
X174700D01*
X169400Y98000D02*
Y103000D01*
X174700Y98000D02*
Y103000D01*
Y90500D02*
Y95000D01*
X169400Y90500D02*
Y95000D01*
X163000Y90400D02*
X168300D01*
X163000Y102900D02*
X168300D01*
Y90400D02*
Y95400D01*
X163000Y90400D02*
Y95400D01*
Y98400D02*
Y102900D01*
X168300Y98400D02*
Y102900D01*
X176000Y103000D02*
X181300D01*
X176000Y90500D02*
X181300D01*
X176000Y98000D02*
Y103000D01*
X181300Y98000D02*
Y103000D01*
Y90500D02*
Y95000D01*
X176000Y90500D02*
Y95000D01*
X108700Y483000D02*
Y493000D01*
X139700Y483000D02*
Y493000D01*
X119200Y503500D02*
X129200D01*
X258700Y483200D02*
Y493200D01*
X289700Y483200D02*
Y493200D01*
X269200Y503700D02*
X279200D01*
X183700Y483200D02*
Y493200D01*
X214700Y483200D02*
Y493200D01*
X194200Y503700D02*
X204200D01*
X242801Y426422D02*
X245983Y423240D01*
X246549Y430170D02*
X249730Y426988D01*
X240892Y435827D02*
X244427Y432291D01*
X237144Y432079D02*
X240680Y428544D01*
X245983Y423240D02*
X249730Y426988D01*
X237144Y432079D02*
X240892Y435827D01*
X120500Y417500D02*
X122500D01*
X117500Y420500D02*
X120500Y417500D01*
X146628Y70946D02*
X150375Y67198D01*
X137789Y62107D02*
X141537Y58359D01*
X143092Y67410D02*
X146628Y70946D01*
X146840Y63663D02*
X150375Y67198D01*
X141537Y58359D02*
X144719Y61541D01*
X137789Y62107D02*
X140971Y65289D01*
X142128Y75346D02*
X145876Y71598D01*
X133289Y66507D02*
X137037Y62759D01*
X138592Y71810D02*
X142128Y75346D01*
X142340Y68063D02*
X145876Y71598D01*
X137037Y62759D02*
X140219Y65941D01*
X133289Y66507D02*
X136471Y69689D01*
X194910Y83549D02*
X200210D01*
X194910Y71049D02*
X200210D01*
X194910Y78549D02*
Y83549D01*
X200210Y78549D02*
Y83549D01*
Y71049D02*
Y75549D01*
X194910Y71049D02*
Y75549D01*
X189610Y83549D02*
X194910D01*
X189610Y71049D02*
X194910D01*
X189610Y78549D02*
Y83549D01*
X194910Y78549D02*
Y83549D01*
Y71049D02*
Y75549D01*
X189610Y71049D02*
Y75549D01*
X141590Y80051D02*
X146890D01*
X141590Y92551D02*
X146890D01*
Y80051D02*
Y85051D01*
X141590Y80051D02*
Y85051D01*
Y88051D02*
Y92551D01*
X146890Y88051D02*
Y92551D01*
Y80051D02*
X152190D01*
X146890Y92551D02*
X152190D01*
Y80051D02*
Y85051D01*
X146890Y80051D02*
Y85051D01*
Y88051D02*
Y92551D01*
X152190Y88051D02*
Y92551D01*
X172228Y122546D02*
X175976Y118798D01*
X163389Y113707D02*
X167137Y109959D01*
X168692Y119010D02*
X172228Y122546D01*
X172440Y115263D02*
X175976Y118798D01*
X167137Y109959D02*
X170319Y113141D01*
X163389Y113707D02*
X166571Y116889D01*
X208949Y83490D02*
X214249D01*
X208949Y70990D02*
X214249D01*
X208949Y78490D02*
Y83490D01*
X214249Y78490D02*
Y83490D01*
Y70990D02*
Y75490D01*
X208949Y70990D02*
Y75490D01*
X225949Y83490D02*
X231249D01*
X225949Y70990D02*
X231249D01*
X225949Y78490D02*
Y83490D01*
X231249Y78490D02*
Y83490D01*
Y70990D02*
Y75490D01*
X225949Y70990D02*
Y75490D01*
X161549Y83549D02*
X166849D01*
X161549Y71049D02*
X166849D01*
X161549Y78549D02*
Y83549D01*
X166849Y78549D02*
Y83549D01*
Y71049D02*
Y75549D01*
X161549Y71049D02*
Y75549D01*
X178249Y83549D02*
X183549D01*
X178249Y71049D02*
X183549D01*
X178249Y78549D02*
Y83549D01*
X183549Y78549D02*
Y83549D01*
Y71049D02*
Y75549D01*
X178249Y71049D02*
Y75549D01*
X319500Y91300D02*
Y96600D01*
X307000Y91300D02*
Y96600D01*
X314500D02*
X319500D01*
X314500Y91300D02*
X319500D01*
X307000D02*
X311500D01*
X307000Y96600D02*
X311500D01*
X335500Y91300D02*
Y96600D01*
X323000Y91300D02*
Y96600D01*
X330500D02*
X335500D01*
X330500Y91300D02*
X335500D01*
X323000D02*
X327500D01*
X323000Y96600D02*
X327500D01*
X339500Y91400D02*
Y96700D01*
X352000Y91400D02*
Y96700D01*
X339500Y91400D02*
X344500D01*
X339500Y96700D02*
X344500D01*
X347500D02*
X352000D01*
X347500Y91400D02*
X352000D01*
X355500D02*
Y96700D01*
X368000Y91400D02*
Y96700D01*
X355500Y91400D02*
X360500D01*
X355500Y96700D02*
X360500D01*
X363500D02*
X368000D01*
X363500Y91400D02*
X368000D01*
X307300Y98500D02*
X312600D01*
X307300Y111000D02*
X312600D01*
Y98500D02*
Y103500D01*
X307300Y98500D02*
Y103500D01*
Y106500D02*
Y111000D01*
X312600Y106500D02*
Y111000D01*
X323300Y98500D02*
X328600D01*
X323300Y111000D02*
X328600D01*
Y98500D02*
Y103500D01*
X323300Y98500D02*
Y103500D01*
Y106500D02*
Y111000D01*
X328600Y106500D02*
Y111000D01*
X340300Y98500D02*
X345600D01*
X340300Y111000D02*
X345600D01*
Y98500D02*
Y103500D01*
X340300Y98500D02*
Y103500D01*
Y106500D02*
Y111000D01*
X345600Y106500D02*
Y111000D01*
X356300Y98500D02*
X361600D01*
X356300Y111000D02*
X361600D01*
Y98500D02*
Y103500D01*
X356300Y98500D02*
Y103500D01*
Y106500D02*
Y111000D01*
X361600Y106500D02*
Y111000D01*
X319500Y113300D02*
Y118600D01*
X307000Y113300D02*
Y118600D01*
X314500D02*
X319500D01*
X314500Y113300D02*
X319500D01*
X307000D02*
X311500D01*
X307000Y118600D02*
X311500D01*
X335500Y113300D02*
Y118600D01*
X323000Y113300D02*
Y118600D01*
X330500D02*
X335500D01*
X330500Y113300D02*
X335500D01*
X323000D02*
X327500D01*
X323000Y118600D02*
X327500D01*
X339500Y113400D02*
Y118700D01*
X352000Y113400D02*
Y118700D01*
X339500Y113400D02*
X344500D01*
X339500Y118700D02*
X344500D01*
X347500D02*
X352000D01*
X347500Y113400D02*
X352000D01*
X355500D02*
Y118700D01*
X368000Y113400D02*
Y118700D01*
X355500Y113400D02*
X360500D01*
X355500Y118700D02*
X360500D01*
X363500D02*
X368000D01*
X363500Y113400D02*
X368000D01*
X356500Y256400D02*
Y261700D01*
X369000Y256400D02*
Y261700D01*
X356500Y256400D02*
X361500D01*
X356500Y261700D02*
X361500D01*
X364500D02*
X369000D01*
X364500Y256400D02*
X369000D01*
X340500D02*
Y261700D01*
X353000Y256400D02*
Y261700D01*
X340500Y256400D02*
X345500D01*
X340500Y261700D02*
X345500D01*
X348500D02*
X353000D01*
X348500Y256400D02*
X353000D01*
X336500Y256300D02*
Y261600D01*
X324000Y256300D02*
Y261600D01*
X331500D02*
X336500D01*
X331500Y256300D02*
X336500D01*
X324000D02*
X328500D01*
X324000Y261600D02*
X328500D01*
X320500Y256300D02*
Y261600D01*
X308000Y256300D02*
Y261600D01*
X315500D02*
X320500D01*
X315500Y256300D02*
X320500D01*
X308000D02*
X312500D01*
X308000Y261600D02*
X312500D01*
X347400Y254500D02*
X352700D01*
X347400Y242000D02*
X352700D01*
X347400Y249500D02*
Y254500D01*
X352700Y249500D02*
Y254500D01*
Y242000D02*
Y246500D01*
X347400Y242000D02*
Y246500D01*
X330400Y254500D02*
X335700D01*
X330400Y242000D02*
X335700D01*
X330400Y249500D02*
Y254500D01*
X335700Y249500D02*
Y254500D01*
Y242000D02*
Y246500D01*
X330400Y242000D02*
Y246500D01*
X314400Y254500D02*
X319700D01*
X314400Y242000D02*
X319700D01*
X314400Y249500D02*
Y254500D01*
X319700Y249500D02*
Y254500D01*
Y242000D02*
Y246500D01*
X314400Y242000D02*
Y246500D01*
X356500Y234400D02*
Y239700D01*
X369000Y234400D02*
Y239700D01*
X356500Y234400D02*
X361500D01*
X356500Y239700D02*
X361500D01*
X364500D02*
X369000D01*
X364500Y234400D02*
X369000D01*
X340500D02*
Y239700D01*
X353000Y234400D02*
Y239700D01*
X340500Y234400D02*
X345500D01*
X340500Y239700D02*
X345500D01*
X348500D02*
X353000D01*
X348500Y234400D02*
X353000D01*
X336500Y234300D02*
Y239600D01*
X324000Y234300D02*
Y239600D01*
X331500D02*
X336500D01*
X331500Y234300D02*
X336500D01*
X324000D02*
X328500D01*
X324000Y239600D02*
X328500D01*
X320500Y234300D02*
Y239600D01*
X308000Y234300D02*
Y239600D01*
X315500D02*
X320500D01*
X315500Y234300D02*
X320500D01*
X308000D02*
X312500D01*
X308000Y239600D02*
X312500D01*
X328000Y165100D02*
Y181600D01*
Y188100D01*
X330500D01*
X306000Y191600D02*
X330500D01*
Y161600D02*
Y191600D01*
X306000Y161600D02*
Y191600D01*
X328000Y165100D02*
X330500D01*
X306000Y161600D02*
X330500D01*
X358000Y165100D02*
Y181600D01*
Y188100D01*
X360500D01*
X336000Y191600D02*
X360500D01*
Y161600D02*
Y191600D01*
X336000Y161600D02*
Y191600D01*
X358000Y165100D02*
X360500D01*
X336000Y161600D02*
X360500D01*
X305500Y67600D02*
X370500D01*
Y49200D02*
Y67600D01*
Y7800D02*
Y35000D01*
X305500Y7800D02*
X370500D01*
X305500D02*
Y35000D01*
Y49200D02*
Y67600D01*
X388000Y165100D02*
Y181600D01*
Y188100D01*
X390500D01*
X366000Y191600D02*
X390500D01*
Y161600D02*
Y191600D01*
X366000Y161600D02*
Y191600D01*
X388000Y165100D02*
X390500D01*
X366000Y161600D02*
X390500D01*
X363400Y254500D02*
X368700D01*
X363400Y242000D02*
X368700D01*
X363400Y249500D02*
Y254500D01*
X368700Y249500D02*
Y254500D01*
Y242000D02*
Y246500D01*
X363400Y242000D02*
Y246500D01*
X370500Y285400D02*
Y303800D01*
Y318000D02*
Y345200D01*
X305500D02*
X370500D01*
X305500Y318000D02*
Y345200D01*
Y285400D02*
Y303800D01*
Y285400D02*
X370500D01*
X25451Y481710D02*
Y488210D01*
Y481710D02*
X27951D01*
X25451Y488210D02*
Y494710D01*
X27951D01*
X3451Y478210D02*
X27951D01*
X3451Y498210D02*
X27951D01*
Y478210D02*
Y498210D01*
X3451Y478210D02*
Y498210D01*
X33700Y483000D02*
Y493000D01*
X64700Y483000D02*
Y493000D01*
X44200Y503500D02*
X54200D01*
X79687Y405332D02*
X105277D01*
X79687Y394610D02*
Y405332D01*
Y394610D02*
X105277D01*
Y399331D01*
Y400611D02*
Y405332D01*
X135900Y425700D02*
Y445700D01*
X124500D02*
X135900D01*
X124500Y425700D02*
Y445700D01*
Y425700D02*
X128950D01*
X131450D02*
X135900D01*
X200087Y114006D02*
X200874D01*
Y113612D02*
Y114006D01*
Y107319D02*
Y114006D01*
X200087Y107319D02*
X200874D01*
X190250Y113218D02*
X191031Y113999D01*
Y114006D02*
X191819Y113999D01*
X191031Y107313D02*
X191819Y107319D01*
X190250Y108100D02*
Y113218D01*
Y108100D02*
X191031Y107319D01*
X185802Y421753D02*
X187180D01*
X185802Y420572D02*
Y421753D01*
Y382383D02*
Y383761D01*
Y382383D02*
X186983D01*
X223794D02*
X225171D01*
Y383564D01*
Y420375D02*
Y421753D01*
X223990D02*
X225171D01*
X180353Y144397D02*
Y146059D01*
X180000Y119700D02*
X181500Y118200D01*
X180353Y146059D02*
X182016D01*
X211837Y144397D02*
Y146059D01*
X210175D02*
X211837D01*
X210175Y118513D02*
X211837D01*
Y120175D01*
X164246Y119423D02*
X165059Y118610D01*
X159641Y113191D02*
X165059Y118610D01*
X158828Y114004D02*
X159641Y113191D01*
X149479Y123353D02*
X150894Y121938D01*
X149479Y123353D02*
X151528Y125401D01*
X154898Y128771D02*
X156312Y127357D01*
X152850Y126723D02*
X154898Y128771D01*
X174652Y445355D02*
X180985Y451688D01*
X186886Y440378D02*
X189562Y443055D01*
X183235Y436727D02*
X185981Y439473D01*
X181233Y434726D02*
X183235Y436727D01*
X189562Y443055D02*
X191564Y445057D01*
X172650Y443353D02*
X174652Y445355D01*
X180985Y451688D02*
X182987Y453690D01*
X105758Y435668D02*
X107258D01*
X99658D02*
X101158D01*
X105358Y440668D02*
X106858D01*
X99258D02*
X100758D01*
X16890Y74751D02*
X41390D01*
X38890Y78251D02*
X41390D01*
X16890Y74751D02*
Y114751D01*
X41390Y74751D02*
Y114751D01*
X16890D02*
X41390D01*
X38890Y111251D02*
X41390D01*
X38890Y104751D02*
Y111251D01*
Y78251D02*
Y104751D01*
X8951Y427710D02*
X53951D01*
Y392710D02*
Y427710D01*
X8951Y392710D02*
Y427710D01*
X150000Y12400D02*
Y22400D01*
X181000Y12400D02*
Y22400D01*
X160500Y32900D02*
X170500D01*
X225000Y12400D02*
Y22400D01*
X256000Y12400D02*
Y22400D01*
X235500Y32900D02*
X245500D01*
X60815Y147488D02*
X59482D01*
X60148D01*
Y144156D01*
X59482Y143490D01*
X58815D01*
X58149Y144156D01*
X62147Y143490D02*
Y147488D01*
X64147D01*
X64813Y146822D01*
Y145489D01*
X64147Y144823D01*
X62147D01*
X68812Y143490D02*
X66146D01*
X68812Y146156D01*
Y146822D01*
X68146Y147488D01*
X66813D01*
X66146Y146822D01*
X70145D02*
X70811Y147488D01*
X72144D01*
X72811Y146822D01*
Y144156D01*
X72144Y143490D01*
X70811D01*
X70145Y144156D01*
Y146822D01*
X33365Y124138D02*
X32032D01*
X32698D01*
Y120806D01*
X32032Y120140D01*
X31365D01*
X30699Y120806D01*
X34697Y120140D02*
Y124138D01*
X36697D01*
X37363Y123472D01*
Y122139D01*
X36697Y121473D01*
X34697D01*
X38696Y123472D02*
X39363Y124138D01*
X40696D01*
X41362Y123472D01*
Y122806D01*
X40696Y122139D01*
X40029D01*
X40696D01*
X41362Y121473D01*
Y120806D01*
X40696Y120140D01*
X39363D01*
X38696Y120806D01*
X121616Y364362D02*
Y367694D01*
X120950Y368360D01*
X119617D01*
X118950Y367694D01*
Y364362D01*
X117617Y368360D02*
X116285D01*
X116951D01*
Y364362D01*
X117617Y365028D01*
X114285Y367694D02*
X113619Y368360D01*
X112286D01*
X111619Y367694D01*
Y365028D01*
X112286Y364362D01*
X113619D01*
X114285Y365028D01*
Y365694D01*
X113619Y366361D01*
X111619D01*
X59299Y427700D02*
X55966D01*
X55300Y427034D01*
Y425701D01*
X55966Y425034D01*
X59299D01*
X55300Y423701D02*
Y422368D01*
Y423035D01*
X59299D01*
X58632Y423701D01*
X55300Y420369D02*
Y419036D01*
Y419703D01*
X59299D01*
X58632Y420369D01*
X84251Y436320D02*
Y440319D01*
X86251D01*
X86917Y439653D01*
Y438320D01*
X86251Y437653D01*
X84251D01*
X85584D02*
X86917Y436320D01*
X90249D02*
Y440319D01*
X88250Y438320D01*
X90916D01*
X92249Y440319D02*
X94914D01*
Y439653D01*
X92249Y436987D01*
Y436320D01*
X143559Y122747D02*
Y123689D01*
X142617Y124632D01*
X141674D01*
X139789Y122747D01*
Y121804D01*
X140732Y120861D01*
X141674D01*
X142617Y119919D02*
Y118976D01*
X143559Y118034D01*
X144502D01*
X146387Y119919D01*
Y120861D01*
X145444Y121804D01*
X144502D01*
X144031Y121333D01*
Y120390D01*
X145444Y118976D01*
X146387Y115206D02*
X149214Y118034D01*
X146387Y118034D01*
X148272Y116149D01*
X138806Y118600D02*
Y119543D01*
X137863Y120485D01*
X136921D01*
X135036Y118600D01*
Y117657D01*
X135978Y116715D01*
X136921D01*
X137863Y115772D02*
Y114830D01*
X138806Y113888D01*
X139748D01*
X141633Y115772D01*
Y116715D01*
X140691Y117657D01*
X139748D01*
X139277Y117186D01*
Y116244D01*
X140691Y114830D01*
X142576D02*
X143518D01*
X144461Y113888D01*
Y112945D01*
X143990Y112474D01*
X143047D01*
X142576Y112945D01*
X143047Y112474D01*
Y111531D01*
X142576Y111060D01*
X141633D01*
X140691Y112003D01*
Y112945D01*
X204209Y66591D02*
X204875Y67258D01*
Y68591D01*
X204209Y69257D01*
X201543D01*
X200877Y68591D01*
Y67258D01*
X201543Y66591D01*
Y65258D02*
X200877Y64592D01*
Y63259D01*
X201543Y62593D01*
X204209D01*
X204875Y63259D01*
Y64592D01*
X204209Y65258D01*
X203543D01*
X202876Y64592D01*
Y62593D01*
X204209Y61260D02*
X204875Y60593D01*
Y59260D01*
X204209Y58594D01*
X201543D01*
X200877Y59260D01*
Y60593D01*
X201543Y61260D01*
X204209D01*
X156736Y67940D02*
X157402Y68607D01*
Y69940D01*
X156736Y70606D01*
X154070D01*
X153404Y69940D01*
Y68607D01*
X154070Y67940D01*
X156736Y66607D02*
X157402Y65941D01*
Y64608D01*
X156736Y63941D01*
X156069D01*
X155403Y64608D01*
X154736Y63941D01*
X154070D01*
X153404Y64608D01*
Y65941D01*
X154070Y66607D01*
X154736D01*
X155403Y65941D01*
X156069Y66607D01*
X156736D01*
X155403Y65941D02*
Y64608D01*
X157402Y62608D02*
Y59943D01*
X156736D01*
X154070Y62608D01*
X153404D01*
X201182Y163384D02*
X201849Y164051D01*
Y165384D01*
X201182Y166050D01*
X198516D01*
X197850Y165384D01*
Y164051D01*
X198516Y163384D01*
X201849Y159386D02*
Y162051D01*
X199849D01*
X200516Y160718D01*
Y160052D01*
X199849Y159386D01*
X198516D01*
X197850Y160052D01*
Y161385D01*
X198516Y162051D01*
X201182Y158053D02*
X201849Y157386D01*
Y156053D01*
X201182Y155387D01*
X198516D01*
X197850Y156053D01*
Y157386D01*
X198516Y158053D01*
X201182D01*
X152906Y140733D02*
Y141676D01*
X151964Y142618D01*
X151021D01*
X149136Y140733D01*
Y139791D01*
X150079Y138848D01*
X151021D01*
X152906Y136021D02*
X155734Y138848D01*
X152906Y138848D01*
X154791Y136963D01*
X159032Y135550D02*
X157619Y136021D01*
X155734Y136021D01*
X154791Y135078D01*
Y134136D01*
X155734Y133193D01*
X156676D01*
X157148Y133665D01*
Y134607D01*
X155734Y136021D01*
X130716Y457213D02*
X130049Y457879D01*
X128717D01*
X128050Y457213D01*
Y454547D01*
X128717Y453881D01*
X130049D01*
X130716Y454547D01*
X132049Y453881D02*
X133382D01*
X132715D01*
Y457879D01*
X132049Y457213D01*
X135381Y457879D02*
X138047D01*
Y457213D01*
X135381Y454547D01*
Y453881D01*
X146118Y451416D02*
X145451Y450749D01*
Y449416D01*
X146118Y448750D01*
X148784D01*
X149450Y449416D01*
Y450749D01*
X148784Y451416D01*
X149450Y452749D02*
Y454082D01*
Y453415D01*
X145451D01*
X146118Y452749D01*
X145451Y458747D02*
X146118Y457414D01*
X147451Y456081D01*
X148784D01*
X149450Y456747D01*
Y458080D01*
X148784Y458747D01*
X148117D01*
X147451Y458080D01*
Y456081D01*
X117189Y377814D02*
X116523Y378480D01*
X115190D01*
X114523Y377814D01*
Y375148D01*
X115190Y374481D01*
X116523D01*
X117189Y375148D01*
X118522Y377814D02*
X119188Y378480D01*
X120521D01*
X121188Y377814D01*
Y377147D01*
X120521Y376481D01*
X119855D01*
X120521D01*
X121188Y375814D01*
Y375148D01*
X120521Y374481D01*
X119188D01*
X118522Y375148D01*
X125186Y378480D02*
X122520D01*
Y376481D01*
X123853Y377147D01*
X124520D01*
X125186Y376481D01*
Y375148D01*
X124520Y374481D01*
X123187D01*
X122520Y375148D01*
X117089Y384014D02*
X116422Y384680D01*
X115090D01*
X114423Y384014D01*
Y381348D01*
X115090Y380681D01*
X116422D01*
X117089Y381348D01*
X118422Y384014D02*
X119088Y384680D01*
X120421D01*
X121088Y384014D01*
Y383347D01*
X120421Y382681D01*
X119755D01*
X120421D01*
X121088Y382014D01*
Y381348D01*
X120421Y380681D01*
X119088D01*
X118422Y381348D01*
X125086Y384680D02*
X123753Y384014D01*
X122421Y382681D01*
Y381348D01*
X123087Y380681D01*
X124420D01*
X125086Y381348D01*
Y382014D01*
X124420Y382681D01*
X122421D01*
X146518Y366116D02*
X145851Y365449D01*
Y364116D01*
X146518Y363450D01*
X149183D01*
X149850Y364116D01*
Y365449D01*
X149183Y366116D01*
X146518Y367449D02*
X145851Y368115D01*
Y369448D01*
X146518Y370114D01*
X147184D01*
X147851Y369448D01*
Y368782D01*
Y369448D01*
X148517Y370114D01*
X149183D01*
X149850Y369448D01*
Y368115D01*
X149183Y367449D01*
X145851Y371447D02*
Y374113D01*
X146518D01*
X149183Y371447D01*
X149850D01*
X173218Y366116D02*
X172551Y365449D01*
Y364116D01*
X173218Y363450D01*
X175883D01*
X176550Y364116D01*
Y365449D01*
X175883Y366116D01*
X173218Y367449D02*
X172551Y368115D01*
Y369448D01*
X173218Y370114D01*
X173884D01*
X174551Y369448D01*
Y368782D01*
Y369448D01*
X175217Y370114D01*
X175883D01*
X176550Y369448D01*
Y368115D01*
X175883Y367449D01*
X173218Y371447D02*
X172551Y372114D01*
Y373447D01*
X173218Y374113D01*
X173884D01*
X174551Y373447D01*
X175217Y374113D01*
X175883D01*
X176550Y373447D01*
Y372114D01*
X175883Y371447D01*
X175217D01*
X174551Y372114D01*
X173884Y371447D01*
X173218D01*
X174551Y372114D02*
Y373447D01*
X259429Y442141D02*
X258486D01*
X257544Y441199D01*
Y440256D01*
X259429Y438371D01*
X260371D01*
X261314Y439314D01*
Y440256D01*
X264141Y442141D02*
X261314Y444969D01*
X261314Y442141D01*
X263199Y444026D01*
Y445911D02*
Y446854D01*
X264141Y447796D01*
X265084D01*
X266969Y445911D01*
Y444969D01*
X266026Y444026D01*
X265084D01*
X263199Y445911D01*
X153941Y432871D02*
Y433814D01*
X152999Y434756D01*
X152056D01*
X150171Y432871D01*
Y431929D01*
X151114Y430986D01*
X152056D01*
X153941Y428159D02*
X156769Y430986D01*
X153941Y430986D01*
X155826Y429101D01*
X157711D02*
X158654D01*
X159596Y428159D01*
Y427216D01*
X159125Y426745D01*
X158183D01*
X157711Y427216D01*
X158183Y426745D01*
Y425803D01*
X157711Y425331D01*
X156769D01*
X155826Y426274D01*
Y427216D01*
X129602Y400156D02*
Y404155D01*
X131601D01*
X132268Y403488D01*
Y402155D01*
X131601Y401489D01*
X129602D01*
X130935D02*
X132268Y400156D01*
X136266D02*
X133600D01*
X136266Y402822D01*
Y403488D01*
X135600Y404155D01*
X134267D01*
X133600Y403488D01*
X137599Y404155D02*
X140265D01*
Y403488D01*
X137599Y400823D01*
Y400156D01*
X114754Y386725D02*
Y390724D01*
X116753D01*
X117420Y390057D01*
Y388724D01*
X116753Y388058D01*
X114754D01*
X116087D02*
X117420Y386725D01*
X121418D02*
X118752D01*
X121418Y389391D01*
Y390057D01*
X120752Y390724D01*
X119419D01*
X118752Y390057D01*
X122751D02*
X123418Y390724D01*
X124750D01*
X125417Y390057D01*
Y389391D01*
X124750Y388724D01*
X125417Y388058D01*
Y387391D01*
X124750Y386725D01*
X123418D01*
X122751Y387391D01*
Y388058D01*
X123418Y388724D01*
X122751Y389391D01*
Y390057D01*
X123418Y388724D02*
X124750D01*
X143499Y396970D02*
Y400968D01*
X145498D01*
X146165Y400302D01*
Y398969D01*
X145498Y398303D01*
X143499D01*
X144832D02*
X146165Y396970D01*
X150163D02*
X147497D01*
X150163Y399635D01*
Y400302D01*
X149497Y400968D01*
X148164D01*
X147497Y400302D01*
X151496Y397636D02*
X152163Y396970D01*
X153496D01*
X154162Y397636D01*
Y400302D01*
X153496Y400968D01*
X152163D01*
X151496Y400302D01*
Y399635D01*
X152163Y398969D01*
X154162D01*
X157750Y397050D02*
Y401049D01*
X159749D01*
X160416Y400382D01*
Y399049D01*
X159749Y398383D01*
X157750D01*
X159083D02*
X160416Y397050D01*
X161749Y400382D02*
X162415Y401049D01*
X163748D01*
X164415Y400382D01*
Y399716D01*
X163748Y399049D01*
X163082D01*
X163748D01*
X164415Y398383D01*
Y397716D01*
X163748Y397050D01*
X162415D01*
X161749Y397716D01*
X165747Y400382D02*
X166414Y401049D01*
X167747D01*
X168413Y400382D01*
Y397716D01*
X167747Y397050D01*
X166414D01*
X165747Y397716D01*
Y400382D01*
X205667Y452985D02*
X203311Y455342D01*
X202368D01*
X201426Y454399D01*
Y453457D01*
X203782Y451100D01*
X200012Y452985D02*
X199070Y452043D01*
X199541Y452514D01*
X202368Y449687D01*
Y450629D01*
X196242Y449216D02*
X199070Y446388D01*
Y449216D01*
X197185Y447331D01*
X113255Y412845D02*
Y416177D01*
X112589Y416844D01*
X111256D01*
X110589Y416177D01*
Y412845D01*
X109256Y413511D02*
X108590Y412845D01*
X107257D01*
X106591Y413511D01*
Y414178D01*
X107257Y414844D01*
X106591Y415511D01*
Y416177D01*
X107257Y416844D01*
X108590D01*
X109256Y416177D01*
Y415511D01*
X108590Y414844D01*
X109256Y414178D01*
Y413511D01*
X108590Y414844D02*
X107257D01*
X67619Y462950D02*
X66953Y463617D01*
X65620D01*
X64954Y462950D01*
Y460285D01*
X65620Y459618D01*
X66953D01*
X67619Y460285D01*
X71618Y459618D02*
X68952D01*
X71618Y462284D01*
Y462950D01*
X70952Y463617D01*
X69619D01*
X68952Y462950D01*
X72951Y460285D02*
X73617Y459618D01*
X74950D01*
X75617Y460285D01*
Y462950D01*
X74950Y463617D01*
X73617D01*
X72951Y462950D01*
Y462284D01*
X73617Y461618D01*
X75617D01*
X117434Y402441D02*
X118100Y403107D01*
Y404440D01*
X117434Y405106D01*
X114768D01*
X114102Y404440D01*
Y403107D01*
X114768Y402441D01*
X114102Y398442D02*
Y401108D01*
X116767Y398442D01*
X117434D01*
X118100Y399108D01*
Y400441D01*
X117434Y401108D01*
X118100Y394443D02*
Y397109D01*
X116101D01*
X116767Y395776D01*
Y395110D01*
X116101Y394443D01*
X114768D01*
X114102Y395110D01*
Y396442D01*
X114768Y397109D01*
X142323Y462965D02*
X141656Y463632D01*
X140323D01*
X139657Y462965D01*
Y460299D01*
X140323Y459633D01*
X141656D01*
X142323Y460299D01*
X146321Y459633D02*
X143655D01*
X146321Y462299D01*
Y462965D01*
X145655Y463632D01*
X144322D01*
X143655Y462965D01*
X149653Y459633D02*
Y463632D01*
X147654Y461632D01*
X150320D01*
X145920Y127399D02*
X148276Y125043D01*
X149219D01*
X150161Y125986D01*
Y126928D01*
X147805Y129284D01*
X150632Y132112D02*
X150161Y130698D01*
X150161Y128813D01*
X151104Y127871D01*
X152046D01*
X152989Y128813D01*
Y129756D01*
X152517Y130227D01*
X151575D01*
X150161Y128813D01*
X181450Y116249D02*
Y112917D01*
X182116Y112250D01*
X183449D01*
X184116Y112917D01*
Y116249D01*
X185449Y112250D02*
X186782D01*
X186115D01*
Y116249D01*
X185449Y115582D01*
X165967Y415011D02*
Y411679D01*
X166633Y411013D01*
X167966D01*
X168633Y411679D01*
Y415011D01*
X169966Y411013D02*
X171299D01*
X170632D01*
Y415011D01*
X169966Y414345D01*
X175964Y411013D02*
X173298D01*
X175964Y413678D01*
Y414345D01*
X175297Y415011D01*
X173964D01*
X173298Y414345D01*
X204537Y113313D02*
X203870Y113980D01*
X202537D01*
X201871Y113313D01*
Y110648D01*
X202537Y109981D01*
X203870D01*
X204537Y110648D01*
X208535Y113980D02*
X207203Y113313D01*
X205870Y111980D01*
Y110648D01*
X206536Y109981D01*
X207869D01*
X208535Y110648D01*
Y111314D01*
X207869Y111980D01*
X205870D01*
X189942Y86895D02*
X190608Y87561D01*
Y88894D01*
X189942Y89560D01*
X187276D01*
X186610Y88894D01*
Y87561D01*
X187276Y86895D01*
X186610Y85562D02*
Y84229D01*
Y84895D01*
X190608D01*
X189942Y85562D01*
X161182Y96484D02*
X161849Y97151D01*
Y98484D01*
X161182Y99150D01*
X158517D01*
X157850Y98484D01*
Y97151D01*
X158517Y96484D01*
X157850Y92485D02*
Y95151D01*
X160516Y92485D01*
X161182D01*
X161849Y93152D01*
Y94485D01*
X161182Y95151D01*
X174369Y107545D02*
X173427D01*
X172484Y106602D01*
Y105660D01*
X174369Y103775D01*
X175312D01*
X176254Y104717D01*
Y105660D01*
X175312Y108487D02*
Y109430D01*
X176254Y110372D01*
X177197D01*
X177668Y109901D01*
Y108959D01*
X177197Y108487D01*
X177668Y108959D01*
X178610D01*
X179082Y108487D01*
Y107545D01*
X178139Y106602D01*
X177197D01*
X185316Y108982D02*
X184649Y109649D01*
X183317D01*
X182650Y108982D01*
Y106316D01*
X183317Y105650D01*
X184649D01*
X185316Y106316D01*
X188648Y105650D02*
Y109649D01*
X186649Y107649D01*
X189314D01*
X205359Y108591D02*
X204693Y109257D01*
X203360D01*
X202693Y108591D01*
Y105925D01*
X203360Y105259D01*
X204693D01*
X205359Y105925D01*
X206692Y108591D02*
X207359Y109257D01*
X208691D01*
X209358Y108591D01*
Y107924D01*
X208691Y107258D01*
X209358Y106592D01*
Y105925D01*
X208691Y105259D01*
X207359D01*
X206692Y105925D01*
Y106592D01*
X207359Y107258D01*
X206692Y107924D01*
Y108591D01*
X207359Y107258D02*
X208691D01*
X233659Y100335D02*
X234326Y101001D01*
Y102334D01*
X233659Y103001D01*
X230994D01*
X230327Y102334D01*
Y101001D01*
X230994Y100335D01*
Y99002D02*
X230327Y98335D01*
Y97003D01*
X230994Y96336D01*
X233659D01*
X234326Y97003D01*
Y98335D01*
X233659Y99002D01*
X232993D01*
X232327Y98335D01*
Y96336D01*
X198516Y87782D02*
X197849Y88449D01*
X196517D01*
X195850Y87782D01*
Y85116D01*
X196517Y84450D01*
X197849D01*
X198516Y85116D01*
X199849Y84450D02*
X201182D01*
X200515D01*
Y88449D01*
X199849Y87782D01*
X203181D02*
X203847Y88449D01*
X205180D01*
X205847Y87782D01*
Y85116D01*
X205180Y84450D01*
X203847D01*
X203181Y85116D01*
Y87782D01*
X227751Y112208D02*
Y113151D01*
X226809Y114093D01*
X225866D01*
X223981Y112208D01*
Y111266D01*
X224924Y110324D01*
X225866D01*
X226338Y108910D02*
X227280Y107967D01*
X226809Y108438D01*
X229636Y111266D01*
X228694D01*
Y106553D02*
X229636Y105611D01*
X229165Y106082D01*
X231993Y108910D01*
X231050D01*
X239238Y138298D02*
X238296D01*
X237353Y137356D01*
Y136413D01*
X239238Y134528D01*
X240181D01*
X241123Y135471D01*
Y136413D01*
X241595Y141597D02*
X239710Y139712D01*
X241123Y138298D01*
X241595Y139712D01*
X242066Y140183D01*
X243008D01*
X243951Y139241D01*
Y138298D01*
X243008Y137356D01*
X242066D01*
X251389Y132258D02*
X250447D01*
X249504Y131315D01*
Y130373D01*
X251389Y128488D01*
X252332D01*
X253274Y129430D01*
Y130373D01*
X251860Y133671D02*
X253745Y135556D01*
X254217Y135085D01*
Y131315D01*
X254688Y130844D01*
X158252Y145186D02*
Y146128D01*
X157310Y147071D01*
X156367D01*
X154482Y145186D01*
Y144244D01*
X155425Y143301D01*
X156367D01*
X156838Y141887D02*
X157781Y140945D01*
X157310Y141416D01*
X160137Y144244D01*
X159195D01*
X161080Y137646D02*
X159195Y139531D01*
X162965D01*
X163436Y140002D01*
Y140945D01*
X162493Y141887D01*
X161551D01*
X139651Y5716D02*
Y4383D01*
Y5049D01*
X142984D01*
X143650Y4383D01*
Y3716D01*
X142984Y3050D01*
X143650Y7049D02*
X139651D01*
Y9048D01*
X140318Y9714D01*
X141651D01*
X142317Y9048D01*
Y7049D01*
X143650Y11047D02*
Y12380D01*
Y11714D01*
X139651D01*
X140318Y11047D01*
X213651Y5716D02*
Y4383D01*
Y5049D01*
X216984D01*
X217650Y4383D01*
Y3716D01*
X216984Y3050D01*
X217650Y7049D02*
X213651D01*
Y9048D01*
X214318Y9714D01*
X215651D01*
X216317Y9048D01*
Y7049D01*
X217650Y13713D02*
Y11047D01*
X214984Y13713D01*
X214318D01*
X213651Y13047D01*
Y11714D01*
X214318Y11047D01*
X249701Y475866D02*
Y474533D01*
Y475199D01*
X253034D01*
X253700Y474533D01*
Y473866D01*
X253034Y473200D01*
X253700Y477199D02*
X249701D01*
Y479198D01*
X250368Y479865D01*
X251701D01*
X252367Y479198D01*
Y477199D01*
X249701Y481197D02*
Y483863D01*
X250368D01*
X253034Y481197D01*
X253700D01*
X220851Y476016D02*
Y474683D01*
Y475349D01*
X224184D01*
X224850Y474683D01*
Y474016D01*
X224184Y473350D01*
X224850Y477349D02*
X220851D01*
Y479348D01*
X221518Y480015D01*
X222851D01*
X223517Y479348D01*
Y477349D01*
X221518Y481347D02*
X220851Y482014D01*
Y483347D01*
X221518Y484013D01*
X222184D01*
X222851Y483347D01*
X223517Y484013D01*
X224184D01*
X224850Y483347D01*
Y482014D01*
X224184Y481347D01*
X223517D01*
X222851Y482014D01*
X222184Y481347D01*
X221518D01*
X222851Y482014D02*
Y483347D01*
X173492Y89267D02*
X177491D01*
Y87268D01*
X176824Y86601D01*
X175491D01*
X174825Y87268D01*
Y89267D01*
Y87934D02*
X173492Y86601D01*
Y83269D02*
X177491D01*
X175491Y85268D01*
Y82603D01*
X167961Y89278D02*
X171959D01*
Y87279D01*
X171293Y86612D01*
X169960D01*
X169294Y87279D01*
Y89278D01*
Y87945D02*
X167961Y86612D01*
X171293Y85279D02*
X171959Y84613D01*
Y83280D01*
X171293Y82614D01*
X170627D01*
X169960Y83280D01*
X169294Y82614D01*
X168627D01*
X167961Y83280D01*
Y84613D01*
X168627Y85279D01*
X169294D01*
X169960Y84613D01*
X170627Y85279D01*
X171293D01*
X169960Y84613D02*
Y83280D01*
X220408Y89524D02*
X224407D01*
Y87525D01*
X223740Y86858D01*
X222407D01*
X221741Y87525D01*
Y89524D01*
Y88191D02*
X220408Y86858D01*
Y85526D02*
Y84193D01*
Y84859D01*
X224407D01*
X223740Y85526D01*
X220408Y80194D02*
X224407D01*
X222407Y82193D01*
Y79527D01*
X215200Y89491D02*
X219199D01*
Y87492D01*
X218532Y86826D01*
X217199D01*
X216533Y87492D01*
Y89491D01*
Y88158D02*
X215200Y86826D01*
Y85493D02*
Y84160D01*
Y84826D01*
X219199D01*
X218532Y85493D01*
Y82160D02*
X219199Y81494D01*
Y80161D01*
X218532Y79495D01*
X217866D01*
X217199Y80161D01*
X216533Y79495D01*
X215866D01*
X215200Y80161D01*
Y81494D01*
X215866Y82160D01*
X216533D01*
X217199Y81494D01*
X217866Y82160D01*
X218532D01*
X217199Y81494D02*
Y80161D01*
X113252Y453981D02*
Y457979D01*
X115252D01*
X115918Y457313D01*
Y455980D01*
X115252Y455314D01*
X113252D01*
X114585D02*
X115918Y453981D01*
X119917D02*
X117251D01*
X119917Y456646D01*
Y457313D01*
X119250Y457979D01*
X117918D01*
X117251Y457313D01*
X121250Y453981D02*
X122583D01*
X121916D01*
Y457979D01*
X121250Y457313D01*
X81850Y465950D02*
Y469949D01*
X83849D01*
X84516Y469282D01*
Y467949D01*
X83849Y467283D01*
X81850D01*
X83183D02*
X84516Y465950D01*
X88515D02*
X85849D01*
X88515Y468616D01*
Y469282D01*
X87848Y469949D01*
X86515D01*
X85849Y469282D01*
X89847D02*
X90514Y469949D01*
X91847D01*
X92513Y469282D01*
Y468616D01*
X91847Y467949D01*
X91180D01*
X91847D01*
X92513Y467283D01*
Y466616D01*
X91847Y465950D01*
X90514D01*
X89847Y466616D01*
X6050Y452150D02*
Y456149D01*
X8049D01*
X8716Y455482D01*
Y454149D01*
X8049Y453483D01*
X6050D01*
X7383D02*
X8716Y452150D01*
X12715D02*
X10049D01*
X12715Y454816D01*
Y455482D01*
X12048Y456149D01*
X10715D01*
X10049Y455482D01*
X16047Y452150D02*
Y456149D01*
X14047Y454149D01*
X16713D01*
X59550Y451650D02*
Y455649D01*
X61549D01*
X62216Y454982D01*
Y453649D01*
X61549Y452983D01*
X59550D01*
X60883D02*
X62216Y451650D01*
X66215D02*
X63549D01*
X66215Y454316D01*
Y454982D01*
X65548Y455649D01*
X64215D01*
X63549Y454982D01*
X70213Y455649D02*
X67547D01*
Y453649D01*
X68880Y454316D01*
X69547D01*
X70213Y453649D01*
Y452316D01*
X69547Y451650D01*
X68214D01*
X67547Y452316D01*
X139050Y418951D02*
Y422284D01*
X138383Y422950D01*
X137051D01*
X136384Y422284D01*
Y418951D01*
X135051D02*
X132386D01*
Y419618D01*
X135051Y422284D01*
Y422950D01*
X93100Y441201D02*
Y444367D01*
X92467Y445000D01*
X91201D01*
X90567Y444367D01*
Y441201D01*
X89301Y444367D02*
X88668Y445000D01*
X87402D01*
X86769Y444367D01*
Y441834D01*
X87402Y441201D01*
X88668D01*
X89301Y441834D01*
Y442467D01*
X88668Y443101D01*
X86769D01*
X77650Y404597D02*
X74318D01*
X73651Y403930D01*
Y402598D01*
X74318Y401931D01*
X77650D01*
X73651Y400598D02*
Y399265D01*
Y399932D01*
X77650D01*
X76983Y400598D01*
Y397266D02*
X77650Y396599D01*
Y395267D01*
X76983Y394600D01*
X74318D01*
X73651Y395267D01*
Y396599D01*
X74318Y397266D01*
X76983D01*
X102393Y198168D02*
X101060D01*
X101727D01*
Y194836D01*
X101060Y194169D01*
X100394D01*
X99727Y194836D01*
X103726Y194169D02*
Y198168D01*
X105726D01*
X106392Y197502D01*
Y196169D01*
X105726Y195502D01*
X103726D01*
X110391Y194169D02*
X107725D01*
X110391Y196835D01*
Y197502D01*
X109724Y198168D01*
X108391D01*
X107725Y197502D01*
X111724Y193503D02*
X114390D01*
X115722Y198168D02*
Y194169D01*
X117722D01*
X118388Y194836D01*
Y195502D01*
X117722Y196169D01*
X115722D01*
X117722D01*
X118388Y196835D01*
Y197502D01*
X117722Y198168D01*
X115722D01*
X100589Y357183D02*
X99256D01*
X99923D01*
Y353851D01*
X99256Y353185D01*
X98590D01*
X97923Y353851D01*
X101922Y353185D02*
Y357183D01*
X103921D01*
X104588Y356517D01*
Y355184D01*
X103921Y354518D01*
X101922D01*
X105921Y356517D02*
X106587Y357183D01*
X107920D01*
X108586Y356517D01*
Y355851D01*
X107920Y355184D01*
X107254D01*
X107920D01*
X108586Y354518D01*
Y353851D01*
X107920Y353185D01*
X106587D01*
X105921Y353851D01*
X109919Y352518D02*
X112585D01*
X113918Y357183D02*
Y353185D01*
X115917D01*
X116584Y353851D01*
Y354518D01*
X115917Y355184D01*
X113918D01*
X115917D01*
X116584Y355851D01*
Y356517D01*
X115917Y357183D01*
X113918D01*
X245791Y421391D02*
Y422333D01*
X244849Y423276D01*
X243906D01*
X242021Y421391D01*
Y420448D01*
X242964Y419506D01*
X243906D01*
X246734Y420448D02*
X247676D01*
X248619Y419506D01*
Y418563D01*
X248147Y418092D01*
X247205D01*
X246734Y418563D01*
X247205Y418092D01*
Y417149D01*
X246734Y416678D01*
X245791D01*
X244849Y417621D01*
Y418563D01*
X247676Y415736D02*
Y414793D01*
X248619Y413851D01*
X249561D01*
X251446Y415736D01*
Y416678D01*
X250504Y417621D01*
X249561D01*
X249090Y417149D01*
Y416207D01*
X250504Y414793D01*
X223278Y455777D02*
X222336D01*
X221393Y454835D01*
Y453892D01*
X223278Y452007D01*
X224221D01*
X225164Y452950D01*
Y453892D01*
X227991Y455777D02*
X225164Y458605D01*
X225164Y455777D01*
X227048Y457662D01*
X229405Y457191D02*
X230347Y458134D01*
X229876Y457662D01*
X227048Y460490D01*
Y459547D01*
X235457Y442176D02*
X234515D01*
X233572Y441234D01*
Y440291D01*
X235457Y438406D01*
X236400D01*
X237342Y439349D01*
Y440291D01*
X240170Y442176D02*
X237342Y445004D01*
X237342Y442176D01*
X239227Y444061D01*
X243469Y445475D02*
X241584Y443590D01*
Y447360D01*
X241112Y447831D01*
X240170D01*
X239227Y446889D01*
Y445946D01*
X144851Y475316D02*
Y473983D01*
Y474649D01*
X148184D01*
X148850Y473983D01*
Y473316D01*
X148184Y472650D01*
X148850Y476649D02*
X144851D01*
Y478648D01*
X145518Y479315D01*
X146851D01*
X147517Y478648D01*
Y476649D01*
X144851Y483313D02*
Y480647D01*
X146851D01*
X146184Y481980D01*
Y482647D01*
X146851Y483313D01*
X148184D01*
X148850Y482647D01*
Y481314D01*
X148184Y480647D01*
X67351Y474816D02*
Y473483D01*
Y474149D01*
X70684D01*
X71350Y473483D01*
Y472816D01*
X70684Y472150D01*
X71350Y476149D02*
X67351D01*
Y478148D01*
X68018Y478815D01*
X69351D01*
X70017Y478148D01*
Y476149D01*
X67351Y482813D02*
X68018Y481480D01*
X69351Y480147D01*
X70684D01*
X71350Y480814D01*
Y482147D01*
X70684Y482813D01*
X70017D01*
X69351Y482147D01*
Y480147D01*
X6050Y461250D02*
Y465249D01*
X8049D01*
X8716Y464582D01*
Y463249D01*
X8049Y462583D01*
X6050D01*
X7383D02*
X8716Y461250D01*
X12715D02*
X10049D01*
X12715Y463916D01*
Y464582D01*
X12048Y465249D01*
X10715D01*
X10049Y464582D01*
X16713Y465249D02*
X15380Y464582D01*
X14047Y463249D01*
Y461916D01*
X14714Y461250D01*
X16047D01*
X16713Y461916D01*
Y462583D01*
X16047Y463249D01*
X14047D01*
X241177Y414244D02*
X244004Y417072D01*
X245418Y415658D01*
Y414715D01*
X244475Y413773D01*
X243533D01*
X242119Y415187D01*
X243062Y414244D02*
Y412359D01*
X246360Y413773D02*
X247303D01*
X248245Y412830D01*
Y411888D01*
X247774Y411417D01*
X246832D01*
X246360Y411888D01*
X246832Y411417D01*
Y410474D01*
X246360Y410003D01*
X245418D01*
X244475Y410945D01*
Y411888D01*
X246832Y408589D02*
X247774Y407647D01*
X247303Y408118D01*
X250130Y410945D01*
X249188D01*
X223341Y437208D02*
X226169Y440036D01*
X227583Y438622D01*
Y437679D01*
X226640Y436737D01*
X225698D01*
X224284Y438151D01*
X225226Y437208D02*
Y435323D01*
X228525Y436737D02*
X229468D01*
X230410Y435794D01*
Y434852D01*
X229939Y434381D01*
X228996D01*
X228525Y434852D01*
X228996Y434381D01*
Y433438D01*
X228525Y432967D01*
X227583D01*
X226640Y433910D01*
Y434852D01*
X230881Y429668D02*
X228996Y431553D01*
X232766D01*
X233238Y432024D01*
Y432967D01*
X232295Y433910D01*
X231353D01*
X253300Y444300D02*
X250472Y447127D01*
X251886Y448541D01*
X252829D01*
X253771Y447599D01*
Y446656D01*
X252358Y445243D01*
X253300Y446185D02*
X255185D01*
X253771Y449484D02*
Y450426D01*
X254714Y451369D01*
X255656D01*
X256128Y450898D01*
Y449955D01*
X255656Y449484D01*
X256128Y449955D01*
X257070D01*
X257541Y449484D01*
Y448541D01*
X256599Y447599D01*
X255656D01*
X256599Y452311D02*
Y453254D01*
X257541Y454196D01*
X258484D01*
X258955Y453725D01*
Y452782D01*
X258484Y452311D01*
X258955Y452782D01*
X259897D01*
X260369Y452311D01*
Y451369D01*
X259426Y450426D01*
X258484D01*
X202141Y440554D02*
X204969Y443382D01*
X206383Y441968D01*
Y441026D01*
X205440Y440083D01*
X204498D01*
X203084Y441497D01*
X204026Y440554D02*
Y438669D01*
X207325Y440083D02*
X208268D01*
X209210Y439141D01*
Y438198D01*
X208739Y437727D01*
X207796D01*
X207325Y438198D01*
X207796Y437727D01*
Y436784D01*
X207325Y436313D01*
X206383D01*
X205440Y437256D01*
Y438198D01*
X209210Y433486D02*
X212038Y436313D01*
X209210Y436313D01*
X211095Y434428D01*
X174888Y416737D02*
X172060Y419565D01*
X173474Y420979D01*
X174417D01*
X175359Y420036D01*
Y419094D01*
X173945Y417680D01*
X174888Y418622D02*
X176773D01*
X175359Y421921D02*
Y422864D01*
X176302Y423806D01*
X177244D01*
X177715Y423335D01*
Y422392D01*
X177244Y421921D01*
X177715Y422392D01*
X178658D01*
X179129Y421921D01*
Y420979D01*
X178187Y420036D01*
X177244D01*
X179600Y427105D02*
X179129Y425691D01*
X179129Y423806D01*
X180072Y422864D01*
X181014D01*
X181957Y423806D01*
Y424749D01*
X181485Y425220D01*
X180543D01*
X179129Y423806D01*
X159700Y448400D02*
X162528Y451228D01*
X163941Y449814D01*
Y448871D01*
X162999Y447929D01*
X162056D01*
X160643Y449342D01*
X161585Y448400D02*
Y446515D01*
X164884Y447929D02*
X165826D01*
X166769Y446986D01*
Y446044D01*
X166297Y445573D01*
X165355D01*
X164884Y446044D01*
X165355Y445573D01*
Y444630D01*
X164884Y444159D01*
X163941D01*
X162999Y445101D01*
Y446044D01*
X168183Y445573D02*
X170068Y443687D01*
X169596Y443216D01*
X165826Y443216D01*
X165355Y442745D01*
X195888Y428384D02*
X193060Y431211D01*
X194474Y432625D01*
X195417D01*
X196359Y431682D01*
Y430740D01*
X194945Y429326D01*
X195888Y430269D02*
X197773D01*
X196359Y433567D02*
Y434510D01*
X197302Y435452D01*
X198244D01*
X198715Y434981D01*
Y434039D01*
X198244Y433567D01*
X198715Y434039D01*
X199658D01*
X200129Y433567D01*
Y432625D01*
X199187Y431682D01*
X198244D01*
X199187Y436395D02*
Y437337D01*
X200129Y438280D01*
X201072D01*
X201543Y437809D01*
Y436866D01*
X202485D01*
X202957Y436395D01*
Y435452D01*
X202014Y434510D01*
X201072D01*
X200600Y434981D01*
Y435924D01*
X199658D01*
X199187Y436395D01*
X200600Y435924D02*
X201543Y436866D01*
X157500Y414300D02*
X154673Y417128D01*
X156086Y418541D01*
X157029D01*
X157971Y417599D01*
Y416656D01*
X156558Y415242D01*
X157500Y416185D02*
X159385D01*
X157971Y419484D02*
Y420426D01*
X158914Y421369D01*
X159856D01*
X160327Y420897D01*
Y419955D01*
X159856Y419484D01*
X160327Y419955D01*
X161270D01*
X161741Y419484D01*
Y418541D01*
X160799Y417599D01*
X159856D01*
X162684Y420426D02*
X163626D01*
X164569Y421369D01*
Y422311D01*
X162684Y424196D01*
X161741D01*
X160799Y423254D01*
Y422311D01*
X161270Y421840D01*
X162213D01*
X163626Y423254D01*
X249000Y420700D02*
X251828Y423527D01*
X253241Y422114D01*
Y421171D01*
X252299Y420229D01*
X251356D01*
X249942Y421642D01*
X250885Y420700D02*
Y418815D01*
X254184Y420229D02*
X255126D01*
X256069Y419286D01*
Y418344D01*
X255597Y417872D01*
X254655D01*
X254184Y418344D01*
X254655Y417872D01*
Y416930D01*
X254184Y416459D01*
X253241D01*
X252299Y417401D01*
Y418344D01*
X259367Y415987D02*
X257483Y417872D01*
X256069Y416459D01*
X257483Y415987D01*
X257954Y415516D01*
Y414574D01*
X257011Y413631D01*
X256069D01*
X255126Y414574D01*
Y415516D01*
X5665Y476439D02*
X4332D01*
X4998D01*
Y473106D01*
X4332Y472440D01*
X3665D01*
X2999Y473106D01*
X6998Y472440D02*
Y476439D01*
X8997D01*
X9663Y475772D01*
Y474439D01*
X8997Y473773D01*
X6998D01*
X12996Y472440D02*
Y476439D01*
X10996Y474439D01*
X13662D01*
X128009Y54223D02*
X125182Y57051D01*
X126595Y58464D01*
X127538D01*
X128480Y57522D01*
Y56580D01*
X127067Y55166D01*
X128009Y56108D02*
X129894D01*
Y61763D02*
X128009Y59878D01*
X129423Y58464D01*
X129894Y59878D01*
X130365Y60350D01*
X131308D01*
X132250Y59407D01*
Y58464D01*
X131308Y57522D01*
X130365D01*
X135549Y61763D02*
X133664Y59878D01*
Y63648D01*
X133193Y64119D01*
X132250D01*
X131308Y63177D01*
Y62234D01*
X132509Y50523D02*
X129682Y53351D01*
X131095Y54764D01*
X132038D01*
X132980Y53822D01*
Y52880D01*
X131567Y51466D01*
X132509Y52408D02*
X134394D01*
Y58063D02*
X132509Y56178D01*
X133923Y54764D01*
X134394Y56178D01*
X134865Y56650D01*
X135808D01*
X136750Y55707D01*
Y54764D01*
X135808Y53822D01*
X134865D01*
X135808Y58534D02*
Y59477D01*
X136750Y60419D01*
X137693D01*
X138164Y59948D01*
Y59006D01*
X137693Y58534D01*
X138164Y59006D01*
X139107D01*
X139578Y58534D01*
Y57592D01*
X138635Y56650D01*
X137693D01*
X136140Y90501D02*
X140138D01*
Y88502D01*
X139472Y87835D01*
X138139D01*
X137473Y88502D01*
Y90501D01*
Y89168D02*
X136140Y87835D01*
X140138Y83837D02*
Y86502D01*
X138139D01*
X138806Y85170D01*
Y84503D01*
X138139Y83837D01*
X136806D01*
X136140Y84503D01*
Y85836D01*
X136806Y86502D01*
X136140Y80504D02*
X140138D01*
X138139Y82504D01*
Y79838D01*
X138699Y96640D02*
Y100638D01*
X140698D01*
X141365Y99972D01*
Y98639D01*
X140698Y97973D01*
X138699D01*
X140032D02*
X141365Y96640D01*
X145363Y100638D02*
X142698D01*
Y98639D01*
X144030Y99306D01*
X144697D01*
X145363Y98639D01*
Y97306D01*
X144697Y96640D01*
X143364D01*
X142698Y97306D01*
X149362Y100638D02*
X146696D01*
Y98639D01*
X148029Y99306D01*
X148696D01*
X149362Y98639D01*
Y97306D01*
X148696Y96640D01*
X147363D01*
X146696Y97306D01*
X189740Y69901D02*
X193738D01*
Y67902D01*
X193072Y67235D01*
X191739D01*
X191073Y67902D01*
Y69901D01*
Y68568D02*
X189740Y67235D01*
X193738Y63237D02*
Y65903D01*
X191739D01*
X192406Y64570D01*
Y63903D01*
X191739Y63237D01*
X190406D01*
X189740Y63903D01*
Y65236D01*
X190406Y65903D01*
X193738Y59238D02*
X193072Y60571D01*
X191739Y61904D01*
X190406D01*
X189740Y61237D01*
Y59904D01*
X190406Y59238D01*
X191073D01*
X191739Y59904D01*
Y61904D01*
X195440Y69501D02*
X199439D01*
Y67502D01*
X198772Y66835D01*
X197439D01*
X196773Y67502D01*
Y69501D01*
Y68168D02*
X195440Y66835D01*
X199439Y62837D02*
Y65503D01*
X197439D01*
X198106Y64170D01*
Y63503D01*
X197439Y62837D01*
X196106D01*
X195440Y63503D01*
Y64836D01*
X196106Y65503D01*
X199439Y61504D02*
Y58838D01*
X198772D01*
X196106Y61504D01*
X195440D01*
X156274Y103015D02*
X155331D01*
X154389Y102072D01*
Y101130D01*
X156274Y99245D01*
X157216D01*
X158159Y100187D01*
Y101130D01*
X159573Y101601D02*
X160515Y102543D01*
X160044Y102072D01*
X157216Y104900D01*
Y103957D01*
X159573Y106314D02*
Y107256D01*
X160515Y108198D01*
X161458D01*
X163343Y106314D01*
Y105371D01*
X162400Y104429D01*
X161458D01*
X159573Y106314D01*
X163814Y111497D02*
X163343Y110083D01*
X163343Y108198D01*
X164285Y107256D01*
X165228D01*
X166170Y108198D01*
Y109141D01*
X165699Y109612D01*
X164756D01*
X163343Y108198D01*
X176531Y75635D02*
X177198Y76302D01*
Y77635D01*
X176531Y78301D01*
X173865D01*
X173199Y77635D01*
Y76302D01*
X173865Y75635D01*
X173199Y74303D02*
Y72970D01*
Y73636D01*
X177198D01*
X176531Y74303D01*
Y70970D02*
X177198Y70304D01*
Y68971D01*
X176531Y68304D01*
X173865D01*
X173199Y68971D01*
Y70304D01*
X173865Y70970D01*
X176531D01*
X177198Y66971D02*
Y64306D01*
X176531D01*
X173865Y66971D01*
X173199D01*
X171472Y75594D02*
X172139Y76261D01*
Y77594D01*
X171472Y78260D01*
X168806D01*
X168140Y77594D01*
Y76261D01*
X168806Y75594D01*
X168140Y74261D02*
Y72929D01*
Y73595D01*
X172139D01*
X171472Y74261D01*
Y70929D02*
X172139Y70263D01*
Y68930D01*
X171472Y68264D01*
X168806D01*
X168140Y68930D01*
Y70263D01*
X168806Y70929D01*
X171472D01*
Y66931D02*
X172139Y66264D01*
Y64931D01*
X171472Y64265D01*
X170806D01*
X170139Y64931D01*
X169473Y64265D01*
X168806D01*
X168140Y64931D01*
Y66264D01*
X168806Y66931D01*
X169473D01*
X170139Y66264D01*
X170806Y66931D01*
X171472D01*
X170139Y66264D02*
Y64931D01*
X224572Y74735D02*
X225238Y75402D01*
Y76735D01*
X224572Y77401D01*
X221906D01*
X221240Y76735D01*
Y75402D01*
X221906Y74735D01*
X221240Y73403D02*
Y72070D01*
Y72736D01*
X225238D01*
X224572Y73403D01*
Y70070D02*
X225238Y69404D01*
Y68071D01*
X224572Y67404D01*
X221906D01*
X221240Y68071D01*
Y69404D01*
X221906Y70070D01*
X224572D01*
X221906Y66071D02*
X221240Y65405D01*
Y64072D01*
X221906Y63406D01*
X224572D01*
X225238Y64072D01*
Y65405D01*
X224572Y66071D01*
X223906D01*
X223239Y65405D01*
Y63406D01*
X219272Y74835D02*
X219938Y75502D01*
Y76835D01*
X219272Y77501D01*
X216606D01*
X215940Y76835D01*
Y75502D01*
X216606Y74835D01*
X215940Y73502D02*
Y72170D01*
Y72836D01*
X219938D01*
X219272Y73502D01*
X215940Y70170D02*
Y68837D01*
Y69504D01*
X219938D01*
X219272Y70170D01*
Y66838D02*
X219938Y66171D01*
Y64839D01*
X219272Y64172D01*
X216606D01*
X215940Y64839D01*
Y66171D01*
X216606Y66838D01*
X219272D01*
X378515Y57389D02*
X377182D01*
X377848D01*
Y54056D01*
X377182Y53390D01*
X376515D01*
X375849Y54056D01*
X379848Y53390D02*
X381180D01*
X380514D01*
Y57389D01*
X379848Y56722D01*
X383180Y53390D02*
X384513D01*
X383846D01*
Y57389D01*
X383180Y56722D01*
X378515Y155888D02*
X377182D01*
X377848D01*
Y152556D01*
X377182Y151890D01*
X376515D01*
X375849Y152556D01*
X379848Y151890D02*
X381180D01*
X380514D01*
Y155888D01*
X379848Y155222D01*
X385846Y151890D02*
X383180D01*
X385846Y154556D01*
Y155222D01*
X385179Y155888D01*
X383846D01*
X383180Y155222D01*
X378515Y254289D02*
X377182D01*
X377848D01*
Y250956D01*
X377182Y250290D01*
X376515D01*
X375849Y250956D01*
X379848Y250290D02*
X381180D01*
X380514D01*
Y254289D01*
X379848Y253622D01*
X383180D02*
X383846Y254289D01*
X385179D01*
X385846Y253622D01*
Y252956D01*
X385179Y252289D01*
X384513D01*
X385179D01*
X385846Y251623D01*
Y250956D01*
X385179Y250290D01*
X383846D01*
X383180Y250956D01*
X378515Y352689D02*
X377182D01*
X377848D01*
Y349356D01*
X377182Y348690D01*
X376515D01*
X375849Y349356D01*
X379848Y348690D02*
X381180D01*
X380514D01*
Y352689D01*
X379848Y352022D01*
X385179Y348690D02*
Y352689D01*
X383180Y350689D01*
X385846D01*
X378515Y451088D02*
X377182D01*
X377848D01*
Y447756D01*
X377182Y447090D01*
X376515D01*
X375849Y447756D01*
X379848Y447090D02*
X381180D01*
X380514D01*
Y451088D01*
X379848Y450422D01*
X385846Y451088D02*
X383180D01*
Y449089D01*
X384513Y449756D01*
X385179D01*
X385846Y449089D01*
Y447756D01*
X385179Y447090D01*
X383846D01*
X383180Y447756D01*
X378666Y496999D02*
X377333D01*
X377999D01*
Y493666D01*
X377333Y493000D01*
X376666D01*
X376000Y493666D01*
X379999Y493000D02*
X381332D01*
X380665D01*
Y496999D01*
X379999Y496332D01*
X385997Y496999D02*
X384664Y496332D01*
X383331Y494999D01*
Y493666D01*
X383997Y493000D01*
X385330D01*
X385997Y493666D01*
Y494333D01*
X385330Y494999D01*
X383331D01*
X358666Y124332D02*
X357999Y124999D01*
X356666D01*
X356000Y124332D01*
Y121667D01*
X356666Y121000D01*
X357999D01*
X358666Y121667D01*
X359999Y121000D02*
X361332D01*
X360665D01*
Y124999D01*
X359999Y124332D01*
X363331Y121000D02*
X364664D01*
X363997D01*
Y124999D01*
X363331Y124332D01*
X366663Y121000D02*
X367996D01*
X367330D01*
Y124999D01*
X366663Y124332D01*
X357666Y88332D02*
X356999Y88999D01*
X355666D01*
X355000Y88332D01*
Y85666D01*
X355666Y85000D01*
X356999D01*
X357666Y85666D01*
X358999Y85000D02*
X360332D01*
X359665D01*
Y88999D01*
X358999Y88332D01*
X362331Y85000D02*
X363664D01*
X362997D01*
Y88999D01*
X362331Y88332D01*
X368329Y85000D02*
X365663D01*
X368329Y87666D01*
Y88332D01*
X367663Y88999D01*
X366330D01*
X365663Y88332D01*
X341666Y124332D02*
X340999Y124999D01*
X339666D01*
X339000Y124332D01*
Y121667D01*
X339666Y121000D01*
X340999D01*
X341666Y121667D01*
X342999Y121000D02*
X344332D01*
X343665D01*
Y124999D01*
X342999Y124332D01*
X346331Y121000D02*
X347664D01*
X346997D01*
Y124999D01*
X346331Y124332D01*
X349663D02*
X350330Y124999D01*
X351663D01*
X352329Y124332D01*
Y123666D01*
X351663Y122999D01*
X350996D01*
X351663D01*
X352329Y122333D01*
Y121667D01*
X351663Y121000D01*
X350330D01*
X349663Y121667D01*
X341666Y88332D02*
X340999Y88999D01*
X339666D01*
X339000Y88332D01*
Y85666D01*
X339666Y85000D01*
X340999D01*
X341666Y85666D01*
X342999Y85000D02*
X344332D01*
X343665D01*
Y88999D01*
X342999Y88332D01*
X346331Y85000D02*
X347664D01*
X346997D01*
Y88999D01*
X346331Y88332D01*
X351663Y85000D02*
Y88999D01*
X349663Y86999D01*
X352329D01*
X325666Y124332D02*
X324999Y124999D01*
X323666D01*
X323000Y124332D01*
Y121667D01*
X323666Y121000D01*
X324999D01*
X325666Y121667D01*
X326999Y121000D02*
X328332D01*
X327665D01*
Y124999D01*
X326999Y124332D01*
X330331Y121000D02*
X331664D01*
X330997D01*
Y124999D01*
X330331Y124332D01*
X336329Y124999D02*
X333663D01*
Y122999D01*
X334996Y123666D01*
X335663D01*
X336329Y122999D01*
Y121667D01*
X335663Y121000D01*
X334330D01*
X333663Y121667D01*
X325666Y88332D02*
X324999Y88999D01*
X323666D01*
X323000Y88332D01*
Y85666D01*
X323666Y85000D01*
X324999D01*
X325666Y85666D01*
X326999Y85000D02*
X328332D01*
X327665D01*
Y88999D01*
X326999Y88332D01*
X330331Y85000D02*
X331664D01*
X330997D01*
Y88999D01*
X330331Y88332D01*
X336329Y88999D02*
X334996Y88332D01*
X333663Y86999D01*
Y85666D01*
X334330Y85000D01*
X335663D01*
X336329Y85666D01*
Y86333D01*
X335663Y86999D01*
X333663D01*
X309666Y124332D02*
X308999Y124999D01*
X307666D01*
X307000Y124332D01*
Y121667D01*
X307666Y121000D01*
X308999D01*
X309666Y121667D01*
X310999Y121000D02*
X312332D01*
X311665D01*
Y124999D01*
X310999Y124332D01*
X314331Y121000D02*
X315664D01*
X314997D01*
Y124999D01*
X314331Y124332D01*
X317663Y124999D02*
X320329D01*
Y124332D01*
X317663Y121667D01*
Y121000D01*
X309666Y88332D02*
X308999Y88999D01*
X307666D01*
X307000Y88332D01*
Y85666D01*
X307666Y85000D01*
X308999D01*
X309666Y85666D01*
X310999Y85000D02*
X312332D01*
X311665D01*
Y88999D01*
X310999Y88332D01*
X314331Y85000D02*
X315664D01*
X314997D01*
Y88999D01*
X314331Y88332D01*
X317663D02*
X318330Y88999D01*
X319663D01*
X320329Y88332D01*
Y87666D01*
X319663Y86999D01*
X320329Y86333D01*
Y85666D01*
X319663Y85000D01*
X318330D01*
X317663Y85666D01*
Y86333D01*
X318330Y86999D01*
X317663Y87666D01*
Y88332D01*
X318330Y86999D02*
X319663D01*
X309666Y231332D02*
X308999Y231999D01*
X307666D01*
X307000Y231332D01*
Y228666D01*
X307666Y228000D01*
X308999D01*
X309666Y228666D01*
X310999Y228000D02*
X312332D01*
X311665D01*
Y231999D01*
X310999Y231332D01*
X314331Y228000D02*
X315664D01*
X314997D01*
Y231999D01*
X314331Y231332D01*
X317663Y228666D02*
X318330Y228000D01*
X319663D01*
X320329Y228666D01*
Y231332D01*
X319663Y231999D01*
X318330D01*
X317663Y231332D01*
Y230666D01*
X318330Y229999D01*
X320329D01*
X309666Y267332D02*
X308999Y267999D01*
X307666D01*
X307000Y267332D01*
Y264666D01*
X307666Y264000D01*
X308999D01*
X309666Y264666D01*
X310999Y264000D02*
X312332D01*
X311665D01*
Y267999D01*
X310999Y267332D01*
X316997Y264000D02*
X314331D01*
X316997Y266666D01*
Y267332D01*
X316330Y267999D01*
X314997D01*
X314331Y267332D01*
X318330D02*
X318996Y267999D01*
X320329D01*
X320995Y267332D01*
Y264666D01*
X320329Y264000D01*
X318996D01*
X318330Y264666D01*
Y267332D01*
X326666Y231332D02*
X325999Y231999D01*
X324666D01*
X324000Y231332D01*
Y228666D01*
X324666Y228000D01*
X325999D01*
X326666Y228666D01*
X327999Y228000D02*
X329332D01*
X328665D01*
Y231999D01*
X327999Y231332D01*
X333997Y228000D02*
X331331D01*
X333997Y230666D01*
Y231332D01*
X333330Y231999D01*
X331997D01*
X331331Y231332D01*
X335330Y228000D02*
X336663D01*
X335996D01*
Y231999D01*
X335330Y231332D01*
X326666Y267332D02*
X325999Y267999D01*
X324666D01*
X324000Y267332D01*
Y264666D01*
X324666Y264000D01*
X325999D01*
X326666Y264666D01*
X327999Y264000D02*
X329332D01*
X328665D01*
Y267999D01*
X327999Y267332D01*
X333997Y264000D02*
X331331D01*
X333997Y266666D01*
Y267332D01*
X333330Y267999D01*
X331997D01*
X331331Y267332D01*
X337996Y264000D02*
X335330D01*
X337996Y266666D01*
Y267332D01*
X337329Y267999D01*
X335996D01*
X335330Y267332D01*
X342666Y231332D02*
X341999Y231999D01*
X340666D01*
X340000Y231332D01*
Y228666D01*
X340666Y228000D01*
X341999D01*
X342666Y228666D01*
X343999Y228000D02*
X345332D01*
X344665D01*
Y231999D01*
X343999Y231332D01*
X349997Y228000D02*
X347331D01*
X349997Y230666D01*
Y231332D01*
X349330Y231999D01*
X347997D01*
X347331Y231332D01*
X351330D02*
X351996Y231999D01*
X353329D01*
X353995Y231332D01*
Y230666D01*
X353329Y229999D01*
X352663D01*
X353329D01*
X353995Y229333D01*
Y228666D01*
X353329Y228000D01*
X351996D01*
X351330Y228666D01*
X342666Y267332D02*
X341999Y267999D01*
X340666D01*
X340000Y267332D01*
Y264666D01*
X340666Y264000D01*
X341999D01*
X342666Y264666D01*
X343999Y264000D02*
X345332D01*
X344665D01*
Y267999D01*
X343999Y267332D01*
X349997Y264000D02*
X347331D01*
X349997Y266666D01*
Y267332D01*
X349330Y267999D01*
X347997D01*
X347331Y267332D01*
X353329Y264000D02*
Y267999D01*
X351330Y265999D01*
X353995D01*
X358666Y231332D02*
X357999Y231999D01*
X356666D01*
X356000Y231332D01*
Y228666D01*
X356666Y228000D01*
X357999D01*
X358666Y228666D01*
X359999Y228000D02*
X361332D01*
X360665D01*
Y231999D01*
X359999Y231332D01*
X365997Y228000D02*
X363331D01*
X365997Y230666D01*
Y231332D01*
X365330Y231999D01*
X363997D01*
X363331Y231332D01*
X369995Y231999D02*
X367330D01*
Y229999D01*
X368663Y230666D01*
X369329D01*
X369995Y229999D01*
Y228666D01*
X369329Y228000D01*
X367996D01*
X367330Y228666D01*
X358666Y267332D02*
X357999Y267999D01*
X356666D01*
X356000Y267332D01*
Y264666D01*
X356666Y264000D01*
X357999D01*
X358666Y264666D01*
X359999Y264000D02*
X361332D01*
X360665D01*
Y267999D01*
X359999Y267332D01*
X365997Y264000D02*
X363331D01*
X365997Y266666D01*
Y267332D01*
X365330Y267999D01*
X363997D01*
X363331Y267332D01*
X369995Y267999D02*
X368663Y267332D01*
X367330Y265999D01*
Y264666D01*
X367996Y264000D01*
X369329D01*
X369995Y264666D01*
Y265333D01*
X369329Y265999D01*
X367330D01*
X307666Y74999D02*
X306333D01*
X306999D01*
Y71666D01*
X306333Y71000D01*
X305666D01*
X305000Y71666D01*
X308999Y71000D02*
Y74999D01*
X310998D01*
X311665Y74332D01*
Y72999D01*
X310998Y72333D01*
X308999D01*
X312997Y71666D02*
X313664Y71000D01*
X314997D01*
X315663Y71666D01*
Y74332D01*
X314997Y74999D01*
X313664D01*
X312997Y74332D01*
Y73666D01*
X313664Y72999D01*
X315663D01*
X362666Y281999D02*
X361333D01*
X361999D01*
Y278666D01*
X361333Y278000D01*
X360666D01*
X360000Y278666D01*
X363999Y278000D02*
Y281999D01*
X365998D01*
X366665Y281332D01*
Y279999D01*
X365998Y279333D01*
X363999D01*
X367997Y278000D02*
X369330D01*
X368664D01*
Y281999D01*
X367997Y281332D01*
X371330D02*
X371996Y281999D01*
X373329D01*
X373995Y281332D01*
Y278666D01*
X373329Y278000D01*
X371996D01*
X371330Y278666D01*
Y281332D01*
X364000Y110000D02*
X367999D01*
Y108001D01*
X367332Y107334D01*
X365999D01*
X365333Y108001D01*
Y110000D01*
Y108667D02*
X364000Y107334D01*
X367999Y103335D02*
X367332Y104668D01*
X365999Y106001D01*
X364666D01*
X364000Y105335D01*
Y104002D01*
X364666Y103335D01*
X365333D01*
X365999Y104002D01*
Y106001D01*
X364000Y99337D02*
Y102003D01*
X366666Y99337D01*
X367332D01*
X367999Y100003D01*
Y101336D01*
X367332Y102003D01*
X348000Y110000D02*
X351999D01*
Y108001D01*
X351332Y107334D01*
X349999D01*
X349333Y108001D01*
Y110000D01*
Y108667D02*
X348000Y107334D01*
X351999Y103335D02*
X351332Y104668D01*
X349999Y106001D01*
X348666D01*
X348000Y105335D01*
Y104002D01*
X348666Y103335D01*
X349333D01*
X349999Y104002D01*
Y106001D01*
X351332Y102003D02*
X351999Y101336D01*
Y100003D01*
X351332Y99337D01*
X350666D01*
X349999Y100003D01*
Y100670D01*
Y100003D01*
X349333Y99337D01*
X348666D01*
X348000Y100003D01*
Y101336D01*
X348666Y102003D01*
X331000Y110000D02*
X334999D01*
Y108001D01*
X334332Y107334D01*
X332999D01*
X332333Y108001D01*
Y110000D01*
Y108667D02*
X331000Y107334D01*
X334999Y103335D02*
X334332Y104668D01*
X332999Y106001D01*
X331666D01*
X331000Y105335D01*
Y104002D01*
X331666Y103335D01*
X332333D01*
X332999Y104002D01*
Y106001D01*
X331000Y100003D02*
X334999D01*
X332999Y102003D01*
Y99337D01*
X315000Y110000D02*
X318999D01*
Y108001D01*
X318332Y107334D01*
X316999D01*
X316333Y108001D01*
Y110000D01*
Y108667D02*
X315000Y107334D01*
X318999Y103335D02*
X318332Y104668D01*
X316999Y106001D01*
X315666D01*
X315000Y105335D01*
Y104002D01*
X315666Y103335D01*
X316333D01*
X316999Y104002D01*
Y106001D01*
X318999Y99337D02*
Y102003D01*
X316999D01*
X317666Y100670D01*
Y100003D01*
X316999Y99337D01*
X315666D01*
X315000Y100003D01*
Y101336D01*
X315666Y102003D01*
X308000Y254000D02*
X311999D01*
Y252001D01*
X311332Y251334D01*
X309999D01*
X309333Y252001D01*
Y254000D01*
Y252667D02*
X308000Y251334D01*
X311999Y247336D02*
X311332Y248668D01*
X309999Y250001D01*
X308666D01*
X308000Y249335D01*
Y248002D01*
X308666Y247336D01*
X309333D01*
X309999Y248002D01*
Y250001D01*
X311999Y243337D02*
X311332Y244670D01*
X309999Y246003D01*
X308666D01*
X308000Y245336D01*
Y244003D01*
X308666Y243337D01*
X309333D01*
X309999Y244003D01*
Y246003D01*
X324000Y254000D02*
X327999D01*
Y252001D01*
X327332Y251334D01*
X325999D01*
X325333Y252001D01*
Y254000D01*
Y252667D02*
X324000Y251334D01*
X327999Y247336D02*
X327332Y248668D01*
X325999Y250001D01*
X324666D01*
X324000Y249335D01*
Y248002D01*
X324666Y247336D01*
X325333D01*
X325999Y248002D01*
Y250001D01*
X327999Y246003D02*
Y243337D01*
X327332D01*
X324666Y246003D01*
X324000D01*
X341000Y254000D02*
X344999D01*
Y252001D01*
X344332Y251334D01*
X342999D01*
X342333Y252001D01*
Y254000D01*
Y252667D02*
X341000Y251334D01*
X344999Y247336D02*
X344332Y248668D01*
X342999Y250001D01*
X341666D01*
X341000Y249335D01*
Y248002D01*
X341666Y247336D01*
X342333D01*
X342999Y248002D01*
Y250001D01*
X344332Y246003D02*
X344999Y245336D01*
Y244003D01*
X344332Y243337D01*
X343666D01*
X342999Y244003D01*
X342333Y243337D01*
X341666D01*
X341000Y244003D01*
Y245336D01*
X341666Y246003D01*
X342333D01*
X342999Y245336D01*
X343666Y246003D01*
X344332D01*
X342999Y245336D02*
Y244003D01*
X357000Y254000D02*
X360999D01*
Y252001D01*
X360332Y251334D01*
X358999D01*
X358333Y252001D01*
Y254000D01*
Y252667D02*
X357000Y251334D01*
X360999Y247336D02*
X360332Y248668D01*
X358999Y250001D01*
X357666D01*
X357000Y249335D01*
Y248002D01*
X357666Y247336D01*
X358333D01*
X358999Y248002D01*
Y250001D01*
X357666Y246003D02*
X357000Y245336D01*
Y244003D01*
X357666Y243337D01*
X360332D01*
X360999Y244003D01*
Y245336D01*
X360332Y246003D01*
X359666D01*
X358999Y245336D01*
Y243337D01*
X309115Y198788D02*
X307782D01*
X308448D01*
Y195456D01*
X307782Y194790D01*
X307115D01*
X306449Y195456D01*
X310448Y194790D02*
Y198788D01*
X312447D01*
X313113Y198122D01*
Y196789D01*
X312447Y196123D01*
X310448D01*
X314446Y194790D02*
X315779D01*
X315113D01*
Y198788D01*
X314446Y198122D01*
X317778Y198788D02*
X320444D01*
Y198122D01*
X317778Y195456D01*
Y194790D01*
X339115Y198788D02*
X337782D01*
X338448D01*
Y195456D01*
X337782Y194790D01*
X337115D01*
X336449Y195456D01*
X340447Y194790D02*
Y198788D01*
X342447D01*
X343113Y198122D01*
Y196789D01*
X342447Y196123D01*
X340447D01*
X344446Y194790D02*
X345779D01*
X345113D01*
Y198788D01*
X344446Y198122D01*
X347779D02*
X348445Y198788D01*
X349778D01*
X350444Y198122D01*
Y197456D01*
X349778Y196789D01*
X350444Y196123D01*
Y195456D01*
X349778Y194790D01*
X348445D01*
X347779Y195456D01*
Y196123D01*
X348445Y196789D01*
X347779Y197456D01*
Y198122D01*
X348445Y196789D02*
X349778D01*
X369115Y198788D02*
X367782D01*
X368448D01*
Y195456D01*
X367782Y194790D01*
X367115D01*
X366449Y195456D01*
X370447Y194790D02*
Y198788D01*
X372447D01*
X373113Y198122D01*
Y196789D01*
X372447Y196123D01*
X370447D01*
X374446Y194790D02*
X375779D01*
X375113D01*
Y198788D01*
X374446Y198122D01*
X377779Y195456D02*
X378445Y194790D01*
X379778D01*
X380444Y195456D01*
Y198122D01*
X379778Y198788D01*
X378445D01*
X377779Y198122D01*
Y197456D01*
X378445Y196789D01*
X380444D01*
X89000Y101499D02*
X91666D01*
X90333D01*
Y97500D01*
X92999Y101499D02*
Y97500D01*
X94998D01*
X95665Y98166D01*
Y100832D01*
X94998Y101499D01*
X92999D01*
X96997D02*
X98330D01*
X97664D01*
Y97500D01*
X96997D01*
X98330D01*
X89000Y109499D02*
X91666D01*
X90333D01*
Y105500D01*
X92999Y109499D02*
Y105500D01*
X94998D01*
X95665Y106167D01*
Y108832D01*
X94998Y109499D01*
X92999D01*
X98997D02*
X97664D01*
X96997Y108832D01*
Y106167D01*
X97664Y105500D01*
X98997D01*
X99663Y106167D01*
Y108832D01*
X98997Y109499D01*
X89000Y117499D02*
X91666D01*
X90333D01*
Y113500D01*
X95665Y116832D02*
X94998Y117499D01*
X93665D01*
X92999Y116832D01*
Y114166D01*
X93665Y113500D01*
X94998D01*
X95665Y114166D01*
X96997Y117499D02*
Y113500D01*
Y114833D01*
X99663Y117499D01*
X97664Y115499D01*
X99663Y113500D01*
X89000Y124999D02*
X91666D01*
X90333D01*
Y121000D01*
X92999D02*
Y124999D01*
X94332Y123666D01*
X95665Y124999D01*
Y121000D01*
X99663Y124332D02*
X98997Y124999D01*
X97664D01*
X96997Y124332D01*
Y123666D01*
X97664Y122999D01*
X98997D01*
X99663Y122333D01*
Y121667D01*
X98997Y121000D01*
X97664D01*
X96997Y121667D01*
X97500Y190099D02*
Y186100D01*
X99499D01*
X100166Y186767D01*
Y187433D01*
X99499Y188099D01*
X97500D01*
X99499D01*
X100166Y188766D01*
Y189432D01*
X99499Y190099D01*
X97500D01*
X101499Y186100D02*
Y188766D01*
X102832Y190099D01*
X104165Y188766D01*
Y186100D01*
Y188099D01*
X101499D01*
X105497Y186100D02*
Y190099D01*
X108163Y186100D01*
Y190099D01*
X109496D02*
Y186100D01*
Y187433D01*
X112162Y190099D01*
X110163Y188099D01*
X112162Y186100D01*
X117494D02*
X118826D01*
X118160D01*
Y190099D01*
X117494Y189432D01*
X88600Y349899D02*
Y345900D01*
X90599D01*
X91266Y346566D01*
Y347233D01*
X90599Y347899D01*
X88600D01*
X90599D01*
X91266Y348566D01*
Y349232D01*
X90599Y349899D01*
X88600D01*
X92599Y345900D02*
Y348566D01*
X93932Y349899D01*
X95265Y348566D01*
Y345900D01*
Y347899D01*
X92599D01*
X96597Y345900D02*
Y349899D01*
X99263Y345900D01*
Y349899D01*
X100596D02*
Y345900D01*
Y347233D01*
X103262Y349899D01*
X101263Y347899D01*
X103262Y345900D01*
X108594Y349232D02*
X109260Y349899D01*
X110593D01*
X111259Y349232D01*
Y346566D01*
X110593Y345900D01*
X109260D01*
X108594Y346566D01*
Y349232D01*
X112592Y345900D02*
X115258Y348566D01*
X116591Y345900D02*
X117924D01*
X117257D01*
Y349899D01*
X116591Y349232D01*
X203400Y53600D02*
X206066D01*
X207399Y52267D01*
X206066Y50934D01*
X203400D01*
X205399D01*
Y53600D01*
X203400Y49601D02*
Y48268D01*
Y48935D01*
X207399D01*
X206732Y49601D01*
X202733Y46269D02*
Y43603D01*
X207399Y42270D02*
Y40937D01*
Y41604D01*
X203400D01*
Y42270D01*
Y40937D01*
Y38938D02*
X207399D01*
X203400Y36272D01*
X207399D01*
X208500Y53600D02*
X211166D01*
X212499Y52267D01*
X211166Y50934D01*
X208500D01*
X210499D01*
Y53600D01*
X211832Y49601D02*
X212499Y48935D01*
Y47602D01*
X211832Y46935D01*
X209166D01*
X208500Y47602D01*
Y48935D01*
X209166Y49601D01*
X211832D01*
X207834Y45603D02*
Y42937D01*
X212499Y41604D02*
Y40271D01*
Y40937D01*
X208500D01*
Y41604D01*
Y40271D01*
Y38272D02*
X212499D01*
X208500Y35606D01*
X212499D01*
X45000Y79999D02*
X47666D01*
X48999Y78000D02*
X50332D01*
X49665D01*
Y81999D01*
X48999Y81332D01*
X54997Y78000D02*
X52331D01*
X54997Y80666D01*
Y81332D01*
X54330Y81999D01*
X52997D01*
X52331Y81332D01*
X47666Y91332D02*
X46999Y91999D01*
X45666D01*
X45000Y91332D01*
Y88666D01*
X45666Y88000D01*
X46999D01*
X47666Y88666D01*
Y89999D01*
X46333D01*
X48999Y88000D02*
Y91999D01*
X51665Y88000D01*
Y91999D01*
X52997D02*
Y88000D01*
X54997D01*
X55663Y88666D01*
Y91332D01*
X54997Y91999D01*
X52997D01*
X45000Y99999D02*
X47666D01*
X46333Y101332D02*
Y98666D01*
X48999Y98000D02*
X50332D01*
X49665D01*
Y101999D01*
X48999Y101332D01*
X54997Y98000D02*
X52331D01*
X54997Y100666D01*
Y101332D01*
X54330Y101999D01*
X52997D01*
X52331Y101332D01*
X45000Y109999D02*
X47666D01*
X46333Y111332D02*
Y108667D01*
X51665Y111999D02*
X48999D01*
Y109999D01*
X50332Y110666D01*
X50998D01*
X51665Y109999D01*
Y108667D01*
X50998Y108000D01*
X49665D01*
X48999Y108667D01*
X118000Y415799D02*
Y412633D01*
X118633Y412000D01*
X119899D01*
X120533Y412633D01*
Y415799D01*
X121799Y412000D02*
X123065D01*
X122432D01*
Y415799D01*
X121799Y415166D01*
X124964D02*
X125598Y415799D01*
X126864D01*
X127497Y415166D01*
Y412633D01*
X126864Y412000D01*
X125598D01*
X124964Y412633D01*
Y415166D01*
X128763Y413899D02*
X131296D01*
X134461Y415799D02*
X133195D01*
X132562Y415166D01*
Y412633D01*
X133195Y412000D01*
X134461D01*
X135094Y412633D01*
Y415166D01*
X134461Y415799D01*
X136361D02*
Y412633D01*
X136994Y412000D01*
X138260D01*
X138893Y412633D01*
Y415799D01*
X140159D02*
X142692D01*
X141426D01*
Y412000D01*
X106700Y318599D02*
Y314600D01*
X108699D01*
X109366Y315266D01*
Y317932D01*
X108699Y318599D01*
X106700D01*
X110699D02*
Y315933D01*
X112032Y314600D01*
X113365Y315933D01*
Y318599D01*
X114697D02*
Y314600D01*
X116697D01*
X117363Y315266D01*
Y317932D01*
X116697Y318599D01*
X114697D01*
X118696D02*
Y314600D01*
X120695D01*
X121362Y315266D01*
Y317932D01*
X120695Y318599D01*
X118696D01*
X122695Y314600D02*
X124028D01*
X123361D01*
Y318599D01*
X122695Y317932D01*
X126027D02*
X126694Y318599D01*
X128026D01*
X128693Y317932D01*
Y317266D01*
X128026Y316599D01*
X128693Y315933D01*
Y315266D01*
X128026Y314600D01*
X126694D01*
X126027Y315266D01*
Y315933D01*
X126694Y316599D01*
X126027Y317266D01*
Y317932D01*
X126694Y316599D02*
X128026D01*
X91866Y334732D02*
X91199Y335399D01*
X89867D01*
X89200Y334732D01*
Y332066D01*
X89867Y331400D01*
X91199D01*
X91866Y332066D01*
X93199Y335399D02*
Y332733D01*
X94532Y331400D01*
X95864Y332733D01*
Y335399D01*
X97197D02*
Y331400D01*
X99197D01*
X99863Y332066D01*
Y334732D01*
X99197Y335399D01*
X97197D01*
X101196D02*
Y331400D01*
X103196D01*
X103862Y332066D01*
Y334732D01*
X103196Y335399D01*
X101196D01*
X105195Y331400D02*
X106528D01*
X105861D01*
Y335399D01*
X105195Y334732D01*
X108527D02*
X109194Y335399D01*
X110527D01*
X111193Y334732D01*
Y334066D01*
X110527Y333399D01*
X111193Y332733D01*
Y332066D01*
X110527Y331400D01*
X109194D01*
X108527Y332066D01*
Y332733D01*
X109194Y333399D01*
X108527Y334066D01*
Y334732D01*
X109194Y333399D02*
X110527D01*
X31500Y325499D02*
Y321500D01*
X33499D01*
X34166Y322166D01*
Y324832D01*
X33499Y325499D01*
X31500D01*
X35499D02*
Y322833D01*
X36832Y321500D01*
X38164Y322833D01*
Y325499D01*
X39497D02*
Y321500D01*
X41497D01*
X42163Y322166D01*
Y324832D01*
X41497Y325499D01*
X39497D01*
X43496D02*
Y321500D01*
X45496D01*
X46162Y322166D01*
Y324832D01*
X45496Y325499D01*
X43496D01*
X50161Y321500D02*
X47495D01*
X50161Y324166D01*
Y324832D01*
X49494Y325499D01*
X48161D01*
X47495Y324832D01*
X54159Y325499D02*
X51494D01*
Y323499D01*
X52826Y324166D01*
X53493D01*
X54159Y323499D01*
Y322166D01*
X53493Y321500D01*
X52160D01*
X51494Y322166D01*
X91200Y263110D02*
X93866D01*
X95199Y261110D02*
X96532D01*
X95865D01*
Y265109D01*
X95199Y264442D01*
X101197Y261110D02*
X98531D01*
X101197Y263776D01*
Y264442D01*
X100530Y265109D01*
X99197D01*
X98531Y264442D01*
X40700Y263110D02*
X43366D01*
X42033Y264442D02*
Y261777D01*
X44699Y261110D02*
X46032D01*
X45365D01*
Y265109D01*
X44699Y264442D01*
X50697Y261110D02*
X48031D01*
X50697Y263776D01*
Y264442D01*
X50030Y265109D01*
X48697D01*
X48031Y264442D01*
X102000Y153000D02*
Y155666D01*
X103333Y156999D01*
X104666Y155666D01*
Y153000D01*
Y154999D01*
X102000D01*
X105999Y156999D02*
Y154333D01*
X107332Y153000D01*
X108665Y154333D01*
Y156999D01*
X109997Y153000D02*
X111330D01*
X110664D01*
Y156999D01*
X109997Y156332D01*
X113330D02*
X113996Y156999D01*
X115329D01*
X115996Y156332D01*
Y155666D01*
X115329Y154999D01*
X115996Y154333D01*
Y153666D01*
X115329Y153000D01*
X113996D01*
X113330Y153666D01*
Y154333D01*
X113996Y154999D01*
X113330Y155666D01*
Y156332D01*
X113996Y154999D02*
X115329D01*
X126000Y132000D02*
Y134666D01*
X127333Y135999D01*
X128666Y134666D01*
Y132000D01*
Y133999D01*
X126000D01*
X129999Y135999D02*
Y133333D01*
X131332Y132000D01*
X132665Y133333D01*
Y135999D01*
X133997D02*
Y132000D01*
X135997D01*
X136663Y132667D01*
Y135332D01*
X135997Y135999D01*
X133997D01*
X137996D02*
Y132000D01*
X139996D01*
X140662Y132667D01*
Y135332D01*
X139996Y135999D01*
X137996D01*
X141995Y132000D02*
X143328D01*
X142661D01*
Y135999D01*
X141995Y135332D01*
X145327D02*
X145994Y135999D01*
X147326D01*
X147993Y135332D01*
Y134666D01*
X147326Y133999D01*
X147993Y133333D01*
Y132667D01*
X147326Y132000D01*
X145994D01*
X145327Y132667D01*
Y133333D01*
X145994Y133999D01*
X145327Y134666D01*
Y135332D01*
X145994Y133999D02*
X147326D01*
X115100Y46199D02*
X117766D01*
X119099Y44200D02*
X120432D01*
X119765D01*
Y48199D01*
X119099Y47532D01*
X125097Y44200D02*
X122431D01*
X125097Y46866D01*
Y47532D01*
X124430Y48199D01*
X123097D01*
X122431Y47532D01*
X64200Y49499D02*
X66866D01*
X65533Y50832D02*
Y48166D01*
X68199Y47500D02*
X69532D01*
X68865D01*
Y51499D01*
X68199Y50832D01*
X74197Y47500D02*
X71531D01*
X74197Y50166D01*
Y50832D01*
X73530Y51499D01*
X72197D01*
X71531Y50832D01*
X130100Y94199D02*
X132766D01*
X131433Y95532D02*
Y92866D01*
X136765Y96199D02*
X134099D01*
Y94199D01*
X135432Y94866D01*
X136098D01*
X136765Y94199D01*
Y92866D01*
X136098Y92200D01*
X134765D01*
X134099Y92866D01*
X186599Y213899D02*
X185266D01*
X184600Y213232D01*
Y210566D01*
X185266Y209900D01*
X186599D01*
X187266Y210566D01*
Y213232D01*
X186599Y213899D01*
X188599D02*
Y211233D01*
X189932Y209900D01*
X191264Y211233D01*
Y213899D01*
X192597D02*
Y209900D01*
X194597D01*
X195263Y210566D01*
Y213232D01*
X194597Y213899D01*
X192597D01*
X196596D02*
Y209900D01*
X198595D01*
X199262Y210566D01*
Y213232D01*
X198595Y213899D01*
X196596D01*
X197780Y308499D02*
Y304500D01*
X199779D01*
X200446Y305167D01*
Y307832D01*
X199779Y308499D01*
X197780D01*
X201779D02*
Y305833D01*
X203112Y304500D01*
X204445Y305833D01*
Y308499D01*
X205777D02*
Y304500D01*
X207777D01*
X208443Y305167D01*
Y307832D01*
X207777Y308499D01*
X205777D01*
X209776D02*
Y304500D01*
X211775D01*
X212442Y305167D01*
Y307832D01*
X211775Y308499D01*
X209776D01*
X213775Y307832D02*
X214441Y308499D01*
X215774D01*
X216441Y307832D01*
Y307166D01*
X215774Y306499D01*
X215108D01*
X215774D01*
X216441Y305833D01*
Y305167D01*
X215774Y304500D01*
X214441D01*
X213775Y305167D01*
X217774Y307832D02*
X218440Y308499D01*
X219773D01*
X220439Y307832D01*
Y307166D01*
X219773Y306499D01*
X219107D01*
X219773D01*
X220439Y305833D01*
Y305167D01*
X219773Y304500D01*
X218440D01*
X217774Y305167D01*
X258000Y313620D02*
Y316286D01*
X259333Y317619D01*
X260666Y316286D01*
Y313620D01*
Y315619D01*
X258000D01*
X261999Y317619D02*
Y314953D01*
X263332Y313620D01*
X264665Y314953D01*
Y317619D01*
X265997D02*
Y313620D01*
X267997D01*
X268663Y314286D01*
Y316952D01*
X267997Y317619D01*
X265997D01*
X269996D02*
Y313620D01*
X271995D01*
X272662Y314286D01*
Y316952D01*
X271995Y317619D01*
X269996D01*
X273995Y316952D02*
X274661Y317619D01*
X275994D01*
X276661Y316952D01*
Y316286D01*
X275994Y315619D01*
X275328D01*
X275994D01*
X276661Y314953D01*
Y314286D01*
X275994Y313620D01*
X274661D01*
X273995Y314286D01*
X277994Y316952D02*
X278660Y317619D01*
X279993D01*
X280659Y316952D01*
Y316286D01*
X279993Y315619D01*
X279327D01*
X279993D01*
X280659Y314953D01*
Y314286D01*
X279993Y313620D01*
X278660D01*
X277994Y314286D01*
X205400Y470299D02*
Y466300D01*
X206733Y467633D01*
X208066Y466300D01*
Y470299D01*
X209399Y466300D02*
Y470299D01*
X211398D01*
X212065Y469632D01*
Y468299D01*
X211398Y467633D01*
X209399D01*
X210732D02*
X212065Y466300D01*
X213397D02*
X214730D01*
X214064D01*
Y470299D01*
X213397Y469632D01*
X216730Y465634D02*
X219395D01*
X222728Y470299D02*
X221395D01*
X220728Y469632D01*
Y466966D01*
X221395Y466300D01*
X222728D01*
X223394Y466966D01*
Y469632D01*
X222728Y470299D01*
X224727D02*
Y466966D01*
X225394Y466300D01*
X226727D01*
X227393Y466966D01*
Y470299D01*
X228726D02*
X231392D01*
X230059D01*
Y466300D01*
X222999Y57500D02*
X219000D01*
X220333Y56167D01*
X219000Y54834D01*
X222999D01*
X219000Y53501D02*
X222999D01*
Y51502D01*
X222332Y50836D01*
X220999D01*
X220333Y51502D01*
Y53501D01*
Y52168D02*
X219000Y50836D01*
Y46837D02*
Y49503D01*
X221666Y46837D01*
X222332D01*
X222999Y47503D01*
Y48836D01*
X222332Y49503D01*
X218334Y45504D02*
Y42838D01*
X222999Y41505D02*
Y40172D01*
Y40839D01*
X219000D01*
Y41505D01*
Y40172D01*
Y38173D02*
X222999D01*
X219000Y35507D01*
X222999D01*
X194699Y53900D02*
X190700D01*
X192033Y52567D01*
X190700Y51234D01*
X194699D01*
X190700Y49901D02*
X194699D01*
Y47902D01*
X194032Y47236D01*
X192699D01*
X192033Y47902D01*
Y49901D01*
Y48568D02*
X190700Y47236D01*
Y45903D02*
Y44570D01*
Y45236D01*
X194699D01*
X194032Y45903D01*
X190034Y42570D02*
Y39905D01*
X194699Y38572D02*
Y37239D01*
Y37905D01*
X190700D01*
Y38572D01*
Y37239D01*
Y35239D02*
X194699D01*
X190700Y32574D01*
X194699D01*
X203500Y459900D02*
Y462566D01*
X204833Y463899D01*
X206166Y462566D01*
Y459900D01*
Y461899D01*
X203500D01*
X207499Y463232D02*
X208165Y463899D01*
X209498D01*
X210164Y463232D01*
Y460566D01*
X209498Y459900D01*
X208165D01*
X207499Y460566D01*
Y463232D01*
X211497Y459234D02*
X214163D01*
X217495Y463899D02*
X216163D01*
X215496Y463232D01*
Y460566D01*
X216163Y459900D01*
X217495D01*
X218162Y460566D01*
Y463232D01*
X217495Y463899D01*
X219495D02*
Y460566D01*
X220161Y459900D01*
X221494D01*
X222161Y460566D01*
Y463899D01*
X223494D02*
X226159D01*
X224826D01*
Y459900D01*
X175212Y457212D02*
Y459877D01*
X176544Y461210D01*
X177877Y459877D01*
Y457212D01*
Y459211D01*
X175212D01*
X179210Y457212D02*
X180543D01*
X179877D01*
Y461210D01*
X179210Y460544D01*
X182543Y456545D02*
X185208D01*
X188541Y461210D02*
X187208D01*
X186541Y460544D01*
Y457878D01*
X187208Y457212D01*
X188541D01*
X189207Y457878D01*
Y460544D01*
X188541Y461210D01*
X190540D02*
Y457878D01*
X191206Y457212D01*
X192539D01*
X193206Y457878D01*
Y461210D01*
X194539D02*
X197204D01*
X195872D01*
Y457212D01*
X255200Y433399D02*
Y429400D01*
X256533Y430733D01*
X257866Y429400D01*
Y433399D01*
X259199Y429400D02*
Y433399D01*
X261198D01*
X261864Y432732D01*
Y431399D01*
X261198Y430733D01*
X259199D01*
X260532D02*
X261864Y429400D01*
X265863D02*
X263197D01*
X265863Y432066D01*
Y432732D01*
X265197Y433399D01*
X263864D01*
X263197Y432732D01*
X267196Y428734D02*
X269862D01*
X273194Y433399D02*
X271861D01*
X271195Y432732D01*
Y430066D01*
X271861Y429400D01*
X273194D01*
X273861Y430066D01*
Y432732D01*
X273194Y433399D01*
X275194D02*
Y430066D01*
X275860Y429400D01*
X277193D01*
X277859Y430066D01*
Y433399D01*
X279192D02*
X281858D01*
X280525D01*
Y429400D01*
X18700Y502699D02*
X21366D01*
X20033Y504032D02*
Y501366D01*
X25365Y504699D02*
X24032Y504032D01*
X22699Y502699D01*
Y501366D01*
X23365Y500700D01*
X24698D01*
X25365Y501366D01*
Y502033D01*
X24698Y502699D01*
X22699D01*
X26697Y504032D02*
X27364Y504699D01*
X28697D01*
X29363Y504032D01*
Y503366D01*
X28697Y502699D01*
X29363Y502033D01*
Y501366D01*
X28697Y500700D01*
X27364D01*
X26697Y501366D01*
Y502033D01*
X27364Y502699D01*
X26697Y503366D01*
Y504032D01*
X27364Y502699D02*
X28697D01*
X22366Y475932D02*
X21699Y476599D01*
X20366D01*
X19700Y475932D01*
Y473266D01*
X20366Y472600D01*
X21699D01*
X22366Y473266D01*
Y474599D01*
X21033D01*
X23699Y472600D02*
Y476599D01*
X26364Y472600D01*
Y476599D01*
X27697D02*
Y472600D01*
X29697D01*
X30363Y473266D01*
Y475932D01*
X29697Y476599D01*
X27697D01*
X22899Y37799D02*
X21566D01*
X20900Y37132D01*
Y34466D01*
X21566Y33800D01*
X22899D01*
X23566Y34466D01*
Y37132D01*
X22899Y37799D01*
X24899D02*
Y33800D01*
Y35133D01*
X27564Y37799D01*
X25565Y35799D01*
X27564Y33800D01*
X31563Y37799D02*
X30230Y37132D01*
X28897Y35799D01*
Y34466D01*
X29564Y33800D01*
X30897D01*
X31563Y34466D01*
Y35133D01*
X30897Y35799D01*
X28897D01*
X32896Y37132D02*
X33563Y37799D01*
X34896D01*
X35562Y37132D01*
Y34466D01*
X34896Y33800D01*
X33563D01*
X32896Y34466D01*
Y37132D01*
X36895Y33800D02*
X38228D01*
X37561D01*
Y37799D01*
X36895Y37132D01*
X40227D02*
X40894Y37799D01*
X42226D01*
X42893Y37132D01*
Y34466D01*
X42226Y33800D01*
X40894D01*
X40227Y34466D01*
Y37132D01*
X44226Y33134D02*
X46892D01*
X48224Y37799D02*
Y33800D01*
X50224D01*
X50890Y34466D01*
Y37132D01*
X50224Y37799D01*
X48224D01*
X52223D02*
Y33800D01*
X54223D01*
X54889Y34466D01*
Y35133D01*
X54223Y35799D01*
X52223D01*
X54223D01*
X54889Y36466D01*
Y37132D01*
X54223Y37799D01*
X52223D01*
X56222Y33800D02*
Y34466D01*
X56888D01*
Y33800D01*
X56222D01*
X59554D02*
Y37799D01*
X61554D01*
X62220Y37132D01*
Y35799D01*
X61554Y35133D01*
X59554D01*
X66219Y36466D02*
X64219D01*
X63553Y35799D01*
Y34466D01*
X64219Y33800D01*
X66219D01*
X67552Y37799D02*
Y33800D01*
X69551D01*
X70217Y34466D01*
Y35133D01*
Y35799D01*
X69551Y36466D01*
X67552D01*
X71550Y37799D02*
Y33800D01*
X73550D01*
X74216Y34466D01*
Y37132D01*
X73550Y37799D01*
X71550D01*
X76215Y33800D02*
X77548D01*
X78215Y34466D01*
Y35799D01*
X77548Y36466D01*
X76215D01*
X75549Y35799D01*
Y34466D01*
X76215Y33800D01*
X82213Y36466D02*
X80214D01*
X79548Y35799D01*
Y34466D01*
X80214Y33800D01*
X82213D01*
X23266Y31299D02*
Y27300D01*
X21267D01*
X20600Y27966D01*
Y29299D01*
X21267Y29966D01*
X23266D01*
X25265D02*
X26598D01*
X27264Y29299D01*
Y27300D01*
X25265D01*
X24599Y27966D01*
X25265Y28633D01*
X27264D01*
X28597Y29966D02*
X29930Y27300D01*
X31263Y29966D01*
X32596Y27300D02*
X33929D01*
X33263D01*
Y29966D01*
X32596D01*
X38594Y31299D02*
Y27300D01*
X36595D01*
X35928Y27966D01*
Y29299D01*
X36595Y29966D01*
X38594D01*
X39927Y27300D02*
Y27966D01*
X40593D01*
Y27300D01*
X39927D01*
X43259D02*
X44592D01*
X43926D01*
Y31299D01*
X43259D01*
X48591Y27300D02*
X47258D01*
X46592Y27966D01*
Y29299D01*
X47258Y29966D01*
X48591D01*
X49257Y29299D01*
Y28633D01*
X46592D01*
X50590Y27300D02*
X51923D01*
X51257D01*
Y29966D01*
X50590D01*
X53923Y31299D02*
Y27300D01*
X55922D01*
X56588Y27966D01*
Y28633D01*
Y29299D01*
X55922Y29966D01*
X53923D01*
X57921D02*
Y27300D01*
Y28633D01*
X58588Y29299D01*
X59254Y29966D01*
X59921D01*
X62586D02*
X63919D01*
X64586Y29299D01*
Y27300D01*
X62586D01*
X61920Y27966D01*
X62586Y28633D01*
X64586D01*
X65919Y27300D02*
Y29966D01*
X67918D01*
X68585Y29299D01*
Y27300D01*
X72583Y31299D02*
Y27300D01*
X70584D01*
X69917Y27966D01*
Y29299D01*
X70584Y29966D01*
X72583D01*
X74583Y30632D02*
Y29966D01*
X73916D01*
X75249D01*
X74583D01*
Y27966D01*
X75249Y27300D01*
X79248Y28633D02*
Y29299D01*
X78581D01*
Y28633D01*
X79248D01*
X79914Y29299D01*
Y30632D01*
X79248Y31299D01*
X77915D01*
X77248Y30632D01*
Y27966D01*
X77915Y27300D01*
X79914D01*
X81247D02*
Y29966D01*
X83246D01*
X83913Y29299D01*
Y27300D01*
X85246D02*
X86579D01*
X85912D01*
Y29966D01*
X85246D01*
X88578Y27300D02*
X90577D01*
X91244Y27966D01*
X90577Y28633D01*
X89245D01*
X88578Y29299D01*
X89245Y29966D01*
X91244D01*
X93243Y30632D02*
Y29966D01*
X92577D01*
X93910D01*
X93243D01*
Y27966D01*
X93910Y27300D01*
X95909D02*
Y27966D01*
X96575D01*
Y27300D01*
X95909D01*
X100574Y25967D02*
X101241D01*
X101907Y26634D01*
Y29966D01*
X99908D01*
X99241Y29299D01*
Y27966D01*
X99908Y27300D01*
X101907D01*
X103907D02*
X105239D01*
X105906Y27966D01*
Y29299D01*
X105239Y29966D01*
X103907D01*
X103240Y29299D01*
Y27966D01*
X103907Y27300D01*
X107239Y29966D02*
X108572Y27300D01*
X109905Y29966D01*
X20600Y24599D02*
X23266D01*
Y23932D01*
X20600Y21267D01*
Y20600D01*
X24599D02*
X27264Y23266D01*
X31263Y20600D02*
X28597D01*
X31263Y23266D01*
Y23932D01*
X30597Y24599D01*
X29264D01*
X28597Y23932D01*
X32596Y21267D02*
X33263Y20600D01*
X34596D01*
X35262Y21267D01*
Y23932D01*
X34596Y24599D01*
X33263D01*
X32596Y23932D01*
Y23266D01*
X33263Y22599D01*
X35262D01*
X36595Y20600D02*
X39261Y23266D01*
X43259Y20600D02*
X40593D01*
X43259Y23266D01*
Y23932D01*
X42593Y24599D01*
X41260D01*
X40593Y23932D01*
X44592D02*
X45259Y24599D01*
X46592D01*
X47258Y23932D01*
Y21267D01*
X46592Y20600D01*
X45259D01*
X44592Y21267D01*
Y23932D01*
X48591Y20600D02*
X49924D01*
X49257D01*
Y24599D01*
X48591Y23932D01*
X54589Y24599D02*
X53256Y23932D01*
X51923Y22599D01*
Y21267D01*
X52590Y20600D01*
X53923D01*
X54589Y21267D01*
Y21933D01*
X53923Y22599D01*
X51923D01*
X296666Y178332D02*
X295999Y178999D01*
X294666D01*
X294000Y178332D01*
Y175666D01*
X294666Y175000D01*
X295999D01*
X296666Y175666D01*
Y176999D01*
X295333D01*
X297999Y175000D02*
Y178999D01*
X300664Y175000D01*
Y178999D01*
X301997D02*
Y175000D01*
X303997D01*
X304663Y175666D01*
Y178332D01*
X303997Y178999D01*
X301997D01*
X296666Y188332D02*
X295999Y188999D01*
X294666D01*
X294000Y188332D01*
Y185667D01*
X294666Y185000D01*
X295999D01*
X296666Y185667D01*
Y186999D01*
X295333D01*
X297999Y185000D02*
Y188999D01*
X299998D01*
X300664Y188332D01*
Y186999D01*
X299998Y186333D01*
X297999D01*
X299332D02*
X300664Y185000D01*
X301997D02*
Y188999D01*
X304663Y185000D01*
Y188999D01*
X294000Y165000D02*
Y168999D01*
X295999D01*
X296666Y168332D01*
Y166999D01*
X295999Y166333D01*
X294000D01*
X295333D02*
X296666Y165000D01*
X300664Y168999D02*
X297999D01*
Y165000D01*
X300664D01*
X297999Y166999D02*
X299332D01*
X301997Y168999D02*
Y165000D01*
X303997D01*
X304663Y165666D01*
Y168332D01*
X303997Y168999D01*
X301997D01*
X0Y364950D02*
Y550000D01*
X119300D01*
X0Y-0D02*
X75300D01*
X0D02*
Y168100D01*
X75300Y-0D02*
X400000D01*
X0Y168100D02*
Y364950D01*
X119300Y550000D02*
X400000D01*
Y-0D02*
Y550000D01*
D50*
X108061Y368216D02*
X108061D01*
X192661Y446316D02*
X192661D01*
X106100Y407000D02*
X106100D01*
D51*
X119000Y460000D02*
Y469000D01*
X138000Y460000D02*
Y469000D01*
X119000Y460000D02*
X126500D01*
X119000Y469000D02*
X126500D01*
X130500D02*
X138000D01*
X130500Y460000D02*
X138000D01*
X44100D02*
Y469000D01*
X63100Y460000D02*
Y469000D01*
X44100Y460000D02*
X51600D01*
X44100Y469000D02*
X51600D01*
X55600D02*
X63100D01*
X55600Y460000D02*
X63100D01*
X19200Y449600D02*
Y458600D01*
X38200Y449600D02*
Y458600D01*
X19200Y449600D02*
X26700D01*
X19200Y458600D02*
X26700D01*
X30700D02*
X38200D01*
X30700Y449600D02*
X38200D01*
X117600Y460000D02*
Y470000D01*
X94100Y460000D02*
Y470000D01*
X110100D02*
X117600D01*
X110100Y460000D02*
X117600D01*
X94100D02*
X101600D01*
X94100Y470000D02*
X101600D01*
X216729Y120600D02*
X222032Y125903D01*
X223800Y113529D02*
X229103Y118832D01*
X235114Y124843D02*
X240417Y130146D01*
X228043Y131914D02*
X233346Y137217D01*
X216729Y120600D02*
X223800Y113529D01*
X233346Y137217D02*
X240417Y130146D01*
X227429Y117100D02*
X232732Y122403D01*
X234500Y110029D02*
X239803Y115332D01*
X245814Y121343D02*
X251117Y126646D01*
X238743Y128414D02*
X244046Y133717D01*
X227429Y117100D02*
X234500Y110029D01*
X244046Y133717D02*
X251117Y126646D01*
X151300Y363600D02*
Y371100D01*
X161300Y363600D02*
Y371100D01*
Y379600D02*
Y387100D01*
X151300Y379600D02*
Y387100D01*
Y363600D02*
X161300D01*
X151300Y387100D02*
X161300D01*
X161100Y363600D02*
Y371100D01*
X171100Y363600D02*
Y371100D01*
Y379600D02*
Y387100D01*
X161100Y379600D02*
Y387100D01*
Y363600D02*
X171100D01*
X161100Y387100D02*
X171100D01*
X42600Y460000D02*
Y470000D01*
X19100Y460000D02*
Y470000D01*
X35100D02*
X42600D01*
X35100Y460000D02*
X42600D01*
X19100D02*
X26600D01*
X19100Y470000D02*
X26600D01*
X38400Y449600D02*
Y458600D01*
X57400Y449600D02*
Y458600D01*
X38400Y449600D02*
X45900D01*
X38400Y458600D02*
X45900D01*
X49900D02*
X57400D01*
X49900Y449600D02*
X57400D01*
D109*
X189787Y418700D02*
G03*
X189787Y418700I-787J0D01*
G01*
D110*
X57500Y9950D02*
D03*
M02*
