G04 Layer_Color=128*
%FSLAX25Y25*%
%MOIN*%
G70*
G01*
G75*
G04:AMPARAMS|DCode=17|XSize=40mil|YSize=30mil|CornerRadius=0mil|HoleSize=0mil|Usage=FLASHONLY|Rotation=225.000|XOffset=0mil|YOffset=0mil|HoleType=Round|Shape=Rectangle|*
%AMROTATEDRECTD17*
4,1,4,0.00354,0.02475,0.02475,0.00354,-0.00354,-0.02475,-0.02475,-0.00354,0.00354,0.02475,0.0*
%
%ADD17ROTATEDRECTD17*%

%ADD18R,0.06000X0.01500*%
%ADD19O,0.06000X0.01500*%
%ADD20R,0.03000X0.04000*%
%ADD21R,0.06000X0.05000*%
%ADD22R,0.06000X0.06000*%
G04:AMPARAMS|DCode=23|XSize=40mil|YSize=30mil|CornerRadius=0mil|HoleSize=0mil|Usage=FLASHONLY|Rotation=135.000|XOffset=0mil|YOffset=0mil|HoleType=Round|Shape=Rectangle|*
%AMROTATEDRECTD23*
4,1,4,0.02475,-0.00354,0.00354,-0.02475,-0.02475,0.00354,-0.00354,0.02475,0.02475,-0.00354,0.0*
%
%ADD23ROTATEDRECTD23*%

%ADD24R,0.04000X0.03000*%
%ADD26R,0.18504X0.18504*%
%ADD28R,0.06000X0.06000*%
%ADD46R,0.30000X0.30000*%
%ADD48C,0.00800*%
%ADD97R,0.10000X0.06000*%
%ADD98O,0.04724X0.01181*%
%ADD99R,0.04724X0.01181*%
%ADD100R,0.05000X0.06000*%
G04:AMPARAMS|DCode=101|XSize=47.24mil|YSize=11.81mil|CornerRadius=0mil|HoleSize=0mil|Usage=FLASHONLY|Rotation=315.000|XOffset=0mil|YOffset=0mil|HoleType=Round|Shape=Round|*
%AMOVALD101*
21,1,0.03543,0.01181,0.00000,0.00000,315.0*
1,1,0.01181,-0.01253,0.01253*
1,1,0.01181,0.01253,-0.01253*
%
%ADD101OVALD101*%

G04:AMPARAMS|DCode=102|XSize=47.24mil|YSize=11.81mil|CornerRadius=0mil|HoleSize=0mil|Usage=FLASHONLY|Rotation=315.000|XOffset=0mil|YOffset=0mil|HoleType=Round|Shape=Rectangle|*
%AMROTATEDRECTD102*
4,1,4,-0.02088,0.01253,-0.01253,0.02088,0.02088,-0.01253,0.01253,-0.02088,-0.02088,0.01253,0.0*
%
%ADD102ROTATEDRECTD102*%

%ADD103R,0.08100X0.08100*%
%ADD104R,0.10000X0.15400*%
G04:AMPARAMS|DCode=111|XSize=212.99mil|YSize=253.94mil|CornerRadius=10.65mil|HoleSize=0mil|Usage=FLASHONLY|Rotation=90.000|XOffset=0mil|YOffset=0mil|HoleType=Round|Shape=RoundedRectangle|*
%AMROUNDEDRECTD111*
21,1,0.21299,0.23264,0,0,90.0*
21,1,0.19169,0.25394,0,0,90.0*
1,1,0.02130,0.11632,0.09585*
1,1,0.02130,0.11632,-0.09585*
1,1,0.02130,-0.11632,-0.09585*
1,1,0.02130,-0.11632,0.09585*
%
%ADD111ROUNDEDRECTD111*%
D17*
X175993Y117073D02*
D03*
X171397Y112477D02*
D03*
X182200Y449100D02*
D03*
X177604Y444504D02*
D03*
X194800Y462800D02*
D03*
X190204Y458204D02*
D03*
X220786Y419045D02*
D03*
X216190Y414449D02*
D03*
D18*
X47400Y301900D02*
D03*
X247500D02*
D03*
X176300D02*
D03*
X94300Y160400D02*
D03*
X176300Y244200D02*
D03*
X163900Y75900D02*
D03*
X211000D02*
D03*
D19*
X47400Y299340D02*
D03*
Y296780D02*
D03*
X30400Y301900D02*
D03*
Y299340D02*
D03*
Y296780D02*
D03*
X47400Y294220D02*
D03*
X30400D02*
D03*
X247500Y299340D02*
D03*
Y296780D02*
D03*
X230500Y301900D02*
D03*
Y299340D02*
D03*
Y296780D02*
D03*
X247500Y294220D02*
D03*
X230500D02*
D03*
X176300Y299340D02*
D03*
Y296780D02*
D03*
X159300Y301900D02*
D03*
Y299340D02*
D03*
Y296780D02*
D03*
X176300Y294220D02*
D03*
X159300D02*
D03*
X94300Y157840D02*
D03*
Y155280D02*
D03*
X77300Y160400D02*
D03*
Y157840D02*
D03*
Y155280D02*
D03*
X94300Y152720D02*
D03*
X77300D02*
D03*
X176300Y241640D02*
D03*
Y239080D02*
D03*
X159300Y244200D02*
D03*
Y241640D02*
D03*
Y239080D02*
D03*
X176300Y236520D02*
D03*
X159300D02*
D03*
X180900Y83580D02*
D03*
X163900D02*
D03*
X180900Y81020D02*
D03*
Y78460D02*
D03*
Y75900D02*
D03*
X163900Y81020D02*
D03*
Y78460D02*
D03*
X228000Y83580D02*
D03*
X211000D02*
D03*
X228000Y81020D02*
D03*
Y78460D02*
D03*
Y75900D02*
D03*
X211000Y81020D02*
D03*
Y78460D02*
D03*
D20*
X88690Y425649D02*
D03*
Y432149D02*
D03*
X109590D02*
D03*
Y438649D02*
D03*
X87000Y452500D02*
D03*
Y459000D02*
D03*
X113700Y378800D02*
D03*
Y372300D02*
D03*
X90300D02*
D03*
Y378800D02*
D03*
X73000Y304500D02*
D03*
Y311000D02*
D03*
X126000Y285500D02*
D03*
Y292000D02*
D03*
X196200Y76500D02*
D03*
Y83000D02*
D03*
X237900D02*
D03*
Y76500D02*
D03*
X237200Y68200D02*
D03*
Y61700D02*
D03*
X244300Y61600D02*
D03*
Y55100D02*
D03*
X182000Y68300D02*
D03*
Y61800D02*
D03*
X188500Y61700D02*
D03*
Y55200D02*
D03*
X190000Y83000D02*
D03*
Y76500D02*
D03*
X155600Y83100D02*
D03*
Y76600D02*
D03*
X202600Y83000D02*
D03*
Y76500D02*
D03*
X149000Y76600D02*
D03*
Y83100D02*
D03*
X218910Y401551D02*
D03*
Y408051D02*
D03*
X191590Y401551D02*
D03*
Y408051D02*
D03*
X29000Y458500D02*
D03*
Y452000D02*
D03*
D21*
X202100Y229000D02*
D03*
X211100D02*
D03*
X211400Y239800D02*
D03*
X202400D02*
D03*
X91000Y309500D02*
D03*
X82000D02*
D03*
Y299000D02*
D03*
X91000D02*
D03*
X108000Y290500D02*
D03*
X117000D02*
D03*
Y280000D02*
D03*
X108000D02*
D03*
D22*
X99700Y387400D02*
D03*
X86200D02*
D03*
X110900Y363500D02*
D03*
X97400D02*
D03*
X215400Y218100D02*
D03*
X201900D02*
D03*
X12400Y313900D02*
D03*
X25900D02*
D03*
X135487Y452721D02*
D03*
X121987D02*
D03*
X77500Y320500D02*
D03*
X91000D02*
D03*
X121500Y301500D02*
D03*
X108000D02*
D03*
X141100Y313720D02*
D03*
X154600D02*
D03*
X213000Y314220D02*
D03*
X226500D02*
D03*
X48300Y172400D02*
D03*
X61800D02*
D03*
X122300Y148600D02*
D03*
X108800D02*
D03*
X69000Y399500D02*
D03*
X82500D02*
D03*
X107200Y397300D02*
D03*
X93700D02*
D03*
D23*
X256390Y425249D02*
D03*
X260986Y420653D02*
D03*
X261610Y430251D02*
D03*
X266206Y425655D02*
D03*
X216173Y117507D02*
D03*
X220769Y112911D02*
D03*
X193447Y414794D02*
D03*
X188851Y419390D02*
D03*
D24*
X21900Y230610D02*
D03*
X28400D02*
D03*
X72200Y230249D02*
D03*
X78700D02*
D03*
X247993Y48973D02*
D03*
X254493D02*
D03*
X210007Y52827D02*
D03*
X203507D02*
D03*
X190493Y48373D02*
D03*
X196993D02*
D03*
X152507Y50727D02*
D03*
X146007D02*
D03*
X99300Y379000D02*
D03*
X105800D02*
D03*
X79900Y408100D02*
D03*
X73400D02*
D03*
X106400Y459500D02*
D03*
X99900D02*
D03*
X74900Y414500D02*
D03*
X68400D02*
D03*
X213500Y248500D02*
D03*
X207000D02*
D03*
X30900Y280400D02*
D03*
X37400D02*
D03*
Y273900D02*
D03*
X30900D02*
D03*
X23400Y279800D02*
D03*
X16900D02*
D03*
X37400Y286900D02*
D03*
X30900D02*
D03*
X239500Y274720D02*
D03*
X233000D02*
D03*
X239500Y286720D02*
D03*
X233000D02*
D03*
Y280720D02*
D03*
X239500D02*
D03*
X110600Y62600D02*
D03*
X117100D02*
D03*
X44800Y22500D02*
D03*
X51300D02*
D03*
X101900Y22600D02*
D03*
X108400D02*
D03*
X111100Y107600D02*
D03*
X117600D02*
D03*
X161600Y280720D02*
D03*
X168100D02*
D03*
Y286720D02*
D03*
X161600D02*
D03*
X168100Y274720D02*
D03*
X161600D02*
D03*
X145600Y279520D02*
D03*
X152100D02*
D03*
X223500Y279620D02*
D03*
X217000D02*
D03*
X86300Y145400D02*
D03*
X79800D02*
D03*
Y138900D02*
D03*
X86300D02*
D03*
X69800Y137800D02*
D03*
X63300D02*
D03*
X86300Y132400D02*
D03*
X79800D02*
D03*
X141900Y223620D02*
D03*
X135400D02*
D03*
X168400Y229120D02*
D03*
X161900D02*
D03*
Y222620D02*
D03*
X168400D02*
D03*
X226100Y40600D02*
D03*
X219600D02*
D03*
X244100Y68500D02*
D03*
X250600D02*
D03*
X239700Y40600D02*
D03*
X233200D02*
D03*
X189100Y68600D02*
D03*
X195600D02*
D03*
X174500Y40600D02*
D03*
X168000D02*
D03*
X160900D02*
D03*
X154400D02*
D03*
X208749Y388510D02*
D03*
X202249D02*
D03*
X172551Y405390D02*
D03*
X179051D02*
D03*
X171751Y421190D02*
D03*
X178251D02*
D03*
X94700Y406300D02*
D03*
X101200D02*
D03*
X341500Y157000D02*
D03*
X348000D02*
D03*
X341500Y196000D02*
D03*
X348000D02*
D03*
X311500Y157000D02*
D03*
X318000D02*
D03*
X311500Y196000D02*
D03*
X318000D02*
D03*
X161751Y216390D02*
D03*
X168251D02*
D03*
X371500Y196000D02*
D03*
X378000D02*
D03*
X371500Y157000D02*
D03*
X378000D02*
D03*
D26*
X205300Y402181D02*
D03*
D28*
X38700Y240110D02*
D03*
Y253610D02*
D03*
X88700D02*
D03*
Y240110D02*
D03*
X118600Y441100D02*
D03*
Y427600D02*
D03*
X79800D02*
D03*
Y441100D02*
D03*
X122300Y383900D02*
D03*
Y370400D02*
D03*
X56900Y295900D02*
D03*
Y309400D02*
D03*
X256500Y296720D02*
D03*
Y310220D02*
D03*
X127400Y71900D02*
D03*
Y85400D02*
D03*
X61600Y31800D02*
D03*
Y45300D02*
D03*
X118700Y45400D02*
D03*
Y31900D02*
D03*
X127500Y116900D02*
D03*
Y130400D02*
D03*
X186100Y293220D02*
D03*
Y306720D02*
D03*
X189500Y226020D02*
D03*
Y239520D02*
D03*
X150500Y228020D02*
D03*
Y241520D02*
D03*
D46*
X31400Y396700D02*
D03*
D48*
X0Y364950D02*
Y550000D01*
X119300D01*
X0Y-0D02*
X75300D01*
X0D02*
Y168100D01*
X75300Y-0D02*
X400000D01*
X0Y168100D02*
Y364950D01*
X119300Y550000D02*
X400000D01*
Y-0D02*
Y550000D01*
D97*
X25200Y240110D02*
D03*
Y253610D02*
D03*
X9700D02*
D03*
Y240110D02*
D03*
X75200D02*
D03*
Y253610D02*
D03*
X59700D02*
D03*
Y240110D02*
D03*
X114000Y116900D02*
D03*
Y130400D02*
D03*
X98500D02*
D03*
Y116900D02*
D03*
X105200Y31900D02*
D03*
Y45400D02*
D03*
X89700D02*
D03*
Y31900D02*
D03*
X48100Y31800D02*
D03*
Y45300D02*
D03*
X32600D02*
D03*
Y31800D02*
D03*
X113900Y71900D02*
D03*
Y85400D02*
D03*
X98400D02*
D03*
Y71900D02*
D03*
X65800Y146900D02*
D03*
Y160400D02*
D03*
X50000Y160500D02*
D03*
Y147000D02*
D03*
D98*
X180600Y49569D02*
D03*
X161900Y53506D02*
D03*
Y49569D02*
D03*
Y51537D02*
D03*
X180600D02*
D03*
Y47600D02*
D03*
Y53506D02*
D03*
Y55506D02*
D03*
X161900D02*
D03*
X219100D02*
D03*
X237800D02*
D03*
Y53506D02*
D03*
Y47600D02*
D03*
Y51537D02*
D03*
X219100D02*
D03*
Y49569D02*
D03*
Y53506D02*
D03*
X237800Y49569D02*
D03*
D99*
X161900Y47600D02*
D03*
X219100D02*
D03*
D100*
X21900Y297500D02*
D03*
Y288500D02*
D03*
X11600D02*
D03*
Y297500D02*
D03*
X23800Y421200D02*
D03*
Y430200D02*
D03*
X150600Y297220D02*
D03*
Y288220D02*
D03*
X141300Y288320D02*
D03*
Y297320D02*
D03*
X222000Y297220D02*
D03*
Y288220D02*
D03*
X212700Y288320D02*
D03*
Y297320D02*
D03*
X140400Y241520D02*
D03*
Y232520D02*
D03*
X130100D02*
D03*
Y241520D02*
D03*
D101*
X233215Y436669D02*
D03*
X222776Y452676D02*
D03*
X219992Y449892D02*
D03*
X221384Y451284D02*
D03*
X234607Y438061D02*
D03*
X231823Y435277D02*
D03*
X235999Y439453D02*
D03*
X237413Y440867D02*
D03*
X224190Y454090D02*
D03*
D102*
X218600Y448500D02*
D03*
D103*
X172456Y79785D02*
D03*
X219565D02*
D03*
D104*
X50000Y427000D02*
D03*
Y456000D02*
D03*
D111*
X196100Y132300D02*
D03*
M02*
