%FSLAX25Y25*%
%MOIN*%
G70*
G01*
G75*
G04 Layer_Physical_Order=4*
G04 Layer_Color=16711680*
%ADD10C,0.01000*%
%ADD11C,0.01100*%
%ADD12C,0.00900*%
%ADD13C,0.01500*%
%ADD14C,0.01600*%
%ADD15C,0.01063*%
%ADD16C,0.01400*%
%ADD17R,0.03500X0.10000*%
%ADD18R,0.30000X0.30000*%
%ADD19R,0.10827X0.03937*%
%ADD20R,0.02000X0.05200*%
G04:AMPARAMS|DCode=21|XSize=47.24mil|YSize=11.81mil|CornerRadius=0mil|HoleSize=0mil|Usage=FLASHONLY|Rotation=225.000|XOffset=0mil|YOffset=0mil|HoleType=Round|Shape=Round|*
%AMOVALD21*
21,1,0.03543,0.01181,0.00000,0.00000,225.0*
1,1,0.01181,0.01253,0.01253*
1,1,0.01181,-0.01253,-0.01253*
%
%ADD21OVALD21*%

G04:AMPARAMS|DCode=22|XSize=47.24mil|YSize=11.81mil|CornerRadius=0mil|HoleSize=0mil|Usage=FLASHONLY|Rotation=225.000|XOffset=0mil|YOffset=0mil|HoleType=Round|Shape=Rectangle|*
%AMROTATEDRECTD22*
4,1,4,0.01253,0.02088,0.02088,0.01253,-0.01253,-0.02088,-0.02088,-0.01253,0.01253,0.02088,0.0*
%
%ADD22ROTATEDRECTD22*%

G04:AMPARAMS|DCode=23|XSize=39.37mil|YSize=19.69mil|CornerRadius=0mil|HoleSize=0mil|Usage=FLASHONLY|Rotation=45.000|XOffset=0mil|YOffset=0mil|HoleType=Round|Shape=Rectangle|*
%AMROTATEDRECTD23*
4,1,4,-0.00696,-0.02088,-0.02088,-0.00696,0.00696,0.02088,0.02088,0.00696,-0.00696,-0.02088,0.0*
%
%ADD23ROTATEDRECTD23*%

%ADD24R,0.02000X0.01000*%
%ADD25R,0.01000X0.02000*%
%ADD26R,0.01063X0.03150*%
%ADD27R,0.03150X0.01063*%
%ADD28R,0.01181X0.02362*%
%ADD29R,0.06000X0.05000*%
%ADD30R,0.06000X0.02000*%
%ADD31O,0.06000X0.02000*%
%ADD32O,0.06000X0.01500*%
%ADD33R,0.06000X0.01500*%
%ADD34R,0.01200X0.06000*%
%ADD35O,0.01200X0.06000*%
%ADD36R,0.01800X0.05700*%
%ADD37R,0.06000X0.06000*%
%ADD38R,0.20000X0.09000*%
%ADD39R,0.24500X0.13000*%
%ADD40R,0.02200X0.10000*%
%ADD41R,0.03000X0.04000*%
%ADD42R,0.04000X0.03000*%
%ADD43R,0.06000X0.06000*%
G04:AMPARAMS|DCode=44|XSize=40mil|YSize=30mil|CornerRadius=0mil|HoleSize=0mil|Usage=FLASHONLY|Rotation=45.000|XOffset=0mil|YOffset=0mil|HoleType=Round|Shape=Rectangle|*
%AMROTATEDRECTD44*
4,1,4,-0.00354,-0.02475,-0.02475,-0.00354,0.00354,0.02475,0.02475,0.00354,-0.00354,-0.02475,0.0*
%
%ADD44ROTATEDRECTD44*%

%ADD45P,0.08485X4X90.0*%
G04:AMPARAMS|DCode=46|XSize=40mil|YSize=30mil|CornerRadius=0mil|HoleSize=0mil|Usage=FLASHONLY|Rotation=135.000|XOffset=0mil|YOffset=0mil|HoleType=Round|Shape=Rectangle|*
%AMROTATEDRECTD46*
4,1,4,0.02475,-0.00354,0.00354,-0.02475,-0.02475,0.00354,-0.00354,0.02475,0.02475,-0.00354,0.0*
%
%ADD46ROTATEDRECTD46*%

%ADD47R,0.18504X0.18504*%
%ADD48C,0.00800*%
%ADD49C,0.00600*%
%ADD50C,0.02800*%
%ADD51C,0.02000*%
%ADD52C,0.01200*%
%ADD53C,0.00700*%
%ADD54R,0.22500X0.25500*%
%ADD55R,0.55000X0.49000*%
%ADD56R,0.14500X0.19000*%
%ADD57R,0.28500X0.08000*%
%ADD58R,0.13500X0.07500*%
%ADD59C,0.08000*%
%ADD60R,0.10000X0.10000*%
%ADD61C,0.04000*%
%ADD62C,0.05800*%
%ADD63R,0.05800X0.05800*%
G04:AMPARAMS|DCode=64|XSize=212.99mil|YSize=253.94mil|CornerRadius=10.65mil|HoleSize=0mil|Usage=FLASHONLY|Rotation=90.000|XOffset=0mil|YOffset=0mil|HoleType=Round|Shape=RoundedRectangle|*
%AMROUNDEDRECTD64*
21,1,0.21299,0.23264,0,0,90.0*
21,1,0.19169,0.25394,0,0,90.0*
1,1,0.02130,0.11632,0.09585*
1,1,0.02130,0.11632,-0.09585*
1,1,0.02130,-0.11632,-0.09585*
1,1,0.02130,-0.11632,0.09585*
%
%ADD64ROUNDEDRECTD64*%
%ADD65C,0.02000*%
%ADD66C,0.10600*%
%ADD67C,0.12000*%
%ADD68C,0.12500*%
%ADD69C,0.02800*%
%ADD70C,0.03800*%
%ADD71C,0.03500*%
%ADD72C,0.02600*%
%ADD73C,0.04000*%
%ADD74C,0.03300*%
%ADD75C,0.00400*%
G04:AMPARAMS|DCode=76|XSize=235mil|YSize=140mil|CornerRadius=0mil|HoleSize=0mil|Usage=FLASHONLY|Rotation=135.000|XOffset=0mil|YOffset=0mil|HoleType=Round|Shape=Rectangle|*
%AMROTATEDRECTD76*
4,1,4,0.13258,-0.03359,0.03359,-0.13258,-0.13258,0.03359,-0.03359,0.13258,0.13258,-0.03359,0.0*
%
%ADD76ROTATEDRECTD76*%

G04:AMPARAMS|DCode=77|XSize=89.4mil|YSize=59.42mil|CornerRadius=0mil|HoleSize=0mil|Usage=FLASHONLY|Rotation=135.000|XOffset=0mil|YOffset=0mil|HoleType=Round|Shape=Rectangle|*
%AMROTATEDRECTD77*
4,1,4,0.05262,-0.01060,0.01060,-0.05262,-0.05262,0.01060,-0.01060,0.05262,0.05262,-0.01060,0.0*
%
%ADD77ROTATEDRECTD77*%

G04:AMPARAMS|DCode=78|XSize=188.32mil|YSize=137.38mil|CornerRadius=0mil|HoleSize=0mil|Usage=FLASHONLY|Rotation=45.000|XOffset=0mil|YOffset=0mil|HoleType=Round|Shape=Rectangle|*
%AMROTATEDRECTD78*
4,1,4,-0.01801,-0.11515,-0.11515,-0.01801,0.01801,0.11515,0.11515,0.01801,-0.01801,-0.11515,0.0*
%
%ADD78ROTATEDRECTD78*%

%ADD79R,0.05000X0.09500*%
%ADD80R,0.12000X0.14000*%
%ADD81R,0.12000X0.14500*%
%ADD82R,0.23500X0.14000*%
%ADD83R,0.12199X0.01800*%
%ADD84C,0.07600*%
%ADD85C,0.06400*%
%ADD86C,0.06600*%
%ADD87C,0.13000*%
%ADD88C,0.06200*%
%ADD89C,0.14400*%
%ADD90C,0.14900*%
%ADD91C,0.03600*%
%ADD92C,0.03900*%
%ADD93C,0.09400*%
%ADD94C,0.06800*%
%ADD95C,0.00900*%
%ADD96C,0.01200*%
%ADD97R,0.10000X0.15400*%
%ADD98R,0.10000X0.06000*%
%ADD99R,0.08100X0.08100*%
G04:AMPARAMS|DCode=100|XSize=47.24mil|YSize=11.81mil|CornerRadius=0mil|HoleSize=0mil|Usage=FLASHONLY|Rotation=315.000|XOffset=0mil|YOffset=0mil|HoleType=Round|Shape=Round|*
%AMOVALD100*
21,1,0.03543,0.01181,0.00000,0.00000,315.0*
1,1,0.01181,-0.01253,0.01253*
1,1,0.01181,0.01253,-0.01253*
%
%ADD100OVALD100*%

G04:AMPARAMS|DCode=101|XSize=47.24mil|YSize=11.81mil|CornerRadius=0mil|HoleSize=0mil|Usage=FLASHONLY|Rotation=315.000|XOffset=0mil|YOffset=0mil|HoleType=Round|Shape=Rectangle|*
%AMROTATEDRECTD101*
4,1,4,-0.02088,0.01253,-0.01253,0.02088,0.02088,-0.01253,0.01253,-0.02088,-0.02088,0.01253,0.0*
%
%ADD101ROTATEDRECTD101*%

%ADD102O,0.04724X0.01181*%
%ADD103R,0.04724X0.01181*%
%ADD104R,0.05000X0.06000*%
%ADD105C,0.03000*%
%ADD106R,0.15500X0.08500*%
%ADD107R,0.22500X0.17000*%
%ADD108R,0.12000X0.19000*%
D10*
X237986Y83025D02*
G03*
X236415Y83676I-1571J-1571D01*
G01*
X202876Y83628D02*
G03*
X202626Y83023I607J-605D01*
G01*
X202877Y83629D02*
G03*
X202876Y83628I606J-606D01*
G01*
X202877Y83629D02*
G03*
X202876Y83628I606J-606D01*
G01*
X202877Y83629D02*
G03*
X202876Y83628I606J-606D01*
G01*
X202877Y83629D02*
G03*
X202876Y83628I606J-606D01*
G01*
X202877Y83629D02*
G03*
X202876Y83628I606J-606D01*
G01*
X202877Y83629D02*
G03*
X202876Y83628I606J-606D01*
G01*
X202877Y83629D02*
G03*
X202876Y83628I606J-606D01*
G01*
X202877Y83629D02*
G03*
X202876Y83628I606J-606D01*
G01*
X207524Y85076D02*
G03*
X210904Y83676I3380J3380D01*
G01*
X207524Y85076D02*
G03*
X210904Y83676I3380J3380D01*
G01*
X207524Y85076D02*
G03*
X210904Y83676I3380J3380D01*
G01*
X207524Y85076D02*
G03*
X210904Y83676I3380J3380D01*
G01*
X207524Y85076D02*
G03*
X210904Y83676I3380J3380D01*
G01*
X207524Y85076D02*
G03*
X210904Y83676I3380J3380D01*
G01*
X207524Y85076D02*
G03*
X210904Y83676I3380J3380D01*
G01*
X207524Y85076D02*
G03*
X210904Y83676I3380J3380D01*
G01*
X155850Y83705D02*
G03*
X155600Y83100I607J-605D01*
G01*
X155851Y83706D02*
G03*
X155850Y83705I606J-606D01*
G01*
X155851Y83706D02*
G03*
X155850Y83705I606J-606D01*
G01*
X155851Y83706D02*
G03*
X155850Y83705I606J-606D01*
G01*
X155851Y83706D02*
G03*
X155850Y83705I606J-606D01*
G01*
X155851Y83706D02*
G03*
X155850Y83705I606J-606D01*
G01*
X155851Y83706D02*
G03*
X155850Y83705I606J-606D01*
G01*
X155851Y83706D02*
G03*
X155850Y83705I606J-606D01*
G01*
X155851Y83706D02*
G03*
X155850Y83705I606J-606D01*
G01*
X160424Y85076D02*
G03*
X163804Y83676I3380J3380D01*
G01*
X160424Y85076D02*
G03*
X163804Y83676I3380J3380D01*
G01*
X160424Y85076D02*
G03*
X163804Y83676I3380J3380D01*
G01*
X160424Y85076D02*
G03*
X163804Y83676I3380J3380D01*
G01*
X160424Y85076D02*
G03*
X163804Y83676I3380J3380D01*
G01*
X160424Y85076D02*
G03*
X163804Y83676I3380J3380D01*
G01*
X160424Y85076D02*
G03*
X163804Y83676I3380J3380D01*
G01*
X160424Y85076D02*
G03*
X163804Y83676I3380J3380D01*
G01*
X249300Y292700D02*
X252480D01*
X238380Y272180D02*
X240800Y274600D01*
X204400Y250700D02*
X206600Y248500D01*
X148100Y225120D02*
X151000Y228020D01*
X115500Y445500D02*
X117500Y442200D01*
X77300Y169900D02*
X79800Y172400D01*
X72600Y169900D02*
X77300D01*
X125300Y151600D02*
X128500D01*
X138120Y310740D02*
X141100Y313720D01*
X135700Y310740D02*
X138120D01*
X135300Y311140D02*
X135700Y310740D01*
X57900Y25100D02*
X61600Y28800D01*
Y31800D01*
X55300Y22500D02*
X57900Y25100D01*
X51300Y22500D02*
X55300D01*
X114300Y25100D02*
X118700Y29500D01*
Y31900D01*
X111800Y22600D02*
X114300Y25100D01*
X108400Y22600D02*
X111800D01*
X123700Y65100D02*
X127400Y68800D01*
Y71900D01*
X121200Y62600D02*
X123700Y65100D01*
X117100Y62600D02*
X121200D01*
X123100Y110200D02*
X127500Y114600D01*
Y116900D01*
X120500Y107600D02*
X123100Y110200D01*
X117600Y107600D02*
X120500D01*
X122300Y148600D02*
X125300Y151600D01*
X59100Y134100D02*
X62800Y137800D01*
X63300D01*
X41100Y169900D02*
X45800D01*
X48300Y172400D01*
X5600Y315500D02*
X10800D01*
X12400Y313900D01*
X53000Y292000D02*
X56900Y295900D01*
X51200Y292000D02*
X53000D01*
X51120Y291920D02*
X51200Y292000D01*
X49700Y291920D02*
X51120D01*
X47400Y294220D02*
X49700Y291920D01*
X13800Y276500D02*
Y276700D01*
X16900Y279800D01*
X37400Y272600D02*
X39400Y270600D01*
X37400Y272600D02*
Y273900D01*
X34200Y233700D02*
X38700Y238200D01*
Y240110D01*
X31110Y230610D02*
X34200Y233700D01*
X28400Y230610D02*
X31110D01*
X85100Y233900D02*
X88700Y237500D01*
Y240110D01*
X81449Y230249D02*
X85100Y233900D01*
X78700Y230249D02*
X81449D01*
X168400Y215200D02*
X170700Y212900D01*
X168400Y215200D02*
Y216120D01*
X148100Y223100D02*
Y225120D01*
X132800Y220900D02*
X135400Y223500D01*
Y223620D01*
X212000Y212500D02*
X215600Y216100D01*
X215400D02*
Y218100D01*
X179080Y236520D02*
X181100Y234500D01*
X176300Y236520D02*
X179080D01*
X205500Y248500D02*
X206900D01*
X170600Y271700D02*
Y272220D01*
X168100Y274720D02*
X170600Y272220D01*
X238100Y272180D02*
X238380D01*
X213800Y276700D02*
X214080D01*
X217000Y279620D01*
X252480Y292700D02*
X256500Y296720D01*
X247780Y294220D02*
X249300Y292700D01*
X247500Y294220D02*
X247780D01*
X206900Y311400D02*
X210180D01*
X213000Y314220D01*
X184080Y291200D02*
X186100Y293220D01*
X179320Y291200D02*
X184080D01*
X176300Y294220D02*
X179320Y291200D01*
X154800Y276700D02*
Y276820D01*
X152100Y279520D02*
X154800Y276820D01*
X159880Y81020D02*
X163900D01*
X155851Y83706D02*
X157298Y85153D01*
X206200Y81800D02*
X206980Y81020D01*
X211000D01*
X202876Y83628D02*
X204324Y85076D01*
X213000Y119300D02*
X214380D01*
X216173Y117507D01*
X220769Y112911D02*
X221800Y111880D01*
Y108000D02*
Y111880D01*
X168800Y109880D02*
X171397Y112477D01*
X175993Y117073D02*
X176890D01*
X179116Y119300D01*
X187480Y224000D02*
X189500Y226020D01*
X183500Y224000D02*
X187480D01*
X204324Y85076D02*
X207524D01*
X210904Y83676D02*
X211038D01*
X159100Y81800D02*
X159880Y81020D01*
X155850Y83705D02*
X155851Y83706D01*
X157224Y85076D02*
X160424D01*
X163804Y83676D02*
X163938D01*
X180929D02*
X188847D01*
D12*
X231622Y441231D02*
G03*
X231621Y441231I-180J-180D01*
G01*
X231622Y441231D02*
G03*
X231621Y441231I-180J-180D01*
G01*
X231622Y441231D02*
G03*
X231621Y441231I-180J-180D01*
G01*
X231622Y441231D02*
G03*
X231621Y441231I-180J-180D01*
G01*
X231622Y441231D02*
G03*
X231621Y441231I-180J-180D01*
G01*
X231622Y441231D02*
G03*
X231621Y441231I-180J-180D01*
G01*
X231621Y441231D02*
G03*
X231442Y441305I-180J-181D01*
G01*
X231622Y441231D02*
G03*
X231621Y441231I-180J-180D01*
G01*
X231622Y441231D02*
G03*
X231621Y441231I-180J-180D01*
G01*
X218311Y454356D02*
G03*
X218312Y454356I181J180D01*
G01*
X218311Y454356D02*
G03*
X218312Y454356I181J180D01*
G01*
X218311Y454356D02*
G03*
X218312Y454356I181J180D01*
G01*
X218311Y454356D02*
G03*
X218312Y454356I181J180D01*
G01*
X218311Y454356D02*
G03*
X218312Y454356I181J180D01*
G01*
X218311Y454356D02*
G03*
X218312Y454356I181J180D01*
G01*
X218311Y454356D02*
G03*
X218312Y454356I181J180D01*
G01*
X218311Y454356D02*
G03*
X218312Y454356I181J180D01*
G01*
X127700Y396400D02*
G03*
X127949Y396297I249J249D01*
G01*
X191988Y454156D02*
G03*
X192063Y454336I-180J180D01*
G01*
X218237Y454536D02*
G03*
X218311Y454357I255J0D01*
G01*
X254493Y48173D02*
X255827D01*
X196986Y48546D02*
X198320D01*
X146180Y49400D02*
Y50734D01*
X182200Y449100D02*
X193700D01*
X196000Y451400D01*
X145000Y387200D02*
X167069D01*
X167326Y387457D01*
X80900Y399400D02*
Y407100D01*
X143500Y80500D02*
X146100Y83100D01*
X147500D01*
X50000Y456000D02*
X56000Y450000D01*
X57000D01*
X231621Y441231D02*
X231622Y441231D01*
X231621Y441231D02*
X231621Y441231D01*
X231622Y441231D02*
X234694Y438159D01*
X246500Y46380D02*
X248993Y48873D01*
X218311Y454356D02*
X218312Y454356D01*
X221384Y451284D01*
X113400Y361000D02*
X116100D01*
X110900Y363500D02*
X113400Y361000D01*
X69000Y399500D02*
Y403100D01*
X69700Y403800D01*
X232800Y280540D02*
Y286540D01*
Y274540D02*
Y280540D01*
X230300Y289040D02*
X232800Y286540D01*
X239300Y280720D02*
Y292600D01*
X243480Y296780D01*
X247500D01*
X218246Y451638D02*
X219992Y449892D01*
X215000Y452200D02*
X215562Y451638D01*
X218246D01*
X192388Y453956D02*
Y456019D01*
X190204Y458204D02*
X192388Y456019D01*
X178825Y441020D02*
Y443282D01*
X177604Y444504D02*
X178825Y443282D01*
X194800Y462800D02*
X197600Y465600D01*
X119000Y370400D02*
X122300D01*
X116400Y373000D02*
X119000Y370400D01*
X119900Y381500D02*
X122300Y383900D01*
X118279Y452721D02*
X121987D01*
X118000Y453000D02*
X118279Y452721D01*
X23800Y421200D02*
X25800D01*
X230500Y289220D02*
Y294040D01*
Y289220D02*
X233000Y286720D01*
X159100Y289220D02*
Y294040D01*
Y289220D02*
X161600Y286720D01*
X159500Y231520D02*
X161900Y229120D01*
X87000Y459000D02*
X88000Y460000D01*
X90000D01*
X96000Y459500D02*
X99900D01*
X84349Y432149D02*
X88690D01*
X79800Y427600D02*
X84349Y432149D01*
X118600Y427600D02*
X122200Y424000D01*
X123000D01*
X94700Y404200D02*
Y406300D01*
X101200D02*
X102600Y404900D01*
Y403600D02*
Y404900D01*
X68400Y412200D02*
Y414500D01*
Y412200D02*
X69700Y410900D01*
X72500Y408100D02*
X73400D01*
X69700Y410900D02*
X72500Y408100D01*
X107200Y397300D02*
Y399000D01*
X102600Y403600D02*
X107200Y399000D01*
X93700Y397300D02*
X94700Y398300D01*
X105800Y379000D02*
Y382300D01*
X106000Y382500D01*
X91000Y382000D02*
Y382600D01*
X86200Y387400D02*
X91000Y382600D01*
X195600Y68600D02*
X196500Y69500D01*
Y71500D01*
X217000Y38000D02*
X219600Y40600D01*
X151800Y38000D02*
X154400Y40600D01*
X251500Y69400D02*
Y71400D01*
X250600Y68500D02*
X251500Y69400D01*
X237800Y51537D02*
X243463D01*
X245000Y50000D01*
X246966D01*
X247993Y48973D01*
X180600Y51537D02*
X187329D01*
X190493Y48373D01*
X202173Y52827D02*
X203507D01*
X201000Y54000D02*
X202173Y52827D01*
X198320Y48546D02*
X199493Y47373D01*
X145007Y48227D02*
X146180Y49400D01*
X255827Y48173D02*
X257000Y47000D01*
X188000Y45880D02*
X190493Y48373D01*
X188000Y45500D02*
Y45880D01*
X246500Y46000D02*
Y46380D01*
X172280Y296780D02*
X176300D01*
X168100Y292600D02*
X172280Y296780D01*
X168100Y280720D02*
Y286720D01*
Y292600D01*
X161600Y274720D02*
Y280720D01*
Y286720D01*
X159500Y231520D02*
Y236540D01*
X181000Y301900D02*
X181280D01*
X213634Y73000D02*
X214000D01*
X211038Y75596D02*
X213634Y73000D01*
X162000Y72000D02*
Y74418D01*
D13*
X231771Y435226D02*
G03*
X223148Y434961I-4179J-4444D01*
G01*
X218880Y439574D02*
G03*
X218575Y448478I-4605J4299D01*
G01*
X79400Y420000D02*
X82400Y417000D01*
X111500D01*
X75000Y420000D02*
X79400D01*
X111500Y417000D02*
X116000Y421500D01*
X117500Y442200D02*
X118600Y441100D01*
D16*
X185714Y80504D02*
G03*
X184468Y81020I-1246J-1246D01*
G01*
X232852Y80600D02*
G03*
X231607Y81116I-1246J-1246D01*
G01*
X160933Y40695D02*
G03*
X161933Y43109I-2415J2415D01*
G01*
X160933Y40695D02*
G03*
X161933Y43109I-2415J2415D01*
G01*
X160933Y40695D02*
G03*
X161933Y43109I-2415J2415D01*
G01*
X160933Y40695D02*
G03*
X161933Y43109I-2415J2415D01*
G01*
X168429Y34553D02*
G03*
X165500Y27481I7071J-7071D01*
G01*
X180016Y46139D02*
G03*
X180626Y47448I-1492J1492D01*
G01*
X240500Y41339D02*
G03*
X238109Y47408I-8900J-0D01*
G01*
X182047Y73296D02*
G03*
X180929Y75996I-3818J0D01*
G01*
X182047Y73296D02*
G03*
X180929Y75996I-3818J0D01*
G01*
X182047Y73296D02*
G03*
X180929Y75996I-3818J0D01*
G01*
X182047Y73296D02*
G03*
X180929Y75996I-3818J0D01*
G01*
X187228Y75996D02*
G03*
X188858Y77034I-0J1799D01*
G01*
X187228Y75996D02*
G03*
X188858Y77034I-0J1799D01*
G01*
X187228Y75996D02*
G03*
X188858Y77034I-0J1799D01*
G01*
X187228Y75996D02*
G03*
X188858Y77034I-0J1799D01*
G01*
X182047Y61887D02*
G03*
X185980Y60258I3933J3933D01*
G01*
X189183Y68613D02*
G03*
X188587Y67172I1441J-1441D01*
G01*
X237285Y61783D02*
G03*
X241117Y60196I3832J3832D01*
G01*
X237285Y61783D02*
G03*
X241117Y60196I3832J3832D01*
G01*
X237285Y61783D02*
G03*
X241117Y60196I3832J3832D01*
G01*
X237285Y61783D02*
G03*
X241117Y60196I3832J3832D01*
G01*
X244332Y68221D02*
G03*
X244183Y68580I-508J-0D01*
G01*
X244332Y68221D02*
G03*
X244183Y68580I-508J-0D01*
G01*
X244332Y68221D02*
G03*
X244183Y68580I-508J-0D01*
G01*
X244332Y68221D02*
G03*
X244183Y68580I-508J-0D01*
G01*
X244332Y68221D02*
G03*
X244183Y68580I-508J-0D01*
G01*
X244332Y68221D02*
G03*
X244183Y68580I-508J0D01*
G01*
X244332Y68221D02*
G03*
X244183Y68580I-508J-0D01*
G01*
X244332Y68221D02*
G03*
X244183Y68580I-508J-0D01*
G01*
X237285Y61783D02*
G03*
X241117Y60196I3832J3832D01*
G01*
X237285Y61783D02*
G03*
X241117Y60196I3832J3832D01*
G01*
X237285Y61783D02*
G03*
X241117Y60196I3832J3832D01*
G01*
X237285Y61783D02*
G03*
X241117Y60196I3832J3832D01*
G01*
X187228Y75996D02*
G03*
X188858Y77034I-0J1799D01*
G01*
X187228Y75996D02*
G03*
X188858Y77034I0J1799D01*
G01*
X187228Y75996D02*
G03*
X188858Y77034I-0J1799D01*
G01*
X187228Y75996D02*
G03*
X188858Y77034I-0J1799D01*
G01*
X182047Y73296D02*
G03*
X180929Y75996I-3818J0D01*
G01*
X182047Y73296D02*
G03*
X180929Y75996I-3818J0D01*
G01*
X182047Y73296D02*
G03*
X180929Y75996I-3818J0D01*
G01*
X182047Y73296D02*
G03*
X180929Y75996I-3818J0D01*
G01*
X160933Y40695D02*
G03*
X161933Y43109I-2415J2415D01*
G01*
X160933Y40695D02*
G03*
X161933Y43109I-2415J2415D01*
G01*
X160933Y40695D02*
G03*
X161933Y43109I-2415J2415D01*
G01*
X160933Y40694D02*
G03*
X161933Y43109I-2415J2415D01*
G01*
X236708Y75996D02*
G03*
X237285Y76091I0J1807D01*
G01*
X236708Y75996D02*
G03*
X237285Y76091I-0J1807D01*
G01*
X236708Y75996D02*
G03*
X237285Y76091I-0J1807D01*
G01*
X236708Y75996D02*
G03*
X237285Y76091I-0J1807D01*
G01*
X236708Y75996D02*
G03*
X237285Y76091I-0J1807D01*
G01*
X236708Y75996D02*
G03*
X237285Y76091I-0J1807D01*
G01*
X236708Y75996D02*
G03*
X237285Y76091I-0J1807D01*
G01*
X236708Y75996D02*
G03*
X237285Y76091I-0J1807D01*
G01*
D02*
G03*
X237984Y76524I-577J1712D01*
G01*
X237285Y76091D02*
G03*
X237984Y76524I-577J1712D01*
G01*
X237285Y76091D02*
G03*
X237984Y76524I-577J1712D01*
G01*
X237285Y76091D02*
G03*
X237984Y76524I-577J1712D01*
G01*
X237285Y76091D02*
G03*
X237984Y76524I-577J1712D01*
G01*
X237285Y76091D02*
G03*
X237984Y76524I-577J1712D01*
G01*
X237285Y76091D02*
G03*
X237984Y76524I-577J1712D01*
G01*
X237984D02*
G03*
X237885Y76282I245J-241D01*
G01*
X237984Y76524D02*
G03*
X237885Y76282I245J-241D01*
G01*
X237984Y76524D02*
G03*
X237885Y76282I245J-241D01*
G01*
X237285Y76091D02*
G03*
X237984Y76524I-577J1712D01*
G01*
X237984D02*
G03*
X237885Y76282I245J-241D01*
G01*
X237984Y76524D02*
G03*
X237885Y76282I245J-241D01*
G01*
X237984Y76524D02*
G03*
X237885Y76282I245J-241D01*
G01*
X237984Y76524D02*
G03*
X237885Y76282I245J-241D01*
G01*
X237984Y76524D02*
G03*
X237885Y76282I245J-241D01*
G01*
X237984Y76524D02*
G03*
X237986Y76525I-1276J1279D01*
G01*
X237984Y76524D02*
G03*
X237986Y76525I-1276J1279D01*
G01*
X237984Y76524D02*
G03*
X237986Y76525I-1276J1279D01*
G01*
X237984Y76524D02*
G03*
X237986Y76525I-1276J1279D01*
G01*
X237984Y76524D02*
G03*
X237986Y76525I-1276J1279D01*
G01*
X237984Y76524D02*
G03*
X237986Y76525I-1276J1279D01*
G01*
X237984Y76524D02*
G03*
X237986Y76525I-1276J1279D01*
G01*
X237984Y76524D02*
G03*
X237986Y76525I-1276J1279D01*
G01*
X196746Y76123D02*
G03*
X198974Y75200I2228J2228D01*
G01*
X196746Y76123D02*
G03*
X198974Y75200I2228J2228D01*
G01*
X196746Y76123D02*
G03*
X198974Y75200I2228J2228D01*
G01*
X196746Y76123D02*
G03*
X198974Y75200I2228J2228D01*
G01*
X196746Y76123D02*
G03*
X198974Y75200I2228J2228D01*
G01*
X196746Y76123D02*
G03*
X198974Y75200I2228J2228D01*
G01*
X196746Y76123D02*
G03*
X198974Y75200I2228J2228D01*
G01*
X196746Y76123D02*
G03*
X198974Y75200I2228J2228D01*
G01*
X210082D02*
G03*
X211038Y75596I-0J1352D01*
G01*
X210082Y75200D02*
G03*
X211038Y75596I-0J1352D01*
G01*
X210082Y75200D02*
G03*
X211038Y75596I-0J1352D01*
G01*
X210082Y75200D02*
G03*
X211038Y75596I-0J1352D01*
G01*
X210082Y75200D02*
G03*
X211038Y75596I-0J1352D01*
G01*
X210082Y75200D02*
G03*
X211038Y75596I-0J1352D01*
G01*
X210082Y75200D02*
G03*
X211038Y75596I-0J1352D01*
G01*
X210082Y75200D02*
G03*
X211038Y75596I-0J1352D01*
G01*
X149000Y76600D02*
G03*
X149574Y76195I1458J1458D01*
G01*
X149574Y76195D02*
G03*
X150458Y75996I884J1863D01*
G01*
X149000Y76600D02*
G03*
X149574Y76195I1458J1458D01*
G01*
X149000Y76600D02*
G03*
X149574Y76195I1458J1458D01*
G01*
X149000Y76600D02*
G03*
X149574Y76195I1458J1458D01*
G01*
X149574Y76195D02*
G03*
X150458Y75996I884J1863D01*
G01*
X149574Y76195D02*
G03*
X150458Y75996I884J1863D01*
G01*
X149574Y76195D02*
G03*
X150458Y75996I884J1863D01*
G01*
X149574Y76195D02*
G03*
X151774Y75300I2200J2256D01*
G01*
X149574Y76195D02*
G03*
X151774Y75300I2200J2256D01*
G01*
X149574Y76195D02*
G03*
X151774Y75300I2200J2256D01*
G01*
X149000Y76600D02*
G03*
X149574Y76195I1458J1458D01*
G01*
X149546Y76223D02*
G03*
X149574Y76195I2228J2228D01*
G01*
X149546Y76223D02*
G03*
X149574Y76195I2228J2228D01*
G01*
X149000Y76600D02*
G03*
X149574Y76195I1458J1458D01*
G01*
X149000Y76600D02*
G03*
X149574Y76195I1458J1458D01*
G01*
X149000Y76600D02*
G03*
X149574Y76195I1458J1458D01*
G01*
X149546Y76223D02*
G03*
X149574Y76195I2228J2228D01*
G01*
X149546Y76223D02*
G03*
X149574Y76195I2228J2228D01*
G01*
X149546Y76223D02*
G03*
X149574Y76195I2228J2228D01*
G01*
X149546Y76223D02*
G03*
X149574Y76195I2228J2228D01*
G01*
X149546Y76223D02*
G03*
X149574Y76195I2228J2228D01*
G01*
X149546Y76223D02*
G03*
X149574Y76195I2228J2228D01*
G01*
D02*
G03*
X151774Y75300I2200J2256D01*
G01*
X149574Y76195D02*
G03*
X151774Y75300I2200J2256D01*
G01*
X149574Y76195D02*
G03*
X151774Y75300I2200J2256D01*
G01*
X162882D02*
G03*
X163838Y75696I-0J1352D01*
G01*
X162882Y75300D02*
G03*
X163838Y75696I-0J1352D01*
G01*
X149574Y76195D02*
G03*
X150458Y75996I884J1863D01*
G01*
X149574Y76195D02*
G03*
X150458Y75996I884J1863D01*
G01*
X149574Y76195D02*
G03*
X150458Y75996I884J1863D01*
G01*
X149574Y76195D02*
G03*
X151774Y75300I2200J2256D01*
G01*
X149574Y76195D02*
G03*
X151774Y75300I2200J2256D01*
G01*
X149574Y76195D02*
G03*
X150458Y75996I884J1863D01*
G01*
X162882Y75300D02*
G03*
X163838Y75696I-0J1352D01*
G01*
X162882Y75300D02*
G03*
X163838Y75696I-0J1352D01*
G01*
X162882Y75300D02*
G03*
X163838Y75696I-0J1352D01*
G01*
X162882Y75300D02*
G03*
X163838Y75696I-0J1352D01*
G01*
X162882Y75300D02*
G03*
X163838Y75696I-0J1352D01*
G01*
X162882Y75300D02*
G03*
X163838Y75696I-0J1352D01*
G01*
X240500Y18100D02*
Y41339D01*
X168429Y34553D02*
X174488Y40612D01*
X219193Y47628D02*
X226126Y40695D01*
X182047Y68387D02*
Y73296D01*
X174488Y40612D02*
X180016Y46140D01*
X165500Y18100D02*
Y27482D01*
X180900Y81020D02*
X184468D01*
X228038Y81116D02*
X231607D01*
X244332Y60196D02*
Y68221D01*
X241117Y60196D02*
X244332D01*
X188587Y60258D02*
Y67172D01*
X185980Y60258D02*
X188587D01*
X180929Y75996D02*
X187228D01*
X226126Y40695D02*
X233220D01*
X161933Y43109D02*
Y47600D01*
X160933Y40695D02*
X168071D01*
X47400Y296780D02*
X52000D01*
X47400Y301900D02*
X52000D01*
Y296780D02*
Y299340D01*
Y301900D01*
X47400Y299340D02*
X52000D01*
Y301900D02*
X56900Y306800D01*
Y309400D01*
X41780Y296780D02*
X47400D01*
X37400Y292400D02*
X41780Y296780D01*
X37400Y280400D02*
Y286900D01*
Y292400D01*
X30900Y273900D02*
Y280400D01*
Y286900D01*
Y293720D01*
X11600Y288500D02*
X21900D01*
X23400Y279800D02*
Y287000D01*
X21900Y288500D02*
X23400Y287000D01*
X25900Y313900D02*
X26300Y313500D01*
X21900Y296780D02*
Y297500D01*
X23500D01*
Y299340D02*
Y301900D01*
Y299340D02*
X30400D01*
X26300Y301900D02*
Y313500D01*
X23500Y301900D02*
X26300D01*
X30400D01*
X21900Y296780D02*
X30400D01*
X23500Y297500D02*
Y299340D01*
X228038Y83676D02*
X236415D01*
X206824Y78556D02*
X211038D01*
X228038Y75996D02*
X236500D01*
X237285Y68283D02*
Y76091D01*
Y76282D01*
X198974Y75200D02*
X210082D01*
X151774Y75300D02*
X162882D01*
D18*
X31400Y396700D02*
D03*
D29*
X108000Y280000D02*
D03*
X117000D02*
D03*
Y290500D02*
D03*
X108000D02*
D03*
X91000Y299000D02*
D03*
X82000D02*
D03*
Y309500D02*
D03*
X91000D02*
D03*
X202400Y239800D02*
D03*
X211400D02*
D03*
X211100Y229000D02*
D03*
X202100D02*
D03*
D32*
X211000Y78460D02*
D03*
Y81020D02*
D03*
X228000Y75900D02*
D03*
Y78460D02*
D03*
Y81020D02*
D03*
X211000Y83580D02*
D03*
X228000D02*
D03*
X163900Y78460D02*
D03*
Y81020D02*
D03*
X180900Y75900D02*
D03*
Y78460D02*
D03*
Y81020D02*
D03*
X163900Y83580D02*
D03*
X180900D02*
D03*
X159300Y236520D02*
D03*
X176300D02*
D03*
X159300Y239080D02*
D03*
Y241640D02*
D03*
Y244200D02*
D03*
X176300Y239080D02*
D03*
Y241640D02*
D03*
X77300Y152720D02*
D03*
X94300D02*
D03*
X77300Y155280D02*
D03*
Y157840D02*
D03*
Y160400D02*
D03*
X94300Y155280D02*
D03*
Y157840D02*
D03*
X159300Y294220D02*
D03*
X176300D02*
D03*
X159300Y296780D02*
D03*
Y299340D02*
D03*
Y301900D02*
D03*
X176300Y296780D02*
D03*
Y299340D02*
D03*
X230500Y294220D02*
D03*
X247500D02*
D03*
X230500Y296780D02*
D03*
Y299340D02*
D03*
Y301900D02*
D03*
X247500Y296780D02*
D03*
Y299340D02*
D03*
X30400Y294220D02*
D03*
X47400D02*
D03*
X30400Y296780D02*
D03*
Y299340D02*
D03*
Y301900D02*
D03*
X47400Y296780D02*
D03*
Y299340D02*
D03*
D33*
X211000Y75900D02*
D03*
X163900D02*
D03*
X176300Y244200D02*
D03*
X94300Y160400D02*
D03*
X176300Y301900D02*
D03*
X247500D02*
D03*
X47400D02*
D03*
D37*
X93700Y397300D02*
D03*
X107200D02*
D03*
X82500Y399500D02*
D03*
X69000D02*
D03*
X108800Y148600D02*
D03*
X122300D02*
D03*
X61800Y172400D02*
D03*
X48300D02*
D03*
X226500Y314220D02*
D03*
X213000D02*
D03*
X154600Y313720D02*
D03*
X141100D02*
D03*
X108000Y301500D02*
D03*
X121500D02*
D03*
X91000Y320500D02*
D03*
X77500D02*
D03*
X121987Y452721D02*
D03*
X135487D02*
D03*
X25900Y313900D02*
D03*
X12400D02*
D03*
X201900Y218100D02*
D03*
X215400D02*
D03*
X97400Y363500D02*
D03*
X110900D02*
D03*
X86200Y387400D02*
D03*
X99700D02*
D03*
D38*
X385200Y504100D02*
D03*
Y538100D02*
D03*
Y405600D02*
D03*
Y439600D02*
D03*
Y307200D02*
D03*
Y341200D02*
D03*
Y208800D02*
D03*
Y242800D02*
D03*
Y110400D02*
D03*
Y144400D02*
D03*
Y11900D02*
D03*
Y45900D02*
D03*
D41*
X29000Y452000D02*
D03*
Y458500D02*
D03*
X191590Y408051D02*
D03*
Y401551D02*
D03*
X218910Y408051D02*
D03*
Y401551D02*
D03*
X149000Y83100D02*
D03*
Y76600D02*
D03*
X202600Y76500D02*
D03*
Y83000D02*
D03*
X155600Y76600D02*
D03*
Y83100D02*
D03*
X190000Y76500D02*
D03*
Y83000D02*
D03*
X188500Y55200D02*
D03*
Y61700D02*
D03*
X182000Y61800D02*
D03*
Y68300D02*
D03*
X244300Y55100D02*
D03*
Y61600D02*
D03*
X237200Y61700D02*
D03*
Y68200D02*
D03*
X237900Y76500D02*
D03*
Y83000D02*
D03*
X196200D02*
D03*
Y76500D02*
D03*
X126000Y292000D02*
D03*
Y285500D02*
D03*
X73000Y311000D02*
D03*
Y304500D02*
D03*
X90300Y378800D02*
D03*
Y372300D02*
D03*
X113700D02*
D03*
Y378800D02*
D03*
X87000Y459000D02*
D03*
Y452500D02*
D03*
X109590Y438649D02*
D03*
Y432149D02*
D03*
X88690D02*
D03*
Y425649D02*
D03*
D42*
X378000Y157000D02*
D03*
X371500D02*
D03*
X378000Y196000D02*
D03*
X371500D02*
D03*
X168251Y216390D02*
D03*
X161751D02*
D03*
X318000Y196000D02*
D03*
X311500D02*
D03*
X318000Y157000D02*
D03*
X311500D02*
D03*
X348000Y196000D02*
D03*
X341500D02*
D03*
X348000Y157000D02*
D03*
X341500D02*
D03*
X101200Y406300D02*
D03*
X94700D02*
D03*
X178251Y421190D02*
D03*
X171751D02*
D03*
X179051Y405390D02*
D03*
X172551D02*
D03*
X202249Y388510D02*
D03*
X208749D02*
D03*
X154400Y40600D02*
D03*
X160900D02*
D03*
X168000D02*
D03*
X174500D02*
D03*
X195600Y68600D02*
D03*
X189100D02*
D03*
X233200Y40600D02*
D03*
X239700D02*
D03*
X250600Y68500D02*
D03*
X244100D02*
D03*
X219600Y40600D02*
D03*
X226100D02*
D03*
X168400Y222620D02*
D03*
X161900D02*
D03*
Y229120D02*
D03*
X168400D02*
D03*
X135400Y223620D02*
D03*
X141900D02*
D03*
X79800Y132400D02*
D03*
X86300D02*
D03*
X63300Y137800D02*
D03*
X69800D02*
D03*
X86300Y138900D02*
D03*
X79800D02*
D03*
Y145400D02*
D03*
X86300D02*
D03*
X217000Y279620D02*
D03*
X223500D02*
D03*
X152100Y279520D02*
D03*
X145600D02*
D03*
X161600Y274720D02*
D03*
X168100D02*
D03*
X161600Y286720D02*
D03*
X168100D02*
D03*
Y280720D02*
D03*
X161600D02*
D03*
X117600Y107600D02*
D03*
X111100D02*
D03*
X108400Y22600D02*
D03*
X101900D02*
D03*
X51300Y22500D02*
D03*
X44800D02*
D03*
X117100Y62600D02*
D03*
X110600D02*
D03*
X239500Y280720D02*
D03*
X233000D02*
D03*
Y286720D02*
D03*
X239500D02*
D03*
X233000Y274720D02*
D03*
X239500D02*
D03*
X30900Y286900D02*
D03*
X37400D02*
D03*
X16900Y279800D02*
D03*
X23400D02*
D03*
X30900Y273900D02*
D03*
X37400D02*
D03*
Y280400D02*
D03*
X30900D02*
D03*
X207000Y248500D02*
D03*
X213500D02*
D03*
X68400Y414500D02*
D03*
X74900D02*
D03*
X99900Y459500D02*
D03*
X106400D02*
D03*
X73400Y408100D02*
D03*
X79900D02*
D03*
X105800Y379000D02*
D03*
X99300D02*
D03*
X146007Y50727D02*
D03*
X152507D02*
D03*
X196993Y48373D02*
D03*
X190493D02*
D03*
X203507Y52827D02*
D03*
X210007D02*
D03*
X254493Y48973D02*
D03*
X247993D02*
D03*
X78700Y230249D02*
D03*
X72200D02*
D03*
X28400Y230610D02*
D03*
X21900D02*
D03*
D43*
X150500Y241520D02*
D03*
Y228020D02*
D03*
X189500Y239520D02*
D03*
Y226020D02*
D03*
X186100Y306720D02*
D03*
Y293220D02*
D03*
X127500Y130400D02*
D03*
Y116900D02*
D03*
X118700Y31900D02*
D03*
Y45400D02*
D03*
X61600Y45300D02*
D03*
Y31800D02*
D03*
X127400Y85400D02*
D03*
Y71900D02*
D03*
X256500Y310220D02*
D03*
Y296720D02*
D03*
X56900Y309400D02*
D03*
Y295900D02*
D03*
X122300Y370400D02*
D03*
Y383900D02*
D03*
X79800Y441100D02*
D03*
Y427600D02*
D03*
X118600D02*
D03*
Y441100D02*
D03*
X88700Y240110D02*
D03*
Y253610D02*
D03*
X38700D02*
D03*
Y240110D02*
D03*
D44*
X216190Y414449D02*
D03*
X220786Y419045D02*
D03*
X190204Y458204D02*
D03*
X194800Y462800D02*
D03*
X177604Y444504D02*
D03*
X182200Y449100D02*
D03*
X171397Y112477D02*
D03*
X175993Y117073D02*
D03*
D46*
X188851Y419390D02*
D03*
X193447Y414794D02*
D03*
X220769Y112911D02*
D03*
X216173Y117507D02*
D03*
X266206Y425655D02*
D03*
X261610Y430251D02*
D03*
X260986Y420653D02*
D03*
X256390Y425249D02*
D03*
D47*
X205300Y402181D02*
D03*
D48*
X347000Y321000D02*
X375000D01*
X306000Y280000D02*
X347000Y321000D01*
X302000Y445000D02*
X375000Y518000D01*
X302000Y260000D02*
Y445000D01*
X304000Y349000D02*
X375000Y420000D01*
X304000Y259000D02*
Y349000D01*
X289000Y247000D02*
X302000Y260000D01*
X290000Y245000D02*
X304000Y259000D01*
X306000Y258000D02*
Y280000D01*
X291000Y243000D02*
X306000Y258000D01*
X254000Y243000D02*
X291000D01*
X253000Y245000D02*
X290000D01*
X252000Y247000D02*
X289000D01*
X295000Y233000D02*
X317000D01*
X291000Y237000D02*
X295000Y233000D01*
X290000Y235000D02*
X294000Y231000D01*
X253000Y233000D02*
X289000D01*
X293000Y229000D01*
X317000Y233000D02*
X318000Y234000D01*
X359000Y227000D02*
X366000Y234000D01*
X251000Y227000D02*
X359000D01*
X345000Y229000D02*
X350000Y234000D01*
X293000Y229000D02*
X345000D01*
X331000Y231000D02*
X334000Y234000D01*
X294000Y231000D02*
X331000D01*
X252000Y235000D02*
X290000D01*
X251000Y237000D02*
X291000D01*
X363000Y211000D02*
X375000Y223000D01*
X229000Y224000D02*
X252000Y247000D01*
X225000Y224000D02*
X229000D01*
Y221000D02*
X253000Y245000D01*
X228000Y221000D02*
X229000D01*
X220800Y209800D02*
X254000Y243000D01*
X224000Y210000D02*
X251000Y237000D01*
X227100Y210100D02*
X252000Y235000D01*
X230250Y210250D02*
X253000Y233000D01*
X220800Y209000D02*
Y209800D01*
X224000Y206000D02*
Y210000D01*
X227100Y209000D02*
Y210100D01*
X230250Y206000D02*
Y210250D01*
X358500Y209000D02*
X371500Y196000D01*
X304000Y209000D02*
X358500D01*
X305000Y211000D02*
X363000D01*
X291000Y225000D02*
X305000Y211000D01*
X252000Y225000D02*
X291000D01*
X290000Y223000D02*
X304000Y209000D01*
X253000Y223000D02*
X290000D01*
X371500Y157000D02*
Y188500D01*
X353000Y207000D02*
X371500Y188500D01*
X285000Y207000D02*
X353000D01*
X332500Y205000D02*
X341500Y196000D01*
X284000Y205000D02*
X332500D01*
X275000Y214000D02*
X284000Y205000D01*
X341500Y157000D02*
Y188500D01*
X327000Y203000D02*
X341500Y188500D01*
X278000Y203000D02*
X327000D01*
X269000Y212000D02*
X278000Y203000D01*
X306500Y201000D02*
X311500Y196000D01*
X277000Y201000D02*
X306500D01*
X269000Y209000D02*
X277000Y201000D01*
X311500Y157000D02*
Y163500D01*
X269000Y206000D02*
X311500Y163500D01*
X233400Y209400D02*
X251000Y227000D01*
X233400Y209000D02*
Y209400D01*
X236550Y209550D02*
X252000Y225000D01*
X236550Y206000D02*
Y209550D01*
X239700Y209700D02*
X253000Y223000D01*
X239700Y209000D02*
Y209700D01*
X276000Y216000D02*
X285000Y207000D01*
X249000Y216000D02*
X276000D01*
X242863Y209863D02*
X249000Y216000D01*
X242863Y206000D02*
Y209863D01*
X250000Y214000D02*
X275000D01*
X245950Y209950D02*
X250000Y214000D01*
X245950Y209000D02*
Y209950D01*
X251000Y212000D02*
X269000D01*
X249150Y210150D02*
X251000Y212000D01*
X249150Y206000D02*
Y210150D01*
X252300Y209000D02*
X269000D01*
X255450Y206000D02*
X269000D01*
X378000Y157000D02*
Y166600D01*
Y186600D02*
Y196000D01*
X348000Y186600D02*
Y196000D01*
Y157000D02*
Y166600D01*
X318000Y157000D02*
Y166600D01*
Y186600D02*
Y196000D01*
X282000Y120000D02*
X309000D01*
X236500Y165500D02*
X282000Y120000D01*
X236500Y165500D02*
Y170000D01*
X283000Y122000D02*
X323000D01*
X239650Y165350D02*
X283000Y122000D01*
X239650Y165350D02*
Y167500D01*
X254000Y163000D02*
X293000Y124000D01*
X246000Y163000D02*
X254000D01*
X242800Y166200D02*
X246000Y163000D01*
X242800Y166200D02*
Y170000D01*
X255000Y165000D02*
X294000Y126000D01*
X248450Y165000D02*
X255000D01*
X245950Y167500D02*
X248450Y165000D01*
X304500Y130500D02*
X375000D01*
X268000Y167000D02*
X304500Y130500D01*
X252150Y167000D02*
X268000D01*
X249150Y170000D02*
X252150Y167000D01*
X353700Y32000D02*
X375000D01*
X215200Y170500D02*
X353700Y32000D01*
X351000Y126000D02*
X358000Y119000D01*
X294000Y126000D02*
X351000D01*
X337000Y124000D02*
X342000Y119000D01*
X293000Y124000D02*
X337000D01*
X323000Y122000D02*
X326000Y119000D01*
X309000Y120000D02*
X310000Y119000D01*
X123000Y207000D02*
X129000Y213000D01*
X123000Y166000D02*
Y207000D01*
Y166000D02*
X125000Y164000D01*
X132500Y167500D02*
Y170200D01*
X126000Y161000D02*
X132500Y167500D01*
X115000Y161000D02*
X126000D01*
X400000Y-0D02*
Y550000D01*
X119300D02*
X400000D01*
X0Y168100D02*
Y364950D01*
X75300Y-0D02*
X400000D01*
X0D02*
Y168100D01*
Y-0D02*
X75300D01*
X0Y550000D02*
X119300D01*
X0Y364950D02*
Y550000D01*
D49*
X193100Y185306D02*
Y204597D01*
X194300Y185803D02*
Y206732D01*
X226200Y141797D02*
Y152206D01*
X193100Y185306D02*
X226200Y152206D01*
X227400Y141300D02*
Y152703D01*
X194300Y185803D02*
X227400Y152703D01*
X228600Y140706D02*
Y153200D01*
X195500Y186300D02*
X228600Y153200D01*
X195500Y186300D02*
Y206466D01*
X240767Y407113D02*
X266000Y381880D01*
X239272Y407113D02*
X240767D01*
X236500Y406000D02*
X236587Y405913D01*
X239987D01*
X264800Y381100D01*
X240225Y409413D02*
X240447D01*
X236550Y409574D02*
X236811D01*
X239272Y407113D01*
X243945Y409875D02*
X269600Y384220D01*
Y341400D02*
Y384220D01*
X266800Y338600D02*
X269600Y341400D01*
X266800Y290100D02*
Y338600D01*
X255400Y278700D02*
X266800Y290100D01*
X255400Y275930D02*
Y278700D01*
X254600Y275130D02*
X255400Y275930D01*
X242525Y409315D02*
X268400Y383440D01*
Y342180D02*
Y383440D01*
X265400Y339180D02*
X268400Y342180D01*
X265400Y291100D02*
Y339180D01*
X253700Y278050D02*
Y279400D01*
X265400Y291100D01*
X250950Y275300D02*
X253700Y278050D01*
X250950Y275130D02*
Y275300D01*
X264800Y344520D02*
Y381100D01*
X261200Y340920D02*
X264800Y344520D01*
X261200Y293800D02*
Y340920D01*
X250400Y283000D02*
X261200Y293800D01*
X247200Y283000D02*
X250400D01*
X266000Y343740D02*
Y381880D01*
X262600Y340340D02*
X266000Y343740D01*
X262600Y292900D02*
Y340340D01*
X251000Y281300D02*
X262600Y292900D01*
X249850Y281300D02*
X251000D01*
X247450Y278900D02*
X249850Y281300D01*
X240447Y409413D02*
X267200Y382660D01*
Y342960D02*
Y382660D01*
X264000Y339760D02*
X267200Y342960D01*
X264000Y291950D02*
Y339760D01*
X251050Y279000D02*
X264000Y291950D01*
X240270Y412620D02*
Y412970D01*
X243945Y409875D02*
Y412809D01*
X240270Y412620D02*
X242525Y410365D01*
Y409315D02*
Y410365D01*
X272700Y335400D02*
X276000Y338700D01*
X271300Y335980D02*
X274600Y339280D01*
X238200Y452288D02*
Y454500D01*
X226700Y466000D02*
X238200Y454500D01*
X256488Y434000D02*
X262000D01*
X238200Y452288D02*
X256488Y434000D01*
X203200Y466000D02*
X226700D01*
X272700Y281360D02*
Y335400D01*
X266470Y275130D02*
X272700Y281360D01*
X237225Y451000D02*
X267500Y420726D01*
X227280Y451000D02*
X237225D01*
X261610Y426836D02*
Y430251D01*
X201600Y462100D02*
X216180D01*
X227280Y451000D01*
X271300Y283563D02*
Y335980D01*
X262913Y275175D02*
X271300Y283563D01*
X225652Y449800D02*
X236163D01*
X222776Y452676D02*
X225652Y449800D01*
X256390Y425249D02*
X260286D01*
X216621Y459000D02*
X219064Y456556D01*
X222776Y452845D01*
X198500Y459000D02*
X216621D01*
X222776Y452676D02*
Y452845D01*
X269900Y285037D02*
Y336560D01*
X263712Y278850D02*
X269900Y285037D01*
X263074Y278850D02*
X263712D01*
X253000Y424500D02*
Y430700D01*
X242833Y440867D02*
X253000Y430700D01*
X237413Y440867D02*
X242833D01*
X268500Y285900D02*
Y337140D01*
X263750Y281150D02*
X268500Y285900D01*
X262121Y281150D02*
X263750D01*
X259872Y278900D02*
X262121Y281150D01*
X259500Y278900D02*
X259872D01*
X262000Y434000D02*
X276000Y420000D01*
Y338700D02*
Y420000D01*
X267500Y420726D02*
X274600Y413626D01*
Y339280D02*
Y413626D01*
X236163Y449800D02*
X273200Y412763D01*
Y339860D02*
Y412763D01*
X253000Y424500D02*
X271800Y405700D01*
Y340440D02*
Y405700D01*
X268500Y337140D02*
X271800Y340440D01*
X269900Y336560D02*
X273200Y339860D01*
X183300Y326700D02*
X183500Y326500D01*
X183300Y326700D02*
Y326750D01*
X182300Y376200D02*
X182450Y376050D01*
X182350Y370000D02*
X183300Y370950D01*
X182350Y327900D02*
Y370000D01*
X182300Y375900D02*
Y376200D01*
Y374900D02*
Y375900D01*
Y374900D02*
X183300Y373900D01*
Y370950D02*
Y373900D01*
X181100Y372200D02*
X181150Y372150D01*
X180000Y326750D02*
X181150Y327900D01*
Y372150D01*
X182350Y327900D02*
X183500Y326750D01*
X113700Y373800D02*
X114500Y373000D01*
X181506Y55506D02*
X183500Y57500D01*
X180600Y55506D02*
X181506D01*
X216479Y53537D02*
X219193D01*
X135150Y63590D02*
X143637Y55103D01*
X216449Y55537D02*
X219193D01*
X136700Y64020D02*
X137360Y63360D01*
X142620Y58100D01*
X142200Y60500D02*
X175606D01*
X137550Y65150D02*
X142200Y60500D01*
X234130Y59300D02*
X237893Y55537D01*
X153900Y198560D02*
Y207100D01*
X135150Y179810D02*
X153900Y198560D01*
X209300Y56600D02*
X213416D01*
X216479Y53537D01*
X157589Y55103D02*
X159186Y53506D01*
X161900D01*
X150200Y55103D02*
X157589D01*
X143637D02*
X150200D01*
X157400Y200080D02*
Y207100D01*
X136350Y179030D02*
X157400Y200080D01*
X212000Y59986D02*
Y60100D01*
X156571Y58100D02*
X158727Y55944D01*
X212000Y59986D02*
X216449Y55537D01*
X158727Y55934D02*
X159156Y55506D01*
X158727Y55934D02*
Y55944D01*
X159156Y55506D02*
X161900D01*
X146571Y58100D02*
X156571D01*
X142620D02*
X146571D01*
X160900Y201600D02*
Y207100D01*
X137550Y178250D02*
X160900Y201600D01*
X175606Y60500D02*
X180600Y55506D01*
X164995Y203795D02*
Y207100D01*
X139400Y178200D02*
X164995Y203795D01*
X214600Y64100D02*
X219400Y59300D01*
X234130D01*
X141800Y63000D02*
X150000D01*
X135150Y63590D02*
Y179810D01*
X136350Y64370D02*
Y179030D01*
Y64370D02*
X137360Y63360D01*
X137550Y65150D02*
Y178250D01*
X138750Y66050D02*
Y177550D01*
X139400Y178200D01*
X138750Y66050D02*
X141800Y63000D01*
X217759Y372200D02*
X219800Y370159D01*
Y331350D02*
Y370159D01*
X218959Y375900D02*
X221000Y373859D01*
Y326996D02*
Y373859D01*
X215200Y326750D02*
X219800Y331350D01*
X220754Y326750D02*
X221000Y326996D01*
X187643Y328057D02*
Y370789D01*
Y328057D02*
X188798Y326902D01*
Y324727D02*
Y326902D01*
X188843Y329631D02*
Y371054D01*
Y329631D02*
X191273Y327202D01*
X195837Y331863D02*
X199352Y328348D01*
X195837Y331863D02*
Y370789D01*
X199352Y324727D02*
Y328348D01*
X193955Y371446D02*
X194060Y371551D01*
X194560Y371052D01*
Y329440D02*
X196800Y327200D01*
X194560Y329440D02*
Y371052D01*
X194060Y371551D02*
Y372198D01*
X196337Y371289D02*
Y373111D01*
X195837Y370789D02*
X196337Y371289D01*
X195337Y374111D02*
Y375900D01*
Y374111D02*
X196337Y373111D01*
X203927Y326150D02*
Y371005D01*
Y326150D02*
X205077Y325000D01*
X202727Y323850D02*
Y370838D01*
X202077Y323200D02*
X202727Y323850D01*
X204211Y371289D02*
Y373111D01*
X203927Y371005D02*
X204211Y371289D01*
X203211Y374111D02*
Y375900D01*
Y374111D02*
X204211Y373111D01*
X202011Y371554D02*
X202727Y370838D01*
X202011Y371554D02*
Y372200D01*
X201906Y371449D02*
X202011Y371554D01*
X229200Y397738D02*
X241019Y385919D01*
X232917Y395717D02*
Y399320D01*
Y395717D02*
X241867Y386767D01*
X242219Y386416D01*
X245600Y327500D02*
Y342097D01*
X246511Y326589D02*
X246800D01*
X245600Y327500D02*
X246511Y326589D01*
X242219Y345478D02*
Y386416D01*
Y345478D02*
X245600Y342097D01*
X232700Y399538D02*
X232917Y399320D01*
X244400Y327500D02*
Y341600D01*
X243489Y326589D02*
X244400Y327500D01*
X243300Y326589D02*
X243489D01*
X241019Y344981D02*
X244400Y341600D01*
X241019Y344981D02*
Y385919D01*
X236200Y341697D02*
Y385900D01*
X238800Y327850D02*
Y339097D01*
Y327850D02*
X239900Y326750D01*
X236200Y341697D02*
X238800Y339097D01*
X237600Y327950D02*
Y338600D01*
X236400Y326750D02*
X237600Y327950D01*
X235000Y341200D02*
Y383500D01*
Y341200D02*
X237600Y338600D01*
X233000Y389100D02*
X236200Y385900D01*
X229400Y389100D02*
X235000Y383500D01*
X187143Y373111D02*
X188143Y374111D01*
Y375900D01*
X188843Y371054D02*
X189343Y371554D01*
Y372200D01*
Y371554D02*
X189449Y371449D01*
X211085Y374111D02*
Y375900D01*
Y374111D02*
X212085Y373111D01*
Y371289D02*
Y373111D01*
X211085Y370289D02*
X212085Y371289D01*
X211085Y327515D02*
X211850Y326750D01*
X211085Y327515D02*
Y370289D01*
X208350Y326750D02*
X209885Y328285D01*
Y372200D01*
X224896Y329901D02*
Y370289D01*
Y374111D02*
X225896Y373111D01*
X224896Y370289D02*
X225896Y371289D01*
X224896Y374111D02*
Y375900D01*
X225896Y371289D02*
Y373111D01*
X223696Y329404D02*
X224300Y328800D01*
X223696Y329404D02*
Y372200D01*
X224896Y329901D02*
X227600Y327197D01*
X224300Y326950D02*
Y328800D01*
X224100Y326750D02*
X224300Y326950D01*
X187143Y371289D02*
Y373111D01*
Y371289D02*
X187643Y370789D01*
X114500Y373000D02*
X116400D01*
X195500Y206466D02*
X196700Y207666D01*
X193365D02*
X194300Y206732D01*
X190030Y207666D02*
X193100Y204597D01*
X219000Y130500D02*
Y131106D01*
X228600Y140706D01*
X215000Y131500D02*
X219400Y133300D01*
X227400Y141300D01*
X217000Y134500D02*
X217000Y134500D01*
X216800Y134700D02*
X219103D01*
X226200Y141797D01*
X190030Y207420D02*
Y207666D01*
D50*
X106800Y163800D02*
Y259600D01*
X91000Y275400D02*
X106800Y259600D01*
X91000Y275400D02*
Y290100D01*
X102000Y159000D02*
X106800Y163800D01*
X68600Y420800D02*
X74900Y414500D01*
X62500Y420800D02*
X68600D01*
X62500Y387300D02*
Y420800D01*
Y387300D02*
X70100Y379700D01*
Y336600D02*
Y379700D01*
X114400Y319900D02*
X214100D01*
X185000Y320500D02*
Y323800D01*
X214100Y319900D02*
X218000Y323800D01*
X97700Y336600D02*
X114400Y319900D01*
X70100Y336600D02*
X97700D01*
X56900Y323400D02*
X70100Y336600D01*
X56900Y311900D02*
Y323400D01*
D51*
X23800Y421200D02*
X25600Y423000D01*
X29000D01*
X47500Y458500D02*
X50000Y456000D01*
X29000Y458500D02*
X47500D01*
X29000Y450500D02*
Y452000D01*
Y450500D02*
X31500Y448000D01*
X83300Y408500D02*
X85800Y411000D01*
X155400D02*
X180600Y385800D01*
X203600D01*
X85800Y411000D02*
X155400D01*
X23800Y430200D02*
X29000D01*
X46800D01*
X38200Y253610D02*
Y263110D01*
X25200Y253190D02*
X38700D01*
X88200Y253610D02*
Y263110D01*
X75200Y253551D02*
X88700D01*
X189500Y239520D02*
X202400D01*
X182500Y241420D02*
X189500D01*
X201900Y218100D02*
Y228800D01*
X38200Y263110D02*
X38200Y263110D01*
X88200Y263110D02*
X88200Y263110D01*
X98400Y71900D02*
X110600D01*
X113900D01*
X110600Y62600D02*
Y71900D01*
X113900Y85400D02*
X127400D01*
X32600Y31800D02*
X44800D01*
Y22500D02*
Y31800D01*
X48100Y45300D02*
X61600D01*
X105200Y45400D02*
X118700D01*
X89700Y31900D02*
X101900D01*
Y22600D02*
Y31900D01*
X111100Y107600D02*
Y115500D01*
X98500D02*
Y116900D01*
X61800Y164400D02*
Y172400D01*
Y164400D02*
X65800Y160400D01*
X108000Y290500D02*
Y301500D01*
X117000Y285500D02*
X126000D01*
X117000Y280000D02*
Y290500D01*
X108000Y301500D02*
Y311000D01*
X108000Y311000D02*
X108000Y311000D01*
X91000Y309500D02*
Y320500D01*
X73000Y304500D02*
X81500D01*
X82000Y299000D02*
Y309500D01*
X56900Y311900D02*
X56900Y311900D01*
X91000Y320500D02*
Y328600D01*
X91100Y328700D01*
X213000Y231400D02*
Y248500D01*
X130100Y232520D02*
X140400D01*
X141900D01*
Y223620D02*
Y232520D01*
X140400Y241520D02*
X151000D01*
X202400Y239520D02*
Y239800D01*
X21900Y230390D02*
Y239690D01*
X9700D02*
X21900D01*
X71900Y230751D02*
Y240051D01*
X59700D02*
X71900D01*
D52*
X159089Y49572D02*
G03*
X157119Y48757I0J-2786D01*
G01*
Y52357D02*
G03*
X159089Y51541I1970J1970D01*
G01*
X214379Y52385D02*
G03*
X216349Y51569I1970J1970D01*
G01*
X185448Y49084D02*
G03*
X184202Y49600I-1246J-1246D01*
G01*
X242707Y48784D02*
G03*
X240738Y49600I-1970J-1970D01*
G01*
X216349D02*
G03*
X214379Y48784I0J-2786D01*
G01*
X188052Y53537D02*
G03*
X188587Y53758I-0J756D01*
G01*
X188052Y53537D02*
G03*
X188587Y53758I-0J756D01*
G01*
X188052Y53537D02*
G03*
X188587Y53758I-0J756D01*
G01*
X188052Y53537D02*
G03*
X188587Y53758I-0J756D01*
G01*
X243948Y53537D02*
G03*
X244332Y53696I-0J544D01*
G01*
X243948Y53537D02*
G03*
X244332Y53696I-0J544D01*
G01*
X243948Y53537D02*
G03*
X244332Y53696I-0J544D01*
G01*
X243948Y53537D02*
G03*
X244332Y53696I-0J544D01*
G01*
X243948Y53537D02*
G03*
X244332Y53696I-0J544D01*
G01*
X243948Y53537D02*
G03*
X244332Y53696I-0J544D01*
G01*
X243948Y53537D02*
G03*
X244332Y53696I-0J544D01*
G01*
X243948Y53537D02*
G03*
X244332Y53696I0J544D01*
G01*
X188052Y53537D02*
G03*
X188587Y53758I-0J756D01*
G01*
X188052Y53537D02*
G03*
X188587Y53758I0J756D01*
G01*
X188052Y53537D02*
G03*
X188587Y53758I-0J756D01*
G01*
X188052Y53537D02*
G03*
X188587Y53758I-0J756D01*
G01*
X216349Y49600D02*
X219193D01*
X159089Y49572D02*
X161933D01*
X216349Y51569D02*
X219193D01*
X154137Y52357D02*
X157119D01*
X159089Y51541D02*
X161933D01*
X159600Y78800D02*
X159844Y78556D01*
X70200Y155280D02*
Y160400D01*
Y155280D02*
X77300D01*
X68800Y138800D02*
Y143900D01*
X65800Y146900D02*
X68800Y143900D01*
X102000Y149000D02*
X108800D01*
X182500Y241640D02*
Y244200D01*
X80300Y408500D02*
X83300D01*
X79900Y408100D02*
X80300Y408500D01*
X83300D02*
X83500D01*
X74900Y414500D02*
X75400Y414000D01*
X79000D01*
X222000Y281120D02*
X223500Y279620D01*
X222000Y281120D02*
Y288220D01*
X212800D02*
X222000D01*
X212700Y288320D02*
X212800Y288220D01*
X221800Y296780D02*
X230500D01*
X223700Y311620D02*
X225800Y313720D01*
X223700Y301900D02*
Y311620D01*
X221800Y296780D02*
Y297220D01*
X223700Y299340D02*
X230500D01*
X223700D02*
Y301900D01*
X230500D01*
X252200Y305920D02*
X256500Y310220D01*
X252200Y301900D02*
Y305920D01*
Y299340D02*
Y301900D01*
X247500Y296780D02*
X252200D01*
Y299340D01*
X247500D02*
X252200D01*
X247500Y301900D02*
X252200D01*
X222122Y419390D02*
Y425051D01*
X221173Y426000D02*
X222122Y425051D01*
X188851D02*
X189800Y426000D01*
X188851Y419390D02*
Y425051D01*
X235999Y439453D02*
X238252Y437200D01*
X240000D01*
X235900Y433200D02*
Y433984D01*
X233215Y436669D02*
X235900Y433984D01*
X110500Y382000D02*
X112000D01*
X113700Y380300D01*
X114900Y381500D02*
X119900D01*
X113700Y380300D02*
X114900Y381500D01*
X86000Y449000D02*
Y451500D01*
X87000Y452500D01*
X82000Y445000D02*
X86000Y449000D01*
X82000Y443300D02*
Y445000D01*
X79800Y441100D02*
X82000Y443300D01*
X87000Y372500D02*
X89000D01*
X96400Y366000D02*
X97400Y365000D01*
X92000Y366000D02*
X96400D01*
X88690Y422190D02*
Y425649D01*
X87000Y420500D02*
X88690Y422190D01*
X108000Y459500D02*
X110000Y457500D01*
X106400Y459500D02*
X108000D01*
X110239Y431500D02*
X113000D01*
X94700Y398300D02*
Y403600D01*
X101500Y381000D02*
Y385600D01*
X180634Y49600D02*
X184202D01*
X237893D02*
X240738D01*
X152507Y50727D02*
X154137Y52357D01*
X210449Y52385D02*
X214379D01*
X237893Y53537D02*
X243948D01*
X180634D02*
X188052D01*
X77300Y152720D02*
X79800D01*
Y132400D02*
Y138900D01*
Y145400D01*
X86300Y138900D02*
Y145400D01*
X94300Y152720D02*
X96457Y150563D01*
X65800Y160400D02*
X70100D01*
X94300Y157840D02*
X101000D01*
X94300Y160400D02*
X101000D01*
X79800Y145400D02*
Y152720D01*
X86300Y145400D02*
Y151580D01*
X90000Y155280D02*
X94300D01*
X86300Y151580D02*
X90000Y155280D01*
X94300D02*
X102000D01*
X108800Y148600D02*
Y149000D01*
X86300Y132400D02*
X89200Y129500D01*
X89500D01*
X152500Y301900D02*
X159300D01*
X152500Y299340D02*
Y301900D01*
Y299340D02*
X159300D01*
X150600Y296780D02*
Y297220D01*
X73000Y311000D02*
Y316000D01*
X77500Y320500D01*
X126000Y292000D02*
Y297000D01*
X121500Y301500D02*
X126000Y297000D01*
X152500Y301900D02*
Y311620D01*
X154600Y313720D01*
X150600Y296780D02*
X159300D01*
X141300Y288320D02*
X141400Y288220D01*
X145600Y279520D02*
Y287620D01*
X141400Y288220D02*
X145000D01*
X150600D01*
X145000D02*
X145600Y287620D01*
X211100Y229000D02*
X213000Y231400D01*
X201900Y228800D02*
X202100Y229000D01*
X176300Y239080D02*
X182500D01*
X176300Y244200D02*
X182500D01*
Y241420D02*
Y241640D01*
X168400Y222620D02*
Y229120D01*
X161900Y216120D02*
Y222620D01*
Y229120D01*
X151500Y239080D02*
X159300D01*
X151000Y244200D02*
X159300D01*
X151000Y241640D02*
X159300D01*
X176300Y301900D02*
X181000D01*
X176300Y299340D02*
X181000D01*
Y296780D02*
Y299340D01*
X176300Y296780D02*
X181000D01*
Y299340D02*
Y301900D01*
X181280D02*
X186100Y306720D01*
X172480Y239080D02*
X176300D01*
X168400Y229120D02*
Y235000D01*
X172480Y239080D01*
X182500D02*
Y241420D01*
X176300Y241640D02*
X182500D01*
X159844Y78556D02*
X163929D01*
D55*
X30000Y385500D02*
D03*
D57*
X164250Y252000D02*
D03*
D58*
X164750Y244750D02*
D03*
D59*
X240500Y17400D02*
D03*
X165500D02*
D03*
X49200Y488000D02*
D03*
X199200Y488200D02*
D03*
X274200D02*
D03*
X124200Y488000D02*
D03*
D60*
X250500Y7400D02*
D03*
Y27400D02*
D03*
X230500D02*
D03*
Y7400D02*
D03*
X175500D02*
D03*
Y27400D02*
D03*
X155500D02*
D03*
Y7400D02*
D03*
X59200Y478000D02*
D03*
Y498000D02*
D03*
X39200D02*
D03*
Y478000D02*
D03*
X209200Y478200D02*
D03*
Y498200D02*
D03*
X189200D02*
D03*
Y478200D02*
D03*
X284200D02*
D03*
Y498200D02*
D03*
X264200D02*
D03*
Y478200D02*
D03*
X134200Y478000D02*
D03*
Y498000D02*
D03*
X114200D02*
D03*
Y478000D02*
D03*
D61*
X71366Y87693D02*
D03*
Y127063D02*
D03*
D62*
X28890Y99751D02*
D03*
Y89751D02*
D03*
Y79751D02*
D03*
X15451Y483210D02*
D03*
X378000Y166600D02*
D03*
Y176600D02*
D03*
X348000Y166600D02*
D03*
Y176600D02*
D03*
X318000Y166600D02*
D03*
Y176600D02*
D03*
X205300Y402181D02*
D03*
D63*
X28890Y109751D02*
D03*
X15451Y493210D02*
D03*
X378000Y186600D02*
D03*
X348000D02*
D03*
X318000D02*
D03*
D64*
X196100Y132300D02*
D03*
D65*
X261900Y353250D02*
D03*
X126150D02*
D03*
X261900Y195750D02*
D03*
X126150D02*
D03*
D66*
X363000Y329000D02*
D03*
X313000D02*
D03*
X363000Y24000D02*
D03*
X313000D02*
D03*
D67*
X16000Y528500D02*
D03*
Y58500D02*
D03*
X279500D02*
D03*
Y528500D02*
D03*
D68*
X11811Y179911D02*
D03*
X283465D02*
D03*
Y353139D02*
D03*
X11811D02*
D03*
D69*
X29000Y423000D02*
D03*
X375000Y321000D02*
D03*
Y518000D02*
D03*
Y420000D02*
D03*
Y223000D02*
D03*
X225000Y224000D02*
D03*
X228000Y221000D02*
D03*
X233400Y209000D02*
D03*
X220800D02*
D03*
X224000Y206000D02*
D03*
X227100Y209000D02*
D03*
X230250Y206000D02*
D03*
X366000Y234000D02*
D03*
X350000D02*
D03*
X334000D02*
D03*
X318000D02*
D03*
X236550Y206000D02*
D03*
X239700Y209000D02*
D03*
X242863Y206000D02*
D03*
X245950Y209000D02*
D03*
X249150Y206000D02*
D03*
X252300Y209000D02*
D03*
X255450Y206000D02*
D03*
X215200Y170500D02*
D03*
X375000Y130500D02*
D03*
Y32000D02*
D03*
X358000Y119000D02*
D03*
X342000D02*
D03*
X326000D02*
D03*
X310000D02*
D03*
X249150Y170000D02*
D03*
X310000Y262000D02*
D03*
X326000D02*
D03*
X343000D02*
D03*
X359000D02*
D03*
X310000Y240000D02*
D03*
X326000D02*
D03*
X343000D02*
D03*
X359000D02*
D03*
X320500Y272000D02*
D03*
X330500D02*
D03*
X340500D02*
D03*
X350500D02*
D03*
X366000Y91000D02*
D03*
X350000D02*
D03*
X333000D02*
D03*
X317000D02*
D03*
X366000Y113000D02*
D03*
X350000D02*
D03*
X333000D02*
D03*
X317000D02*
D03*
X325500Y81000D02*
D03*
X335500D02*
D03*
X345500D02*
D03*
X355500D02*
D03*
X375000Y11900D02*
D03*
Y45900D02*
D03*
Y110400D02*
D03*
Y144400D02*
D03*
Y208800D02*
D03*
Y242800D02*
D03*
Y307200D02*
D03*
Y341200D02*
D03*
Y405600D02*
D03*
Y439600D02*
D03*
Y504100D02*
D03*
Y538100D02*
D03*
X243945Y412809D02*
D03*
X254600Y275130D02*
D03*
X240270Y412970D02*
D03*
X250950Y275130D02*
D03*
X236500Y406000D02*
D03*
X247200Y283000D02*
D03*
X236550Y409574D02*
D03*
X247450Y278900D02*
D03*
X240225Y409413D02*
D03*
X251050Y279000D02*
D03*
X203200Y466000D02*
D03*
X266470Y275130D02*
D03*
X201600Y462100D02*
D03*
X262913Y275175D02*
D03*
X198500Y459000D02*
D03*
X263074Y278850D02*
D03*
X253000Y429100D02*
D03*
X259500Y278900D02*
D03*
X245950Y167500D02*
D03*
X239650D02*
D03*
X242800Y170000D02*
D03*
X236500D02*
D03*
X183500Y57500D02*
D03*
X150200Y55103D02*
D03*
X146571Y58100D02*
D03*
X150000Y63000D02*
D03*
X146600Y205400D02*
D03*
X145200Y170200D02*
D03*
X132500D02*
D03*
X145200Y363400D02*
D03*
X135750D02*
D03*
X135300Y327500D02*
D03*
X139200D02*
D03*
X142750D02*
D03*
X146300D02*
D03*
X143500Y80500D02*
D03*
X146700Y93300D02*
D03*
X147400Y71900D02*
D03*
X145000Y433820D02*
D03*
X143500Y445500D02*
D03*
X249800Y426100D02*
D03*
X223000Y435100D02*
D03*
X197700Y400000D02*
D03*
Y404900D02*
D03*
X212900Y400000D02*
D03*
Y404900D02*
D03*
Y394562D02*
D03*
X197700D02*
D03*
X203100D02*
D03*
X208000D02*
D03*
X206100Y132300D02*
D03*
X201100D02*
D03*
X186100D02*
D03*
X191100D02*
D03*
X186100Y137500D02*
D03*
X206100D02*
D03*
X201100D02*
D03*
X196100D02*
D03*
X191100D02*
D03*
Y127100D02*
D03*
X196100D02*
D03*
X201100D02*
D03*
X206100D02*
D03*
X186100D02*
D03*
X191100Y123100D02*
D03*
X196100D02*
D03*
X201100D02*
D03*
X206100D02*
D03*
X186100D02*
D03*
Y141500D02*
D03*
X206100D02*
D03*
X201100D02*
D03*
X196100D02*
D03*
X191100D02*
D03*
X176500Y254300D02*
D03*
Y249300D02*
D03*
X253950Y170100D02*
D03*
X219200Y170500D02*
D03*
X185900Y170100D02*
D03*
X149850D02*
D03*
X150050Y205400D02*
D03*
X130950D02*
D03*
X254100Y326800D02*
D03*
X130950Y327600D02*
D03*
X149850D02*
D03*
X135300Y311140D02*
D03*
X216500Y364000D02*
D03*
X184700Y363800D02*
D03*
X57900Y25100D02*
D03*
X114300D02*
D03*
X123700Y65100D02*
D03*
X123100Y110200D02*
D03*
X128500Y151600D02*
D03*
X59100Y134100D02*
D03*
X41100Y169900D02*
D03*
X5600Y315500D02*
D03*
X51200Y292000D02*
D03*
X13800Y276500D02*
D03*
X39400Y270600D02*
D03*
X34200Y233700D02*
D03*
X85100Y233900D02*
D03*
X170700Y212900D02*
D03*
X148100Y223100D02*
D03*
X132800Y220900D02*
D03*
X212000Y212500D02*
D03*
X181100Y234500D02*
D03*
X204400Y250700D02*
D03*
X170600Y271700D02*
D03*
X238100Y272180D02*
D03*
X213800Y276700D02*
D03*
X251300Y292000D02*
D03*
X206900Y311400D02*
D03*
X179320Y291200D02*
D03*
X154800Y276700D02*
D03*
X116100Y361000D02*
D03*
X137200Y468000D02*
D03*
X174800Y431900D02*
D03*
X69700Y403800D02*
D03*
X150000Y102000D02*
D03*
X194900Y167200D02*
D03*
X171349Y402810D02*
D03*
X169700Y418700D02*
D03*
X203600Y385800D02*
D03*
X240004Y421596D02*
D03*
X207482Y385754D02*
D03*
X181300Y421058D02*
D03*
Y407000D02*
D03*
X182200Y428008D02*
D03*
X227900Y428000D02*
D03*
X210800Y444500D02*
D03*
X199300D02*
D03*
X221173Y426000D02*
D03*
X189800D02*
D03*
X215705Y417000D02*
D03*
X209799Y418000D02*
D03*
X208000Y409800D02*
D03*
X203100D02*
D03*
X197700D02*
D03*
X212900D02*
D03*
X220800Y403510D02*
D03*
X221300Y408000D02*
D03*
X189173D02*
D03*
X189673Y403510D02*
D03*
X203894Y418000D02*
D03*
X197988D02*
D03*
X193300Y417000D02*
D03*
X181300Y410500D02*
D03*
Y417500D02*
D03*
X127949Y396297D02*
D03*
X127734Y377603D02*
D03*
Y383834D02*
D03*
Y390166D02*
D03*
X242707Y48184D02*
D03*
X214379Y52385D02*
D03*
Y48784D02*
D03*
X185448Y48084D02*
D03*
X232852Y80600D02*
D03*
X195974Y94974D02*
D03*
X240000Y437200D02*
D03*
X236100Y433000D02*
D03*
X219000Y439462D02*
D03*
X157019Y48256D02*
D03*
Y52157D02*
D03*
X197100Y150000D02*
D03*
X167326Y387457D02*
D03*
X192388Y453956D02*
D03*
X196000Y451400D02*
D03*
X163796Y426496D02*
D03*
X214800Y452100D02*
D03*
X218112Y454256D02*
D03*
X231622Y441231D02*
D03*
X235900Y453300D02*
D03*
X178825Y441020D02*
D03*
X197600Y465600D02*
D03*
X194200Y154100D02*
D03*
X110500Y382000D02*
D03*
X116400Y373000D02*
D03*
X86000Y449000D02*
D03*
X110000Y457500D02*
D03*
X113000Y431500D02*
D03*
X116000Y421500D02*
D03*
X112000Y436500D02*
D03*
X118000Y453000D02*
D03*
X139500Y452931D02*
D03*
X62500Y461000D02*
D03*
X57000Y450000D02*
D03*
X86500Y394000D02*
D03*
X87000Y372500D02*
D03*
X185000Y323800D02*
D03*
X218000D02*
D03*
X75000Y420000D02*
D03*
X90000Y460000D02*
D03*
X96000Y459500D02*
D03*
X92000Y366000D02*
D03*
X101500Y381000D02*
D03*
X106000Y382500D02*
D03*
X91000Y382000D02*
D03*
X87000Y420500D02*
D03*
X115500Y445500D02*
D03*
X84349Y432149D02*
D03*
X123000Y424000D02*
D03*
X83500Y408500D02*
D03*
X79000Y414000D02*
D03*
X94700Y403600D02*
D03*
X102600D02*
D03*
X69700Y410900D02*
D03*
X5000Y408500D02*
D03*
X10000D02*
D03*
X15000D02*
D03*
X20000D02*
D03*
X25000D02*
D03*
X30000D02*
D03*
X35000D02*
D03*
X40000D02*
D03*
X45000D02*
D03*
X50000D02*
D03*
X55000D02*
D03*
Y403500D02*
D03*
X50000D02*
D03*
X45000D02*
D03*
X40000D02*
D03*
X35000D02*
D03*
X30000D02*
D03*
X25000D02*
D03*
X20000D02*
D03*
X15000D02*
D03*
X10000D02*
D03*
X5000D02*
D03*
X55000Y398500D02*
D03*
X50000D02*
D03*
X45000D02*
D03*
X40000D02*
D03*
X35000D02*
D03*
X30000D02*
D03*
X25000D02*
D03*
X20000D02*
D03*
X15000D02*
D03*
X10000D02*
D03*
X5000D02*
D03*
X55000Y393500D02*
D03*
X50000D02*
D03*
X45000D02*
D03*
X40000D02*
D03*
X35000D02*
D03*
X30000D02*
D03*
X25000D02*
D03*
X20000D02*
D03*
X15000D02*
D03*
X10000D02*
D03*
X5000D02*
D03*
X55000Y388500D02*
D03*
X50000D02*
D03*
X45000D02*
D03*
X40000D02*
D03*
X35000D02*
D03*
X30000D02*
D03*
X25000D02*
D03*
X20000D02*
D03*
X15000D02*
D03*
X10000D02*
D03*
X5000D02*
D03*
X55000Y383500D02*
D03*
X50000D02*
D03*
X45000D02*
D03*
X40000D02*
D03*
X35000D02*
D03*
X30000D02*
D03*
X25000D02*
D03*
X20000D02*
D03*
X15000D02*
D03*
X10000D02*
D03*
X5000D02*
D03*
X55000Y378500D02*
D03*
X50000D02*
D03*
X45000D02*
D03*
X40000D02*
D03*
X35000D02*
D03*
X30000D02*
D03*
X25000D02*
D03*
X20000D02*
D03*
X15000D02*
D03*
X10000D02*
D03*
X5000D02*
D03*
X55000Y373500D02*
D03*
X50000D02*
D03*
X45000D02*
D03*
X40000D02*
D03*
X35000D02*
D03*
X30000D02*
D03*
X25000D02*
D03*
X20000D02*
D03*
X15000D02*
D03*
X10000D02*
D03*
X5000D02*
D03*
X55000Y368500D02*
D03*
X50000D02*
D03*
X45000D02*
D03*
X40000D02*
D03*
X35000D02*
D03*
X30000D02*
D03*
X25000D02*
D03*
X20000D02*
D03*
X15000D02*
D03*
X10000D02*
D03*
X5000D02*
D03*
X55000Y363500D02*
D03*
X50000D02*
D03*
X45000D02*
D03*
X40000D02*
D03*
X35000D02*
D03*
X30000D02*
D03*
X25000D02*
D03*
X20000D02*
D03*
X15000D02*
D03*
X10000D02*
D03*
X5000D02*
D03*
X148500Y111611D02*
D03*
X163008Y133500D02*
D03*
X184000Y90500D02*
D03*
X164800Y90400D02*
D03*
X206600Y90500D02*
D03*
X227600D02*
D03*
X185714Y80504D02*
D03*
X196500Y71500D02*
D03*
X217000Y38000D02*
D03*
X151800D02*
D03*
X251500Y71400D02*
D03*
X268500Y423500D02*
D03*
X263280Y418498D02*
D03*
X204927Y70993D02*
D03*
X158500Y72000D02*
D03*
X201000Y54000D02*
D03*
X199493Y47373D02*
D03*
X144507Y47727D02*
D03*
X257000Y47000D02*
D03*
X188000Y45500D02*
D03*
X246500Y46000D02*
D03*
X96457Y150563D02*
D03*
X74500Y180500D02*
D03*
X79500D02*
D03*
X84500D02*
D03*
X89500D02*
D03*
X94500D02*
D03*
X99500D02*
D03*
X74500Y175500D02*
D03*
X79500D02*
D03*
X84500D02*
D03*
X89500D02*
D03*
X94500D02*
D03*
X99500D02*
D03*
X74500Y170500D02*
D03*
X79500D02*
D03*
X84500D02*
D03*
X89500D02*
D03*
X94500D02*
D03*
X99500D02*
D03*
X74500Y165500D02*
D03*
X79500D02*
D03*
X84500D02*
D03*
X89500D02*
D03*
X94500D02*
D03*
X99500D02*
D03*
X69500D02*
D03*
Y170500D02*
D03*
Y175500D02*
D03*
Y180500D02*
D03*
X88000Y160500D02*
D03*
X83000D02*
D03*
X78000D02*
D03*
X89500Y129500D02*
D03*
X73000Y316000D02*
D03*
X126000Y297000D02*
D03*
X160000Y244300D02*
D03*
X165000D02*
D03*
X170000D02*
D03*
X151500Y254300D02*
D03*
Y249300D02*
D03*
X171500D02*
D03*
X166500D02*
D03*
X161500D02*
D03*
X156500D02*
D03*
X171500Y254300D02*
D03*
X166500D02*
D03*
X161500D02*
D03*
X156500D02*
D03*
X194200Y85500D02*
D03*
X183500Y224000D02*
D03*
X287500Y330000D02*
D03*
Y320000D02*
D03*
Y310000D02*
D03*
Y300000D02*
D03*
Y290000D02*
D03*
Y280000D02*
D03*
Y230000D02*
D03*
Y240000D02*
D03*
Y250000D02*
D03*
Y260000D02*
D03*
Y270000D02*
D03*
Y210000D02*
D03*
Y220000D02*
D03*
X282500Y197500D02*
D03*
X275000Y190000D02*
D03*
Y210000D02*
D03*
Y220000D02*
D03*
Y230000D02*
D03*
Y240000D02*
D03*
Y250000D02*
D03*
Y260000D02*
D03*
Y270000D02*
D03*
Y310000D02*
D03*
Y300000D02*
D03*
Y290000D02*
D03*
Y280000D02*
D03*
Y320000D02*
D03*
Y330000D02*
D03*
X267500Y202500D02*
D03*
X282000Y340000D02*
D03*
X252271Y156629D02*
D03*
X259771Y164129D02*
D03*
X270751Y159433D02*
D03*
X274000Y180000D02*
D03*
Y170000D02*
D03*
X262196Y150520D02*
D03*
X253640Y141607D02*
D03*
X243716Y147716D02*
D03*
X263200Y178000D02*
D03*
X263500Y190000D02*
D03*
X251945Y127087D02*
D03*
X243945Y113587D02*
D03*
X235160Y138803D02*
D03*
X231152Y85076D02*
D03*
X233000Y75500D02*
D03*
X162000Y72000D02*
D03*
X183000D02*
D03*
X214000Y73000D02*
D03*
X129000Y213000D02*
D03*
X125000Y164000D02*
D03*
X115000Y161000D02*
D03*
D70*
X78000Y341000D02*
D03*
X82400Y45500D02*
D03*
X27400Y40000D02*
D03*
X89500Y85400D02*
D03*
X11000Y304900D02*
D03*
X203800Y297320D02*
D03*
X91000Y290100D02*
D03*
X108000Y271100D02*
D03*
X133100Y297000D02*
D03*
X59700Y262510D02*
D03*
X9700D02*
D03*
X121200Y241520D02*
D03*
X41100Y160500D02*
D03*
X256500Y319120D02*
D03*
X195000Y306720D02*
D03*
X201900Y211600D02*
D03*
X127600Y45400D02*
D03*
X70500Y45300D02*
D03*
X127400Y94300D02*
D03*
X38200Y263110D02*
D03*
X88200D02*
D03*
X127500Y139300D02*
D03*
X91100Y328700D02*
D03*
X108000Y311000D02*
D03*
X56900Y323400D02*
D03*
X102000Y159000D02*
D03*
D71*
X31500Y448000D02*
D03*
X29000Y430200D02*
D03*
D72*
X181100Y372200D02*
D03*
X180000Y326750D02*
D03*
X182300Y375900D02*
D03*
X183500Y326750D02*
D03*
X153900Y207100D02*
D03*
X209300Y56600D02*
D03*
X157400Y207100D02*
D03*
X212000Y60100D02*
D03*
X160900Y207100D02*
D03*
X164995D02*
D03*
X214600Y63100D02*
D03*
X159600Y78256D02*
D03*
X199748Y91200D02*
D03*
X218959Y375900D02*
D03*
X217759Y372200D02*
D03*
X199352Y324927D02*
D03*
X194060Y372198D02*
D03*
X196800Y327200D02*
D03*
X195337Y375900D02*
D03*
X203211D02*
D03*
X205277Y325100D02*
D03*
X202377Y323400D02*
D03*
X202011Y372200D02*
D03*
X191273Y327202D02*
D03*
X246800Y326589D02*
D03*
X232700Y399538D02*
D03*
X229200Y397738D02*
D03*
X243300Y326589D02*
D03*
X239900Y326750D02*
D03*
X236400D02*
D03*
X233000Y389100D02*
D03*
X229400D02*
D03*
X229673Y40695D02*
D03*
X164502D02*
D03*
X159600Y81800D02*
D03*
X221800Y108000D02*
D03*
X168300Y109300D02*
D03*
X145000Y387200D02*
D03*
X206200Y81800D02*
D03*
X207524Y85076D02*
D03*
X206524Y78256D02*
D03*
X192200Y91200D02*
D03*
X184800Y85176D02*
D03*
X160358D02*
D03*
X213000Y119300D02*
D03*
X178416Y120000D02*
D03*
X188798Y324727D02*
D03*
X211085Y375900D02*
D03*
X209885Y372200D02*
D03*
X211850Y326750D02*
D03*
X208350D02*
D03*
X215200D02*
D03*
X220754D02*
D03*
X227600D02*
D03*
X224100D02*
D03*
X224896Y375900D02*
D03*
X223696Y372200D02*
D03*
X189343D02*
D03*
X188143Y375900D02*
D03*
X196700Y207666D02*
D03*
X193365D02*
D03*
X190030D02*
D03*
X219000Y130500D02*
D03*
X215000Y131500D02*
D03*
X216800Y134700D02*
D03*
D95*
X231622Y441231D02*
D03*
D03*
D03*
D03*
X231621Y441231D02*
D03*
D03*
D03*
D03*
D03*
D03*
D03*
D03*
X231622Y441231D02*
D03*
D03*
D03*
D03*
X191988Y454156D02*
D03*
D96*
X243948Y53537D02*
D03*
D03*
D03*
D03*
D03*
D03*
D03*
D97*
X50000Y456000D02*
D03*
Y427000D02*
D03*
D98*
X50000Y147000D02*
D03*
Y160500D02*
D03*
X65800Y160400D02*
D03*
Y146900D02*
D03*
X98400Y71900D02*
D03*
Y85400D02*
D03*
X113900D02*
D03*
Y71900D02*
D03*
X32600Y31800D02*
D03*
Y45300D02*
D03*
X48100D02*
D03*
Y31800D02*
D03*
X89700Y31900D02*
D03*
Y45400D02*
D03*
X105200D02*
D03*
Y31900D02*
D03*
X98500Y116900D02*
D03*
Y130400D02*
D03*
X114000D02*
D03*
Y116900D02*
D03*
X59700Y240110D02*
D03*
Y253610D02*
D03*
X75200D02*
D03*
Y240110D02*
D03*
X9700D02*
D03*
Y253610D02*
D03*
X25200D02*
D03*
Y240110D02*
D03*
D99*
X219565Y79785D02*
D03*
X172456D02*
D03*
D100*
X224190Y454090D02*
D03*
X237413Y440867D02*
D03*
X235999Y439453D02*
D03*
X231823Y435277D02*
D03*
X234607Y438061D02*
D03*
X221384Y451284D02*
D03*
X219992Y449892D02*
D03*
X222776Y452676D02*
D03*
X233215Y436669D02*
D03*
D101*
X218600Y448500D02*
D03*
D102*
X237800Y49569D02*
D03*
X219100Y53506D02*
D03*
Y49569D02*
D03*
Y51537D02*
D03*
X237800D02*
D03*
Y47600D02*
D03*
Y53506D02*
D03*
Y55506D02*
D03*
X219100D02*
D03*
X161900D02*
D03*
X180600D02*
D03*
Y53506D02*
D03*
Y47600D02*
D03*
Y51537D02*
D03*
X161900D02*
D03*
Y49569D02*
D03*
Y53506D02*
D03*
X180600Y49569D02*
D03*
D103*
X219100Y47600D02*
D03*
X161900D02*
D03*
D104*
X130100Y241520D02*
D03*
Y232520D02*
D03*
X140400D02*
D03*
Y241520D02*
D03*
X212700Y297320D02*
D03*
Y288320D02*
D03*
X222000Y288220D02*
D03*
Y297220D02*
D03*
X141300Y297320D02*
D03*
Y288320D02*
D03*
X150600Y288220D02*
D03*
Y297220D02*
D03*
X23800Y430200D02*
D03*
Y421200D02*
D03*
X11600Y297500D02*
D03*
Y288500D02*
D03*
X21900D02*
D03*
Y297500D02*
D03*
D105*
X27400Y40000D02*
Y40100D01*
X32600Y45300D01*
X70200Y160400D02*
X77300D01*
X70100D02*
X70200D01*
X183700Y243000D02*
Y263100D01*
X116000D02*
X183700D01*
X108000Y271100D02*
X116000Y263100D01*
X82400Y45500D02*
X91300D01*
X15900Y79751D02*
X28890D01*
X15900D02*
Y154400D01*
X49800Y188300D01*
Y246800D01*
X56610Y253610D01*
X59700D01*
X201900Y211600D02*
Y218100D01*
X89500Y85400D02*
X98400D01*
X11000Y296000D02*
Y304900D01*
X203800Y297320D02*
X212700D01*
X91000Y290100D02*
Y299000D01*
X108000Y271100D02*
Y280000D01*
X133100Y297000D02*
X142000D01*
X59700Y253610D02*
Y262510D01*
X9700Y253610D02*
Y262510D01*
X121200Y241520D02*
X130100D01*
X41100Y160500D02*
X50000D01*
X256500Y310220D02*
Y319120D01*
X186100Y306720D02*
X195000D01*
X118700Y45400D02*
X127600D01*
X61600Y45300D02*
X70500D01*
X127400Y85400D02*
Y94300D01*
X127500Y130400D02*
Y139300D01*
X98500Y115500D02*
X111100D01*
X114000Y130400D02*
X127500D01*
X98500D02*
X102000Y133900D01*
Y155280D02*
Y159000D01*
Y133900D02*
Y149000D01*
Y155280D01*
X50100Y146900D02*
X65800D01*
D106*
X81750Y161250D02*
D03*
D107*
X78750Y174000D02*
D03*
D108*
X95500Y173000D02*
D03*
M02*
