M48
;Layer_Color=9474304
;FILE_FORMAT=2:4
INCH
;TYPE=PLATED
T1F00S00C0.0120
T2F00S00C0.0150
T3F00S00C0.0380
T4F00S00C0.0400
T5F00S00C0.0420
T6F00S00C0.0440
T7F00S00C0.0520
T8F00S00C0.0700
T9F00S00C0.1060
T10F00S00C0.1200
T11F00S00C0.1250
;TYPE=NON_PLATED
T12F00S00C0.0400
%
T01
X037500Y001190
Y003200
Y004590
X036600Y009100
X035000
X035550Y008100
X037500Y011040
X034550Y008100
X033550
X032550
X033300Y009100
X031700
X022760Y009050
X023300Y007550
X021400Y007300
X021460Y006310
X021200Y006010
X020930Y005660
X020100Y005400
X019949Y004737
X021700Y003800
X022967Y004069
X024650Y004600
X025700Y004700
X020493Y007099
X020652Y007826
X020620Y008180
X020752Y008508
X020660Y009050
X019975Y009120
X019220
X019420Y008550
X022180Y010800
X016830Y010930
X016480Y009040
X016036Y008518
X015960Y008180
Y007826
X015850Y007200
X016200
X014740Y007190
X015000Y006300
X015020Y005510
X014657Y005810
X014451Y004773
X015180Y003800
X016450Y004069
X018800Y004550
X018300Y007200
X018480Y008518
X018400Y009050
X014670Y009330
X015000Y010200
X014350Y008050
X012370Y006510
X012310Y011020
X011430Y002510
X005790
X003420Y023370
X008510Y023390
X013280Y022090
X012900Y021300
X013095Y020540
X014660Y020540
X015005Y020540
X015390Y020710
X015740
X016090
X016499
X017070Y021290
X018350Y022400
X018110Y023450
X019003Y020767
X018590Y017010
X014985
X014520Y017020
X013250
X012500Y016400
X011500Y016100
X012850Y015160
X017842Y012000
X014810Y022310
X004110Y016990
X005910Y013410
X019710Y015000
X019420Y015410
X019490Y016720
X021520Y017050
X021920
X023650Y017000
X023965Y016750
X024280Y017000
X024595Y016750
X024915Y017000
X025395Y017010
X025977Y016413
X025227Y015663
X026220Y015052
X025364Y014161
X024372Y014772
X023516Y013880
X021680Y013470
X021500Y013150
X021900Y013050
X021300Y011930
X024394Y011359
X025194Y012709
X027075Y015943
X027400Y017000
Y018000
X027500Y019000
X026350
X026320Y017800
X026750Y020250
X027500Y021000
Y022000
Y023000
Y024000
Y025000
Y026000
X028750
Y025000
Y024000
Y023000
Y022000
Y021000
X028250Y019750
X025545Y020600
X025230Y020900
X024915Y020600
X024595Y020900
X024286Y020600
X023970Y020900
X023655Y020600
X023340Y020900
X023025Y020600
X022710Y020900
X022400Y020600
X022080Y020900
X021200Y021250
X019670Y020767
X019337
X022800Y022100
X022500Y022400
X020440Y025070
X031000Y024000
X031800Y023400
X032600Y024000
X033400Y023400
X034300Y024000
Y026200
X032600
X031000
Y011900
X031700Y011300
X032600Y011900
X033300Y011300
X034200Y011900
X035000Y011300
X035800Y011900
X036600Y011300
X037500Y013050
Y014440
Y020880
Y022300
Y024280
X036600Y023400
X035900Y024000
X035000Y023400
X035900Y026200
X035050Y027200
X037500Y030720
Y032100
Y034120
Y040560
Y042000
X024000Y042160
X024022Y040941
X023655Y040957
X023650Y040600
X023270Y039954
X022920Y039774
X022940Y038910
X023300
X022490Y037590
X022370Y037220
X021776
X021896Y037590
X021109
X020989Y037220
X020201
X020321Y037590
X019534
X019406Y037220
X020360Y038580
X020748Y038575
X020800Y039456
X020310
X019770
Y040000
Y040490
Y040980
X020310
X020800
X021290
Y040490
Y040000
Y039456
X022080Y040351
X022130Y040800
X021570Y041700
X020980Y041800
X020389
X019799
X019330Y041700
X021650Y036400
X021520Y032675
X021185
X020835
X020528Y032510
X020238Y032340
X019935Y032493
X019680Y032720
X019127Y032720
X022075Y032675
X022410
X022760
X023640
X023990
X024330Y032659
X024680
X025410Y032680
X027500Y033000
Y032000
Y031000
Y030000
Y029000
Y028000
Y027000
X028750
Y028000
Y029000
Y030000
Y031000
Y032000
Y033000
X028200Y034000
X025130Y029200
X024720Y028300
X024745Y027890
X025105Y027900
X025095Y027513
X025460
X026291Y027518
X026307Y027885
X025950Y027890
X023810Y027218
X021380Y027670
X020690Y031140
X021800Y032380
X032050Y027200
X033050
X034050
X017060Y027170
X015480Y027670
X017932Y029120
X018000Y032675
X018350
X018500Y032380
X018880Y032473
X014985Y032760
X014630Y032750
X014275
X013920
X013530
X013095Y032760
X013530Y031114
X012600Y029700
X007300Y031600
X005120Y029200
X003940Y027060
X009200Y036600
X008700Y037250
X009100Y038200
X010150Y038100
X010600Y038250
X011050Y038200
X011640Y037300
X011610Y036100
X013575Y036340
X014520
X014500Y038720
X017135Y040281
X018130Y040700
Y041050
Y041750
Y042106
X016970Y041870
X018917Y040800
X018967Y040351
X018814Y037590
X018934Y037220
X018110
X018230Y037590
X018470Y036380
X010260Y040360
X009470
X008350Y040850
X007900Y041400
X007500Y042000
X008700Y042050
X006970Y041090
X006970Y040380
X008650Y039400
X011600Y042150
X012300Y042400
X002900Y042300
X000560Y031550
X001380Y027650
X005700Y045000
X006250Y046100
X009000Y046000
X009600Y045950
X011000Y045750
X011800Y045300
X011550Y044550
X011200Y043650
X011300Y043150
X008435Y043215
X008600Y044900
X013950Y045293
X014350Y044550
X014500Y043382
X016380Y042650
X017480Y043190
X018220Y042801
X018980Y042600
X017883Y044102
X013720Y046800
X019760Y046560
X020320Y046600
X020160Y046210
X019850Y045900
X019600Y045140
X019930Y044450
X021080
X021480Y045210
X023590Y045330
X022790Y042800
X022117Y042600
X024980Y042610
X025300Y042910
X037500Y043960
Y050410
Y051800
Y053810
T02
X021438Y004878
Y005238
X024271Y004818
X025150Y007140
X023285Y008060
X023115Y008508
X019597Y009497
X019650Y007150
X018571Y008050
X018350Y005750
X018545Y004808
X015702Y004826
Y005216
X012760Y004540
X008240Y004550
X007050Y004530
X008950Y008540
X012740Y009430
X014850Y011161
X002740Y004000
X000970Y026251
X003820Y026311
X005970Y026251
X008820Y026311
X012120Y024152
X015150Y024930
X015650
Y025430
X016150
X016650
X017150
Y024930
X016650
X016150
X016000Y024430
X016500
X017000
X017650Y024930
Y025430
X015150
X009950Y018050
Y017550
Y017050
Y016550
X009450
X008950
X008450
X007950
X007450
X006950
Y017050
Y017550
Y018050
X007450
Y017550
Y017050
X007950
X008450
X008950
X009450
Y017550
X008950
X008450
X007950
Y018050
X008450
X008950
X009450
X008800Y016050
X008300
X007800
X010200Y015900
X009646Y015056
X008950Y012950
X012750Y013930
X016301Y013350
X018610Y013230
X018610Y012710
X018610Y012310
X018610Y013750
X018610Y014150
X004110Y016050
X019110Y014150
X019110Y013750
X019610
X019610Y014150
X020110
X020110Y013750
X020610
X020610Y014150
X020610Y013230
X020110
X020110Y012710
X020110Y012310
X020610
X020610Y012710
X019610
X019610Y012310
X019110
X019110Y012710
X019110Y013230
X020190Y021160
X020380Y029732
X019500Y030672
X025650Y031912
X026647Y027513
X026328Y041850
X026850Y042350
X024394Y041281
X024027Y041297
X016733Y038746
X012773Y039017
Y038383
Y037760
X012795Y039630
X005500Y039850
Y039350
Y038850
Y038350
Y037850
Y037350
Y036850
Y036350
X005000
X004500
X004000
X003500
Y036850
X004000
X004500
X005000
Y037350
X004500
X004000
X003500
Y037850
X004000
X004500
X005000
Y038350
X004500
X004000
X003500
Y038850
X004000
X004500
X005000
Y039350
X004500
X004000
X003500
Y039850
X004000
X004500
X005000
Y040350
X004500
X004000
X003500
Y040850
X004000
X004500
X005000
X005500
Y040350
X005690Y032340
X007800Y034100
X009110Y032870
X010800Y031100
X009100Y029010
X010800Y027110
X013310Y029700
X001100Y030490
X001000Y036350
X000500
Y036850
X001000
X001500
Y036350
X002000
X002500
X003000
Y036850
X002500
X002000
Y037350
X001500
X001000
X000500
Y037850
X001000
X001500
X002000
X002500
Y037350
X003000
Y037850
Y038350
X002500
X002000
X001500
X001000
X000500
Y038850
X001000
X001500
X002000
X002500
X003000
Y039350
X002500
X002000
X001500
X001000
X000500
Y039850
X001000
X001500
X002000
X002500
X003000
Y040350
X002500
X002000
X001500
X001000
X000500
Y040850
X001000
X001500
X002000
X002500
X003000
X002900Y043020
X003150Y044800
X019239Y045396
X021811Y045426
X021900Y043946
X022300Y043510
X023162Y044123
X024000Y043720
X023610Y043300
T03
X031800Y016660
Y017660
Y018660
X034800
Y017660
Y016660
X037800
Y017660
Y018660
T04
X007137Y008769
Y012706
T05
X002889Y007975
Y008975
Y009975
Y010975
X001545Y048321
Y049321
T06
X019610Y013230
X020530Y040218
T07
X024050Y001740
X016550
X012420Y048800
X004920
X019920Y048820
X027420
T08
X023050Y000740
Y002740
X025050
Y000740
X017550
X015550
Y002740
X017550
X018920Y047820
Y049820
X013420Y049800
X011420
Y047800
X013420
X005920
X003920
Y049800
X005920
X020920Y049820
Y047820
X026420
Y049820
X028420
Y047820
T09
X036300Y002400
X031300
X036300Y032900
X031300
T10
X027950Y005850
X001600
Y052850
X027950
T11
X001181Y017991
X028346
Y035314
X001181
T12
X012615Y019575
X026190
Y035325
X012615
M30
