M48
;Layer_Color=9474304
;FILE_FORMAT=2:3
INCH,LZ
;TYPE=PLATED
T1F00S00C0.012
T2F00S00C0.015
T3F00S00C0.038
T4F00S00C0.040
T5F00S00C0.042
T6F00S00C0.044
T7F00S00C0.052
T8F00S00C0.070
T9F00S00C0.106
T10F00S00C0.120
T11F00S00C0.125
;TYPE=NON_PLATED
T12F00S00C0.040
%
T01
X0375Y00119
Y0032
Y00459
X0366Y0091
X035
X03555Y0081
X0375Y01104
X03455Y0081
X03355
X03255
X0333Y0091
X0317
X02276Y00905
X0233Y00755
X0214Y0073
X02146Y00631
X0212Y00601
X02093Y00566
X0201Y0054
X01995Y00474
X0217Y0038
X02297Y00407
X02465Y0046
X0257Y0047
X02049Y0071
X02065Y00783
X02062Y00818
X02075Y00851
X02066Y00905
X01997Y00912
X01922
X01942Y00855
X02218Y0108
X01683Y01093
X01648Y00904
X01604Y00852
X01596Y00818
Y00783
X01585Y0072
X0162
X01474Y00719
X015Y0063
X01502Y00551
X01466Y00581
X01445Y00477
X01518Y0038
X01645Y00407
X0188Y00455
X0183Y0072
X01848Y00852
X0184Y00905
X01467Y00933
X015Y0102
X01435Y00805
X01237Y00651
X01231Y01102
X01143Y00251
X00579
X00342Y02337
X00851Y02339
X01328Y02209
X0129Y0213
X01309Y02054
X01466Y02054
X015Y02054
X01539Y02071
X01574
X01609
X0165
X01707Y02129
X01835Y0224
X01811Y02345
X019Y02077
X01859Y01701
X01498
X01452Y01702
X01325
X0125Y0164
X0115Y0161
X01285Y01516
X01784Y012
X00591Y01341
X00411Y01699
X01481Y02231
X01934Y02077
X01967
X0212Y02125
X02208Y0209
X0224Y0206
X02271Y0209
X02303Y0206
X02334Y0209
X02366Y0206
X02397Y0209
X02429Y0206
X0246Y0209
X02491Y0206
X02523Y0209
X02555Y0206
X02675Y02025
X0275Y021
Y022
Y023
Y024
Y025
Y026
X02875
Y025
Y024
Y023
Y022
Y021
X02825Y01975
X0275Y019
X0274Y018
Y017
X02708Y01594
X02598Y01641
X0254Y01701
X02491Y017
X0246Y01675
X02428Y017
X02397Y01675
X02365Y017
X02192Y01705
X02152
X01949Y01672
X01942Y01541
X01971Y015
X02168Y01347
X0215Y01315
X0219Y01305
X0213Y01193
X02439Y01136
X02519Y01271
X02536Y01416
X02437Y01477
X02523Y01566
X02622Y01505
X02632Y0178
X02635Y019
X0228Y0221
X0225Y0224
X02044Y02507
X031Y024
X0318Y0234
X0326Y024
X0334Y0234
X0343Y024
Y0262
X0326
X031
Y0119
X0317Y0113
X0326Y0119
X0333Y0113
X0342Y0119
X02352Y01388
X035Y0113
X0358Y0119
X0366Y0113
X0375Y01305
Y01444
Y02088
Y0223
Y02428
X0366Y0234
X0359Y024
X035Y0234
X0359Y0262
X03505Y0272
X0375Y03072
Y0321
Y03412
Y04056
Y042
X024Y04216
X02402Y04094
X02366Y04096
X02365Y0406
X02327Y03995
X02292Y03977
X02294Y03891
X0233
X02249Y03759
X02237Y03722
X02178
X0219Y03759
X02111
X02099Y03722
X0202
X02032Y03759
X01953
X01941Y03722
X02036Y03858
X02075Y03858
X0208Y03946
X02129
Y04
Y04049
Y04098
X0208
X02031
X01977
Y04049
Y04
Y03946
X02031
X02039Y0418
X02098
X02157Y0417
X02213Y0408
X02208Y04035
X0198Y0418
X01933Y0417
X02165Y0364
X02152Y03267
X02118
X02083
X02053Y03251
X02024Y03234
X01994Y03249
X01968Y03272
X01913Y03272
X02208Y03267
X02241
X02276
X02364
X02399
X02433Y03266
X02468
X02541Y03268
X0275Y033
Y032
Y031
Y03
Y029
Y028
Y027
X02875
Y028
Y029
Y03
Y031
Y032
Y033
X0282Y034
X02513Y0292
X02472Y0283
X02474Y02789
X0251Y0279
X0251Y02751
X02546
X02629Y02752
X02631Y02788
X02595Y02789
X02381Y02722
X02138Y02767
X02069Y03114
X0218Y03238
X03205Y0272
X03305
X03405
X01706Y02717
X01548Y02767
X01793Y02912
X018Y03267
X01835
X0185Y03238
X01888Y03247
X01498Y03276
X01463Y03275
X01428
X01392
X01353
X01309Y03276
X01353Y03111
X0126Y0297
X0073Y0316
X00512Y0292
X00394Y02706
X0092Y0366
X0087Y03725
X0091Y0382
X01015Y0381
X0106Y03825
X01105Y0382
X01164Y0373
X01161Y0361
X01357Y03634
X01452
X0145Y03872
X01713Y04028
X01813Y0407
Y04105
Y04175
Y04211
X01697Y04187
X01892Y0408
X01897Y04035
X01881Y03759
X01893Y03722
X01811
X01823Y03759
X01847Y03638
X0123Y0424
X0116Y04215
X0087Y04205
X0075Y042
X0079Y0414
X00835Y04085
X00947Y04036
X01026
X00865Y0394
X00697Y04038
X00697Y04109
X0029Y0423
X00056Y03155
X00138Y02765
X0057Y045
X00625Y0461
X009Y046
X0096Y04595
X011Y04575
X0118Y0453
X01155Y04455
X0112Y04365
X0113Y04315
X00843Y04321
X0086Y0449
X01395Y04529
X01435Y04455
X0145Y04338
X01638Y04265
X01748Y04319
X01822Y0428
X01898Y0426
X01788Y0441
X01372Y0468
X01976Y04656
X02032Y0466
X02016Y04621
X01985Y0459
X0196Y04514
X01993Y04445
X02108
X02148Y04521
X02359Y04533
X02279Y0428
X02212Y0426
X02498Y04261
X0253Y04291
X0375Y04396
Y05041
Y0518
Y05381
T02
X02144Y00488
Y00524
X02427Y00482
X02515Y00714
X02329Y00806
X02312Y00851
X0196Y0095
X01965Y00715
X01857Y00805
X01835Y00575
X01854Y00481
X0157Y00483
Y00522
X01276Y00454
X00824Y00455
X00705Y00453
X00895Y00854
X01274Y00943
X01485Y01116
X00274Y004
X00097Y02625
X00382Y02631
X00597Y02625
X00882Y02631
X01212Y02415
X01515Y02493
Y02543
X01565
Y02493
X01615
X01665
X01715
X01765
Y02543
X01715
X01665
X01615
X016Y02443
X0165
X017
X0163Y01335
X01861Y01323
X01861Y01375
X01861Y01415
X01861Y01271
X01861Y01231
X01275Y01393
X00965Y01506
X0102Y0159
X00995Y01655
Y01705
Y01755
Y01805
X00945
X00895
X00845
X00795
X00745
Y01755
X00795
X00845
X00895
X00945
Y01705
X00895
X00845
X00795
X00745
Y01655
X00795
X00845
X00895
X00945
X0088Y01605
X0083
X0078
X00695Y01655
Y01705
Y01755
Y01805
X00411Y01605
X00895Y01295
X01911Y01271
X01911Y01231
X01961
X01961Y01271
X02011
X02011Y01231
X02061
X02061Y01271
X02061Y01323
X02011
X02011Y01375
X02011Y01415
X02061
X02061Y01375
X01961
X01961Y01415
X01911
X01911Y01375
X01911Y01323
X02019Y02116
X02038Y02973
X0195Y03067
X02565Y03191
X02665Y02751
X02633Y04185
X02685Y04235
X02439Y04128
X02403Y0413
X01673Y03875
X01277Y03902
Y03838
Y03776
X01279Y03963
X0055Y03985
Y04035
Y04085
X005
X0045
X004
X0035
Y04035
X004
X0045
X005
Y03985
X0045
X004
X0035
Y03935
X004
X0045
X005
X0055
Y03885
X005
X0045
X004
X0035
Y03835
X004
X0045
X005
X0055
Y03785
X005
X0045
X004
X0035
Y03735
X004
X0045
X005
X0055
Y03685
X005
X0045
X004
X0035
Y03635
X004
X0045
X005
X0055
X00569Y03234
X0078Y0341
X00911Y03287
X0108Y0311
X0091Y02901
X0108Y02711
X01331Y0297
X0011Y03049
X001Y03635
Y03685
Y03735
Y03785
Y03835
Y03885
Y03935
Y03985
Y04035
Y04085
X0005
Y04035
Y03985
Y03935
Y03885
Y03835
Y03785
Y03735
Y03685
Y03635
X0015
Y03685
Y03735
Y03785
Y03835
Y03885
Y03935
Y03985
Y04035
Y04085
X002
X0025
X003
Y04035
X0025
X002
Y03985
X0025
X003
Y03935
X0025
X002
Y03885
X0025
X003
Y03835
X0025
X002
Y03785
X0025
X003
Y03735
X0025
X002
Y03685
X0025
X003
Y03635
X0025
X002
X0029Y04302
X00315Y0448
X01924Y0454
X02181Y04543
X0219Y04395
X0223Y04351
X02316Y04412
X024Y04372
X02361Y0433
T03
X0318Y01666
Y01766
Y01866
X0348
Y01766
Y01666
X0378
Y01766
Y01866
T04
X00714Y00877
Y01271
T05
X00289Y00798
Y00898
Y00998
Y01098
X00155Y04832
Y04932
T06
X01961Y01323
X02053Y04022
T07
X02405Y00174
X01655
X01242Y0488
X00492
X01992Y04882
X02742
T08
X02305Y00074
X02505
Y00274
X02305
X01755
Y00074
X01555
Y00274
X01342Y0478
Y0498
X01142
Y0478
X00592
Y0498
X00392
Y0478
X01892Y04782
Y04982
X02092
Y04782
X02642
X02842
Y04982
X02642
T09
X0363Y0024
X0313
X0363Y0329
X0313
T10
X02795Y00585
X0016
Y05285
X02795
T11
X00118Y01799
X02835
Y03531
X00118
T12
X01262Y01957
X02619
Y03533
X01262
M30
