G04 Layer_Color=2752767*
%FSLAX25Y25*%
%MOIN*%
G70*
G01*
G75*
%ADD48C,0.00800*%
%ADD74C,0.00400*%
%ADD168C,0.00500*%
%ADD169C,0.00667*%
D48*
X0Y364950D02*
Y550000D01*
X119300D01*
X0Y-0D02*
X75300D01*
X0D02*
Y168100D01*
X75300Y-0D02*
X400000D01*
X0Y168100D02*
Y364950D01*
X119300Y550000D02*
X400000D01*
Y-0D02*
Y550000D01*
D74*
X72566Y127063D02*
G03*
X72566Y127063I-1200J0D01*
G01*
Y87693D02*
G03*
X72566Y87693I-1200J0D01*
G01*
D168*
X9811Y351139D02*
Y355139D01*
X13811D01*
Y351139D01*
X9811D01*
X281465D02*
Y355139D01*
X285465D01*
Y351139D01*
X281465D01*
Y177911D02*
Y181911D01*
X285465D01*
Y177911D01*
X281465D01*
X9811D02*
Y181911D01*
X13811D01*
Y177911D01*
X9811D01*
X114200Y476000D02*
X112200Y480000D01*
X116200D01*
X114200Y476000D01*
Y496000D02*
X112200Y500000D01*
X116200D01*
X114200Y496000D01*
X134200D02*
X132200Y500000D01*
X136200D01*
X134200Y496000D01*
Y476000D02*
X132200Y480000D01*
X136200D01*
X134200Y476000D01*
X124200Y486000D02*
X125200Y487000D01*
X126200D01*
X125200Y488000D01*
X126200Y489000D01*
X125200D01*
X124200Y490000D01*
X123200Y489000D01*
X122200D01*
X123200Y488000D01*
X122200Y487000D01*
X123200D01*
X124200Y486000D01*
X264200Y476200D02*
X262200Y480200D01*
X266200D01*
X264200Y476200D01*
Y496200D02*
X262200Y500200D01*
X266200D01*
X264200Y496200D01*
X284200D02*
X282200Y500200D01*
X286200D01*
X284200Y496200D01*
Y476200D02*
X282200Y480200D01*
X286200D01*
X284200Y476200D01*
X274200Y486200D02*
X275200Y487200D01*
X276200D01*
X275200Y488200D01*
X276200Y489200D01*
X275200D01*
X274200Y490200D01*
X273200Y489200D01*
X272200D01*
X273200Y488200D01*
X272200Y487200D01*
X273200D01*
X274200Y486200D01*
X189200Y476200D02*
X187200Y480200D01*
X191200D01*
X189200Y476200D01*
Y496200D02*
X187200Y500200D01*
X191200D01*
X189200Y496200D01*
X209200D02*
X207200Y500200D01*
X211200D01*
X209200Y496200D01*
Y476200D02*
X207200Y480200D01*
X211200D01*
X209200Y476200D01*
X199200Y486200D02*
X200200Y487200D01*
X201200D01*
X200200Y488200D01*
X201200Y489200D01*
X200200D01*
X199200Y490200D01*
X198200Y489200D01*
X197200D01*
X198200Y488200D01*
X197200Y487200D01*
X198200D01*
X199200Y486200D01*
X277500Y526500D02*
X278500Y528500D01*
X277500Y530500D01*
X279500Y529500D01*
X281500Y530500D01*
X280500Y528500D01*
X281500Y526500D01*
X279500Y527500D01*
X277500Y526500D01*
Y56500D02*
X278500Y58500D01*
X277500Y60500D01*
X279500Y59500D01*
X281500Y60500D01*
X280500Y58500D01*
X281500Y56500D01*
X279500Y57500D01*
X277500Y56500D01*
X14000D02*
X15000Y58500D01*
X14000Y60500D01*
X16000Y59500D01*
X18000Y60500D01*
X17000Y58500D01*
X18000Y56500D01*
X16000Y57500D01*
X14000Y56500D01*
Y526500D02*
X15000Y528500D01*
X14000Y530500D01*
X16000Y529500D01*
X18000Y530500D01*
X17000Y528500D01*
X18000Y526500D01*
X16000Y527500D01*
X14000Y526500D01*
X317000Y175600D02*
Y174600D01*
X319000D01*
Y175600D01*
X320000D01*
Y177600D01*
X319000D01*
Y178600D01*
X317000D01*
Y177600D01*
X316000D01*
Y175600D01*
X317000D01*
Y185600D02*
Y184600D01*
X319000D01*
Y185600D01*
X320000D01*
Y187600D01*
X319000D01*
Y188600D01*
X317000D01*
Y187600D01*
X316000D01*
Y185600D01*
X317000D01*
Y165600D02*
Y164600D01*
X319000D01*
Y165600D01*
X320000D01*
Y167600D01*
X319000D01*
Y168600D01*
X317000D01*
Y167600D01*
X316000D01*
Y165600D01*
X317000D01*
X347000Y175600D02*
Y174600D01*
X349000D01*
Y175600D01*
X350000D01*
Y177600D01*
X349000D01*
Y178600D01*
X347000D01*
Y177600D01*
X346000D01*
Y175600D01*
X347000D01*
Y185600D02*
Y184600D01*
X349000D01*
Y185600D01*
X350000D01*
Y187600D01*
X349000D01*
Y188600D01*
X347000D01*
Y187600D01*
X346000D01*
Y185600D01*
X347000D01*
Y165600D02*
Y164600D01*
X349000D01*
Y165600D01*
X350000D01*
Y167600D01*
X349000D01*
Y168600D01*
X347000D01*
Y167600D01*
X346000D01*
Y165600D01*
X347000D01*
X311000Y22000D02*
X312000D01*
X313000Y23000D01*
X314000Y22000D01*
X315000D01*
Y23000D01*
X314000Y24000D01*
X315000Y25000D01*
Y26000D01*
X314000D01*
X313000Y25000D01*
X312000Y26000D01*
X311000D01*
Y25000D01*
X312000Y24000D01*
X311000Y23000D01*
Y22000D01*
X361000D02*
X362000D01*
X363000Y23000D01*
X364000Y22000D01*
X365000D01*
Y23000D01*
X364000Y24000D01*
X365000Y25000D01*
Y26000D01*
X364000D01*
X363000Y25000D01*
X362000Y26000D01*
X361000D01*
Y25000D01*
X362000Y24000D01*
X361000Y23000D01*
Y22000D01*
X377000Y175600D02*
Y174600D01*
X379000D01*
Y175600D01*
X380000D01*
Y177600D01*
X379000D01*
Y178600D01*
X377000D01*
Y177600D01*
X376000D01*
Y175600D01*
X377000D01*
Y185600D02*
Y184600D01*
X379000D01*
Y185600D01*
X380000D01*
Y187600D01*
X379000D01*
Y188600D01*
X377000D01*
Y187600D01*
X376000D01*
Y185600D01*
X377000D01*
Y165600D02*
Y164600D01*
X379000D01*
Y165600D01*
X380000D01*
Y167600D01*
X379000D01*
Y168600D01*
X377000D01*
Y167600D01*
X376000D01*
Y165600D01*
X377000D01*
X311000Y327000D02*
X312000D01*
X313000Y328000D01*
X314000Y327000D01*
X315000D01*
Y328000D01*
X314000Y329000D01*
X315000Y330000D01*
Y331000D01*
X314000D01*
X313000Y330000D01*
X312000Y331000D01*
X311000D01*
Y330000D01*
X312000Y329000D01*
X311000Y328000D01*
Y327000D01*
X361000D02*
X362000D01*
X363000Y328000D01*
X364000Y327000D01*
X365000D01*
Y328000D01*
X364000Y329000D01*
X365000Y330000D01*
Y331000D01*
X364000D01*
X363000Y330000D01*
X362000Y331000D01*
X361000D01*
Y330000D01*
X362000Y329000D01*
X361000Y328000D01*
Y327000D01*
X13451Y483210D02*
X15451Y485210D01*
X17451Y483210D01*
X15451Y481210D01*
X13451Y483210D01*
Y493210D02*
X15451Y495210D01*
X17451Y493210D01*
X15451Y491210D01*
X13451Y493210D01*
X39200Y476000D02*
X37200Y480000D01*
X41200D01*
X39200Y476000D01*
Y496000D02*
X37200Y500000D01*
X41200D01*
X39200Y496000D01*
X59200D02*
X57200Y500000D01*
X61200D01*
X59200Y496000D01*
Y476000D02*
X57200Y480000D01*
X61200D01*
X59200Y476000D01*
X49200Y486000D02*
X50200Y487000D01*
X51200D01*
X50200Y488000D01*
X51200Y489000D01*
X50200D01*
X49200Y490000D01*
X48200Y489000D01*
X47200D01*
X48200Y488000D01*
X47200Y487000D01*
X48200D01*
X49200Y486000D01*
X194100Y130300D02*
Y134300D01*
X198100D01*
Y130300D01*
X194100D01*
X194900Y131100D02*
Y133500D01*
X197300D01*
Y131100D01*
X194900D01*
X26890Y79751D02*
X28890Y81751D01*
X30890Y79751D01*
X28890Y77751D01*
X26890Y79751D01*
Y89751D02*
X28890Y91751D01*
X30890Y89751D01*
X28890Y87751D01*
X26890Y89751D01*
Y109751D02*
X28890Y111751D01*
X30890Y109751D01*
X28890Y107751D01*
X26890Y109751D01*
Y99751D02*
X28890Y101751D01*
X30890Y99751D01*
X28890Y97751D01*
X26890Y99751D01*
X155500Y5400D02*
X153500Y9400D01*
X157500D01*
X155500Y5400D01*
Y25400D02*
X153500Y29400D01*
X157500D01*
X155500Y25400D01*
X175500D02*
X173500Y29400D01*
X177500D01*
X175500Y25400D01*
Y5400D02*
X173500Y9400D01*
X177500D01*
X175500Y5400D01*
X165500Y15400D02*
X166500Y16400D01*
X167500D01*
X166500Y17400D01*
X167500Y18400D01*
X166500D01*
X165500Y19400D01*
X164500Y18400D01*
X163500D01*
X164500Y17400D01*
X163500Y16400D01*
X164500D01*
X165500Y15400D01*
X230500Y5400D02*
X228500Y9400D01*
X232500D01*
X230500Y5400D01*
Y25400D02*
X228500Y29400D01*
X232500D01*
X230500Y25400D01*
X250500D02*
X248500Y29400D01*
X252500D01*
X250500Y25400D01*
Y5400D02*
X248500Y9400D01*
X252500D01*
X250500Y5400D01*
X240500Y15400D02*
X241500Y16400D01*
X242500D01*
X241500Y17400D01*
X242500Y18400D01*
X241500D01*
X240500Y19400D01*
X239500Y18400D01*
X238500D01*
X239500Y17400D01*
X238500Y16400D01*
X239500D01*
X240500Y15400D01*
X115000Y159000D02*
X113000Y163000D01*
X117000D01*
X115000Y159000D01*
Y159800D02*
X113800Y162200D01*
X116200D01*
X115000Y159800D01*
X125000Y162000D02*
X123000Y166000D01*
X127000D01*
X125000Y162000D01*
Y162800D02*
X123800Y165200D01*
X126200D01*
X125000Y162800D01*
X129000Y211000D02*
X127000Y215000D01*
X131000D01*
X129000Y211000D01*
Y211800D02*
X127800Y214200D01*
X130200D01*
X129000Y211800D01*
X214000Y71000D02*
X212000Y75000D01*
X216000D01*
X214000Y71000D01*
Y71800D02*
X212800Y74200D01*
X215200D01*
X214000Y71800D01*
X183000Y70000D02*
X181000Y74000D01*
X185000D01*
X183000Y70000D01*
Y70800D02*
X181800Y73200D01*
X184200D01*
X183000Y70800D01*
X162000Y70000D02*
X160000Y74000D01*
X164000D01*
X162000Y70000D01*
Y70800D02*
X160800Y73200D01*
X163200D01*
X162000Y70800D01*
X233000Y73500D02*
X231000Y77500D01*
X235000D01*
X233000Y73500D01*
Y74300D02*
X231800Y76700D01*
X234200D01*
X233000Y74300D01*
X231152Y83076D02*
X232152Y84076D01*
X233152D01*
X232152Y85076D01*
X233152Y86076D01*
X232152D01*
X231152Y87076D01*
X230152Y86076D01*
X229152D01*
X230152Y85076D01*
X229152Y84076D01*
X230152D01*
X231152Y83076D01*
Y83876D02*
X231752Y84476D01*
X232352D01*
X231752Y85076D01*
X232352Y85676D01*
X231752D01*
X231152Y86276D01*
X230552Y85676D01*
X229952D01*
X230552Y85076D01*
X229952Y84476D01*
X230552D01*
X231152Y83876D01*
X216800Y132700D02*
X214800Y136700D01*
X218800D01*
X216800Y132700D01*
Y133500D02*
X215600Y135900D01*
X218000D01*
X216800Y133500D01*
X215000Y129500D02*
X213000Y133500D01*
X217000D01*
X215000Y129500D01*
Y130300D02*
X213800Y132700D01*
X216200D01*
X215000Y130300D01*
X219000Y128500D02*
X217000Y132500D01*
X221000D01*
X219000Y128500D01*
Y129300D02*
X217800Y131700D01*
X220200D01*
X219000Y129300D01*
X190030Y205666D02*
X188030Y209666D01*
X192030D01*
X190030Y205666D01*
Y206466D02*
X188830Y208866D01*
X191230D01*
X190030Y206466D01*
X193365Y205666D02*
X191365Y209666D01*
X195365D01*
X193365Y205666D01*
Y206466D02*
X192165Y208866D01*
X194565D01*
X193365Y206466D01*
X196700Y205666D02*
X194700Y209666D01*
X198700D01*
X196700Y205666D01*
Y206466D02*
X195500Y208866D01*
X197900D01*
X196700Y206466D01*
X235160Y136802D02*
X233160Y140803D01*
X237160D01*
X235160Y136802D01*
Y137602D02*
X233960Y140003D01*
X236360D01*
X235160Y137602D01*
X243945Y111587D02*
X241945Y115587D01*
X245945D01*
X243945Y111587D01*
Y112387D02*
X242745Y114787D01*
X245145D01*
X243945Y112387D01*
X251945Y125087D02*
X249945Y129087D01*
X253945D01*
X251945Y125087D01*
Y125887D02*
X250745Y128287D01*
X253145D01*
X251945Y125887D01*
X263500Y188000D02*
X261500Y192000D01*
X265500D01*
X263500Y188000D01*
Y188800D02*
X262300Y191200D01*
X264700D01*
X263500Y188800D01*
X263200Y176000D02*
X261200Y180000D01*
X265200D01*
X263200Y176000D01*
Y176800D02*
X262000Y179200D01*
X264400D01*
X263200Y176800D01*
X243716Y145716D02*
X241716Y149716D01*
X245716D01*
X243716Y145716D01*
Y146516D02*
X242516Y148916D01*
X244916D01*
X243716Y146516D01*
X253640Y139607D02*
X251640Y143607D01*
X255640D01*
X253640Y139607D01*
Y140407D02*
X252440Y142807D01*
X254840D01*
X253640Y140407D01*
X262196Y148520D02*
X260196Y152520D01*
X264196D01*
X262196Y148520D01*
Y149320D02*
X260996Y151720D01*
X263396D01*
X262196Y149320D01*
X274000Y168000D02*
X272000Y172000D01*
X276000D01*
X274000Y168000D01*
Y168800D02*
X272800Y171200D01*
X275200D01*
X274000Y168800D01*
Y178000D02*
X272000Y182000D01*
X276000D01*
X274000Y178000D01*
Y178800D02*
X272800Y181200D01*
X275200D01*
X274000Y178800D01*
X270751Y157433D02*
X268751Y161433D01*
X272751D01*
X270751Y157433D01*
Y158233D02*
X269551Y160633D01*
X271951D01*
X270751Y158233D01*
X259771Y162129D02*
X257771Y166129D01*
X261771D01*
X259771Y162129D01*
Y162929D02*
X258571Y165329D01*
X260971D01*
X259771Y162929D01*
X252271Y154629D02*
X250271Y158629D01*
X254271D01*
X252271Y154629D01*
Y155429D02*
X251071Y157829D01*
X253471D01*
X252271Y155429D01*
X282000Y338000D02*
X280000Y342000D01*
X284000D01*
X282000Y338000D01*
Y338800D02*
X280800Y341200D01*
X283200D01*
X282000Y338800D01*
X267500Y200500D02*
X265500Y204500D01*
X269500D01*
X267500Y200500D01*
Y201300D02*
X266300Y203700D01*
X268700D01*
X267500Y201300D01*
X275000Y328000D02*
X273000Y332000D01*
X277000D01*
X275000Y328000D01*
Y328800D02*
X273800Y331200D01*
X276200D01*
X275000Y328800D01*
Y318000D02*
X273000Y322000D01*
X277000D01*
X275000Y318000D01*
Y318800D02*
X273800Y321200D01*
X276200D01*
X275000Y318800D01*
Y278000D02*
X273000Y282000D01*
X277000D01*
X275000Y278000D01*
Y278800D02*
X273800Y281200D01*
X276200D01*
X275000Y278800D01*
Y288000D02*
X273000Y292000D01*
X277000D01*
X275000Y288000D01*
Y288800D02*
X273800Y291200D01*
X276200D01*
X275000Y288800D01*
Y298000D02*
X273000Y302000D01*
X277000D01*
X275000Y298000D01*
Y298800D02*
X273800Y301200D01*
X276200D01*
X275000Y298800D01*
Y308000D02*
X273000Y312000D01*
X277000D01*
X275000Y308000D01*
Y308800D02*
X273800Y311200D01*
X276200D01*
X275000Y308800D01*
Y268000D02*
X273000Y272000D01*
X277000D01*
X275000Y268000D01*
Y268800D02*
X273800Y271200D01*
X276200D01*
X275000Y268800D01*
Y258000D02*
X273000Y262000D01*
X277000D01*
X275000Y258000D01*
Y258800D02*
X273800Y261200D01*
X276200D01*
X275000Y258800D01*
Y248000D02*
X273000Y252000D01*
X277000D01*
X275000Y248000D01*
Y248800D02*
X273800Y251200D01*
X276200D01*
X275000Y248800D01*
Y238000D02*
X273000Y242000D01*
X277000D01*
X275000Y238000D01*
Y238800D02*
X273800Y241200D01*
X276200D01*
X275000Y238800D01*
Y228000D02*
X273000Y232000D01*
X277000D01*
X275000Y228000D01*
Y228800D02*
X273800Y231200D01*
X276200D01*
X275000Y228800D01*
Y218000D02*
X273000Y222000D01*
X277000D01*
X275000Y218000D01*
Y218800D02*
X273800Y221200D01*
X276200D01*
X275000Y218800D01*
Y208000D02*
X273000Y212000D01*
X277000D01*
X275000Y208000D01*
Y208800D02*
X273800Y211200D01*
X276200D01*
X275000Y208800D01*
Y188000D02*
X273000Y192000D01*
X277000D01*
X275000Y188000D01*
Y188800D02*
X273800Y191200D01*
X276200D01*
X275000Y188800D01*
X282500Y195500D02*
X280500Y199500D01*
X284500D01*
X282500Y195500D01*
Y196300D02*
X281300Y198700D01*
X283700D01*
X282500Y196300D01*
X287500Y218000D02*
X285500Y222000D01*
X289500D01*
X287500Y218000D01*
Y218800D02*
X286300Y221200D01*
X288700D01*
X287500Y218800D01*
Y208000D02*
X285500Y212000D01*
X289500D01*
X287500Y208000D01*
Y208800D02*
X286300Y211200D01*
X288700D01*
X287500Y208800D01*
Y268000D02*
X285500Y272000D01*
X289500D01*
X287500Y268000D01*
Y268800D02*
X286300Y271200D01*
X288700D01*
X287500Y268800D01*
Y258000D02*
X285500Y262000D01*
X289500D01*
X287500Y258000D01*
Y258800D02*
X286300Y261200D01*
X288700D01*
X287500Y258800D01*
Y248000D02*
X285500Y252000D01*
X289500D01*
X287500Y248000D01*
Y248800D02*
X286300Y251200D01*
X288700D01*
X287500Y248800D01*
Y238000D02*
X285500Y242000D01*
X289500D01*
X287500Y238000D01*
Y238800D02*
X286300Y241200D01*
X288700D01*
X287500Y238800D01*
Y228000D02*
X285500Y232000D01*
X289500D01*
X287500Y228000D01*
Y228800D02*
X286300Y231200D01*
X288700D01*
X287500Y228800D01*
Y278000D02*
X285500Y282000D01*
X289500D01*
X287500Y278000D01*
Y278800D02*
X286300Y281200D01*
X288700D01*
X287500Y278800D01*
Y288000D02*
X285500Y292000D01*
X289500D01*
X287500Y288000D01*
Y288800D02*
X286300Y291200D01*
X288700D01*
X287500Y288800D01*
Y298000D02*
X285500Y302000D01*
X289500D01*
X287500Y298000D01*
Y298800D02*
X286300Y301200D01*
X288700D01*
X287500Y298800D01*
Y308000D02*
X285500Y312000D01*
X289500D01*
X287500Y308000D01*
Y308800D02*
X286300Y311200D01*
X288700D01*
X287500Y308800D01*
Y318000D02*
X285500Y322000D01*
X289500D01*
X287500Y318000D01*
Y318800D02*
X286300Y321200D01*
X288700D01*
X287500Y318800D01*
Y328000D02*
X285500Y332000D01*
X289500D01*
X287500Y328000D01*
Y328800D02*
X286300Y331200D01*
X288700D01*
X287500Y328800D01*
X183500Y222000D02*
X181500Y226000D01*
X185500D01*
X183500Y222000D01*
Y222800D02*
X182300Y225200D01*
X184700D01*
X183500Y222800D01*
X194200Y83500D02*
X192200Y87500D01*
X196200D01*
X194200Y83500D01*
Y84300D02*
X193000Y86700D01*
X195400D01*
X194200Y84300D01*
X102000Y157000D02*
X103000Y158000D01*
X104000D01*
X103000Y159000D01*
X104000Y160000D01*
X103000D01*
X102000Y161000D01*
X101000Y160000D01*
X100000D01*
X101000Y159000D01*
X100000Y158000D01*
X101000D01*
X102000Y157000D01*
Y157800D02*
X102600Y158400D01*
X103200D01*
X102600Y159000D01*
X103200Y159600D01*
X102600D01*
X102000Y160200D01*
X101400Y159600D01*
X100800D01*
X101400Y159000D01*
X100800Y158400D01*
X101400D01*
X102000Y157800D01*
X156500Y252300D02*
X157500Y253300D01*
X158500D01*
X157500Y254300D01*
X158500Y255300D01*
X157500D01*
X156500Y256300D01*
X155500Y255300D01*
X154500D01*
X155500Y254300D01*
X154500Y253300D01*
X155500D01*
X156500Y252300D01*
Y253100D02*
X157100Y253700D01*
X157700D01*
X157100Y254300D01*
X157700Y254900D01*
X157100D01*
X156500Y255500D01*
X155900Y254900D01*
X155300D01*
X155900Y254300D01*
X155300Y253700D01*
X155900D01*
X156500Y253100D01*
X161500Y252300D02*
X162500Y253300D01*
X163500D01*
X162500Y254300D01*
X163500Y255300D01*
X162500D01*
X161500Y256300D01*
X160500Y255300D01*
X159500D01*
X160500Y254300D01*
X159500Y253300D01*
X160500D01*
X161500Y252300D01*
Y253100D02*
X162100Y253700D01*
X162700D01*
X162100Y254300D01*
X162700Y254900D01*
X162100D01*
X161500Y255500D01*
X160900Y254900D01*
X160300D01*
X160900Y254300D01*
X160300Y253700D01*
X160900D01*
X161500Y253100D01*
X166500Y252300D02*
X167500Y253300D01*
X168500D01*
X167500Y254300D01*
X168500Y255300D01*
X167500D01*
X166500Y256300D01*
X165500Y255300D01*
X164500D01*
X165500Y254300D01*
X164500Y253300D01*
X165500D01*
X166500Y252300D01*
Y253100D02*
X167100Y253700D01*
X167700D01*
X167100Y254300D01*
X167700Y254900D01*
X167100D01*
X166500Y255500D01*
X165900Y254900D01*
X165300D01*
X165900Y254300D01*
X165300Y253700D01*
X165900D01*
X166500Y253100D01*
X171500Y252300D02*
X172500Y253300D01*
X173500D01*
X172500Y254300D01*
X173500Y255300D01*
X172500D01*
X171500Y256300D01*
X170500Y255300D01*
X169500D01*
X170500Y254300D01*
X169500Y253300D01*
X170500D01*
X171500Y252300D01*
Y253100D02*
X172100Y253700D01*
X172700D01*
X172100Y254300D01*
X172700Y254900D01*
X172100D01*
X171500Y255500D01*
X170900Y254900D01*
X170300D01*
X170900Y254300D01*
X170300Y253700D01*
X170900D01*
X171500Y253100D01*
X156500Y247300D02*
X157500Y248300D01*
X158500D01*
X157500Y249300D01*
X158500Y250300D01*
X157500D01*
X156500Y251300D01*
X155500Y250300D01*
X154500D01*
X155500Y249300D01*
X154500Y248300D01*
X155500D01*
X156500Y247300D01*
Y248100D02*
X157100Y248700D01*
X157700D01*
X157100Y249300D01*
X157700Y249900D01*
X157100D01*
X156500Y250500D01*
X155900Y249900D01*
X155300D01*
X155900Y249300D01*
X155300Y248700D01*
X155900D01*
X156500Y248100D01*
X161500Y247300D02*
X162500Y248300D01*
X163500D01*
X162500Y249300D01*
X163500Y250300D01*
X162500D01*
X161500Y251300D01*
X160500Y250300D01*
X159500D01*
X160500Y249300D01*
X159500Y248300D01*
X160500D01*
X161500Y247300D01*
Y248100D02*
X162100Y248700D01*
X162700D01*
X162100Y249300D01*
X162700Y249900D01*
X162100D01*
X161500Y250500D01*
X160900Y249900D01*
X160300D01*
X160900Y249300D01*
X160300Y248700D01*
X160900D01*
X161500Y248100D01*
X166500Y247300D02*
X167500Y248300D01*
X168500D01*
X167500Y249300D01*
X168500Y250300D01*
X167500D01*
X166500Y251300D01*
X165500Y250300D01*
X164500D01*
X165500Y249300D01*
X164500Y248300D01*
X165500D01*
X166500Y247300D01*
Y248100D02*
X167100Y248700D01*
X167700D01*
X167100Y249300D01*
X167700Y249900D01*
X167100D01*
X166500Y250500D01*
X165900Y249900D01*
X165300D01*
X165900Y249300D01*
X165300Y248700D01*
X165900D01*
X166500Y248100D01*
X171500Y247300D02*
X172500Y248300D01*
X173500D01*
X172500Y249300D01*
X173500Y250300D01*
X172500D01*
X171500Y251300D01*
X170500Y250300D01*
X169500D01*
X170500Y249300D01*
X169500Y248300D01*
X170500D01*
X171500Y247300D01*
Y248100D02*
X172100Y248700D01*
X172700D01*
X172100Y249300D01*
X172700Y249900D01*
X172100D01*
X171500Y250500D01*
X170900Y249900D01*
X170300D01*
X170900Y249300D01*
X170300Y248700D01*
X170900D01*
X171500Y248100D01*
X151500Y247300D02*
X152500Y248300D01*
X153500D01*
X152500Y249300D01*
X153500Y250300D01*
X152500D01*
X151500Y251300D01*
X150500Y250300D01*
X149500D01*
X150500Y249300D01*
X149500Y248300D01*
X150500D01*
X151500Y247300D01*
Y248100D02*
X152100Y248700D01*
X152700D01*
X152100Y249300D01*
X152700Y249900D01*
X152100D01*
X151500Y250500D01*
X150900Y249900D01*
X150300D01*
X150900Y249300D01*
X150300Y248700D01*
X150900D01*
X151500Y248100D01*
Y252300D02*
X152500Y253300D01*
X153500D01*
X152500Y254300D01*
X153500Y255300D01*
X152500D01*
X151500Y256300D01*
X150500Y255300D01*
X149500D01*
X150500Y254300D01*
X149500Y253300D01*
X150500D01*
X151500Y252300D01*
Y253100D02*
X152100Y253700D01*
X152700D01*
X152100Y254300D01*
X152700Y254900D01*
X152100D01*
X151500Y255500D01*
X150900Y254900D01*
X150300D01*
X150900Y254300D01*
X150300Y253700D01*
X150900D01*
X151500Y253100D01*
X170000Y242300D02*
X171000Y243300D01*
X172000D01*
X171000Y244300D01*
X172000Y245300D01*
X171000D01*
X170000Y246300D01*
X169000Y245300D01*
X168000D01*
X169000Y244300D01*
X168000Y243300D01*
X169000D01*
X170000Y242300D01*
Y243100D02*
X170600Y243700D01*
X171200D01*
X170600Y244300D01*
X171200Y244900D01*
X170600D01*
X170000Y245500D01*
X169400Y244900D01*
X168800D01*
X169400Y244300D01*
X168800Y243700D01*
X169400D01*
X170000Y243100D01*
X165000Y242300D02*
X166000Y243300D01*
X167000D01*
X166000Y244300D01*
X167000Y245300D01*
X166000D01*
X165000Y246300D01*
X164000Y245300D01*
X163000D01*
X164000Y244300D01*
X163000Y243300D01*
X164000D01*
X165000Y242300D01*
Y243100D02*
X165600Y243700D01*
X166200D01*
X165600Y244300D01*
X166200Y244900D01*
X165600D01*
X165000Y245500D01*
X164400Y244900D01*
X163800D01*
X164400Y244300D01*
X163800Y243700D01*
X164400D01*
X165000Y243100D01*
X160000Y242300D02*
X161000Y243300D01*
X162000D01*
X161000Y244300D01*
X162000Y245300D01*
X161000D01*
X160000Y246300D01*
X159000Y245300D01*
X158000D01*
X159000Y244300D01*
X158000Y243300D01*
X159000D01*
X160000Y242300D01*
Y243100D02*
X160600Y243700D01*
X161200D01*
X160600Y244300D01*
X161200Y244900D01*
X160600D01*
X160000Y245500D01*
X159400Y244900D01*
X158800D01*
X159400Y244300D01*
X158800Y243700D01*
X159400D01*
X160000Y243100D01*
X126000Y295000D02*
X124000Y299000D01*
X128000D01*
X126000Y295000D01*
Y295800D02*
X124800Y298200D01*
X127200D01*
X126000Y295800D01*
X73000Y314000D02*
X71000Y318000D01*
X75000D01*
X73000Y314000D01*
Y314800D02*
X71800Y317200D01*
X74200D01*
X73000Y314800D01*
X56900Y321400D02*
X57900Y322400D01*
X58900D01*
X57900Y323400D01*
X58900Y324400D01*
X57900D01*
X56900Y325400D01*
X55900Y324400D01*
X54900D01*
X55900Y323400D01*
X54900Y322400D01*
X55900D01*
X56900Y321400D01*
Y322200D02*
X57500Y322800D01*
X58100D01*
X57500Y323400D01*
X58100Y324000D01*
X57500D01*
X56900Y324600D01*
X56300Y324000D01*
X55700D01*
X56300Y323400D01*
X55700Y322800D01*
X56300D01*
X56900Y322200D01*
X108000Y309000D02*
X109000Y310000D01*
X110000D01*
X109000Y311000D01*
X110000Y312000D01*
X109000D01*
X108000Y313000D01*
X107000Y312000D01*
X106000D01*
X107000Y311000D01*
X106000Y310000D01*
X107000D01*
X108000Y309000D01*
Y309800D02*
X108600Y310400D01*
X109200D01*
X108600Y311000D01*
X109200Y311600D01*
X108600D01*
X108000Y312200D01*
X107400Y311600D01*
X106800D01*
X107400Y311000D01*
X106800Y310400D01*
X107400D01*
X108000Y309800D01*
X89500Y127500D02*
X90500Y128500D01*
X91500D01*
X90500Y129500D01*
X91500Y130500D01*
X90500D01*
X89500Y131500D01*
X88500Y130500D01*
X87500D01*
X88500Y129500D01*
X87500Y128500D01*
X88500D01*
X89500Y127500D01*
Y128300D02*
X90100Y128900D01*
X90700D01*
X90100Y129500D01*
X90700Y130100D01*
X90100D01*
X89500Y130700D01*
X88900Y130100D01*
X88300D01*
X88900Y129500D01*
X88300Y128900D01*
X88900D01*
X89500Y128300D01*
X78000Y158500D02*
X79000Y159500D01*
X80000D01*
X79000Y160500D01*
X80000Y161500D01*
X79000D01*
X78000Y162500D01*
X77000Y161500D01*
X76000D01*
X77000Y160500D01*
X76000Y159500D01*
X77000D01*
X78000Y158500D01*
Y159300D02*
X78600Y159900D01*
X79200D01*
X78600Y160500D01*
X79200Y161100D01*
X78600D01*
X78000Y161700D01*
X77400Y161100D01*
X76800D01*
X77400Y160500D01*
X76800Y159900D01*
X77400D01*
X78000Y159300D01*
X83000Y158500D02*
X84000Y159500D01*
X85000D01*
X84000Y160500D01*
X85000Y161500D01*
X84000D01*
X83000Y162500D01*
X82000Y161500D01*
X81000D01*
X82000Y160500D01*
X81000Y159500D01*
X82000D01*
X83000Y158500D01*
Y159300D02*
X83600Y159900D01*
X84200D01*
X83600Y160500D01*
X84200Y161100D01*
X83600D01*
X83000Y161700D01*
X82400Y161100D01*
X81800D01*
X82400Y160500D01*
X81800Y159900D01*
X82400D01*
X83000Y159300D01*
X88000Y158500D02*
X89000Y159500D01*
X90000D01*
X89000Y160500D01*
X90000Y161500D01*
X89000D01*
X88000Y162500D01*
X87000Y161500D01*
X86000D01*
X87000Y160500D01*
X86000Y159500D01*
X87000D01*
X88000Y158500D01*
Y159300D02*
X88600Y159900D01*
X89200D01*
X88600Y160500D01*
X89200Y161100D01*
X88600D01*
X88000Y161700D01*
X87400Y161100D01*
X86800D01*
X87400Y160500D01*
X86800Y159900D01*
X87400D01*
X88000Y159300D01*
X69500Y178500D02*
X70500Y179500D01*
X71500D01*
X70500Y180500D01*
X71500Y181500D01*
X70500D01*
X69500Y182500D01*
X68500Y181500D01*
X67500D01*
X68500Y180500D01*
X67500Y179500D01*
X68500D01*
X69500Y178500D01*
Y179300D02*
X70100Y179900D01*
X70700D01*
X70100Y180500D01*
X70700Y181100D01*
X70100D01*
X69500Y181700D01*
X68900Y181100D01*
X68300D01*
X68900Y180500D01*
X68300Y179900D01*
X68900D01*
X69500Y179300D01*
Y173500D02*
X70500Y174500D01*
X71500D01*
X70500Y175500D01*
X71500Y176500D01*
X70500D01*
X69500Y177500D01*
X68500Y176500D01*
X67500D01*
X68500Y175500D01*
X67500Y174500D01*
X68500D01*
X69500Y173500D01*
Y174300D02*
X70100Y174900D01*
X70700D01*
X70100Y175500D01*
X70700Y176100D01*
X70100D01*
X69500Y176700D01*
X68900Y176100D01*
X68300D01*
X68900Y175500D01*
X68300Y174900D01*
X68900D01*
X69500Y174300D01*
Y168500D02*
X70500Y169500D01*
X71500D01*
X70500Y170500D01*
X71500Y171500D01*
X70500D01*
X69500Y172500D01*
X68500Y171500D01*
X67500D01*
X68500Y170500D01*
X67500Y169500D01*
X68500D01*
X69500Y168500D01*
Y169300D02*
X70100Y169900D01*
X70700D01*
X70100Y170500D01*
X70700Y171100D01*
X70100D01*
X69500Y171700D01*
X68900Y171100D01*
X68300D01*
X68900Y170500D01*
X68300Y169900D01*
X68900D01*
X69500Y169300D01*
Y163500D02*
X70500Y164500D01*
X71500D01*
X70500Y165500D01*
X71500Y166500D01*
X70500D01*
X69500Y167500D01*
X68500Y166500D01*
X67500D01*
X68500Y165500D01*
X67500Y164500D01*
X68500D01*
X69500Y163500D01*
Y164300D02*
X70100Y164900D01*
X70700D01*
X70100Y165500D01*
X70700Y166100D01*
X70100D01*
X69500Y166700D01*
X68900Y166100D01*
X68300D01*
X68900Y165500D01*
X68300Y164900D01*
X68900D01*
X69500Y164300D01*
X99500Y163500D02*
X100500Y164500D01*
X101500D01*
X100500Y165500D01*
X101500Y166500D01*
X100500D01*
X99500Y167500D01*
X98500Y166500D01*
X97500D01*
X98500Y165500D01*
X97500Y164500D01*
X98500D01*
X99500Y163500D01*
Y164300D02*
X100100Y164900D01*
X100700D01*
X100100Y165500D01*
X100700Y166100D01*
X100100D01*
X99500Y166700D01*
X98900Y166100D01*
X98300D01*
X98900Y165500D01*
X98300Y164900D01*
X98900D01*
X99500Y164300D01*
X94500Y163500D02*
X95500Y164500D01*
X96500D01*
X95500Y165500D01*
X96500Y166500D01*
X95500D01*
X94500Y167500D01*
X93500Y166500D01*
X92500D01*
X93500Y165500D01*
X92500Y164500D01*
X93500D01*
X94500Y163500D01*
Y164300D02*
X95100Y164900D01*
X95700D01*
X95100Y165500D01*
X95700Y166100D01*
X95100D01*
X94500Y166700D01*
X93900Y166100D01*
X93300D01*
X93900Y165500D01*
X93300Y164900D01*
X93900D01*
X94500Y164300D01*
X89500Y163500D02*
X90500Y164500D01*
X91500D01*
X90500Y165500D01*
X91500Y166500D01*
X90500D01*
X89500Y167500D01*
X88500Y166500D01*
X87500D01*
X88500Y165500D01*
X87500Y164500D01*
X88500D01*
X89500Y163500D01*
Y164300D02*
X90100Y164900D01*
X90700D01*
X90100Y165500D01*
X90700Y166100D01*
X90100D01*
X89500Y166700D01*
X88900Y166100D01*
X88300D01*
X88900Y165500D01*
X88300Y164900D01*
X88900D01*
X89500Y164300D01*
X84500Y163500D02*
X85500Y164500D01*
X86500D01*
X85500Y165500D01*
X86500Y166500D01*
X85500D01*
X84500Y167500D01*
X83500Y166500D01*
X82500D01*
X83500Y165500D01*
X82500Y164500D01*
X83500D01*
X84500Y163500D01*
Y164300D02*
X85100Y164900D01*
X85700D01*
X85100Y165500D01*
X85700Y166100D01*
X85100D01*
X84500Y166700D01*
X83900Y166100D01*
X83300D01*
X83900Y165500D01*
X83300Y164900D01*
X83900D01*
X84500Y164300D01*
X79500Y163500D02*
X80500Y164500D01*
X81500D01*
X80500Y165500D01*
X81500Y166500D01*
X80500D01*
X79500Y167500D01*
X78500Y166500D01*
X77500D01*
X78500Y165500D01*
X77500Y164500D01*
X78500D01*
X79500Y163500D01*
Y164300D02*
X80100Y164900D01*
X80700D01*
X80100Y165500D01*
X80700Y166100D01*
X80100D01*
X79500Y166700D01*
X78900Y166100D01*
X78300D01*
X78900Y165500D01*
X78300Y164900D01*
X78900D01*
X79500Y164300D01*
X74500Y163500D02*
X75500Y164500D01*
X76500D01*
X75500Y165500D01*
X76500Y166500D01*
X75500D01*
X74500Y167500D01*
X73500Y166500D01*
X72500D01*
X73500Y165500D01*
X72500Y164500D01*
X73500D01*
X74500Y163500D01*
Y164300D02*
X75100Y164900D01*
X75700D01*
X75100Y165500D01*
X75700Y166100D01*
X75100D01*
X74500Y166700D01*
X73900Y166100D01*
X73300D01*
X73900Y165500D01*
X73300Y164900D01*
X73900D01*
X74500Y164300D01*
X99500Y168500D02*
X100500Y169500D01*
X101500D01*
X100500Y170500D01*
X101500Y171500D01*
X100500D01*
X99500Y172500D01*
X98500Y171500D01*
X97500D01*
X98500Y170500D01*
X97500Y169500D01*
X98500D01*
X99500Y168500D01*
Y169300D02*
X100100Y169900D01*
X100700D01*
X100100Y170500D01*
X100700Y171100D01*
X100100D01*
X99500Y171700D01*
X98900Y171100D01*
X98300D01*
X98900Y170500D01*
X98300Y169900D01*
X98900D01*
X99500Y169300D01*
X94500Y168500D02*
X95500Y169500D01*
X96500D01*
X95500Y170500D01*
X96500Y171500D01*
X95500D01*
X94500Y172500D01*
X93500Y171500D01*
X92500D01*
X93500Y170500D01*
X92500Y169500D01*
X93500D01*
X94500Y168500D01*
Y169300D02*
X95100Y169900D01*
X95700D01*
X95100Y170500D01*
X95700Y171100D01*
X95100D01*
X94500Y171700D01*
X93900Y171100D01*
X93300D01*
X93900Y170500D01*
X93300Y169900D01*
X93900D01*
X94500Y169300D01*
X89500Y168500D02*
X90500Y169500D01*
X91500D01*
X90500Y170500D01*
X91500Y171500D01*
X90500D01*
X89500Y172500D01*
X88500Y171500D01*
X87500D01*
X88500Y170500D01*
X87500Y169500D01*
X88500D01*
X89500Y168500D01*
Y169300D02*
X90100Y169900D01*
X90700D01*
X90100Y170500D01*
X90700Y171100D01*
X90100D01*
X89500Y171700D01*
X88900Y171100D01*
X88300D01*
X88900Y170500D01*
X88300Y169900D01*
X88900D01*
X89500Y169300D01*
X84500Y168500D02*
X85500Y169500D01*
X86500D01*
X85500Y170500D01*
X86500Y171500D01*
X85500D01*
X84500Y172500D01*
X83500Y171500D01*
X82500D01*
X83500Y170500D01*
X82500Y169500D01*
X83500D01*
X84500Y168500D01*
Y169300D02*
X85100Y169900D01*
X85700D01*
X85100Y170500D01*
X85700Y171100D01*
X85100D01*
X84500Y171700D01*
X83900Y171100D01*
X83300D01*
X83900Y170500D01*
X83300Y169900D01*
X83900D01*
X84500Y169300D01*
X79500Y168500D02*
X80500Y169500D01*
X81500D01*
X80500Y170500D01*
X81500Y171500D01*
X80500D01*
X79500Y172500D01*
X78500Y171500D01*
X77500D01*
X78500Y170500D01*
X77500Y169500D01*
X78500D01*
X79500Y168500D01*
Y169300D02*
X80100Y169900D01*
X80700D01*
X80100Y170500D01*
X80700Y171100D01*
X80100D01*
X79500Y171700D01*
X78900Y171100D01*
X78300D01*
X78900Y170500D01*
X78300Y169900D01*
X78900D01*
X79500Y169300D01*
X74500Y168500D02*
X75500Y169500D01*
X76500D01*
X75500Y170500D01*
X76500Y171500D01*
X75500D01*
X74500Y172500D01*
X73500Y171500D01*
X72500D01*
X73500Y170500D01*
X72500Y169500D01*
X73500D01*
X74500Y168500D01*
Y169300D02*
X75100Y169900D01*
X75700D01*
X75100Y170500D01*
X75700Y171100D01*
X75100D01*
X74500Y171700D01*
X73900Y171100D01*
X73300D01*
X73900Y170500D01*
X73300Y169900D01*
X73900D01*
X74500Y169300D01*
X99500Y173500D02*
X100500Y174500D01*
X101500D01*
X100500Y175500D01*
X101500Y176500D01*
X100500D01*
X99500Y177500D01*
X98500Y176500D01*
X97500D01*
X98500Y175500D01*
X97500Y174500D01*
X98500D01*
X99500Y173500D01*
Y174300D02*
X100100Y174900D01*
X100700D01*
X100100Y175500D01*
X100700Y176100D01*
X100100D01*
X99500Y176700D01*
X98900Y176100D01*
X98300D01*
X98900Y175500D01*
X98300Y174900D01*
X98900D01*
X99500Y174300D01*
X94500Y173500D02*
X95500Y174500D01*
X96500D01*
X95500Y175500D01*
X96500Y176500D01*
X95500D01*
X94500Y177500D01*
X93500Y176500D01*
X92500D01*
X93500Y175500D01*
X92500Y174500D01*
X93500D01*
X94500Y173500D01*
Y174300D02*
X95100Y174900D01*
X95700D01*
X95100Y175500D01*
X95700Y176100D01*
X95100D01*
X94500Y176700D01*
X93900Y176100D01*
X93300D01*
X93900Y175500D01*
X93300Y174900D01*
X93900D01*
X94500Y174300D01*
X89500Y173500D02*
X90500Y174500D01*
X91500D01*
X90500Y175500D01*
X91500Y176500D01*
X90500D01*
X89500Y177500D01*
X88500Y176500D01*
X87500D01*
X88500Y175500D01*
X87500Y174500D01*
X88500D01*
X89500Y173500D01*
Y174300D02*
X90100Y174900D01*
X90700D01*
X90100Y175500D01*
X90700Y176100D01*
X90100D01*
X89500Y176700D01*
X88900Y176100D01*
X88300D01*
X88900Y175500D01*
X88300Y174900D01*
X88900D01*
X89500Y174300D01*
X84500Y173500D02*
X85500Y174500D01*
X86500D01*
X85500Y175500D01*
X86500Y176500D01*
X85500D01*
X84500Y177500D01*
X83500Y176500D01*
X82500D01*
X83500Y175500D01*
X82500Y174500D01*
X83500D01*
X84500Y173500D01*
Y174300D02*
X85100Y174900D01*
X85700D01*
X85100Y175500D01*
X85700Y176100D01*
X85100D01*
X84500Y176700D01*
X83900Y176100D01*
X83300D01*
X83900Y175500D01*
X83300Y174900D01*
X83900D01*
X84500Y174300D01*
X79500Y173500D02*
X80500Y174500D01*
X81500D01*
X80500Y175500D01*
X81500Y176500D01*
X80500D01*
X79500Y177500D01*
X78500Y176500D01*
X77500D01*
X78500Y175500D01*
X77500Y174500D01*
X78500D01*
X79500Y173500D01*
Y174300D02*
X80100Y174900D01*
X80700D01*
X80100Y175500D01*
X80700Y176100D01*
X80100D01*
X79500Y176700D01*
X78900Y176100D01*
X78300D01*
X78900Y175500D01*
X78300Y174900D01*
X78900D01*
X79500Y174300D01*
X74500Y173500D02*
X75500Y174500D01*
X76500D01*
X75500Y175500D01*
X76500Y176500D01*
X75500D01*
X74500Y177500D01*
X73500Y176500D01*
X72500D01*
X73500Y175500D01*
X72500Y174500D01*
X73500D01*
X74500Y173500D01*
Y174300D02*
X75100Y174900D01*
X75700D01*
X75100Y175500D01*
X75700Y176100D01*
X75100D01*
X74500Y176700D01*
X73900Y176100D01*
X73300D01*
X73900Y175500D01*
X73300Y174900D01*
X73900D01*
X74500Y174300D01*
X99500Y178500D02*
X100500Y179500D01*
X101500D01*
X100500Y180500D01*
X101500Y181500D01*
X100500D01*
X99500Y182500D01*
X98500Y181500D01*
X97500D01*
X98500Y180500D01*
X97500Y179500D01*
X98500D01*
X99500Y178500D01*
Y179300D02*
X100100Y179900D01*
X100700D01*
X100100Y180500D01*
X100700Y181100D01*
X100100D01*
X99500Y181700D01*
X98900Y181100D01*
X98300D01*
X98900Y180500D01*
X98300Y179900D01*
X98900D01*
X99500Y179300D01*
X94500Y178500D02*
X95500Y179500D01*
X96500D01*
X95500Y180500D01*
X96500Y181500D01*
X95500D01*
X94500Y182500D01*
X93500Y181500D01*
X92500D01*
X93500Y180500D01*
X92500Y179500D01*
X93500D01*
X94500Y178500D01*
Y179300D02*
X95100Y179900D01*
X95700D01*
X95100Y180500D01*
X95700Y181100D01*
X95100D01*
X94500Y181700D01*
X93900Y181100D01*
X93300D01*
X93900Y180500D01*
X93300Y179900D01*
X93900D01*
X94500Y179300D01*
X89500Y178500D02*
X90500Y179500D01*
X91500D01*
X90500Y180500D01*
X91500Y181500D01*
X90500D01*
X89500Y182500D01*
X88500Y181500D01*
X87500D01*
X88500Y180500D01*
X87500Y179500D01*
X88500D01*
X89500Y178500D01*
Y179300D02*
X90100Y179900D01*
X90700D01*
X90100Y180500D01*
X90700Y181100D01*
X90100D01*
X89500Y181700D01*
X88900Y181100D01*
X88300D01*
X88900Y180500D01*
X88300Y179900D01*
X88900D01*
X89500Y179300D01*
X84500Y178500D02*
X85500Y179500D01*
X86500D01*
X85500Y180500D01*
X86500Y181500D01*
X85500D01*
X84500Y182500D01*
X83500Y181500D01*
X82500D01*
X83500Y180500D01*
X82500Y179500D01*
X83500D01*
X84500Y178500D01*
Y179300D02*
X85100Y179900D01*
X85700D01*
X85100Y180500D01*
X85700Y181100D01*
X85100D01*
X84500Y181700D01*
X83900Y181100D01*
X83300D01*
X83900Y180500D01*
X83300Y179900D01*
X83900D01*
X84500Y179300D01*
X79500Y178500D02*
X80500Y179500D01*
X81500D01*
X80500Y180500D01*
X81500Y181500D01*
X80500D01*
X79500Y182500D01*
X78500Y181500D01*
X77500D01*
X78500Y180500D01*
X77500Y179500D01*
X78500D01*
X79500Y178500D01*
Y179300D02*
X80100Y179900D01*
X80700D01*
X80100Y180500D01*
X80700Y181100D01*
X80100D01*
X79500Y181700D01*
X78900Y181100D01*
X78300D01*
X78900Y180500D01*
X78300Y179900D01*
X78900D01*
X79500Y179300D01*
X74500Y178500D02*
X75500Y179500D01*
X76500D01*
X75500Y180500D01*
X76500Y181500D01*
X75500D01*
X74500Y182500D01*
X73500Y181500D01*
X72500D01*
X73500Y180500D01*
X72500Y179500D01*
X73500D01*
X74500Y178500D01*
Y179300D02*
X75100Y179900D01*
X75700D01*
X75100Y180500D01*
X75700Y181100D01*
X75100D01*
X74500Y181700D01*
X73900Y181100D01*
X73300D01*
X73900Y180500D01*
X73300Y179900D01*
X73900D01*
X74500Y179300D01*
X96457Y148563D02*
X97457Y149563D01*
X98457D01*
X97457Y150563D01*
X98457Y151563D01*
X97457D01*
X96457Y152563D01*
X95457Y151563D01*
X94457D01*
X95457Y150563D01*
X94457Y149563D01*
X95457D01*
X96457Y148563D01*
Y149363D02*
X97057Y149963D01*
X97657D01*
X97057Y150563D01*
X97657Y151163D01*
X97057D01*
X96457Y151763D01*
X95857Y151163D01*
X95257D01*
X95857Y150563D01*
X95257Y149963D01*
X95857D01*
X96457Y149363D01*
X246500Y44000D02*
X244500Y48000D01*
X248500D01*
X246500Y44000D01*
Y44800D02*
X245300Y47200D01*
X247700D01*
X246500Y44800D01*
X188000Y43500D02*
X186000Y47500D01*
X190000D01*
X188000Y43500D01*
Y44300D02*
X186800Y46700D01*
X189200D01*
X188000Y44300D01*
X257000Y45000D02*
X255000Y49000D01*
X259000D01*
X257000Y45000D01*
Y45800D02*
X255800Y48200D01*
X258200D01*
X257000Y45800D01*
X144507Y45727D02*
X142507Y49727D01*
X146507D01*
X144507Y45727D01*
Y46527D02*
X143307Y48927D01*
X145707D01*
X144507Y46527D01*
X199493Y45373D02*
X197493Y49373D01*
X201493D01*
X199493Y45373D01*
Y46173D02*
X198293Y48573D01*
X200693D01*
X199493Y46173D01*
X201000Y52000D02*
X199000Y56000D01*
X203000D01*
X201000Y52000D01*
Y52800D02*
X199800Y55200D01*
X202200D01*
X201000Y52800D01*
X158500Y70000D02*
X156500Y74000D01*
X160500D01*
X158500Y70000D01*
Y70800D02*
X157300Y73200D01*
X159700D01*
X158500Y70800D01*
X204927Y68993D02*
X202927Y72993D01*
X206927D01*
X204927Y68993D01*
Y69793D02*
X203727Y72193D01*
X206127D01*
X204927Y69793D01*
X263280Y416498D02*
X264280Y417498D01*
X265280D01*
X264280Y418498D01*
X265280Y419498D01*
X264280D01*
X263280Y420498D01*
X262280Y419498D01*
X261280D01*
X262280Y418498D01*
X261280Y417498D01*
X262280D01*
X263280Y416498D01*
Y417298D02*
X263880Y417898D01*
X264480D01*
X263880Y418498D01*
X264480Y419098D01*
X263880D01*
X263280Y419698D01*
X262680Y419098D01*
X262080D01*
X262680Y418498D01*
X262080Y417898D01*
X262680D01*
X263280Y417298D01*
X268500Y421500D02*
X269500Y422500D01*
X270500D01*
X269500Y423500D01*
X270500Y424500D01*
X269500D01*
X268500Y425500D01*
X267500Y424500D01*
X266500D01*
X267500Y423500D01*
X266500Y422500D01*
X267500D01*
X268500Y421500D01*
Y422300D02*
X269100Y422900D01*
X269700D01*
X269100Y423500D01*
X269700Y424100D01*
X269100D01*
X268500Y424700D01*
X267900Y424100D01*
X267300D01*
X267900Y423500D01*
X267300Y422900D01*
X267900D01*
X268500Y422300D01*
X251500Y69400D02*
X252500Y70400D01*
X253500D01*
X252500Y71400D01*
X253500Y72400D01*
X252500D01*
X251500Y73400D01*
X250500Y72400D01*
X249500D01*
X250500Y71400D01*
X249500Y70400D01*
X250500D01*
X251500Y69400D01*
Y70200D02*
X252100Y70800D01*
X252700D01*
X252100Y71400D01*
X252700Y72000D01*
X252100D01*
X251500Y72600D01*
X250900Y72000D01*
X250300D01*
X250900Y71400D01*
X250300Y70800D01*
X250900D01*
X251500Y70200D01*
X151800Y36000D02*
X149800Y40000D01*
X153800D01*
X151800Y36000D01*
Y36800D02*
X150600Y39200D01*
X153000D01*
X151800Y36800D01*
X217000Y36000D02*
X215000Y40000D01*
X219000D01*
X217000Y36000D01*
Y36800D02*
X215800Y39200D01*
X218200D01*
X217000Y36800D01*
X196500Y69500D02*
X197500Y70500D01*
X198500D01*
X197500Y71500D01*
X198500Y72500D01*
X197500D01*
X196500Y73500D01*
X195500Y72500D01*
X194500D01*
X195500Y71500D01*
X194500Y70500D01*
X195500D01*
X196500Y69500D01*
Y70300D02*
X197100Y70900D01*
X197700D01*
X197100Y71500D01*
X197700Y72100D01*
X197100D01*
X196500Y72700D01*
X195900Y72100D01*
X195300D01*
X195900Y71500D01*
X195300Y70900D01*
X195900D01*
X196500Y70300D01*
X185714Y78504D02*
X186714Y79504D01*
X187714D01*
X186714Y80504D01*
X187714Y81504D01*
X186714D01*
X185714Y82504D01*
X184714Y81504D01*
X183714D01*
X184714Y80504D01*
X183714Y79504D01*
X184714D01*
X185714Y78504D01*
Y79304D02*
X186314Y79904D01*
X186914D01*
X186314Y80504D01*
X186914Y81104D01*
X186314D01*
X185714Y81704D01*
X185114Y81104D01*
X184514D01*
X185114Y80504D01*
X184514Y79904D01*
X185114D01*
X185714Y79304D01*
X227600Y88500D02*
X225600Y92500D01*
X229600D01*
X227600Y88500D01*
Y89300D02*
X226400Y91700D01*
X228800D01*
X227600Y89300D01*
X206600Y88500D02*
X204600Y92500D01*
X208600D01*
X206600Y88500D01*
Y89300D02*
X205400Y91700D01*
X207800D01*
X206600Y89300D01*
X164800Y88400D02*
X162800Y92400D01*
X166800D01*
X164800Y88400D01*
Y89200D02*
X163600Y91600D01*
X166000D01*
X164800Y89200D01*
X184000Y88500D02*
X182000Y92500D01*
X186000D01*
X184000Y88500D01*
Y89300D02*
X182800Y91700D01*
X185200D01*
X184000Y89300D01*
X163008Y131500D02*
X164008Y132500D01*
X165008D01*
X164008Y133500D01*
X165008Y134500D01*
X164008D01*
X163008Y135500D01*
X162008Y134500D01*
X161008D01*
X162008Y133500D01*
X161008Y132500D01*
X162008D01*
X163008Y131500D01*
Y132300D02*
X163608Y132900D01*
X164208D01*
X163608Y133500D01*
X164208Y134100D01*
X163608D01*
X163008Y134700D01*
X162408Y134100D01*
X161808D01*
X162408Y133500D01*
X161808Y132900D01*
X162408D01*
X163008Y132300D01*
X148500Y109611D02*
X149500Y110611D01*
X150500D01*
X149500Y111611D01*
X150500Y112611D01*
X149500D01*
X148500Y113611D01*
X147500Y112611D01*
X146500D01*
X147500Y111611D01*
X146500Y110611D01*
X147500D01*
X148500Y109611D01*
Y110411D02*
X149100Y111011D01*
X149700D01*
X149100Y111611D01*
X149700Y112211D01*
X149100D01*
X148500Y112811D01*
X147900Y112211D01*
X147300D01*
X147900Y111611D01*
X147300Y111011D01*
X147900D01*
X148500Y110411D01*
X5000Y361500D02*
X6000Y362500D01*
X7000D01*
X6000Y363500D01*
X7000Y364500D01*
X6000D01*
X5000Y365500D01*
X4000Y364500D01*
X3000D01*
X4000Y363500D01*
X3000Y362500D01*
X4000D01*
X5000Y361500D01*
Y362300D02*
X5600Y362900D01*
X6200D01*
X5600Y363500D01*
X6200Y364100D01*
X5600D01*
X5000Y364700D01*
X4400Y364100D01*
X3800D01*
X4400Y363500D01*
X3800Y362900D01*
X4400D01*
X5000Y362300D01*
X10000Y361500D02*
X11000Y362500D01*
X12000D01*
X11000Y363500D01*
X12000Y364500D01*
X11000D01*
X10000Y365500D01*
X9000Y364500D01*
X8000D01*
X9000Y363500D01*
X8000Y362500D01*
X9000D01*
X10000Y361500D01*
Y362300D02*
X10600Y362900D01*
X11200D01*
X10600Y363500D01*
X11200Y364100D01*
X10600D01*
X10000Y364700D01*
X9400Y364100D01*
X8800D01*
X9400Y363500D01*
X8800Y362900D01*
X9400D01*
X10000Y362300D01*
X15000Y361500D02*
X16000Y362500D01*
X17000D01*
X16000Y363500D01*
X17000Y364500D01*
X16000D01*
X15000Y365500D01*
X14000Y364500D01*
X13000D01*
X14000Y363500D01*
X13000Y362500D01*
X14000D01*
X15000Y361500D01*
Y362300D02*
X15600Y362900D01*
X16200D01*
X15600Y363500D01*
X16200Y364100D01*
X15600D01*
X15000Y364700D01*
X14400Y364100D01*
X13800D01*
X14400Y363500D01*
X13800Y362900D01*
X14400D01*
X15000Y362300D01*
X20000Y361500D02*
X21000Y362500D01*
X22000D01*
X21000Y363500D01*
X22000Y364500D01*
X21000D01*
X20000Y365500D01*
X19000Y364500D01*
X18000D01*
X19000Y363500D01*
X18000Y362500D01*
X19000D01*
X20000Y361500D01*
Y362300D02*
X20600Y362900D01*
X21200D01*
X20600Y363500D01*
X21200Y364100D01*
X20600D01*
X20000Y364700D01*
X19400Y364100D01*
X18800D01*
X19400Y363500D01*
X18800Y362900D01*
X19400D01*
X20000Y362300D01*
X25000Y361500D02*
X26000Y362500D01*
X27000D01*
X26000Y363500D01*
X27000Y364500D01*
X26000D01*
X25000Y365500D01*
X24000Y364500D01*
X23000D01*
X24000Y363500D01*
X23000Y362500D01*
X24000D01*
X25000Y361500D01*
Y362300D02*
X25600Y362900D01*
X26200D01*
X25600Y363500D01*
X26200Y364100D01*
X25600D01*
X25000Y364700D01*
X24400Y364100D01*
X23800D01*
X24400Y363500D01*
X23800Y362900D01*
X24400D01*
X25000Y362300D01*
X30000Y361500D02*
X31000Y362500D01*
X32000D01*
X31000Y363500D01*
X32000Y364500D01*
X31000D01*
X30000Y365500D01*
X29000Y364500D01*
X28000D01*
X29000Y363500D01*
X28000Y362500D01*
X29000D01*
X30000Y361500D01*
Y362300D02*
X30600Y362900D01*
X31200D01*
X30600Y363500D01*
X31200Y364100D01*
X30600D01*
X30000Y364700D01*
X29400Y364100D01*
X28800D01*
X29400Y363500D01*
X28800Y362900D01*
X29400D01*
X30000Y362300D01*
X35000Y361500D02*
X36000Y362500D01*
X37000D01*
X36000Y363500D01*
X37000Y364500D01*
X36000D01*
X35000Y365500D01*
X34000Y364500D01*
X33000D01*
X34000Y363500D01*
X33000Y362500D01*
X34000D01*
X35000Y361500D01*
Y362300D02*
X35600Y362900D01*
X36200D01*
X35600Y363500D01*
X36200Y364100D01*
X35600D01*
X35000Y364700D01*
X34400Y364100D01*
X33800D01*
X34400Y363500D01*
X33800Y362900D01*
X34400D01*
X35000Y362300D01*
X40000Y361500D02*
X41000Y362500D01*
X42000D01*
X41000Y363500D01*
X42000Y364500D01*
X41000D01*
X40000Y365500D01*
X39000Y364500D01*
X38000D01*
X39000Y363500D01*
X38000Y362500D01*
X39000D01*
X40000Y361500D01*
Y362300D02*
X40600Y362900D01*
X41200D01*
X40600Y363500D01*
X41200Y364100D01*
X40600D01*
X40000Y364700D01*
X39400Y364100D01*
X38800D01*
X39400Y363500D01*
X38800Y362900D01*
X39400D01*
X40000Y362300D01*
X45000Y361500D02*
X46000Y362500D01*
X47000D01*
X46000Y363500D01*
X47000Y364500D01*
X46000D01*
X45000Y365500D01*
X44000Y364500D01*
X43000D01*
X44000Y363500D01*
X43000Y362500D01*
X44000D01*
X45000Y361500D01*
Y362300D02*
X45600Y362900D01*
X46200D01*
X45600Y363500D01*
X46200Y364100D01*
X45600D01*
X45000Y364700D01*
X44400Y364100D01*
X43800D01*
X44400Y363500D01*
X43800Y362900D01*
X44400D01*
X45000Y362300D01*
X50000Y361500D02*
X51000Y362500D01*
X52000D01*
X51000Y363500D01*
X52000Y364500D01*
X51000D01*
X50000Y365500D01*
X49000Y364500D01*
X48000D01*
X49000Y363500D01*
X48000Y362500D01*
X49000D01*
X50000Y361500D01*
Y362300D02*
X50600Y362900D01*
X51200D01*
X50600Y363500D01*
X51200Y364100D01*
X50600D01*
X50000Y364700D01*
X49400Y364100D01*
X48800D01*
X49400Y363500D01*
X48800Y362900D01*
X49400D01*
X50000Y362300D01*
X55000Y361500D02*
X56000Y362500D01*
X57000D01*
X56000Y363500D01*
X57000Y364500D01*
X56000D01*
X55000Y365500D01*
X54000Y364500D01*
X53000D01*
X54000Y363500D01*
X53000Y362500D01*
X54000D01*
X55000Y361500D01*
Y362300D02*
X55600Y362900D01*
X56200D01*
X55600Y363500D01*
X56200Y364100D01*
X55600D01*
X55000Y364700D01*
X54400Y364100D01*
X53800D01*
X54400Y363500D01*
X53800Y362900D01*
X54400D01*
X55000Y362300D01*
X5000Y366500D02*
X6000Y367500D01*
X7000D01*
X6000Y368500D01*
X7000Y369500D01*
X6000D01*
X5000Y370500D01*
X4000Y369500D01*
X3000D01*
X4000Y368500D01*
X3000Y367500D01*
X4000D01*
X5000Y366500D01*
Y367300D02*
X5600Y367900D01*
X6200D01*
X5600Y368500D01*
X6200Y369100D01*
X5600D01*
X5000Y369700D01*
X4400Y369100D01*
X3800D01*
X4400Y368500D01*
X3800Y367900D01*
X4400D01*
X5000Y367300D01*
X10000Y366500D02*
X11000Y367500D01*
X12000D01*
X11000Y368500D01*
X12000Y369500D01*
X11000D01*
X10000Y370500D01*
X9000Y369500D01*
X8000D01*
X9000Y368500D01*
X8000Y367500D01*
X9000D01*
X10000Y366500D01*
Y367300D02*
X10600Y367900D01*
X11200D01*
X10600Y368500D01*
X11200Y369100D01*
X10600D01*
X10000Y369700D01*
X9400Y369100D01*
X8800D01*
X9400Y368500D01*
X8800Y367900D01*
X9400D01*
X10000Y367300D01*
X15000Y366500D02*
X16000Y367500D01*
X17000D01*
X16000Y368500D01*
X17000Y369500D01*
X16000D01*
X15000Y370500D01*
X14000Y369500D01*
X13000D01*
X14000Y368500D01*
X13000Y367500D01*
X14000D01*
X15000Y366500D01*
Y367300D02*
X15600Y367900D01*
X16200D01*
X15600Y368500D01*
X16200Y369100D01*
X15600D01*
X15000Y369700D01*
X14400Y369100D01*
X13800D01*
X14400Y368500D01*
X13800Y367900D01*
X14400D01*
X15000Y367300D01*
X20000Y366500D02*
X21000Y367500D01*
X22000D01*
X21000Y368500D01*
X22000Y369500D01*
X21000D01*
X20000Y370500D01*
X19000Y369500D01*
X18000D01*
X19000Y368500D01*
X18000Y367500D01*
X19000D01*
X20000Y366500D01*
Y367300D02*
X20600Y367900D01*
X21200D01*
X20600Y368500D01*
X21200Y369100D01*
X20600D01*
X20000Y369700D01*
X19400Y369100D01*
X18800D01*
X19400Y368500D01*
X18800Y367900D01*
X19400D01*
X20000Y367300D01*
X25000Y366500D02*
X26000Y367500D01*
X27000D01*
X26000Y368500D01*
X27000Y369500D01*
X26000D01*
X25000Y370500D01*
X24000Y369500D01*
X23000D01*
X24000Y368500D01*
X23000Y367500D01*
X24000D01*
X25000Y366500D01*
Y367300D02*
X25600Y367900D01*
X26200D01*
X25600Y368500D01*
X26200Y369100D01*
X25600D01*
X25000Y369700D01*
X24400Y369100D01*
X23800D01*
X24400Y368500D01*
X23800Y367900D01*
X24400D01*
X25000Y367300D01*
X30000Y366500D02*
X31000Y367500D01*
X32000D01*
X31000Y368500D01*
X32000Y369500D01*
X31000D01*
X30000Y370500D01*
X29000Y369500D01*
X28000D01*
X29000Y368500D01*
X28000Y367500D01*
X29000D01*
X30000Y366500D01*
Y367300D02*
X30600Y367900D01*
X31200D01*
X30600Y368500D01*
X31200Y369100D01*
X30600D01*
X30000Y369700D01*
X29400Y369100D01*
X28800D01*
X29400Y368500D01*
X28800Y367900D01*
X29400D01*
X30000Y367300D01*
X35000Y366500D02*
X36000Y367500D01*
X37000D01*
X36000Y368500D01*
X37000Y369500D01*
X36000D01*
X35000Y370500D01*
X34000Y369500D01*
X33000D01*
X34000Y368500D01*
X33000Y367500D01*
X34000D01*
X35000Y366500D01*
Y367300D02*
X35600Y367900D01*
X36200D01*
X35600Y368500D01*
X36200Y369100D01*
X35600D01*
X35000Y369700D01*
X34400Y369100D01*
X33800D01*
X34400Y368500D01*
X33800Y367900D01*
X34400D01*
X35000Y367300D01*
X40000Y366500D02*
X41000Y367500D01*
X42000D01*
X41000Y368500D01*
X42000Y369500D01*
X41000D01*
X40000Y370500D01*
X39000Y369500D01*
X38000D01*
X39000Y368500D01*
X38000Y367500D01*
X39000D01*
X40000Y366500D01*
Y367300D02*
X40600Y367900D01*
X41200D01*
X40600Y368500D01*
X41200Y369100D01*
X40600D01*
X40000Y369700D01*
X39400Y369100D01*
X38800D01*
X39400Y368500D01*
X38800Y367900D01*
X39400D01*
X40000Y367300D01*
X45000Y366500D02*
X46000Y367500D01*
X47000D01*
X46000Y368500D01*
X47000Y369500D01*
X46000D01*
X45000Y370500D01*
X44000Y369500D01*
X43000D01*
X44000Y368500D01*
X43000Y367500D01*
X44000D01*
X45000Y366500D01*
Y367300D02*
X45600Y367900D01*
X46200D01*
X45600Y368500D01*
X46200Y369100D01*
X45600D01*
X45000Y369700D01*
X44400Y369100D01*
X43800D01*
X44400Y368500D01*
X43800Y367900D01*
X44400D01*
X45000Y367300D01*
X50000Y366500D02*
X51000Y367500D01*
X52000D01*
X51000Y368500D01*
X52000Y369500D01*
X51000D01*
X50000Y370500D01*
X49000Y369500D01*
X48000D01*
X49000Y368500D01*
X48000Y367500D01*
X49000D01*
X50000Y366500D01*
Y367300D02*
X50600Y367900D01*
X51200D01*
X50600Y368500D01*
X51200Y369100D01*
X50600D01*
X50000Y369700D01*
X49400Y369100D01*
X48800D01*
X49400Y368500D01*
X48800Y367900D01*
X49400D01*
X50000Y367300D01*
X55000Y366500D02*
X56000Y367500D01*
X57000D01*
X56000Y368500D01*
X57000Y369500D01*
X56000D01*
X55000Y370500D01*
X54000Y369500D01*
X53000D01*
X54000Y368500D01*
X53000Y367500D01*
X54000D01*
X55000Y366500D01*
Y367300D02*
X55600Y367900D01*
X56200D01*
X55600Y368500D01*
X56200Y369100D01*
X55600D01*
X55000Y369700D01*
X54400Y369100D01*
X53800D01*
X54400Y368500D01*
X53800Y367900D01*
X54400D01*
X55000Y367300D01*
X5000Y371500D02*
X6000Y372500D01*
X7000D01*
X6000Y373500D01*
X7000Y374500D01*
X6000D01*
X5000Y375500D01*
X4000Y374500D01*
X3000D01*
X4000Y373500D01*
X3000Y372500D01*
X4000D01*
X5000Y371500D01*
Y372300D02*
X5600Y372900D01*
X6200D01*
X5600Y373500D01*
X6200Y374100D01*
X5600D01*
X5000Y374700D01*
X4400Y374100D01*
X3800D01*
X4400Y373500D01*
X3800Y372900D01*
X4400D01*
X5000Y372300D01*
X10000Y371500D02*
X11000Y372500D01*
X12000D01*
X11000Y373500D01*
X12000Y374500D01*
X11000D01*
X10000Y375500D01*
X9000Y374500D01*
X8000D01*
X9000Y373500D01*
X8000Y372500D01*
X9000D01*
X10000Y371500D01*
Y372300D02*
X10600Y372900D01*
X11200D01*
X10600Y373500D01*
X11200Y374100D01*
X10600D01*
X10000Y374700D01*
X9400Y374100D01*
X8800D01*
X9400Y373500D01*
X8800Y372900D01*
X9400D01*
X10000Y372300D01*
X15000Y371500D02*
X16000Y372500D01*
X17000D01*
X16000Y373500D01*
X17000Y374500D01*
X16000D01*
X15000Y375500D01*
X14000Y374500D01*
X13000D01*
X14000Y373500D01*
X13000Y372500D01*
X14000D01*
X15000Y371500D01*
Y372300D02*
X15600Y372900D01*
X16200D01*
X15600Y373500D01*
X16200Y374100D01*
X15600D01*
X15000Y374700D01*
X14400Y374100D01*
X13800D01*
X14400Y373500D01*
X13800Y372900D01*
X14400D01*
X15000Y372300D01*
X20000Y371500D02*
X21000Y372500D01*
X22000D01*
X21000Y373500D01*
X22000Y374500D01*
X21000D01*
X20000Y375500D01*
X19000Y374500D01*
X18000D01*
X19000Y373500D01*
X18000Y372500D01*
X19000D01*
X20000Y371500D01*
Y372300D02*
X20600Y372900D01*
X21200D01*
X20600Y373500D01*
X21200Y374100D01*
X20600D01*
X20000Y374700D01*
X19400Y374100D01*
X18800D01*
X19400Y373500D01*
X18800Y372900D01*
X19400D01*
X20000Y372300D01*
X25000Y371500D02*
X26000Y372500D01*
X27000D01*
X26000Y373500D01*
X27000Y374500D01*
X26000D01*
X25000Y375500D01*
X24000Y374500D01*
X23000D01*
X24000Y373500D01*
X23000Y372500D01*
X24000D01*
X25000Y371500D01*
Y372300D02*
X25600Y372900D01*
X26200D01*
X25600Y373500D01*
X26200Y374100D01*
X25600D01*
X25000Y374700D01*
X24400Y374100D01*
X23800D01*
X24400Y373500D01*
X23800Y372900D01*
X24400D01*
X25000Y372300D01*
X30000Y371500D02*
X31000Y372500D01*
X32000D01*
X31000Y373500D01*
X32000Y374500D01*
X31000D01*
X30000Y375500D01*
X29000Y374500D01*
X28000D01*
X29000Y373500D01*
X28000Y372500D01*
X29000D01*
X30000Y371500D01*
Y372300D02*
X30600Y372900D01*
X31200D01*
X30600Y373500D01*
X31200Y374100D01*
X30600D01*
X30000Y374700D01*
X29400Y374100D01*
X28800D01*
X29400Y373500D01*
X28800Y372900D01*
X29400D01*
X30000Y372300D01*
X35000Y371500D02*
X36000Y372500D01*
X37000D01*
X36000Y373500D01*
X37000Y374500D01*
X36000D01*
X35000Y375500D01*
X34000Y374500D01*
X33000D01*
X34000Y373500D01*
X33000Y372500D01*
X34000D01*
X35000Y371500D01*
Y372300D02*
X35600Y372900D01*
X36200D01*
X35600Y373500D01*
X36200Y374100D01*
X35600D01*
X35000Y374700D01*
X34400Y374100D01*
X33800D01*
X34400Y373500D01*
X33800Y372900D01*
X34400D01*
X35000Y372300D01*
X40000Y371500D02*
X41000Y372500D01*
X42000D01*
X41000Y373500D01*
X42000Y374500D01*
X41000D01*
X40000Y375500D01*
X39000Y374500D01*
X38000D01*
X39000Y373500D01*
X38000Y372500D01*
X39000D01*
X40000Y371500D01*
Y372300D02*
X40600Y372900D01*
X41200D01*
X40600Y373500D01*
X41200Y374100D01*
X40600D01*
X40000Y374700D01*
X39400Y374100D01*
X38800D01*
X39400Y373500D01*
X38800Y372900D01*
X39400D01*
X40000Y372300D01*
X45000Y371500D02*
X46000Y372500D01*
X47000D01*
X46000Y373500D01*
X47000Y374500D01*
X46000D01*
X45000Y375500D01*
X44000Y374500D01*
X43000D01*
X44000Y373500D01*
X43000Y372500D01*
X44000D01*
X45000Y371500D01*
Y372300D02*
X45600Y372900D01*
X46200D01*
X45600Y373500D01*
X46200Y374100D01*
X45600D01*
X45000Y374700D01*
X44400Y374100D01*
X43800D01*
X44400Y373500D01*
X43800Y372900D01*
X44400D01*
X45000Y372300D01*
X50000Y371500D02*
X51000Y372500D01*
X52000D01*
X51000Y373500D01*
X52000Y374500D01*
X51000D01*
X50000Y375500D01*
X49000Y374500D01*
X48000D01*
X49000Y373500D01*
X48000Y372500D01*
X49000D01*
X50000Y371500D01*
Y372300D02*
X50600Y372900D01*
X51200D01*
X50600Y373500D01*
X51200Y374100D01*
X50600D01*
X50000Y374700D01*
X49400Y374100D01*
X48800D01*
X49400Y373500D01*
X48800Y372900D01*
X49400D01*
X50000Y372300D01*
X55000Y371500D02*
X56000Y372500D01*
X57000D01*
X56000Y373500D01*
X57000Y374500D01*
X56000D01*
X55000Y375500D01*
X54000Y374500D01*
X53000D01*
X54000Y373500D01*
X53000Y372500D01*
X54000D01*
X55000Y371500D01*
Y372300D02*
X55600Y372900D01*
X56200D01*
X55600Y373500D01*
X56200Y374100D01*
X55600D01*
X55000Y374700D01*
X54400Y374100D01*
X53800D01*
X54400Y373500D01*
X53800Y372900D01*
X54400D01*
X55000Y372300D01*
X5000Y376500D02*
X6000Y377500D01*
X7000D01*
X6000Y378500D01*
X7000Y379500D01*
X6000D01*
X5000Y380500D01*
X4000Y379500D01*
X3000D01*
X4000Y378500D01*
X3000Y377500D01*
X4000D01*
X5000Y376500D01*
Y377300D02*
X5600Y377900D01*
X6200D01*
X5600Y378500D01*
X6200Y379100D01*
X5600D01*
X5000Y379700D01*
X4400Y379100D01*
X3800D01*
X4400Y378500D01*
X3800Y377900D01*
X4400D01*
X5000Y377300D01*
X10000Y376500D02*
X11000Y377500D01*
X12000D01*
X11000Y378500D01*
X12000Y379500D01*
X11000D01*
X10000Y380500D01*
X9000Y379500D01*
X8000D01*
X9000Y378500D01*
X8000Y377500D01*
X9000D01*
X10000Y376500D01*
Y377300D02*
X10600Y377900D01*
X11200D01*
X10600Y378500D01*
X11200Y379100D01*
X10600D01*
X10000Y379700D01*
X9400Y379100D01*
X8800D01*
X9400Y378500D01*
X8800Y377900D01*
X9400D01*
X10000Y377300D01*
X15000Y376500D02*
X16000Y377500D01*
X17000D01*
X16000Y378500D01*
X17000Y379500D01*
X16000D01*
X15000Y380500D01*
X14000Y379500D01*
X13000D01*
X14000Y378500D01*
X13000Y377500D01*
X14000D01*
X15000Y376500D01*
Y377300D02*
X15600Y377900D01*
X16200D01*
X15600Y378500D01*
X16200Y379100D01*
X15600D01*
X15000Y379700D01*
X14400Y379100D01*
X13800D01*
X14400Y378500D01*
X13800Y377900D01*
X14400D01*
X15000Y377300D01*
X20000Y376500D02*
X21000Y377500D01*
X22000D01*
X21000Y378500D01*
X22000Y379500D01*
X21000D01*
X20000Y380500D01*
X19000Y379500D01*
X18000D01*
X19000Y378500D01*
X18000Y377500D01*
X19000D01*
X20000Y376500D01*
Y377300D02*
X20600Y377900D01*
X21200D01*
X20600Y378500D01*
X21200Y379100D01*
X20600D01*
X20000Y379700D01*
X19400Y379100D01*
X18800D01*
X19400Y378500D01*
X18800Y377900D01*
X19400D01*
X20000Y377300D01*
X25000Y376500D02*
X26000Y377500D01*
X27000D01*
X26000Y378500D01*
X27000Y379500D01*
X26000D01*
X25000Y380500D01*
X24000Y379500D01*
X23000D01*
X24000Y378500D01*
X23000Y377500D01*
X24000D01*
X25000Y376500D01*
Y377300D02*
X25600Y377900D01*
X26200D01*
X25600Y378500D01*
X26200Y379100D01*
X25600D01*
X25000Y379700D01*
X24400Y379100D01*
X23800D01*
X24400Y378500D01*
X23800Y377900D01*
X24400D01*
X25000Y377300D01*
X30000Y376500D02*
X31000Y377500D01*
X32000D01*
X31000Y378500D01*
X32000Y379500D01*
X31000D01*
X30000Y380500D01*
X29000Y379500D01*
X28000D01*
X29000Y378500D01*
X28000Y377500D01*
X29000D01*
X30000Y376500D01*
Y377300D02*
X30600Y377900D01*
X31200D01*
X30600Y378500D01*
X31200Y379100D01*
X30600D01*
X30000Y379700D01*
X29400Y379100D01*
X28800D01*
X29400Y378500D01*
X28800Y377900D01*
X29400D01*
X30000Y377300D01*
X35000Y376500D02*
X36000Y377500D01*
X37000D01*
X36000Y378500D01*
X37000Y379500D01*
X36000D01*
X35000Y380500D01*
X34000Y379500D01*
X33000D01*
X34000Y378500D01*
X33000Y377500D01*
X34000D01*
X35000Y376500D01*
Y377300D02*
X35600Y377900D01*
X36200D01*
X35600Y378500D01*
X36200Y379100D01*
X35600D01*
X35000Y379700D01*
X34400Y379100D01*
X33800D01*
X34400Y378500D01*
X33800Y377900D01*
X34400D01*
X35000Y377300D01*
X40000Y376500D02*
X41000Y377500D01*
X42000D01*
X41000Y378500D01*
X42000Y379500D01*
X41000D01*
X40000Y380500D01*
X39000Y379500D01*
X38000D01*
X39000Y378500D01*
X38000Y377500D01*
X39000D01*
X40000Y376500D01*
Y377300D02*
X40600Y377900D01*
X41200D01*
X40600Y378500D01*
X41200Y379100D01*
X40600D01*
X40000Y379700D01*
X39400Y379100D01*
X38800D01*
X39400Y378500D01*
X38800Y377900D01*
X39400D01*
X40000Y377300D01*
X45000Y376500D02*
X46000Y377500D01*
X47000D01*
X46000Y378500D01*
X47000Y379500D01*
X46000D01*
X45000Y380500D01*
X44000Y379500D01*
X43000D01*
X44000Y378500D01*
X43000Y377500D01*
X44000D01*
X45000Y376500D01*
Y377300D02*
X45600Y377900D01*
X46200D01*
X45600Y378500D01*
X46200Y379100D01*
X45600D01*
X45000Y379700D01*
X44400Y379100D01*
X43800D01*
X44400Y378500D01*
X43800Y377900D01*
X44400D01*
X45000Y377300D01*
X50000Y376500D02*
X51000Y377500D01*
X52000D01*
X51000Y378500D01*
X52000Y379500D01*
X51000D01*
X50000Y380500D01*
X49000Y379500D01*
X48000D01*
X49000Y378500D01*
X48000Y377500D01*
X49000D01*
X50000Y376500D01*
Y377300D02*
X50600Y377900D01*
X51200D01*
X50600Y378500D01*
X51200Y379100D01*
X50600D01*
X50000Y379700D01*
X49400Y379100D01*
X48800D01*
X49400Y378500D01*
X48800Y377900D01*
X49400D01*
X50000Y377300D01*
X55000Y376500D02*
X56000Y377500D01*
X57000D01*
X56000Y378500D01*
X57000Y379500D01*
X56000D01*
X55000Y380500D01*
X54000Y379500D01*
X53000D01*
X54000Y378500D01*
X53000Y377500D01*
X54000D01*
X55000Y376500D01*
Y377300D02*
X55600Y377900D01*
X56200D01*
X55600Y378500D01*
X56200Y379100D01*
X55600D01*
X55000Y379700D01*
X54400Y379100D01*
X53800D01*
X54400Y378500D01*
X53800Y377900D01*
X54400D01*
X55000Y377300D01*
X5000Y381500D02*
X6000Y382500D01*
X7000D01*
X6000Y383500D01*
X7000Y384500D01*
X6000D01*
X5000Y385500D01*
X4000Y384500D01*
X3000D01*
X4000Y383500D01*
X3000Y382500D01*
X4000D01*
X5000Y381500D01*
Y382300D02*
X5600Y382900D01*
X6200D01*
X5600Y383500D01*
X6200Y384100D01*
X5600D01*
X5000Y384700D01*
X4400Y384100D01*
X3800D01*
X4400Y383500D01*
X3800Y382900D01*
X4400D01*
X5000Y382300D01*
X10000Y381500D02*
X11000Y382500D01*
X12000D01*
X11000Y383500D01*
X12000Y384500D01*
X11000D01*
X10000Y385500D01*
X9000Y384500D01*
X8000D01*
X9000Y383500D01*
X8000Y382500D01*
X9000D01*
X10000Y381500D01*
Y382300D02*
X10600Y382900D01*
X11200D01*
X10600Y383500D01*
X11200Y384100D01*
X10600D01*
X10000Y384700D01*
X9400Y384100D01*
X8800D01*
X9400Y383500D01*
X8800Y382900D01*
X9400D01*
X10000Y382300D01*
X15000Y381500D02*
X16000Y382500D01*
X17000D01*
X16000Y383500D01*
X17000Y384500D01*
X16000D01*
X15000Y385500D01*
X14000Y384500D01*
X13000D01*
X14000Y383500D01*
X13000Y382500D01*
X14000D01*
X15000Y381500D01*
Y382300D02*
X15600Y382900D01*
X16200D01*
X15600Y383500D01*
X16200Y384100D01*
X15600D01*
X15000Y384700D01*
X14400Y384100D01*
X13800D01*
X14400Y383500D01*
X13800Y382900D01*
X14400D01*
X15000Y382300D01*
X20000Y381500D02*
X21000Y382500D01*
X22000D01*
X21000Y383500D01*
X22000Y384500D01*
X21000D01*
X20000Y385500D01*
X19000Y384500D01*
X18000D01*
X19000Y383500D01*
X18000Y382500D01*
X19000D01*
X20000Y381500D01*
Y382300D02*
X20600Y382900D01*
X21200D01*
X20600Y383500D01*
X21200Y384100D01*
X20600D01*
X20000Y384700D01*
X19400Y384100D01*
X18800D01*
X19400Y383500D01*
X18800Y382900D01*
X19400D01*
X20000Y382300D01*
X25000Y381500D02*
X26000Y382500D01*
X27000D01*
X26000Y383500D01*
X27000Y384500D01*
X26000D01*
X25000Y385500D01*
X24000Y384500D01*
X23000D01*
X24000Y383500D01*
X23000Y382500D01*
X24000D01*
X25000Y381500D01*
Y382300D02*
X25600Y382900D01*
X26200D01*
X25600Y383500D01*
X26200Y384100D01*
X25600D01*
X25000Y384700D01*
X24400Y384100D01*
X23800D01*
X24400Y383500D01*
X23800Y382900D01*
X24400D01*
X25000Y382300D01*
X30000Y381500D02*
X31000Y382500D01*
X32000D01*
X31000Y383500D01*
X32000Y384500D01*
X31000D01*
X30000Y385500D01*
X29000Y384500D01*
X28000D01*
X29000Y383500D01*
X28000Y382500D01*
X29000D01*
X30000Y381500D01*
Y382300D02*
X30600Y382900D01*
X31200D01*
X30600Y383500D01*
X31200Y384100D01*
X30600D01*
X30000Y384700D01*
X29400Y384100D01*
X28800D01*
X29400Y383500D01*
X28800Y382900D01*
X29400D01*
X30000Y382300D01*
X35000Y381500D02*
X36000Y382500D01*
X37000D01*
X36000Y383500D01*
X37000Y384500D01*
X36000D01*
X35000Y385500D01*
X34000Y384500D01*
X33000D01*
X34000Y383500D01*
X33000Y382500D01*
X34000D01*
X35000Y381500D01*
Y382300D02*
X35600Y382900D01*
X36200D01*
X35600Y383500D01*
X36200Y384100D01*
X35600D01*
X35000Y384700D01*
X34400Y384100D01*
X33800D01*
X34400Y383500D01*
X33800Y382900D01*
X34400D01*
X35000Y382300D01*
X40000Y381500D02*
X41000Y382500D01*
X42000D01*
X41000Y383500D01*
X42000Y384500D01*
X41000D01*
X40000Y385500D01*
X39000Y384500D01*
X38000D01*
X39000Y383500D01*
X38000Y382500D01*
X39000D01*
X40000Y381500D01*
Y382300D02*
X40600Y382900D01*
X41200D01*
X40600Y383500D01*
X41200Y384100D01*
X40600D01*
X40000Y384700D01*
X39400Y384100D01*
X38800D01*
X39400Y383500D01*
X38800Y382900D01*
X39400D01*
X40000Y382300D01*
X45000Y381500D02*
X46000Y382500D01*
X47000D01*
X46000Y383500D01*
X47000Y384500D01*
X46000D01*
X45000Y385500D01*
X44000Y384500D01*
X43000D01*
X44000Y383500D01*
X43000Y382500D01*
X44000D01*
X45000Y381500D01*
Y382300D02*
X45600Y382900D01*
X46200D01*
X45600Y383500D01*
X46200Y384100D01*
X45600D01*
X45000Y384700D01*
X44400Y384100D01*
X43800D01*
X44400Y383500D01*
X43800Y382900D01*
X44400D01*
X45000Y382300D01*
X50000Y381500D02*
X51000Y382500D01*
X52000D01*
X51000Y383500D01*
X52000Y384500D01*
X51000D01*
X50000Y385500D01*
X49000Y384500D01*
X48000D01*
X49000Y383500D01*
X48000Y382500D01*
X49000D01*
X50000Y381500D01*
Y382300D02*
X50600Y382900D01*
X51200D01*
X50600Y383500D01*
X51200Y384100D01*
X50600D01*
X50000Y384700D01*
X49400Y384100D01*
X48800D01*
X49400Y383500D01*
X48800Y382900D01*
X49400D01*
X50000Y382300D01*
X55000Y381500D02*
X56000Y382500D01*
X57000D01*
X56000Y383500D01*
X57000Y384500D01*
X56000D01*
X55000Y385500D01*
X54000Y384500D01*
X53000D01*
X54000Y383500D01*
X53000Y382500D01*
X54000D01*
X55000Y381500D01*
Y382300D02*
X55600Y382900D01*
X56200D01*
X55600Y383500D01*
X56200Y384100D01*
X55600D01*
X55000Y384700D01*
X54400Y384100D01*
X53800D01*
X54400Y383500D01*
X53800Y382900D01*
X54400D01*
X55000Y382300D01*
X5000Y386500D02*
X6000Y387500D01*
X7000D01*
X6000Y388500D01*
X7000Y389500D01*
X6000D01*
X5000Y390500D01*
X4000Y389500D01*
X3000D01*
X4000Y388500D01*
X3000Y387500D01*
X4000D01*
X5000Y386500D01*
Y387300D02*
X5600Y387900D01*
X6200D01*
X5600Y388500D01*
X6200Y389100D01*
X5600D01*
X5000Y389700D01*
X4400Y389100D01*
X3800D01*
X4400Y388500D01*
X3800Y387900D01*
X4400D01*
X5000Y387300D01*
X10000Y386500D02*
X11000Y387500D01*
X12000D01*
X11000Y388500D01*
X12000Y389500D01*
X11000D01*
X10000Y390500D01*
X9000Y389500D01*
X8000D01*
X9000Y388500D01*
X8000Y387500D01*
X9000D01*
X10000Y386500D01*
Y387300D02*
X10600Y387900D01*
X11200D01*
X10600Y388500D01*
X11200Y389100D01*
X10600D01*
X10000Y389700D01*
X9400Y389100D01*
X8800D01*
X9400Y388500D01*
X8800Y387900D01*
X9400D01*
X10000Y387300D01*
X15000Y386500D02*
X16000Y387500D01*
X17000D01*
X16000Y388500D01*
X17000Y389500D01*
X16000D01*
X15000Y390500D01*
X14000Y389500D01*
X13000D01*
X14000Y388500D01*
X13000Y387500D01*
X14000D01*
X15000Y386500D01*
Y387300D02*
X15600Y387900D01*
X16200D01*
X15600Y388500D01*
X16200Y389100D01*
X15600D01*
X15000Y389700D01*
X14400Y389100D01*
X13800D01*
X14400Y388500D01*
X13800Y387900D01*
X14400D01*
X15000Y387300D01*
X20000Y386500D02*
X21000Y387500D01*
X22000D01*
X21000Y388500D01*
X22000Y389500D01*
X21000D01*
X20000Y390500D01*
X19000Y389500D01*
X18000D01*
X19000Y388500D01*
X18000Y387500D01*
X19000D01*
X20000Y386500D01*
Y387300D02*
X20600Y387900D01*
X21200D01*
X20600Y388500D01*
X21200Y389100D01*
X20600D01*
X20000Y389700D01*
X19400Y389100D01*
X18800D01*
X19400Y388500D01*
X18800Y387900D01*
X19400D01*
X20000Y387300D01*
X25000Y386500D02*
X26000Y387500D01*
X27000D01*
X26000Y388500D01*
X27000Y389500D01*
X26000D01*
X25000Y390500D01*
X24000Y389500D01*
X23000D01*
X24000Y388500D01*
X23000Y387500D01*
X24000D01*
X25000Y386500D01*
Y387300D02*
X25600Y387900D01*
X26200D01*
X25600Y388500D01*
X26200Y389100D01*
X25600D01*
X25000Y389700D01*
X24400Y389100D01*
X23800D01*
X24400Y388500D01*
X23800Y387900D01*
X24400D01*
X25000Y387300D01*
X30000Y386500D02*
X31000Y387500D01*
X32000D01*
X31000Y388500D01*
X32000Y389500D01*
X31000D01*
X30000Y390500D01*
X29000Y389500D01*
X28000D01*
X29000Y388500D01*
X28000Y387500D01*
X29000D01*
X30000Y386500D01*
Y387300D02*
X30600Y387900D01*
X31200D01*
X30600Y388500D01*
X31200Y389100D01*
X30600D01*
X30000Y389700D01*
X29400Y389100D01*
X28800D01*
X29400Y388500D01*
X28800Y387900D01*
X29400D01*
X30000Y387300D01*
X35000Y386500D02*
X36000Y387500D01*
X37000D01*
X36000Y388500D01*
X37000Y389500D01*
X36000D01*
X35000Y390500D01*
X34000Y389500D01*
X33000D01*
X34000Y388500D01*
X33000Y387500D01*
X34000D01*
X35000Y386500D01*
Y387300D02*
X35600Y387900D01*
X36200D01*
X35600Y388500D01*
X36200Y389100D01*
X35600D01*
X35000Y389700D01*
X34400Y389100D01*
X33800D01*
X34400Y388500D01*
X33800Y387900D01*
X34400D01*
X35000Y387300D01*
X40000Y386500D02*
X41000Y387500D01*
X42000D01*
X41000Y388500D01*
X42000Y389500D01*
X41000D01*
X40000Y390500D01*
X39000Y389500D01*
X38000D01*
X39000Y388500D01*
X38000Y387500D01*
X39000D01*
X40000Y386500D01*
Y387300D02*
X40600Y387900D01*
X41200D01*
X40600Y388500D01*
X41200Y389100D01*
X40600D01*
X40000Y389700D01*
X39400Y389100D01*
X38800D01*
X39400Y388500D01*
X38800Y387900D01*
X39400D01*
X40000Y387300D01*
X45000Y386500D02*
X46000Y387500D01*
X47000D01*
X46000Y388500D01*
X47000Y389500D01*
X46000D01*
X45000Y390500D01*
X44000Y389500D01*
X43000D01*
X44000Y388500D01*
X43000Y387500D01*
X44000D01*
X45000Y386500D01*
Y387300D02*
X45600Y387900D01*
X46200D01*
X45600Y388500D01*
X46200Y389100D01*
X45600D01*
X45000Y389700D01*
X44400Y389100D01*
X43800D01*
X44400Y388500D01*
X43800Y387900D01*
X44400D01*
X45000Y387300D01*
X50000Y386500D02*
X51000Y387500D01*
X52000D01*
X51000Y388500D01*
X52000Y389500D01*
X51000D01*
X50000Y390500D01*
X49000Y389500D01*
X48000D01*
X49000Y388500D01*
X48000Y387500D01*
X49000D01*
X50000Y386500D01*
Y387300D02*
X50600Y387900D01*
X51200D01*
X50600Y388500D01*
X51200Y389100D01*
X50600D01*
X50000Y389700D01*
X49400Y389100D01*
X48800D01*
X49400Y388500D01*
X48800Y387900D01*
X49400D01*
X50000Y387300D01*
X55000Y386500D02*
X56000Y387500D01*
X57000D01*
X56000Y388500D01*
X57000Y389500D01*
X56000D01*
X55000Y390500D01*
X54000Y389500D01*
X53000D01*
X54000Y388500D01*
X53000Y387500D01*
X54000D01*
X55000Y386500D01*
Y387300D02*
X55600Y387900D01*
X56200D01*
X55600Y388500D01*
X56200Y389100D01*
X55600D01*
X55000Y389700D01*
X54400Y389100D01*
X53800D01*
X54400Y388500D01*
X53800Y387900D01*
X54400D01*
X55000Y387300D01*
X5000Y391500D02*
X6000Y392500D01*
X7000D01*
X6000Y393500D01*
X7000Y394500D01*
X6000D01*
X5000Y395500D01*
X4000Y394500D01*
X3000D01*
X4000Y393500D01*
X3000Y392500D01*
X4000D01*
X5000Y391500D01*
Y392300D02*
X5600Y392900D01*
X6200D01*
X5600Y393500D01*
X6200Y394100D01*
X5600D01*
X5000Y394700D01*
X4400Y394100D01*
X3800D01*
X4400Y393500D01*
X3800Y392900D01*
X4400D01*
X5000Y392300D01*
X10000Y391500D02*
X11000Y392500D01*
X12000D01*
X11000Y393500D01*
X12000Y394500D01*
X11000D01*
X10000Y395500D01*
X9000Y394500D01*
X8000D01*
X9000Y393500D01*
X8000Y392500D01*
X9000D01*
X10000Y391500D01*
Y392300D02*
X10600Y392900D01*
X11200D01*
X10600Y393500D01*
X11200Y394100D01*
X10600D01*
X10000Y394700D01*
X9400Y394100D01*
X8800D01*
X9400Y393500D01*
X8800Y392900D01*
X9400D01*
X10000Y392300D01*
X15000Y391500D02*
X16000Y392500D01*
X17000D01*
X16000Y393500D01*
X17000Y394500D01*
X16000D01*
X15000Y395500D01*
X14000Y394500D01*
X13000D01*
X14000Y393500D01*
X13000Y392500D01*
X14000D01*
X15000Y391500D01*
Y392300D02*
X15600Y392900D01*
X16200D01*
X15600Y393500D01*
X16200Y394100D01*
X15600D01*
X15000Y394700D01*
X14400Y394100D01*
X13800D01*
X14400Y393500D01*
X13800Y392900D01*
X14400D01*
X15000Y392300D01*
X20000Y391500D02*
X21000Y392500D01*
X22000D01*
X21000Y393500D01*
X22000Y394500D01*
X21000D01*
X20000Y395500D01*
X19000Y394500D01*
X18000D01*
X19000Y393500D01*
X18000Y392500D01*
X19000D01*
X20000Y391500D01*
Y392300D02*
X20600Y392900D01*
X21200D01*
X20600Y393500D01*
X21200Y394100D01*
X20600D01*
X20000Y394700D01*
X19400Y394100D01*
X18800D01*
X19400Y393500D01*
X18800Y392900D01*
X19400D01*
X20000Y392300D01*
X25000Y391500D02*
X26000Y392500D01*
X27000D01*
X26000Y393500D01*
X27000Y394500D01*
X26000D01*
X25000Y395500D01*
X24000Y394500D01*
X23000D01*
X24000Y393500D01*
X23000Y392500D01*
X24000D01*
X25000Y391500D01*
Y392300D02*
X25600Y392900D01*
X26200D01*
X25600Y393500D01*
X26200Y394100D01*
X25600D01*
X25000Y394700D01*
X24400Y394100D01*
X23800D01*
X24400Y393500D01*
X23800Y392900D01*
X24400D01*
X25000Y392300D01*
X30000Y391500D02*
X31000Y392500D01*
X32000D01*
X31000Y393500D01*
X32000Y394500D01*
X31000D01*
X30000Y395500D01*
X29000Y394500D01*
X28000D01*
X29000Y393500D01*
X28000Y392500D01*
X29000D01*
X30000Y391500D01*
Y392300D02*
X30600Y392900D01*
X31200D01*
X30600Y393500D01*
X31200Y394100D01*
X30600D01*
X30000Y394700D01*
X29400Y394100D01*
X28800D01*
X29400Y393500D01*
X28800Y392900D01*
X29400D01*
X30000Y392300D01*
X35000Y391500D02*
X36000Y392500D01*
X37000D01*
X36000Y393500D01*
X37000Y394500D01*
X36000D01*
X35000Y395500D01*
X34000Y394500D01*
X33000D01*
X34000Y393500D01*
X33000Y392500D01*
X34000D01*
X35000Y391500D01*
Y392300D02*
X35600Y392900D01*
X36200D01*
X35600Y393500D01*
X36200Y394100D01*
X35600D01*
X35000Y394700D01*
X34400Y394100D01*
X33800D01*
X34400Y393500D01*
X33800Y392900D01*
X34400D01*
X35000Y392300D01*
X40000Y391500D02*
X41000Y392500D01*
X42000D01*
X41000Y393500D01*
X42000Y394500D01*
X41000D01*
X40000Y395500D01*
X39000Y394500D01*
X38000D01*
X39000Y393500D01*
X38000Y392500D01*
X39000D01*
X40000Y391500D01*
Y392300D02*
X40600Y392900D01*
X41200D01*
X40600Y393500D01*
X41200Y394100D01*
X40600D01*
X40000Y394700D01*
X39400Y394100D01*
X38800D01*
X39400Y393500D01*
X38800Y392900D01*
X39400D01*
X40000Y392300D01*
X45000Y391500D02*
X46000Y392500D01*
X47000D01*
X46000Y393500D01*
X47000Y394500D01*
X46000D01*
X45000Y395500D01*
X44000Y394500D01*
X43000D01*
X44000Y393500D01*
X43000Y392500D01*
X44000D01*
X45000Y391500D01*
Y392300D02*
X45600Y392900D01*
X46200D01*
X45600Y393500D01*
X46200Y394100D01*
X45600D01*
X45000Y394700D01*
X44400Y394100D01*
X43800D01*
X44400Y393500D01*
X43800Y392900D01*
X44400D01*
X45000Y392300D01*
X50000Y391500D02*
X51000Y392500D01*
X52000D01*
X51000Y393500D01*
X52000Y394500D01*
X51000D01*
X50000Y395500D01*
X49000Y394500D01*
X48000D01*
X49000Y393500D01*
X48000Y392500D01*
X49000D01*
X50000Y391500D01*
Y392300D02*
X50600Y392900D01*
X51200D01*
X50600Y393500D01*
X51200Y394100D01*
X50600D01*
X50000Y394700D01*
X49400Y394100D01*
X48800D01*
X49400Y393500D01*
X48800Y392900D01*
X49400D01*
X50000Y392300D01*
X55000Y391500D02*
X56000Y392500D01*
X57000D01*
X56000Y393500D01*
X57000Y394500D01*
X56000D01*
X55000Y395500D01*
X54000Y394500D01*
X53000D01*
X54000Y393500D01*
X53000Y392500D01*
X54000D01*
X55000Y391500D01*
Y392300D02*
X55600Y392900D01*
X56200D01*
X55600Y393500D01*
X56200Y394100D01*
X55600D01*
X55000Y394700D01*
X54400Y394100D01*
X53800D01*
X54400Y393500D01*
X53800Y392900D01*
X54400D01*
X55000Y392300D01*
X5000Y396500D02*
X6000Y397500D01*
X7000D01*
X6000Y398500D01*
X7000Y399500D01*
X6000D01*
X5000Y400500D01*
X4000Y399500D01*
X3000D01*
X4000Y398500D01*
X3000Y397500D01*
X4000D01*
X5000Y396500D01*
Y397300D02*
X5600Y397900D01*
X6200D01*
X5600Y398500D01*
X6200Y399100D01*
X5600D01*
X5000Y399700D01*
X4400Y399100D01*
X3800D01*
X4400Y398500D01*
X3800Y397900D01*
X4400D01*
X5000Y397300D01*
X10000Y396500D02*
X11000Y397500D01*
X12000D01*
X11000Y398500D01*
X12000Y399500D01*
X11000D01*
X10000Y400500D01*
X9000Y399500D01*
X8000D01*
X9000Y398500D01*
X8000Y397500D01*
X9000D01*
X10000Y396500D01*
Y397300D02*
X10600Y397900D01*
X11200D01*
X10600Y398500D01*
X11200Y399100D01*
X10600D01*
X10000Y399700D01*
X9400Y399100D01*
X8800D01*
X9400Y398500D01*
X8800Y397900D01*
X9400D01*
X10000Y397300D01*
X15000Y396500D02*
X16000Y397500D01*
X17000D01*
X16000Y398500D01*
X17000Y399500D01*
X16000D01*
X15000Y400500D01*
X14000Y399500D01*
X13000D01*
X14000Y398500D01*
X13000Y397500D01*
X14000D01*
X15000Y396500D01*
Y397300D02*
X15600Y397900D01*
X16200D01*
X15600Y398500D01*
X16200Y399100D01*
X15600D01*
X15000Y399700D01*
X14400Y399100D01*
X13800D01*
X14400Y398500D01*
X13800Y397900D01*
X14400D01*
X15000Y397300D01*
X20000Y396500D02*
X21000Y397500D01*
X22000D01*
X21000Y398500D01*
X22000Y399500D01*
X21000D01*
X20000Y400500D01*
X19000Y399500D01*
X18000D01*
X19000Y398500D01*
X18000Y397500D01*
X19000D01*
X20000Y396500D01*
Y397300D02*
X20600Y397900D01*
X21200D01*
X20600Y398500D01*
X21200Y399100D01*
X20600D01*
X20000Y399700D01*
X19400Y399100D01*
X18800D01*
X19400Y398500D01*
X18800Y397900D01*
X19400D01*
X20000Y397300D01*
X25000Y396500D02*
X26000Y397500D01*
X27000D01*
X26000Y398500D01*
X27000Y399500D01*
X26000D01*
X25000Y400500D01*
X24000Y399500D01*
X23000D01*
X24000Y398500D01*
X23000Y397500D01*
X24000D01*
X25000Y396500D01*
Y397300D02*
X25600Y397900D01*
X26200D01*
X25600Y398500D01*
X26200Y399100D01*
X25600D01*
X25000Y399700D01*
X24400Y399100D01*
X23800D01*
X24400Y398500D01*
X23800Y397900D01*
X24400D01*
X25000Y397300D01*
X30000Y396500D02*
X31000Y397500D01*
X32000D01*
X31000Y398500D01*
X32000Y399500D01*
X31000D01*
X30000Y400500D01*
X29000Y399500D01*
X28000D01*
X29000Y398500D01*
X28000Y397500D01*
X29000D01*
X30000Y396500D01*
Y397300D02*
X30600Y397900D01*
X31200D01*
X30600Y398500D01*
X31200Y399100D01*
X30600D01*
X30000Y399700D01*
X29400Y399100D01*
X28800D01*
X29400Y398500D01*
X28800Y397900D01*
X29400D01*
X30000Y397300D01*
X35000Y396500D02*
X36000Y397500D01*
X37000D01*
X36000Y398500D01*
X37000Y399500D01*
X36000D01*
X35000Y400500D01*
X34000Y399500D01*
X33000D01*
X34000Y398500D01*
X33000Y397500D01*
X34000D01*
X35000Y396500D01*
Y397300D02*
X35600Y397900D01*
X36200D01*
X35600Y398500D01*
X36200Y399100D01*
X35600D01*
X35000Y399700D01*
X34400Y399100D01*
X33800D01*
X34400Y398500D01*
X33800Y397900D01*
X34400D01*
X35000Y397300D01*
X40000Y396500D02*
X41000Y397500D01*
X42000D01*
X41000Y398500D01*
X42000Y399500D01*
X41000D01*
X40000Y400500D01*
X39000Y399500D01*
X38000D01*
X39000Y398500D01*
X38000Y397500D01*
X39000D01*
X40000Y396500D01*
Y397300D02*
X40600Y397900D01*
X41200D01*
X40600Y398500D01*
X41200Y399100D01*
X40600D01*
X40000Y399700D01*
X39400Y399100D01*
X38800D01*
X39400Y398500D01*
X38800Y397900D01*
X39400D01*
X40000Y397300D01*
X45000Y396500D02*
X46000Y397500D01*
X47000D01*
X46000Y398500D01*
X47000Y399500D01*
X46000D01*
X45000Y400500D01*
X44000Y399500D01*
X43000D01*
X44000Y398500D01*
X43000Y397500D01*
X44000D01*
X45000Y396500D01*
Y397300D02*
X45600Y397900D01*
X46200D01*
X45600Y398500D01*
X46200Y399100D01*
X45600D01*
X45000Y399700D01*
X44400Y399100D01*
X43800D01*
X44400Y398500D01*
X43800Y397900D01*
X44400D01*
X45000Y397300D01*
X50000Y396500D02*
X51000Y397500D01*
X52000D01*
X51000Y398500D01*
X52000Y399500D01*
X51000D01*
X50000Y400500D01*
X49000Y399500D01*
X48000D01*
X49000Y398500D01*
X48000Y397500D01*
X49000D01*
X50000Y396500D01*
Y397300D02*
X50600Y397900D01*
X51200D01*
X50600Y398500D01*
X51200Y399100D01*
X50600D01*
X50000Y399700D01*
X49400Y399100D01*
X48800D01*
X49400Y398500D01*
X48800Y397900D01*
X49400D01*
X50000Y397300D01*
X55000Y396500D02*
X56000Y397500D01*
X57000D01*
X56000Y398500D01*
X57000Y399500D01*
X56000D01*
X55000Y400500D01*
X54000Y399500D01*
X53000D01*
X54000Y398500D01*
X53000Y397500D01*
X54000D01*
X55000Y396500D01*
Y397300D02*
X55600Y397900D01*
X56200D01*
X55600Y398500D01*
X56200Y399100D01*
X55600D01*
X55000Y399700D01*
X54400Y399100D01*
X53800D01*
X54400Y398500D01*
X53800Y397900D01*
X54400D01*
X55000Y397300D01*
X5000Y401500D02*
X6000Y402500D01*
X7000D01*
X6000Y403500D01*
X7000Y404500D01*
X6000D01*
X5000Y405500D01*
X4000Y404500D01*
X3000D01*
X4000Y403500D01*
X3000Y402500D01*
X4000D01*
X5000Y401500D01*
Y402300D02*
X5600Y402900D01*
X6200D01*
X5600Y403500D01*
X6200Y404100D01*
X5600D01*
X5000Y404700D01*
X4400Y404100D01*
X3800D01*
X4400Y403500D01*
X3800Y402900D01*
X4400D01*
X5000Y402300D01*
X10000Y401500D02*
X11000Y402500D01*
X12000D01*
X11000Y403500D01*
X12000Y404500D01*
X11000D01*
X10000Y405500D01*
X9000Y404500D01*
X8000D01*
X9000Y403500D01*
X8000Y402500D01*
X9000D01*
X10000Y401500D01*
Y402300D02*
X10600Y402900D01*
X11200D01*
X10600Y403500D01*
X11200Y404100D01*
X10600D01*
X10000Y404700D01*
X9400Y404100D01*
X8800D01*
X9400Y403500D01*
X8800Y402900D01*
X9400D01*
X10000Y402300D01*
X15000Y401500D02*
X16000Y402500D01*
X17000D01*
X16000Y403500D01*
X17000Y404500D01*
X16000D01*
X15000Y405500D01*
X14000Y404500D01*
X13000D01*
X14000Y403500D01*
X13000Y402500D01*
X14000D01*
X15000Y401500D01*
Y402300D02*
X15600Y402900D01*
X16200D01*
X15600Y403500D01*
X16200Y404100D01*
X15600D01*
X15000Y404700D01*
X14400Y404100D01*
X13800D01*
X14400Y403500D01*
X13800Y402900D01*
X14400D01*
X15000Y402300D01*
X20000Y401500D02*
X21000Y402500D01*
X22000D01*
X21000Y403500D01*
X22000Y404500D01*
X21000D01*
X20000Y405500D01*
X19000Y404500D01*
X18000D01*
X19000Y403500D01*
X18000Y402500D01*
X19000D01*
X20000Y401500D01*
Y402300D02*
X20600Y402900D01*
X21200D01*
X20600Y403500D01*
X21200Y404100D01*
X20600D01*
X20000Y404700D01*
X19400Y404100D01*
X18800D01*
X19400Y403500D01*
X18800Y402900D01*
X19400D01*
X20000Y402300D01*
X25000Y401500D02*
X26000Y402500D01*
X27000D01*
X26000Y403500D01*
X27000Y404500D01*
X26000D01*
X25000Y405500D01*
X24000Y404500D01*
X23000D01*
X24000Y403500D01*
X23000Y402500D01*
X24000D01*
X25000Y401500D01*
Y402300D02*
X25600Y402900D01*
X26200D01*
X25600Y403500D01*
X26200Y404100D01*
X25600D01*
X25000Y404700D01*
X24400Y404100D01*
X23800D01*
X24400Y403500D01*
X23800Y402900D01*
X24400D01*
X25000Y402300D01*
X30000Y401500D02*
X31000Y402500D01*
X32000D01*
X31000Y403500D01*
X32000Y404500D01*
X31000D01*
X30000Y405500D01*
X29000Y404500D01*
X28000D01*
X29000Y403500D01*
X28000Y402500D01*
X29000D01*
X30000Y401500D01*
Y402300D02*
X30600Y402900D01*
X31200D01*
X30600Y403500D01*
X31200Y404100D01*
X30600D01*
X30000Y404700D01*
X29400Y404100D01*
X28800D01*
X29400Y403500D01*
X28800Y402900D01*
X29400D01*
X30000Y402300D01*
X35000Y401500D02*
X36000Y402500D01*
X37000D01*
X36000Y403500D01*
X37000Y404500D01*
X36000D01*
X35000Y405500D01*
X34000Y404500D01*
X33000D01*
X34000Y403500D01*
X33000Y402500D01*
X34000D01*
X35000Y401500D01*
Y402300D02*
X35600Y402900D01*
X36200D01*
X35600Y403500D01*
X36200Y404100D01*
X35600D01*
X35000Y404700D01*
X34400Y404100D01*
X33800D01*
X34400Y403500D01*
X33800Y402900D01*
X34400D01*
X35000Y402300D01*
X40000Y401500D02*
X41000Y402500D01*
X42000D01*
X41000Y403500D01*
X42000Y404500D01*
X41000D01*
X40000Y405500D01*
X39000Y404500D01*
X38000D01*
X39000Y403500D01*
X38000Y402500D01*
X39000D01*
X40000Y401500D01*
Y402300D02*
X40600Y402900D01*
X41200D01*
X40600Y403500D01*
X41200Y404100D01*
X40600D01*
X40000Y404700D01*
X39400Y404100D01*
X38800D01*
X39400Y403500D01*
X38800Y402900D01*
X39400D01*
X40000Y402300D01*
X45000Y401500D02*
X46000Y402500D01*
X47000D01*
X46000Y403500D01*
X47000Y404500D01*
X46000D01*
X45000Y405500D01*
X44000Y404500D01*
X43000D01*
X44000Y403500D01*
X43000Y402500D01*
X44000D01*
X45000Y401500D01*
Y402300D02*
X45600Y402900D01*
X46200D01*
X45600Y403500D01*
X46200Y404100D01*
X45600D01*
X45000Y404700D01*
X44400Y404100D01*
X43800D01*
X44400Y403500D01*
X43800Y402900D01*
X44400D01*
X45000Y402300D01*
X50000Y401500D02*
X51000Y402500D01*
X52000D01*
X51000Y403500D01*
X52000Y404500D01*
X51000D01*
X50000Y405500D01*
X49000Y404500D01*
X48000D01*
X49000Y403500D01*
X48000Y402500D01*
X49000D01*
X50000Y401500D01*
Y402300D02*
X50600Y402900D01*
X51200D01*
X50600Y403500D01*
X51200Y404100D01*
X50600D01*
X50000Y404700D01*
X49400Y404100D01*
X48800D01*
X49400Y403500D01*
X48800Y402900D01*
X49400D01*
X50000Y402300D01*
X55000Y401500D02*
X56000Y402500D01*
X57000D01*
X56000Y403500D01*
X57000Y404500D01*
X56000D01*
X55000Y405500D01*
X54000Y404500D01*
X53000D01*
X54000Y403500D01*
X53000Y402500D01*
X54000D01*
X55000Y401500D01*
Y402300D02*
X55600Y402900D01*
X56200D01*
X55600Y403500D01*
X56200Y404100D01*
X55600D01*
X55000Y404700D01*
X54400Y404100D01*
X53800D01*
X54400Y403500D01*
X53800Y402900D01*
X54400D01*
X55000Y402300D01*
Y406500D02*
X56000Y407500D01*
X57000D01*
X56000Y408500D01*
X57000Y409500D01*
X56000D01*
X55000Y410500D01*
X54000Y409500D01*
X53000D01*
X54000Y408500D01*
X53000Y407500D01*
X54000D01*
X55000Y406500D01*
Y407300D02*
X55600Y407900D01*
X56200D01*
X55600Y408500D01*
X56200Y409100D01*
X55600D01*
X55000Y409700D01*
X54400Y409100D01*
X53800D01*
X54400Y408500D01*
X53800Y407900D01*
X54400D01*
X55000Y407300D01*
X50000Y406500D02*
X51000Y407500D01*
X52000D01*
X51000Y408500D01*
X52000Y409500D01*
X51000D01*
X50000Y410500D01*
X49000Y409500D01*
X48000D01*
X49000Y408500D01*
X48000Y407500D01*
X49000D01*
X50000Y406500D01*
Y407300D02*
X50600Y407900D01*
X51200D01*
X50600Y408500D01*
X51200Y409100D01*
X50600D01*
X50000Y409700D01*
X49400Y409100D01*
X48800D01*
X49400Y408500D01*
X48800Y407900D01*
X49400D01*
X50000Y407300D01*
X45000Y406500D02*
X46000Y407500D01*
X47000D01*
X46000Y408500D01*
X47000Y409500D01*
X46000D01*
X45000Y410500D01*
X44000Y409500D01*
X43000D01*
X44000Y408500D01*
X43000Y407500D01*
X44000D01*
X45000Y406500D01*
Y407300D02*
X45600Y407900D01*
X46200D01*
X45600Y408500D01*
X46200Y409100D01*
X45600D01*
X45000Y409700D01*
X44400Y409100D01*
X43800D01*
X44400Y408500D01*
X43800Y407900D01*
X44400D01*
X45000Y407300D01*
X40000Y406500D02*
X41000Y407500D01*
X42000D01*
X41000Y408500D01*
X42000Y409500D01*
X41000D01*
X40000Y410500D01*
X39000Y409500D01*
X38000D01*
X39000Y408500D01*
X38000Y407500D01*
X39000D01*
X40000Y406500D01*
Y407300D02*
X40600Y407900D01*
X41200D01*
X40600Y408500D01*
X41200Y409100D01*
X40600D01*
X40000Y409700D01*
X39400Y409100D01*
X38800D01*
X39400Y408500D01*
X38800Y407900D01*
X39400D01*
X40000Y407300D01*
X35000Y406500D02*
X36000Y407500D01*
X37000D01*
X36000Y408500D01*
X37000Y409500D01*
X36000D01*
X35000Y410500D01*
X34000Y409500D01*
X33000D01*
X34000Y408500D01*
X33000Y407500D01*
X34000D01*
X35000Y406500D01*
Y407300D02*
X35600Y407900D01*
X36200D01*
X35600Y408500D01*
X36200Y409100D01*
X35600D01*
X35000Y409700D01*
X34400Y409100D01*
X33800D01*
X34400Y408500D01*
X33800Y407900D01*
X34400D01*
X35000Y407300D01*
X30000Y406500D02*
X31000Y407500D01*
X32000D01*
X31000Y408500D01*
X32000Y409500D01*
X31000D01*
X30000Y410500D01*
X29000Y409500D01*
X28000D01*
X29000Y408500D01*
X28000Y407500D01*
X29000D01*
X30000Y406500D01*
Y407300D02*
X30600Y407900D01*
X31200D01*
X30600Y408500D01*
X31200Y409100D01*
X30600D01*
X30000Y409700D01*
X29400Y409100D01*
X28800D01*
X29400Y408500D01*
X28800Y407900D01*
X29400D01*
X30000Y407300D01*
X25000Y406500D02*
X26000Y407500D01*
X27000D01*
X26000Y408500D01*
X27000Y409500D01*
X26000D01*
X25000Y410500D01*
X24000Y409500D01*
X23000D01*
X24000Y408500D01*
X23000Y407500D01*
X24000D01*
X25000Y406500D01*
Y407300D02*
X25600Y407900D01*
X26200D01*
X25600Y408500D01*
X26200Y409100D01*
X25600D01*
X25000Y409700D01*
X24400Y409100D01*
X23800D01*
X24400Y408500D01*
X23800Y407900D01*
X24400D01*
X25000Y407300D01*
X20000Y406500D02*
X21000Y407500D01*
X22000D01*
X21000Y408500D01*
X22000Y409500D01*
X21000D01*
X20000Y410500D01*
X19000Y409500D01*
X18000D01*
X19000Y408500D01*
X18000Y407500D01*
X19000D01*
X20000Y406500D01*
Y407300D02*
X20600Y407900D01*
X21200D01*
X20600Y408500D01*
X21200Y409100D01*
X20600D01*
X20000Y409700D01*
X19400Y409100D01*
X18800D01*
X19400Y408500D01*
X18800Y407900D01*
X19400D01*
X20000Y407300D01*
X15000Y406500D02*
X16000Y407500D01*
X17000D01*
X16000Y408500D01*
X17000Y409500D01*
X16000D01*
X15000Y410500D01*
X14000Y409500D01*
X13000D01*
X14000Y408500D01*
X13000Y407500D01*
X14000D01*
X15000Y406500D01*
Y407300D02*
X15600Y407900D01*
X16200D01*
X15600Y408500D01*
X16200Y409100D01*
X15600D01*
X15000Y409700D01*
X14400Y409100D01*
X13800D01*
X14400Y408500D01*
X13800Y407900D01*
X14400D01*
X15000Y407300D01*
X10000Y406500D02*
X11000Y407500D01*
X12000D01*
X11000Y408500D01*
X12000Y409500D01*
X11000D01*
X10000Y410500D01*
X9000Y409500D01*
X8000D01*
X9000Y408500D01*
X8000Y407500D01*
X9000D01*
X10000Y406500D01*
Y407300D02*
X10600Y407900D01*
X11200D01*
X10600Y408500D01*
X11200Y409100D01*
X10600D01*
X10000Y409700D01*
X9400Y409100D01*
X8800D01*
X9400Y408500D01*
X8800Y407900D01*
X9400D01*
X10000Y407300D01*
X5000Y406500D02*
X6000Y407500D01*
X7000D01*
X6000Y408500D01*
X7000Y409500D01*
X6000D01*
X5000Y410500D01*
X4000Y409500D01*
X3000D01*
X4000Y408500D01*
X3000Y407500D01*
X4000D01*
X5000Y406500D01*
Y407300D02*
X5600Y407900D01*
X6200D01*
X5600Y408500D01*
X6200Y409100D01*
X5600D01*
X5000Y409700D01*
X4400Y409100D01*
X3800D01*
X4400Y408500D01*
X3800Y407900D01*
X4400D01*
X5000Y407300D01*
X69700Y408900D02*
X67700Y412900D01*
X71700D01*
X69700Y408900D01*
Y409700D02*
X68500Y412100D01*
X70900D01*
X69700Y409700D01*
X102600Y401600D02*
X100600Y405600D01*
X104600D01*
X102600Y401600D01*
Y402400D02*
X101400Y404800D01*
X103800D01*
X102600Y402400D01*
X94700Y401600D02*
X92700Y405600D01*
X96700D01*
X94700Y401600D01*
Y402400D02*
X93500Y404800D01*
X95900D01*
X94700Y402400D01*
X79000Y412000D02*
X77000Y416000D01*
X81000D01*
X79000Y412000D01*
Y412800D02*
X77800Y415200D01*
X80200D01*
X79000Y412800D01*
X83500Y406500D02*
X81500Y410500D01*
X85500D01*
X83500Y406500D01*
Y407300D02*
X82300Y409700D01*
X84700D01*
X83500Y407300D01*
X123000Y422000D02*
X121000Y426000D01*
X125000D01*
X123000Y422000D01*
Y422800D02*
X121800Y425200D01*
X124200D01*
X123000Y422800D01*
X84349Y430149D02*
X82349Y434149D01*
X86349D01*
X84349Y430149D01*
Y430949D02*
X83149Y433349D01*
X85549D01*
X84349Y430949D01*
X115500Y443500D02*
X113500Y447500D01*
X117500D01*
X115500Y443500D01*
Y444300D02*
X114300Y446700D01*
X116700D01*
X115500Y444300D01*
X87000Y418500D02*
X85000Y422500D01*
X89000D01*
X87000Y418500D01*
Y419300D02*
X85800Y421700D01*
X88200D01*
X87000Y419300D01*
X91000Y380000D02*
X89000Y384000D01*
X93000D01*
X91000Y380000D01*
Y380800D02*
X89800Y383200D01*
X92200D01*
X91000Y380800D01*
X106000Y380500D02*
X104000Y384500D01*
X108000D01*
X106000Y380500D01*
Y381300D02*
X104800Y383700D01*
X107200D01*
X106000Y381300D01*
X101500Y379000D02*
X99500Y383000D01*
X103500D01*
X101500Y379000D01*
Y379800D02*
X100300Y382200D01*
X102700D01*
X101500Y379800D01*
X92000Y364000D02*
X90000Y368000D01*
X94000D01*
X92000Y364000D01*
Y364800D02*
X90800Y367200D01*
X93200D01*
X92000Y364800D01*
X96000Y457500D02*
X94000Y461500D01*
X98000D01*
X96000Y457500D01*
Y458300D02*
X94800Y460700D01*
X97200D01*
X96000Y458300D01*
X90000Y458000D02*
X88000Y462000D01*
X92000D01*
X90000Y458000D01*
Y458800D02*
X88800Y461200D01*
X91200D01*
X90000Y458800D01*
X75000Y418000D02*
X73000Y422000D01*
X77000D01*
X75000Y418000D01*
Y418800D02*
X73800Y421200D01*
X76200D01*
X75000Y418800D01*
X91100Y326700D02*
X92100Y327700D01*
X93100D01*
X92100Y328700D01*
X93100Y329700D01*
X92100D01*
X91100Y330700D01*
X90100Y329700D01*
X89100D01*
X90100Y328700D01*
X89100Y327700D01*
X90100D01*
X91100Y326700D01*
Y327500D02*
X91700Y328100D01*
X92300D01*
X91700Y328700D01*
X92300Y329300D01*
X91700D01*
X91100Y329900D01*
X90500Y329300D01*
X89900D01*
X90500Y328700D01*
X89900Y328100D01*
X90500D01*
X91100Y327500D01*
X127500Y137300D02*
X128500Y138300D01*
X129500D01*
X128500Y139300D01*
X129500Y140300D01*
X128500D01*
X127500Y141300D01*
X126500Y140300D01*
X125500D01*
X126500Y139300D01*
X125500Y138300D01*
X126500D01*
X127500Y137300D01*
Y138100D02*
X128100Y138700D01*
X128700D01*
X128100Y139300D01*
X128700Y139900D01*
X128100D01*
X127500Y140500D01*
X126900Y139900D01*
X126300D01*
X126900Y139300D01*
X126300Y138700D01*
X126900D01*
X127500Y138100D01*
X218000Y321800D02*
X216000Y325800D01*
X220000D01*
X218000Y321800D01*
Y322600D02*
X216800Y325000D01*
X219200D01*
X218000Y322600D01*
X185000Y321800D02*
X183000Y325800D01*
X187000D01*
X185000Y321800D01*
Y322600D02*
X183800Y325000D01*
X186200D01*
X185000Y322600D01*
X87000Y370500D02*
X85000Y374500D01*
X89000D01*
X87000Y370500D01*
Y371300D02*
X85800Y373700D01*
X88200D01*
X87000Y371300D01*
X86500Y392000D02*
X84500Y396000D01*
X88500D01*
X86500Y392000D01*
Y392800D02*
X85300Y395200D01*
X87700D01*
X86500Y392800D01*
X57000Y448000D02*
X55000Y452000D01*
X59000D01*
X57000Y448000D01*
Y448800D02*
X55800Y451200D01*
X58200D01*
X57000Y448800D01*
X62500Y459000D02*
X60500Y463000D01*
X64500D01*
X62500Y459000D01*
Y459800D02*
X61300Y462200D01*
X63700D01*
X62500Y459800D01*
X29000Y428200D02*
X30000Y429200D01*
X31000D01*
X30000Y430200D01*
X31000Y431200D01*
X30000D01*
X29000Y432200D01*
X28000Y431200D01*
X27000D01*
X28000Y430200D01*
X27000Y429200D01*
X28000D01*
X29000Y428200D01*
Y429000D02*
X29600Y429600D01*
X30200D01*
X29600Y430200D01*
X30200Y430800D01*
X29600D01*
X29000Y431400D01*
X28400Y430800D01*
X27800D01*
X28400Y430200D01*
X27800Y429600D01*
X28400D01*
X29000Y429000D01*
X139500Y450931D02*
X137500Y454931D01*
X141500D01*
X139500Y450931D01*
Y451731D02*
X138300Y454131D01*
X140700D01*
X139500Y451731D01*
X118000Y451000D02*
X116000Y455000D01*
X120000D01*
X118000Y451000D01*
Y451800D02*
X116800Y454200D01*
X119200D01*
X118000Y451800D01*
X112000Y434500D02*
X110000Y438500D01*
X114000D01*
X112000Y434500D01*
Y435300D02*
X110800Y437700D01*
X113200D01*
X112000Y435300D01*
X116000Y419500D02*
X114000Y423500D01*
X118000D01*
X116000Y419500D01*
Y420300D02*
X114800Y422700D01*
X117200D01*
X116000Y420300D01*
X113000Y429500D02*
X111000Y433500D01*
X115000D01*
X113000Y429500D01*
Y430300D02*
X111800Y432700D01*
X114200D01*
X113000Y430300D01*
X110000Y455500D02*
X108000Y459500D01*
X112000D01*
X110000Y455500D01*
Y456300D02*
X108800Y458700D01*
X111200D01*
X110000Y456300D01*
X86000Y447000D02*
X84000Y451000D01*
X88000D01*
X86000Y447000D01*
Y447800D02*
X84800Y450200D01*
X87200D01*
X86000Y447800D01*
X116400Y371000D02*
X114400Y375000D01*
X118400D01*
X116400Y371000D01*
Y371800D02*
X115200Y374200D01*
X117600D01*
X116400Y371800D01*
X110500Y380000D02*
X108500Y384000D01*
X112500D01*
X110500Y380000D01*
Y380800D02*
X109300Y383200D01*
X111700D01*
X110500Y380800D01*
X194200Y152100D02*
X192200Y156100D01*
X196200D01*
X194200Y152100D01*
Y152900D02*
X193000Y155300D01*
X195400D01*
X194200Y152900D01*
X197600Y463600D02*
X195600Y467600D01*
X199600D01*
X197600Y463600D01*
Y464400D02*
X196400Y466800D01*
X198800D01*
X197600Y464400D01*
X178825Y439020D02*
X176825Y443020D01*
X180825D01*
X178825Y439020D01*
Y439820D02*
X177625Y442220D01*
X180025D01*
X178825Y439820D01*
X235900Y451300D02*
X233900Y455300D01*
X237900D01*
X235900Y451300D01*
Y452100D02*
X234700Y454500D01*
X237100D01*
X235900Y452100D01*
X231622Y439231D02*
X232622Y440231D01*
X233622D01*
X232622Y441231D01*
X233622Y442231D01*
X232622D01*
X231622Y443231D01*
X230622Y442231D01*
X229622D01*
X230622Y441231D01*
X229622Y440231D01*
X230622D01*
X231622Y439231D01*
Y440031D02*
X232222Y440631D01*
X232822D01*
X232222Y441231D01*
X232822Y441831D01*
X232222D01*
X231622Y442431D01*
X231022Y441831D01*
X230422D01*
X231022Y441231D01*
X230422Y440631D01*
X231022D01*
X231622Y440031D01*
X218112Y452256D02*
X219112Y453256D01*
X220112D01*
X219112Y454256D01*
X220112Y455256D01*
X219112D01*
X218112Y456256D01*
X217112Y455256D01*
X216112D01*
X217112Y454256D01*
X216112Y453256D01*
X217112D01*
X218112Y452256D01*
Y453056D02*
X218712Y453656D01*
X219312D01*
X218712Y454256D01*
X219312Y454856D01*
X218712D01*
X218112Y455456D01*
X217512Y454856D01*
X216912D01*
X217512Y454256D01*
X216912Y453656D01*
X217512D01*
X218112Y453056D01*
X214800Y450100D02*
X212800Y454100D01*
X216800D01*
X214800Y450100D01*
Y450900D02*
X213600Y453300D01*
X216000D01*
X214800Y450900D01*
X163796Y424496D02*
X161796Y428496D01*
X165796D01*
X163796Y424496D01*
Y425296D02*
X162596Y427696D01*
X164996D01*
X163796Y425296D01*
X196000Y449400D02*
X194000Y453400D01*
X198000D01*
X196000Y449400D01*
Y450200D02*
X194800Y452600D01*
X197200D01*
X196000Y450200D01*
X192388Y451956D02*
X193388Y452956D01*
X194388D01*
X193388Y453956D01*
X194388Y454956D01*
X193388D01*
X192388Y455956D01*
X191388Y454956D01*
X190388D01*
X191388Y453956D01*
X190388Y452956D01*
X191388D01*
X192388Y451956D01*
Y452756D02*
X192988Y453356D01*
X193588D01*
X192988Y453956D01*
X193588Y454556D01*
X192988D01*
X192388Y455156D01*
X191788Y454556D01*
X191188D01*
X191788Y453956D01*
X191188Y453356D01*
X191788D01*
X192388Y452756D01*
X167326Y385457D02*
X168326Y386457D01*
X169326D01*
X168326Y387457D01*
X169326Y388457D01*
X168326D01*
X167326Y389457D01*
X166326Y388457D01*
X165326D01*
X166326Y387457D01*
X165326Y386457D01*
X166326D01*
X167326Y385457D01*
Y386257D02*
X167926Y386857D01*
X168526D01*
X167926Y387457D01*
X168526Y388057D01*
X167926D01*
X167326Y388657D01*
X166726Y388057D01*
X166126D01*
X166726Y387457D01*
X166126Y386857D01*
X166726D01*
X167326Y386257D01*
X197100Y148000D02*
X195100Y152000D01*
X199100D01*
X197100Y148000D01*
Y148800D02*
X195900Y151200D01*
X198300D01*
X197100Y148800D01*
X188143Y373900D02*
X186143Y377900D01*
X190143D01*
X188143Y373900D01*
Y374700D02*
X186943Y377100D01*
X189343D01*
X188143Y374700D01*
X189343Y370200D02*
X187343Y374200D01*
X191343D01*
X189343Y370200D01*
Y371000D02*
X188143Y373400D01*
X190543D01*
X189343Y371000D01*
X223696Y370200D02*
X221696Y374200D01*
X225696D01*
X223696Y370200D01*
Y371000D02*
X222496Y373400D01*
X224896D01*
X223696Y371000D01*
X224896Y373900D02*
X222896Y377900D01*
X226896D01*
X224896Y373900D01*
Y374700D02*
X223696Y377100D01*
X226096D01*
X224896Y374700D01*
X224100Y324750D02*
X222100Y328750D01*
X226100D01*
X224100Y324750D01*
Y325550D02*
X222900Y327950D01*
X225300D01*
X224100Y325550D01*
X227600Y324750D02*
X225600Y328750D01*
X229600D01*
X227600Y324750D01*
Y325550D02*
X226400Y327950D01*
X228800D01*
X227600Y325550D01*
X220754Y324750D02*
X218754Y328750D01*
X222754D01*
X220754Y324750D01*
Y325550D02*
X219554Y327950D01*
X221954D01*
X220754Y325550D01*
X215200Y324750D02*
X213200Y328750D01*
X217200D01*
X215200Y324750D01*
Y325550D02*
X214000Y327950D01*
X216400D01*
X215200Y325550D01*
X208350Y324750D02*
X206350Y328750D01*
X210350D01*
X208350Y324750D01*
Y325550D02*
X207150Y327950D01*
X209550D01*
X208350Y325550D01*
X211850Y324750D02*
X209850Y328750D01*
X213850D01*
X211850Y324750D01*
Y325550D02*
X210650Y327950D01*
X213050D01*
X211850Y325550D01*
X209885Y370200D02*
X207885Y374200D01*
X211885D01*
X209885Y370200D01*
Y371000D02*
X208685Y373400D01*
X211085D01*
X209885Y371000D01*
X211085Y373900D02*
X209085Y377900D01*
X213085D01*
X211085Y373900D01*
Y374700D02*
X209885Y377100D01*
X212285D01*
X211085Y374700D01*
X188798Y322727D02*
X186798Y326727D01*
X190798D01*
X188798Y322727D01*
Y323527D02*
X187598Y325927D01*
X189998D01*
X188798Y323527D01*
X157019Y50157D02*
X158019Y51157D01*
X159019D01*
X158019Y52157D01*
X159019Y53157D01*
X158019D01*
X157019Y54157D01*
X156019Y53157D01*
X155019D01*
X156019Y52157D01*
X155019Y51157D01*
X156019D01*
X157019Y50157D01*
Y50957D02*
X157619Y51557D01*
X158219D01*
X157619Y52157D01*
X158219Y52757D01*
X157619D01*
X157019Y53357D01*
X156419Y52757D01*
X155819D01*
X156419Y52157D01*
X155819Y51557D01*
X156419D01*
X157019Y50957D01*
Y46256D02*
X158019Y47256D01*
X159019D01*
X158019Y48256D01*
X159019Y49256D01*
X158019D01*
X157019Y50256D01*
X156019Y49256D01*
X155019D01*
X156019Y48256D01*
X155019Y47256D01*
X156019D01*
X157019Y46256D01*
Y47056D02*
X157619Y47656D01*
X158219D01*
X157619Y48256D01*
X158219Y48856D01*
X157619D01*
X157019Y49456D01*
X156419Y48856D01*
X155819D01*
X156419Y48256D01*
X155819Y47656D01*
X156419D01*
X157019Y47056D01*
X178416Y118000D02*
X176416Y122000D01*
X180416D01*
X178416Y118000D01*
Y118800D02*
X177216Y121200D01*
X179616D01*
X178416Y118800D01*
X213000Y117300D02*
X211000Y121300D01*
X215000D01*
X213000Y117300D01*
Y118100D02*
X211800Y120500D01*
X214200D01*
X213000Y118100D01*
X160358Y83176D02*
X158358Y87176D01*
X162358D01*
X160358Y83176D01*
Y83976D02*
X159158Y86376D01*
X161558D01*
X160358Y83976D01*
X184800Y83176D02*
X182800Y87176D01*
X186800D01*
X184800Y83176D01*
Y83976D02*
X183600Y86376D01*
X186000D01*
X184800Y83976D01*
X192200Y89200D02*
X190200Y93200D01*
X194200D01*
X192200Y89200D01*
Y90000D02*
X191000Y92400D01*
X193400D01*
X192200Y90000D01*
X219000Y437462D02*
X220000Y438462D01*
X221000D01*
X220000Y439462D01*
X221000Y440462D01*
X220000D01*
X219000Y441462D01*
X218000Y440462D01*
X217000D01*
X218000Y439462D01*
X217000Y438462D01*
X218000D01*
X219000Y437462D01*
Y438262D02*
X219600Y438862D01*
X220200D01*
X219600Y439462D01*
X220200Y440062D01*
X219600D01*
X219000Y440662D01*
X218400Y440062D01*
X217800D01*
X218400Y439462D01*
X217800Y438862D01*
X218400D01*
X219000Y438262D01*
X236100Y431000D02*
X237100Y432000D01*
X238100D01*
X237100Y433000D01*
X238100Y434000D01*
X237100D01*
X236100Y435000D01*
X235100Y434000D01*
X234100D01*
X235100Y433000D01*
X234100Y432000D01*
X235100D01*
X236100Y431000D01*
Y431800D02*
X236700Y432400D01*
X237300D01*
X236700Y433000D01*
X237300Y433600D01*
X236700D01*
X236100Y434200D01*
X235500Y433600D01*
X234900D01*
X235500Y433000D01*
X234900Y432400D01*
X235500D01*
X236100Y431800D01*
X240000Y435200D02*
X241000Y436200D01*
X242000D01*
X241000Y437200D01*
X242000Y438200D01*
X241000D01*
X240000Y439200D01*
X239000Y438200D01*
X238000D01*
X239000Y437200D01*
X238000Y436200D01*
X239000D01*
X240000Y435200D01*
Y436000D02*
X240600Y436600D01*
X241200D01*
X240600Y437200D01*
X241200Y437800D01*
X240600D01*
X240000Y438400D01*
X239400Y437800D01*
X238800D01*
X239400Y437200D01*
X238800Y436600D01*
X239400D01*
X240000Y436000D01*
X195974Y92974D02*
X196974Y93974D01*
X197974D01*
X196974Y94974D01*
X197974Y95974D01*
X196974D01*
X195974Y96974D01*
X194974Y95974D01*
X193974D01*
X194974Y94974D01*
X193974Y93974D01*
X194974D01*
X195974Y92974D01*
Y93774D02*
X196574Y94374D01*
X197174D01*
X196574Y94974D01*
X197174Y95574D01*
X196574D01*
X195974Y96174D01*
X195374Y95574D01*
X194774D01*
X195374Y94974D01*
X194774Y94374D01*
X195374D01*
X195974Y93774D01*
X206524Y76256D02*
X204524Y80256D01*
X208524D01*
X206524Y76256D01*
Y77056D02*
X205324Y79456D01*
X207724D01*
X206524Y77056D01*
X207524Y83076D02*
X205524Y87076D01*
X209524D01*
X207524Y83076D01*
Y83876D02*
X206324Y86276D01*
X208724D01*
X207524Y83876D01*
X206200Y79800D02*
X204200Y83800D01*
X208200D01*
X206200Y79800D01*
Y80600D02*
X205000Y83000D01*
X207400D01*
X206200Y80600D01*
X232852Y78600D02*
X233852Y79600D01*
X234852D01*
X233852Y80600D01*
X234852Y81600D01*
X233852D01*
X232852Y82600D01*
X231852Y81600D01*
X230852D01*
X231852Y80600D01*
X230852Y79600D01*
X231852D01*
X232852Y78600D01*
Y79400D02*
X233452Y80000D01*
X234052D01*
X233452Y80600D01*
X234052Y81200D01*
X233452D01*
X232852Y81800D01*
X232252Y81200D01*
X231652D01*
X232252Y80600D01*
X231652Y80000D01*
X232252D01*
X232852Y79400D01*
X185448Y46084D02*
X186448Y47084D01*
X187448D01*
X186448Y48084D01*
X187448Y49084D01*
X186448D01*
X185448Y50084D01*
X184448Y49084D01*
X183448D01*
X184448Y48084D01*
X183448Y47084D01*
X184448D01*
X185448Y46084D01*
Y46884D02*
X186048Y47484D01*
X186648D01*
X186048Y48084D01*
X186648Y48684D01*
X186048D01*
X185448Y49284D01*
X184848Y48684D01*
X184248D01*
X184848Y48084D01*
X184248Y47484D01*
X184848D01*
X185448Y46884D01*
X214379Y46784D02*
X215379Y47784D01*
X216379D01*
X215379Y48784D01*
X216379Y49784D01*
X215379D01*
X214379Y50784D01*
X213379Y49784D01*
X212379D01*
X213379Y48784D01*
X212379Y47784D01*
X213379D01*
X214379Y46784D01*
Y47584D02*
X214979Y48184D01*
X215579D01*
X214979Y48784D01*
X215579Y49384D01*
X214979D01*
X214379Y49984D01*
X213779Y49384D01*
X213179D01*
X213779Y48784D01*
X213179Y48184D01*
X213779D01*
X214379Y47584D01*
Y50385D02*
X215379Y51385D01*
X216379D01*
X215379Y52385D01*
X216379Y53385D01*
X215379D01*
X214379Y54385D01*
X213379Y53385D01*
X212379D01*
X213379Y52385D01*
X212379Y51385D01*
X213379D01*
X214379Y50385D01*
Y51185D02*
X214979Y51785D01*
X215579D01*
X214979Y52385D01*
X215579Y52985D01*
X214979D01*
X214379Y53585D01*
X213779Y52985D01*
X213179D01*
X213779Y52385D01*
X213179Y51785D01*
X213779D01*
X214379Y51185D01*
X242707Y46184D02*
X243707Y47184D01*
X244707D01*
X243707Y48184D01*
X244707Y49184D01*
X243707D01*
X242707Y50184D01*
X241707Y49184D01*
X240707D01*
X241707Y48184D01*
X240707Y47184D01*
X241707D01*
X242707Y46184D01*
Y46984D02*
X243307Y47584D01*
X243907D01*
X243307Y48184D01*
X243907Y48784D01*
X243307D01*
X242707Y49384D01*
X242107Y48784D01*
X241507D01*
X242107Y48184D01*
X241507Y47584D01*
X242107D01*
X242707Y46984D01*
X127734Y388166D02*
X128734Y389166D01*
X129734D01*
X128734Y390166D01*
X129734Y391166D01*
X128734D01*
X127734Y392166D01*
X126734Y391166D01*
X125734D01*
X126734Y390166D01*
X125734Y389166D01*
X126734D01*
X127734Y388166D01*
Y388966D02*
X128334Y389566D01*
X128934D01*
X128334Y390166D01*
X128934Y390766D01*
X128334D01*
X127734Y391366D01*
X127134Y390766D01*
X126534D01*
X127134Y390166D01*
X126534Y389566D01*
X127134D01*
X127734Y388966D01*
Y381834D02*
X128734Y382834D01*
X129734D01*
X128734Y383834D01*
X129734Y384834D01*
X128734D01*
X127734Y385834D01*
X126734Y384834D01*
X125734D01*
X126734Y383834D01*
X125734Y382834D01*
X126734D01*
X127734Y381834D01*
Y382634D02*
X128334Y383234D01*
X128934D01*
X128334Y383834D01*
X128934Y384434D01*
X128334D01*
X127734Y385034D01*
X127134Y384434D01*
X126534D01*
X127134Y383834D01*
X126534Y383234D01*
X127134D01*
X127734Y382634D01*
Y375603D02*
X128734Y376603D01*
X129734D01*
X128734Y377603D01*
X129734Y378603D01*
X128734D01*
X127734Y379603D01*
X126734Y378603D01*
X125734D01*
X126734Y377603D01*
X125734Y376603D01*
X126734D01*
X127734Y375603D01*
Y376403D02*
X128334Y377003D01*
X128934D01*
X128334Y377603D01*
X128934Y378203D01*
X128334D01*
X127734Y378803D01*
X127134Y378203D01*
X126534D01*
X127134Y377603D01*
X126534Y377003D01*
X127134D01*
X127734Y376403D01*
X127949Y394297D02*
X128949Y395297D01*
X129949D01*
X128949Y396297D01*
X129949Y397297D01*
X128949D01*
X127949Y398297D01*
X126949Y397297D01*
X125949D01*
X126949Y396297D01*
X125949Y395297D01*
X126949D01*
X127949Y394297D01*
Y395097D02*
X128549Y395697D01*
X129149D01*
X128549Y396297D01*
X129149Y396897D01*
X128549D01*
X127949Y397497D01*
X127349Y396897D01*
X126749D01*
X127349Y396297D01*
X126749Y395697D01*
X127349D01*
X127949Y395097D01*
X145000Y385200D02*
X143000Y389200D01*
X147000D01*
X145000Y385200D01*
Y386000D02*
X143800Y388400D01*
X146200D01*
X145000Y386000D01*
X168300Y107300D02*
X166300Y111300D01*
X170300D01*
X168300Y107300D01*
Y108100D02*
X167100Y110500D01*
X169500D01*
X168300Y108100D01*
X221800Y106000D02*
X219800Y110000D01*
X223800D01*
X221800Y106000D01*
Y106800D02*
X220600Y109200D01*
X223000D01*
X221800Y106800D01*
X181300Y415500D02*
X179300Y419500D01*
X183300D01*
X181300Y415500D01*
Y416300D02*
X180100Y418700D01*
X182500D01*
X181300Y416300D01*
Y408500D02*
X179300Y412500D01*
X183300D01*
X181300Y408500D01*
Y409300D02*
X180100Y411700D01*
X182500D01*
X181300Y409300D01*
X193300Y415000D02*
X191300Y419000D01*
X195300D01*
X193300Y415000D01*
Y415800D02*
X192100Y418200D01*
X194500D01*
X193300Y415800D01*
X197988Y416000D02*
X195988Y420000D01*
X199988D01*
X197988Y416000D01*
Y416800D02*
X196788Y419200D01*
X199188D01*
X197988Y416800D01*
X203894Y416000D02*
X201894Y420000D01*
X205894D01*
X203894Y416000D01*
Y416800D02*
X202694Y419200D01*
X205094D01*
X203894Y416800D01*
X189673Y401510D02*
X187673Y405510D01*
X191673D01*
X189673Y401510D01*
Y402310D02*
X188473Y404710D01*
X190873D01*
X189673Y402310D01*
X189173Y406000D02*
X187173Y410000D01*
X191173D01*
X189173Y406000D01*
Y406800D02*
X187973Y409200D01*
X190373D01*
X189173Y406800D01*
X221300Y406000D02*
X219300Y410000D01*
X223300D01*
X221300Y406000D01*
Y406800D02*
X220100Y409200D01*
X222500D01*
X221300Y406800D01*
X220800Y401510D02*
X218800Y405510D01*
X222800D01*
X220800Y401510D01*
Y402310D02*
X219600Y404710D01*
X222000D01*
X220800Y402310D01*
X212900Y407800D02*
X210900Y411800D01*
X214900D01*
X212900Y407800D01*
Y408600D02*
X211700Y411000D01*
X214100D01*
X212900Y408600D01*
X197700Y407800D02*
X195700Y411800D01*
X199700D01*
X197700Y407800D01*
Y408600D02*
X196500Y411000D01*
X198900D01*
X197700Y408600D01*
X203100Y407800D02*
X201100Y411800D01*
X205100D01*
X203100Y407800D01*
Y408600D02*
X201900Y411000D01*
X204300D01*
X203100Y408600D01*
X208000Y407800D02*
X206000Y411800D01*
X210000D01*
X208000Y407800D01*
Y408600D02*
X206800Y411000D01*
X209200D01*
X208000Y408600D01*
X209799Y416000D02*
X207799Y420000D01*
X211799D01*
X209799Y416000D01*
Y416800D02*
X208599Y419200D01*
X210999D01*
X209799Y416800D01*
X215705Y415000D02*
X213705Y419000D01*
X217705D01*
X215705Y415000D01*
Y415800D02*
X214505Y418200D01*
X216905D01*
X215705Y415800D01*
X189800Y424000D02*
X187800Y428000D01*
X191800D01*
X189800Y424000D01*
Y424800D02*
X188600Y427200D01*
X191000D01*
X189800Y424800D01*
X221173Y424000D02*
X219173Y428000D01*
X223173D01*
X221173Y424000D01*
Y424800D02*
X219973Y427200D01*
X222373D01*
X221173Y424800D01*
X199300Y442500D02*
X197300Y446500D01*
X201300D01*
X199300Y442500D01*
Y443300D02*
X198100Y445700D01*
X200500D01*
X199300Y443300D01*
X210800Y442500D02*
X208800Y446500D01*
X212800D01*
X210800Y442500D01*
Y443300D02*
X209600Y445700D01*
X212000D01*
X210800Y443300D01*
X227900Y426000D02*
X225900Y430000D01*
X229900D01*
X227900Y426000D01*
Y426800D02*
X226700Y429200D01*
X229100D01*
X227900Y426800D01*
X182200Y426008D02*
X180200Y430008D01*
X184200D01*
X182200Y426008D01*
Y426808D02*
X181000Y429208D01*
X183400D01*
X182200Y426808D01*
X181300Y405000D02*
X179300Y409000D01*
X183300D01*
X181300Y405000D01*
Y405800D02*
X180100Y408200D01*
X182500D01*
X181300Y405800D01*
Y419058D02*
X179300Y423058D01*
X183300D01*
X181300Y419058D01*
Y419858D02*
X180100Y422258D01*
X182500D01*
X181300Y419858D01*
X207482Y383754D02*
X205482Y387754D01*
X209482D01*
X207482Y383754D01*
Y384554D02*
X206282Y386954D01*
X208682D01*
X207482Y384554D01*
X240004Y419596D02*
X238004Y423596D01*
X242004D01*
X240004Y419596D01*
Y420396D02*
X238804Y422796D01*
X241204D01*
X240004Y420396D01*
X203600Y383800D02*
X201600Y387800D01*
X205600D01*
X203600Y383800D01*
Y384600D02*
X202400Y387000D01*
X204800D01*
X203600Y384600D01*
X169700Y416700D02*
X167700Y420700D01*
X171700D01*
X169700Y416700D01*
Y417500D02*
X168500Y419900D01*
X170900D01*
X169700Y417500D01*
X171349Y400810D02*
X169349Y404810D01*
X173349D01*
X171349Y400810D01*
Y401610D02*
X170149Y404010D01*
X172549D01*
X171349Y401610D01*
X194900Y165200D02*
X192900Y169200D01*
X196900D01*
X194900Y165200D01*
Y166000D02*
X193700Y168400D01*
X196100D01*
X194900Y166000D01*
X159600Y79800D02*
X157600Y83800D01*
X161600D01*
X159600Y79800D01*
Y80600D02*
X158400Y83000D01*
X160800D01*
X159600Y80600D01*
X88200Y261110D02*
X89200Y262110D01*
X90200D01*
X89200Y263110D01*
X90200Y264110D01*
X89200D01*
X88200Y265110D01*
X87200Y264110D01*
X86200D01*
X87200Y263110D01*
X86200Y262110D01*
X87200D01*
X88200Y261110D01*
Y261910D02*
X88800Y262510D01*
X89400D01*
X88800Y263110D01*
X89400Y263710D01*
X88800D01*
X88200Y264310D01*
X87600Y263710D01*
X87000D01*
X87600Y263110D01*
X87000Y262510D01*
X87600D01*
X88200Y261910D01*
X38200Y261110D02*
X39200Y262110D01*
X40200D01*
X39200Y263110D01*
X40200Y264110D01*
X39200D01*
X38200Y265110D01*
X37200Y264110D01*
X36200D01*
X37200Y263110D01*
X36200Y262110D01*
X37200D01*
X38200Y261110D01*
Y261910D02*
X38800Y262510D01*
X39400D01*
X38800Y263110D01*
X39400Y263710D01*
X38800D01*
X38200Y264310D01*
X37600Y263710D01*
X37000D01*
X37600Y263110D01*
X37000Y262510D01*
X37600D01*
X38200Y261910D01*
X127400Y92300D02*
X128400Y93300D01*
X129400D01*
X128400Y94300D01*
X129400Y95300D01*
X128400D01*
X127400Y96300D01*
X126400Y95300D01*
X125400D01*
X126400Y94300D01*
X125400Y93300D01*
X126400D01*
X127400Y92300D01*
Y93100D02*
X128000Y93700D01*
X128600D01*
X128000Y94300D01*
X128600Y94900D01*
X128000D01*
X127400Y95500D01*
X126800Y94900D01*
X126200D01*
X126800Y94300D01*
X126200Y93700D01*
X126800D01*
X127400Y93100D01*
X70500Y43300D02*
X71500Y44300D01*
X72500D01*
X71500Y45300D01*
X72500Y46300D01*
X71500D01*
X70500Y47300D01*
X69500Y46300D01*
X68500D01*
X69500Y45300D01*
X68500Y44300D01*
X69500D01*
X70500Y43300D01*
Y44100D02*
X71100Y44700D01*
X71700D01*
X71100Y45300D01*
X71700Y45900D01*
X71100D01*
X70500Y46500D01*
X69900Y45900D01*
X69300D01*
X69900Y45300D01*
X69300Y44700D01*
X69900D01*
X70500Y44100D01*
X127600Y43400D02*
X128600Y44400D01*
X129600D01*
X128600Y45400D01*
X129600Y46400D01*
X128600D01*
X127600Y47400D01*
X126600Y46400D01*
X125600D01*
X126600Y45400D01*
X125600Y44400D01*
X126600D01*
X127600Y43400D01*
Y44200D02*
X128200Y44800D01*
X128800D01*
X128200Y45400D01*
X128800Y46000D01*
X128200D01*
X127600Y46600D01*
X127000Y46000D01*
X126400D01*
X127000Y45400D01*
X126400Y44800D01*
X127000D01*
X127600Y44200D01*
X201900Y209600D02*
X202900Y210600D01*
X203900D01*
X202900Y211600D01*
X203900Y212600D01*
X202900D01*
X201900Y213600D01*
X200900Y212600D01*
X199900D01*
X200900Y211600D01*
X199900Y210600D01*
X200900D01*
X201900Y209600D01*
Y210400D02*
X202500Y211000D01*
X203100D01*
X202500Y211600D01*
X203100Y212200D01*
X202500D01*
X201900Y212800D01*
X201300Y212200D01*
X200700D01*
X201300Y211600D01*
X200700Y211000D01*
X201300D01*
X201900Y210400D01*
X195000Y304720D02*
X196000Y305720D01*
X197000D01*
X196000Y306720D01*
X197000Y307720D01*
X196000D01*
X195000Y308720D01*
X194000Y307720D01*
X193000D01*
X194000Y306720D01*
X193000Y305720D01*
X194000D01*
X195000Y304720D01*
Y305520D02*
X195600Y306120D01*
X196200D01*
X195600Y306720D01*
X196200Y307320D01*
X195600D01*
X195000Y307920D01*
X194400Y307320D01*
X193800D01*
X194400Y306720D01*
X193800Y306120D01*
X194400D01*
X195000Y305520D01*
X256500Y317120D02*
X257500Y318120D01*
X258500D01*
X257500Y319120D01*
X258500Y320120D01*
X257500D01*
X256500Y321120D01*
X255500Y320120D01*
X254500D01*
X255500Y319120D01*
X254500Y318120D01*
X255500D01*
X256500Y317120D01*
Y317920D02*
X257100Y318520D01*
X257700D01*
X257100Y319120D01*
X257700Y319720D01*
X257100D01*
X256500Y320320D01*
X255900Y319720D01*
X255300D01*
X255900Y319120D01*
X255300Y318520D01*
X255900D01*
X256500Y317920D01*
X41100Y158500D02*
X42100Y159500D01*
X43100D01*
X42100Y160500D01*
X43100Y161500D01*
X42100D01*
X41100Y162500D01*
X40100Y161500D01*
X39100D01*
X40100Y160500D01*
X39100Y159500D01*
X40100D01*
X41100Y158500D01*
Y159300D02*
X41700Y159900D01*
X42300D01*
X41700Y160500D01*
X42300Y161100D01*
X41700D01*
X41100Y161700D01*
X40500Y161100D01*
X39900D01*
X40500Y160500D01*
X39900Y159900D01*
X40500D01*
X41100Y159300D01*
X121200Y239520D02*
X122200Y240520D01*
X123200D01*
X122200Y241520D01*
X123200Y242520D01*
X122200D01*
X121200Y243520D01*
X120200Y242520D01*
X119200D01*
X120200Y241520D01*
X119200Y240520D01*
X120200D01*
X121200Y239520D01*
Y240320D02*
X121800Y240920D01*
X122400D01*
X121800Y241520D01*
X122400Y242120D01*
X121800D01*
X121200Y242720D01*
X120600Y242120D01*
X120000D01*
X120600Y241520D01*
X120000Y240920D01*
X120600D01*
X121200Y240320D01*
X9700Y260510D02*
X10700Y261510D01*
X11700D01*
X10700Y262510D01*
X11700Y263510D01*
X10700D01*
X9700Y264510D01*
X8700Y263510D01*
X7700D01*
X8700Y262510D01*
X7700Y261510D01*
X8700D01*
X9700Y260510D01*
Y261310D02*
X10300Y261910D01*
X10900D01*
X10300Y262510D01*
X10900Y263110D01*
X10300D01*
X9700Y263710D01*
X9100Y263110D01*
X8500D01*
X9100Y262510D01*
X8500Y261910D01*
X9100D01*
X9700Y261310D01*
X59700Y260510D02*
X60700Y261510D01*
X61700D01*
X60700Y262510D01*
X61700Y263510D01*
X60700D01*
X59700Y264510D01*
X58700Y263510D01*
X57700D01*
X58700Y262510D01*
X57700Y261510D01*
X58700D01*
X59700Y260510D01*
Y261310D02*
X60300Y261910D01*
X60900D01*
X60300Y262510D01*
X60900Y263110D01*
X60300D01*
X59700Y263710D01*
X59100Y263110D01*
X58500D01*
X59100Y262510D01*
X58500Y261910D01*
X59100D01*
X59700Y261310D01*
X133100Y295000D02*
X134100Y296000D01*
X135100D01*
X134100Y297000D01*
X135100Y298000D01*
X134100D01*
X133100Y299000D01*
X132100Y298000D01*
X131100D01*
X132100Y297000D01*
X131100Y296000D01*
X132100D01*
X133100Y295000D01*
Y295800D02*
X133700Y296400D01*
X134300D01*
X133700Y297000D01*
X134300Y297600D01*
X133700D01*
X133100Y298200D01*
X132500Y297600D01*
X131900D01*
X132500Y297000D01*
X131900Y296400D01*
X132500D01*
X133100Y295800D01*
X108000Y269100D02*
X109000Y270100D01*
X110000D01*
X109000Y271100D01*
X110000Y272100D01*
X109000D01*
X108000Y273100D01*
X107000Y272100D01*
X106000D01*
X107000Y271100D01*
X106000Y270100D01*
X107000D01*
X108000Y269100D01*
Y269900D02*
X108600Y270500D01*
X109200D01*
X108600Y271100D01*
X109200Y271700D01*
X108600D01*
X108000Y272300D01*
X107400Y271700D01*
X106800D01*
X107400Y271100D01*
X106800Y270500D01*
X107400D01*
X108000Y269900D01*
X91000Y288100D02*
X92000Y289100D01*
X93000D01*
X92000Y290100D01*
X93000Y291100D01*
X92000D01*
X91000Y292100D01*
X90000Y291100D01*
X89000D01*
X90000Y290100D01*
X89000Y289100D01*
X90000D01*
X91000Y288100D01*
Y288900D02*
X91600Y289500D01*
X92200D01*
X91600Y290100D01*
X92200Y290700D01*
X91600D01*
X91000Y291300D01*
X90400Y290700D01*
X89800D01*
X90400Y290100D01*
X89800Y289500D01*
X90400D01*
X91000Y288900D01*
X203800Y295320D02*
X204800Y296320D01*
X205800D01*
X204800Y297320D01*
X205800Y298320D01*
X204800D01*
X203800Y299320D01*
X202800Y298320D01*
X201800D01*
X202800Y297320D01*
X201800Y296320D01*
X202800D01*
X203800Y295320D01*
Y296120D02*
X204400Y296720D01*
X205000D01*
X204400Y297320D01*
X205000Y297920D01*
X204400D01*
X203800Y298520D01*
X203200Y297920D01*
X202600D01*
X203200Y297320D01*
X202600Y296720D01*
X203200D01*
X203800Y296120D01*
X11000Y302900D02*
X12000Y303900D01*
X13000D01*
X12000Y304900D01*
X13000Y305900D01*
X12000D01*
X11000Y306900D01*
X10000Y305900D01*
X9000D01*
X10000Y304900D01*
X9000Y303900D01*
X10000D01*
X11000Y302900D01*
Y303700D02*
X11600Y304300D01*
X12200D01*
X11600Y304900D01*
X12200Y305500D01*
X11600D01*
X11000Y306100D01*
X10400Y305500D01*
X9800D01*
X10400Y304900D01*
X9800Y304300D01*
X10400D01*
X11000Y303700D01*
X89500Y83400D02*
X90500Y84400D01*
X91500D01*
X90500Y85400D01*
X91500Y86400D01*
X90500D01*
X89500Y87400D01*
X88500Y86400D01*
X87500D01*
X88500Y85400D01*
X87500Y84400D01*
X88500D01*
X89500Y83400D01*
Y84200D02*
X90100Y84800D01*
X90700D01*
X90100Y85400D01*
X90700Y86000D01*
X90100D01*
X89500Y86600D01*
X88900Y86000D01*
X88300D01*
X88900Y85400D01*
X88300Y84800D01*
X88900D01*
X89500Y84200D01*
X27400Y38000D02*
X28400Y39000D01*
X29400D01*
X28400Y40000D01*
X29400Y41000D01*
X28400D01*
X27400Y42000D01*
X26400Y41000D01*
X25400D01*
X26400Y40000D01*
X25400Y39000D01*
X26400D01*
X27400Y38000D01*
Y38800D02*
X28000Y39400D01*
X28600D01*
X28000Y40000D01*
X28600Y40600D01*
X28000D01*
X27400Y41200D01*
X26800Y40600D01*
X26200D01*
X26800Y40000D01*
X26200Y39400D01*
X26800D01*
X27400Y38800D01*
X82400Y43500D02*
X83400Y44500D01*
X84400D01*
X83400Y45500D01*
X84400Y46500D01*
X83400D01*
X82400Y47500D01*
X81400Y46500D01*
X80400D01*
X81400Y45500D01*
X80400Y44500D01*
X81400D01*
X82400Y43500D01*
Y44300D02*
X83000Y44900D01*
X83600D01*
X83000Y45500D01*
X83600Y46100D01*
X83000D01*
X82400Y46700D01*
X81800Y46100D01*
X81200D01*
X81800Y45500D01*
X81200Y44900D01*
X81800D01*
X82400Y44300D01*
X164502Y38695D02*
X162502Y42695D01*
X166502D01*
X164502Y38695D01*
Y39495D02*
X163302Y41895D01*
X165702D01*
X164502Y39495D01*
X229673Y38695D02*
X227673Y42695D01*
X231673D01*
X229673Y38695D01*
Y39495D02*
X228473Y41895D01*
X230873D01*
X229673Y39495D01*
X229400Y387100D02*
X227400Y391100D01*
X231400D01*
X229400Y387100D01*
Y387900D02*
X228200Y390300D01*
X230600D01*
X229400Y387900D01*
X233000Y387100D02*
X231000Y391100D01*
X235000D01*
X233000Y387100D01*
Y387900D02*
X231800Y390300D01*
X234200D01*
X233000Y387900D01*
X236400Y324750D02*
X234400Y328750D01*
X238400D01*
X236400Y324750D01*
Y325550D02*
X235200Y327950D01*
X237600D01*
X236400Y325550D01*
X239900Y324750D02*
X237900Y328750D01*
X241900D01*
X239900Y324750D01*
Y325550D02*
X238700Y327950D01*
X241100D01*
X239900Y325550D01*
X243300Y324589D02*
X241300Y328589D01*
X245300D01*
X243300Y324589D01*
Y325389D02*
X242100Y327789D01*
X244500D01*
X243300Y325389D01*
X229200Y395738D02*
X227200Y399738D01*
X231200D01*
X229200Y395738D01*
Y396538D02*
X228000Y398938D01*
X230400D01*
X229200Y396538D01*
X232700Y397538D02*
X230700Y401538D01*
X234700D01*
X232700Y397538D01*
Y398338D02*
X231500Y400738D01*
X233900D01*
X232700Y398338D01*
X246800Y324589D02*
X244800Y328589D01*
X248800D01*
X246800Y324589D01*
Y325389D02*
X245600Y327789D01*
X248000D01*
X246800Y325389D01*
X150000Y100000D02*
X148000Y104000D01*
X152000D01*
X150000Y100000D01*
Y100800D02*
X148800Y103200D01*
X151200D01*
X150000Y100800D01*
X191273Y325202D02*
X189273Y329202D01*
X193273D01*
X191273Y325202D01*
Y326002D02*
X190073Y328402D01*
X192473D01*
X191273Y326002D01*
X202011Y370200D02*
X200011Y374200D01*
X204011D01*
X202011Y370200D01*
Y371000D02*
X200811Y373400D01*
X203211D01*
X202011Y371000D01*
X202377Y321400D02*
X200377Y325400D01*
X204377D01*
X202377Y321400D01*
Y322200D02*
X201177Y324600D01*
X203577D01*
X202377Y322200D01*
X205277Y323100D02*
X203277Y327100D01*
X207277D01*
X205277Y323100D01*
Y323900D02*
X204077Y326300D01*
X206477D01*
X205277Y323900D01*
X203211Y373900D02*
X201211Y377900D01*
X205211D01*
X203211Y373900D01*
Y374700D02*
X202011Y377100D01*
X204411D01*
X203211Y374700D01*
X195337Y373900D02*
X193337Y377900D01*
X197337D01*
X195337Y373900D01*
Y374700D02*
X194137Y377100D01*
X196537D01*
X195337Y374700D01*
X196800Y325200D02*
X194800Y329200D01*
X198800D01*
X196800Y325200D01*
Y326000D02*
X195600Y328400D01*
X198000D01*
X196800Y326000D01*
X194060Y370198D02*
X192060Y374198D01*
X196060D01*
X194060Y370198D01*
Y370998D02*
X192860Y373398D01*
X195260D01*
X194060Y370998D01*
X199352Y322927D02*
X197352Y326927D01*
X201352D01*
X199352Y322927D01*
Y323727D02*
X198152Y326127D01*
X200552D01*
X199352Y323727D01*
X69700Y401800D02*
X67700Y405800D01*
X71700D01*
X69700Y401800D01*
Y402600D02*
X68500Y405000D01*
X70900D01*
X69700Y402600D01*
X174800Y429900D02*
X172800Y433900D01*
X176800D01*
X174800Y429900D01*
Y430700D02*
X173600Y433100D01*
X176000D01*
X174800Y430700D01*
X137200Y466000D02*
X135200Y470000D01*
X139200D01*
X137200Y466000D01*
Y466800D02*
X136000Y469200D01*
X138400D01*
X137200Y466800D01*
X116100Y359000D02*
X114100Y363000D01*
X118100D01*
X116100Y359000D01*
Y359800D02*
X114900Y362200D01*
X117300D01*
X116100Y359800D01*
X154800Y274700D02*
X152800Y278700D01*
X156800D01*
X154800Y274700D01*
Y275500D02*
X153600Y277900D01*
X156000D01*
X154800Y275500D01*
X179320Y289200D02*
X177320Y293200D01*
X181320D01*
X179320Y289200D01*
Y290000D02*
X178120Y292400D01*
X180520D01*
X179320Y290000D01*
X206900Y309400D02*
X204900Y313400D01*
X208900D01*
X206900Y309400D01*
Y310200D02*
X205700Y312600D01*
X208100D01*
X206900Y310200D01*
X251300Y290000D02*
X249300Y294000D01*
X253300D01*
X251300Y290000D01*
Y290800D02*
X250100Y293200D01*
X252500D01*
X251300Y290800D01*
X213800Y274700D02*
X211800Y278700D01*
X215800D01*
X213800Y274700D01*
Y275500D02*
X212600Y277900D01*
X215000D01*
X213800Y275500D01*
X238100Y270180D02*
X236100Y274180D01*
X240100D01*
X238100Y270180D01*
Y270980D02*
X236900Y273380D01*
X239300D01*
X238100Y270980D01*
X170600Y269700D02*
X168600Y273700D01*
X172600D01*
X170600Y269700D01*
Y270500D02*
X169400Y272900D01*
X171800D01*
X170600Y270500D01*
X204400Y248700D02*
X202400Y252700D01*
X206400D01*
X204400Y248700D01*
Y249500D02*
X203200Y251900D01*
X205600D01*
X204400Y249500D01*
X181100Y232500D02*
X179100Y236500D01*
X183100D01*
X181100Y232500D01*
Y233300D02*
X179900Y235700D01*
X182300D01*
X181100Y233300D01*
X212000Y210500D02*
X210000Y214500D01*
X214000D01*
X212000Y210500D01*
Y211300D02*
X210800Y213700D01*
X213200D01*
X212000Y211300D01*
X132800Y218900D02*
X130800Y222900D01*
X134800D01*
X132800Y218900D01*
Y219700D02*
X131600Y222100D01*
X134000D01*
X132800Y219700D01*
X148100Y221100D02*
X146100Y225100D01*
X150100D01*
X148100Y221100D01*
Y221900D02*
X146900Y224300D01*
X149300D01*
X148100Y221900D01*
X170700Y210900D02*
X168700Y214900D01*
X172700D01*
X170700Y210900D01*
Y211700D02*
X169500Y214100D01*
X171900D01*
X170700Y211700D01*
X85100Y231900D02*
X83100Y235900D01*
X87100D01*
X85100Y231900D01*
Y232700D02*
X83900Y235100D01*
X86300D01*
X85100Y232700D01*
X34200Y231700D02*
X32200Y235700D01*
X36200D01*
X34200Y231700D01*
Y232500D02*
X33000Y234900D01*
X35400D01*
X34200Y232500D01*
X39400Y268600D02*
X37400Y272600D01*
X41400D01*
X39400Y268600D01*
Y269400D02*
X38200Y271800D01*
X40600D01*
X39400Y269400D01*
X13800Y274500D02*
X11800Y278500D01*
X15800D01*
X13800Y274500D01*
Y275300D02*
X12600Y277700D01*
X15000D01*
X13800Y275300D01*
X51200Y290000D02*
X49200Y294000D01*
X53200D01*
X51200Y290000D01*
Y290800D02*
X50000Y293200D01*
X52400D01*
X51200Y290800D01*
X5600Y313500D02*
X3600Y317500D01*
X7600D01*
X5600Y313500D01*
Y314300D02*
X4400Y316700D01*
X6800D01*
X5600Y314300D01*
X41100Y167900D02*
X39100Y171900D01*
X43100D01*
X41100Y167900D01*
Y168700D02*
X39900Y171100D01*
X42300D01*
X41100Y168700D01*
X59100Y132100D02*
X57100Y136100D01*
X61100D01*
X59100Y132100D01*
Y132900D02*
X57900Y135300D01*
X60300D01*
X59100Y132900D01*
X128500Y149600D02*
X126500Y153600D01*
X130500D01*
X128500Y149600D01*
Y150400D02*
X127300Y152800D01*
X129700D01*
X128500Y150400D01*
X123100Y108200D02*
X121100Y112200D01*
X125100D01*
X123100Y108200D01*
Y109000D02*
X121900Y111400D01*
X124300D01*
X123100Y109000D01*
X123700Y63100D02*
X121700Y67100D01*
X125700D01*
X123700Y63100D01*
Y63900D02*
X122500Y66300D01*
X124900D01*
X123700Y63900D01*
X114300Y23100D02*
X112300Y27100D01*
X116300D01*
X114300Y23100D01*
Y23900D02*
X113100Y26300D01*
X115500D01*
X114300Y23900D01*
X57900Y23100D02*
X55900Y27100D01*
X59900D01*
X57900Y23100D01*
Y23900D02*
X56700Y26300D01*
X59100D01*
X57900Y23900D01*
X184700Y361800D02*
X182700Y365800D01*
X186700D01*
X184700Y361800D01*
Y362600D02*
X183500Y365000D01*
X185900D01*
X184700Y362600D01*
X217759Y370200D02*
X215759Y374200D01*
X219759D01*
X217759Y370200D01*
Y371000D02*
X216559Y373400D01*
X218959D01*
X217759Y371000D01*
X218959Y373900D02*
X216959Y377900D01*
X220959D01*
X218959Y373900D01*
Y374700D02*
X217759Y377100D01*
X220159D01*
X218959Y374700D01*
X216500Y362000D02*
X214500Y366000D01*
X218500D01*
X216500Y362000D01*
Y362800D02*
X215300Y365200D01*
X217700D01*
X216500Y362800D01*
X135300Y309140D02*
X133300Y313140D01*
X137300D01*
X135300Y309140D01*
Y309940D02*
X134100Y312340D01*
X136500D01*
X135300Y309940D01*
X149850Y325600D02*
X147850Y329600D01*
X151850D01*
X149850Y325600D01*
Y326400D02*
X148650Y328800D01*
X151050D01*
X149850Y326400D01*
X130950Y325600D02*
X128950Y329600D01*
X132950D01*
X130950Y325600D01*
Y326400D02*
X129750Y328800D01*
X132150D01*
X130950Y326400D01*
X254100Y324800D02*
X252100Y328800D01*
X256100D01*
X254100Y324800D01*
Y325600D02*
X252900Y328000D01*
X255300D01*
X254100Y325600D01*
X130950Y203400D02*
X128950Y207400D01*
X132950D01*
X130950Y203400D01*
Y204200D02*
X129750Y206600D01*
X132150D01*
X130950Y204200D01*
X150050Y203400D02*
X148050Y207400D01*
X152050D01*
X150050Y203400D01*
Y204200D02*
X148850Y206600D01*
X151250D01*
X150050Y204200D01*
X149850Y168100D02*
X147850Y172100D01*
X151850D01*
X149850Y168100D01*
Y168900D02*
X148650Y171300D01*
X151050D01*
X149850Y168900D01*
X185900Y168100D02*
X183900Y172100D01*
X187900D01*
X185900Y168100D01*
Y168900D02*
X184700Y171300D01*
X187100D01*
X185900Y168900D01*
X219200Y168500D02*
X217200Y172500D01*
X221200D01*
X219200Y168500D01*
Y169300D02*
X218000Y171700D01*
X220400D01*
X219200Y169300D01*
X253950Y168100D02*
X251950Y172100D01*
X255950D01*
X253950Y168100D01*
Y168900D02*
X252750Y171300D01*
X255150D01*
X253950Y168900D01*
X199748Y89200D02*
X197748Y93200D01*
X201748D01*
X199748Y89200D01*
Y90000D02*
X198548Y92400D01*
X200948D01*
X199748Y90000D01*
X176500Y247300D02*
X177500Y248300D01*
X178500D01*
X177500Y249300D01*
X178500Y250300D01*
X177500D01*
X176500Y251300D01*
X175500Y250300D01*
X174500D01*
X175500Y249300D01*
X174500Y248300D01*
X175500D01*
X176500Y247300D01*
Y248100D02*
X177100Y248700D01*
X177700D01*
X177100Y249300D01*
X177700Y249900D01*
X177100D01*
X176500Y250500D01*
X175900Y249900D01*
X175300D01*
X175900Y249300D01*
X175300Y248700D01*
X175900D01*
X176500Y248100D01*
Y252300D02*
X177500Y253300D01*
X178500D01*
X177500Y254300D01*
X178500Y255300D01*
X177500D01*
X176500Y256300D01*
X175500Y255300D01*
X174500D01*
X175500Y254300D01*
X174500Y253300D01*
X175500D01*
X176500Y252300D01*
Y253100D02*
X177100Y253700D01*
X177700D01*
X177100Y254300D01*
X177700Y254900D01*
X177100D01*
X176500Y255500D01*
X175900Y254900D01*
X175300D01*
X175900Y254300D01*
X175300Y253700D01*
X175900D01*
X176500Y253100D01*
X159600Y76256D02*
X157600Y80256D01*
X161600D01*
X159600Y76256D01*
Y77056D02*
X158400Y79456D01*
X160800D01*
X159600Y77056D01*
X191100Y139500D02*
X192100Y140500D01*
X193100D01*
X192100Y141500D01*
X193100Y142500D01*
X192100D01*
X191100Y143500D01*
X190100Y142500D01*
X189100D01*
X190100Y141500D01*
X189100Y140500D01*
X190100D01*
X191100Y139500D01*
Y140300D02*
X191700Y140900D01*
X192300D01*
X191700Y141500D01*
X192300Y142100D01*
X191700D01*
X191100Y142700D01*
X190500Y142100D01*
X189900D01*
X190500Y141500D01*
X189900Y140900D01*
X190500D01*
X191100Y140300D01*
X196100Y139500D02*
X197100Y140500D01*
X198100D01*
X197100Y141500D01*
X198100Y142500D01*
X197100D01*
X196100Y143500D01*
X195100Y142500D01*
X194100D01*
X195100Y141500D01*
X194100Y140500D01*
X195100D01*
X196100Y139500D01*
Y140300D02*
X196700Y140900D01*
X197300D01*
X196700Y141500D01*
X197300Y142100D01*
X196700D01*
X196100Y142700D01*
X195500Y142100D01*
X194900D01*
X195500Y141500D01*
X194900Y140900D01*
X195500D01*
X196100Y140300D01*
X201100Y139500D02*
X202100Y140500D01*
X203100D01*
X202100Y141500D01*
X203100Y142500D01*
X202100D01*
X201100Y143500D01*
X200100Y142500D01*
X199100D01*
X200100Y141500D01*
X199100Y140500D01*
X200100D01*
X201100Y139500D01*
Y140300D02*
X201700Y140900D01*
X202300D01*
X201700Y141500D01*
X202300Y142100D01*
X201700D01*
X201100Y142700D01*
X200500Y142100D01*
X199900D01*
X200500Y141500D01*
X199900Y140900D01*
X200500D01*
X201100Y140300D01*
X206100Y139500D02*
X207100Y140500D01*
X208100D01*
X207100Y141500D01*
X208100Y142500D01*
X207100D01*
X206100Y143500D01*
X205100Y142500D01*
X204100D01*
X205100Y141500D01*
X204100Y140500D01*
X205100D01*
X206100Y139500D01*
Y140300D02*
X206700Y140900D01*
X207300D01*
X206700Y141500D01*
X207300Y142100D01*
X206700D01*
X206100Y142700D01*
X205500Y142100D01*
X204900D01*
X205500Y141500D01*
X204900Y140900D01*
X205500D01*
X206100Y140300D01*
X186100Y139500D02*
X187100Y140500D01*
X188100D01*
X187100Y141500D01*
X188100Y142500D01*
X187100D01*
X186100Y143500D01*
X185100Y142500D01*
X184100D01*
X185100Y141500D01*
X184100Y140500D01*
X185100D01*
X186100Y139500D01*
Y140300D02*
X186700Y140900D01*
X187300D01*
X186700Y141500D01*
X187300Y142100D01*
X186700D01*
X186100Y142700D01*
X185500Y142100D01*
X184900D01*
X185500Y141500D01*
X184900Y140900D01*
X185500D01*
X186100Y140300D01*
Y121100D02*
X187100Y122100D01*
X188100D01*
X187100Y123100D01*
X188100Y124100D01*
X187100D01*
X186100Y125100D01*
X185100Y124100D01*
X184100D01*
X185100Y123100D01*
X184100Y122100D01*
X185100D01*
X186100Y121100D01*
Y121900D02*
X186700Y122500D01*
X187300D01*
X186700Y123100D01*
X187300Y123700D01*
X186700D01*
X186100Y124300D01*
X185500Y123700D01*
X184900D01*
X185500Y123100D01*
X184900Y122500D01*
X185500D01*
X186100Y121900D01*
X206100Y121100D02*
X207100Y122100D01*
X208100D01*
X207100Y123100D01*
X208100Y124100D01*
X207100D01*
X206100Y125100D01*
X205100Y124100D01*
X204100D01*
X205100Y123100D01*
X204100Y122100D01*
X205100D01*
X206100Y121100D01*
Y121900D02*
X206700Y122500D01*
X207300D01*
X206700Y123100D01*
X207300Y123700D01*
X206700D01*
X206100Y124300D01*
X205500Y123700D01*
X204900D01*
X205500Y123100D01*
X204900Y122500D01*
X205500D01*
X206100Y121900D01*
X201100Y121100D02*
X202100Y122100D01*
X203100D01*
X202100Y123100D01*
X203100Y124100D01*
X202100D01*
X201100Y125100D01*
X200100Y124100D01*
X199100D01*
X200100Y123100D01*
X199100Y122100D01*
X200100D01*
X201100Y121100D01*
Y121900D02*
X201700Y122500D01*
X202300D01*
X201700Y123100D01*
X202300Y123700D01*
X201700D01*
X201100Y124300D01*
X200500Y123700D01*
X199900D01*
X200500Y123100D01*
X199900Y122500D01*
X200500D01*
X201100Y121900D01*
X196100Y121100D02*
X197100Y122100D01*
X198100D01*
X197100Y123100D01*
X198100Y124100D01*
X197100D01*
X196100Y125100D01*
X195100Y124100D01*
X194100D01*
X195100Y123100D01*
X194100Y122100D01*
X195100D01*
X196100Y121100D01*
Y121900D02*
X196700Y122500D01*
X197300D01*
X196700Y123100D01*
X197300Y123700D01*
X196700D01*
X196100Y124300D01*
X195500Y123700D01*
X194900D01*
X195500Y123100D01*
X194900Y122500D01*
X195500D01*
X196100Y121900D01*
X191100Y121100D02*
X192100Y122100D01*
X193100D01*
X192100Y123100D01*
X193100Y124100D01*
X192100D01*
X191100Y125100D01*
X190100Y124100D01*
X189100D01*
X190100Y123100D01*
X189100Y122100D01*
X190100D01*
X191100Y121100D01*
Y121900D02*
X191700Y122500D01*
X192300D01*
X191700Y123100D01*
X192300Y123700D01*
X191700D01*
X191100Y124300D01*
X190500Y123700D01*
X189900D01*
X190500Y123100D01*
X189900Y122500D01*
X190500D01*
X191100Y121900D01*
X186100Y125100D02*
X187100Y126100D01*
X188100D01*
X187100Y127100D01*
X188100Y128100D01*
X187100D01*
X186100Y129100D01*
X185100Y128100D01*
X184100D01*
X185100Y127100D01*
X184100Y126100D01*
X185100D01*
X186100Y125100D01*
Y125900D02*
X186700Y126500D01*
X187300D01*
X186700Y127100D01*
X187300Y127700D01*
X186700D01*
X186100Y128300D01*
X185500Y127700D01*
X184900D01*
X185500Y127100D01*
X184900Y126500D01*
X185500D01*
X186100Y125900D01*
X206100Y125100D02*
X207100Y126100D01*
X208100D01*
X207100Y127100D01*
X208100Y128100D01*
X207100D01*
X206100Y129100D01*
X205100Y128100D01*
X204100D01*
X205100Y127100D01*
X204100Y126100D01*
X205100D01*
X206100Y125100D01*
Y125900D02*
X206700Y126500D01*
X207300D01*
X206700Y127100D01*
X207300Y127700D01*
X206700D01*
X206100Y128300D01*
X205500Y127700D01*
X204900D01*
X205500Y127100D01*
X204900Y126500D01*
X205500D01*
X206100Y125900D01*
X201100Y125100D02*
X202100Y126100D01*
X203100D01*
X202100Y127100D01*
X203100Y128100D01*
X202100D01*
X201100Y129100D01*
X200100Y128100D01*
X199100D01*
X200100Y127100D01*
X199100Y126100D01*
X200100D01*
X201100Y125100D01*
Y125900D02*
X201700Y126500D01*
X202300D01*
X201700Y127100D01*
X202300Y127700D01*
X201700D01*
X201100Y128300D01*
X200500Y127700D01*
X199900D01*
X200500Y127100D01*
X199900Y126500D01*
X200500D01*
X201100Y125900D01*
X196100Y125100D02*
X197100Y126100D01*
X198100D01*
X197100Y127100D01*
X198100Y128100D01*
X197100D01*
X196100Y129100D01*
X195100Y128100D01*
X194100D01*
X195100Y127100D01*
X194100Y126100D01*
X195100D01*
X196100Y125100D01*
Y125900D02*
X196700Y126500D01*
X197300D01*
X196700Y127100D01*
X197300Y127700D01*
X196700D01*
X196100Y128300D01*
X195500Y127700D01*
X194900D01*
X195500Y127100D01*
X194900Y126500D01*
X195500D01*
X196100Y125900D01*
X191100Y125100D02*
X192100Y126100D01*
X193100D01*
X192100Y127100D01*
X193100Y128100D01*
X192100D01*
X191100Y129100D01*
X190100Y128100D01*
X189100D01*
X190100Y127100D01*
X189100Y126100D01*
X190100D01*
X191100Y125100D01*
Y125900D02*
X191700Y126500D01*
X192300D01*
X191700Y127100D01*
X192300Y127700D01*
X191700D01*
X191100Y128300D01*
X190500Y127700D01*
X189900D01*
X190500Y127100D01*
X189900Y126500D01*
X190500D01*
X191100Y125900D01*
Y135500D02*
X192100Y136500D01*
X193100D01*
X192100Y137500D01*
X193100Y138500D01*
X192100D01*
X191100Y139500D01*
X190100Y138500D01*
X189100D01*
X190100Y137500D01*
X189100Y136500D01*
X190100D01*
X191100Y135500D01*
Y136300D02*
X191700Y136900D01*
X192300D01*
X191700Y137500D01*
X192300Y138100D01*
X191700D01*
X191100Y138700D01*
X190500Y138100D01*
X189900D01*
X190500Y137500D01*
X189900Y136900D01*
X190500D01*
X191100Y136300D01*
X196100Y135500D02*
X197100Y136500D01*
X198100D01*
X197100Y137500D01*
X198100Y138500D01*
X197100D01*
X196100Y139500D01*
X195100Y138500D01*
X194100D01*
X195100Y137500D01*
X194100Y136500D01*
X195100D01*
X196100Y135500D01*
Y136300D02*
X196700Y136900D01*
X197300D01*
X196700Y137500D01*
X197300Y138100D01*
X196700D01*
X196100Y138700D01*
X195500Y138100D01*
X194900D01*
X195500Y137500D01*
X194900Y136900D01*
X195500D01*
X196100Y136300D01*
X201100Y135500D02*
X202100Y136500D01*
X203100D01*
X202100Y137500D01*
X203100Y138500D01*
X202100D01*
X201100Y139500D01*
X200100Y138500D01*
X199100D01*
X200100Y137500D01*
X199100Y136500D01*
X200100D01*
X201100Y135500D01*
Y136300D02*
X201700Y136900D01*
X202300D01*
X201700Y137500D01*
X202300Y138100D01*
X201700D01*
X201100Y138700D01*
X200500Y138100D01*
X199900D01*
X200500Y137500D01*
X199900Y136900D01*
X200500D01*
X201100Y136300D01*
X206100Y135500D02*
X207100Y136500D01*
X208100D01*
X207100Y137500D01*
X208100Y138500D01*
X207100D01*
X206100Y139500D01*
X205100Y138500D01*
X204100D01*
X205100Y137500D01*
X204100Y136500D01*
X205100D01*
X206100Y135500D01*
Y136300D02*
X206700Y136900D01*
X207300D01*
X206700Y137500D01*
X207300Y138100D01*
X206700D01*
X206100Y138700D01*
X205500Y138100D01*
X204900D01*
X205500Y137500D01*
X204900Y136900D01*
X205500D01*
X206100Y136300D01*
X186100Y135500D02*
X187100Y136500D01*
X188100D01*
X187100Y137500D01*
X188100Y138500D01*
X187100D01*
X186100Y139500D01*
X185100Y138500D01*
X184100D01*
X185100Y137500D01*
X184100Y136500D01*
X185100D01*
X186100Y135500D01*
Y136300D02*
X186700Y136900D01*
X187300D01*
X186700Y137500D01*
X187300Y138100D01*
X186700D01*
X186100Y138700D01*
X185500Y138100D01*
X184900D01*
X185500Y137500D01*
X184900Y136900D01*
X185500D01*
X186100Y136300D01*
X191100Y130300D02*
X192100Y131300D01*
X193100D01*
X192100Y132300D01*
X193100Y133300D01*
X192100D01*
X191100Y134300D01*
X190100Y133300D01*
X189100D01*
X190100Y132300D01*
X189100Y131300D01*
X190100D01*
X191100Y130300D01*
Y131100D02*
X191700Y131700D01*
X192300D01*
X191700Y132300D01*
X192300Y132900D01*
X191700D01*
X191100Y133500D01*
X190500Y132900D01*
X189900D01*
X190500Y132300D01*
X189900Y131700D01*
X190500D01*
X191100Y131100D01*
X186100Y130300D02*
X187100Y131300D01*
X188100D01*
X187100Y132300D01*
X188100Y133300D01*
X187100D01*
X186100Y134300D01*
X185100Y133300D01*
X184100D01*
X185100Y132300D01*
X184100Y131300D01*
X185100D01*
X186100Y130300D01*
Y131100D02*
X186700Y131700D01*
X187300D01*
X186700Y132300D01*
X187300Y132900D01*
X186700D01*
X186100Y133500D01*
X185500Y132900D01*
X184900D01*
X185500Y132300D01*
X184900Y131700D01*
X185500D01*
X186100Y131100D01*
X201100Y130300D02*
X202100Y131300D01*
X203100D01*
X202100Y132300D01*
X203100Y133300D01*
X202100D01*
X201100Y134300D01*
X200100Y133300D01*
X199100D01*
X200100Y132300D01*
X199100Y131300D01*
X200100D01*
X201100Y130300D01*
Y131100D02*
X201700Y131700D01*
X202300D01*
X201700Y132300D01*
X202300Y132900D01*
X201700D01*
X201100Y133500D01*
X200500Y132900D01*
X199900D01*
X200500Y132300D01*
X199900Y131700D01*
X200500D01*
X201100Y131100D01*
X206100Y130300D02*
X207100Y131300D01*
X208100D01*
X207100Y132300D01*
X208100Y133300D01*
X207100D01*
X206100Y134300D01*
X205100Y133300D01*
X204100D01*
X205100Y132300D01*
X204100Y131300D01*
X205100D01*
X206100Y130300D01*
Y131100D02*
X206700Y131700D01*
X207300D01*
X206700Y132300D01*
X207300Y132900D01*
X206700D01*
X206100Y133500D01*
X205500Y132900D01*
X204900D01*
X205500Y132300D01*
X204900Y131700D01*
X205500D01*
X206100Y131100D01*
X208000Y392562D02*
X206000Y396562D01*
X210000D01*
X208000Y392562D01*
Y393362D02*
X206800Y395762D01*
X209200D01*
X208000Y393362D01*
X203100Y392562D02*
X201100Y396562D01*
X205100D01*
X203100Y392562D01*
Y393362D02*
X201900Y395762D01*
X204300D01*
X203100Y393362D01*
X197700Y392562D02*
X195700Y396562D01*
X199700D01*
X197700Y392562D01*
Y393362D02*
X196500Y395762D01*
X198900D01*
X197700Y393362D01*
X212900Y392562D02*
X210900Y396562D01*
X214900D01*
X212900Y392562D01*
Y393362D02*
X211700Y395762D01*
X214100D01*
X212900Y393362D01*
X203300Y400181D02*
Y404181D01*
X207300D01*
Y400181D01*
X203300D01*
X204100Y400981D02*
Y403381D01*
X206500D01*
Y400981D01*
X204100D01*
X212900Y402900D02*
X210900Y406900D01*
X214900D01*
X212900Y402900D01*
Y403700D02*
X211700Y406100D01*
X214100D01*
X212900Y403700D01*
Y398000D02*
X210900Y402000D01*
X214900D01*
X212900Y398000D01*
Y398800D02*
X211700Y401200D01*
X214100D01*
X212900Y398800D01*
X197700Y402900D02*
X195700Y406900D01*
X199700D01*
X197700Y402900D01*
Y403700D02*
X196500Y406100D01*
X198900D01*
X197700Y403700D01*
Y398000D02*
X195700Y402000D01*
X199700D01*
X197700Y398000D01*
Y398800D02*
X196500Y401200D01*
X198900D01*
X197700Y398800D01*
X223000Y433100D02*
X224000Y434100D01*
X225000D01*
X224000Y435100D01*
X225000Y436100D01*
X224000D01*
X223000Y437100D01*
X222000Y436100D01*
X221000D01*
X222000Y435100D01*
X221000Y434100D01*
X222000D01*
X223000Y433100D01*
Y433900D02*
X223600Y434500D01*
X224200D01*
X223600Y435100D01*
X224200Y435700D01*
X223600D01*
X223000Y436300D01*
X222400Y435700D01*
X221800D01*
X222400Y435100D01*
X221800Y434500D01*
X222400D01*
X223000Y433900D01*
X249800Y424100D02*
X247800Y428100D01*
X251800D01*
X249800Y424100D01*
Y424900D02*
X248600Y427300D01*
X251000D01*
X249800Y424900D01*
X143500Y443500D02*
X141500Y447500D01*
X145500D01*
X143500Y443500D01*
Y444300D02*
X142300Y446700D01*
X144700D01*
X143500Y444300D01*
X145000Y431820D02*
X143000Y435820D01*
X147000D01*
X145000Y431820D01*
Y432620D02*
X143800Y435020D01*
X146200D01*
X145000Y432620D01*
X147400Y69900D02*
X145400Y73900D01*
X149400D01*
X147400Y69900D01*
Y70700D02*
X146200Y73100D01*
X148600D01*
X147400Y70700D01*
X146700Y91300D02*
X144700Y95300D01*
X148700D01*
X146700Y91300D01*
Y92100D02*
X145500Y94500D01*
X147900D01*
X146700Y92100D01*
X143500Y78500D02*
X141500Y82500D01*
X145500D01*
X143500Y78500D01*
Y79300D02*
X142300Y81700D01*
X144700D01*
X143500Y79300D01*
X146300Y325500D02*
X144300Y329500D01*
X148300D01*
X146300Y325500D01*
Y326300D02*
X145100Y328700D01*
X147500D01*
X146300Y326300D01*
X142750Y325500D02*
X140750Y329500D01*
X144750D01*
X142750Y325500D01*
Y326300D02*
X141550Y328700D01*
X143950D01*
X142750Y326300D01*
X139200Y325500D02*
X137200Y329500D01*
X141200D01*
X139200Y325500D01*
Y326300D02*
X138000Y328700D01*
X140400D01*
X139200Y326300D01*
X135300Y325500D02*
X133300Y329500D01*
X137300D01*
X135300Y325500D01*
Y326300D02*
X134100Y328700D01*
X136500D01*
X135300Y326300D01*
X135750Y361400D02*
X133750Y365400D01*
X137750D01*
X135750Y361400D01*
Y362200D02*
X134550Y364600D01*
X136950D01*
X135750Y362200D01*
X145200Y361400D02*
X143200Y365400D01*
X147200D01*
X145200Y361400D01*
Y362200D02*
X144000Y364600D01*
X146400D01*
X145200Y362200D01*
X132500Y168200D02*
X130500Y172200D01*
X134500D01*
X132500Y168200D01*
Y169000D02*
X131300Y171400D01*
X133700D01*
X132500Y169000D01*
X145200Y168200D02*
X143200Y172200D01*
X147200D01*
X145200Y168200D01*
Y169000D02*
X144000Y171400D01*
X146400D01*
X145200Y169000D01*
X146600Y203400D02*
X144600Y207400D01*
X148600D01*
X146600Y203400D01*
Y204200D02*
X145400Y206600D01*
X147800D01*
X146600Y204200D01*
X150000Y61000D02*
X148000Y65000D01*
X152000D01*
X150000Y61000D01*
Y61800D02*
X148800Y64200D01*
X151200D01*
X150000Y61800D01*
X214600Y61100D02*
X212600Y65100D01*
X216600D01*
X214600Y61100D01*
Y61900D02*
X213400Y64300D01*
X215800D01*
X214600Y61900D01*
X164995Y205100D02*
X162995Y209100D01*
X166995D01*
X164995Y205100D01*
Y205900D02*
X163795Y208300D01*
X166195D01*
X164995Y205900D01*
X160900Y205100D02*
X158900Y209100D01*
X162900D01*
X160900Y205100D01*
Y205900D02*
X159700Y208300D01*
X162100D01*
X160900Y205900D01*
X146571Y56100D02*
X144571Y60100D01*
X148571D01*
X146571Y56100D01*
Y56900D02*
X145371Y59300D01*
X147771D01*
X146571Y56900D01*
X212000Y58100D02*
X210000Y62100D01*
X214000D01*
X212000Y58100D01*
Y58900D02*
X210800Y61300D01*
X213200D01*
X212000Y58900D01*
X157400Y205100D02*
X155400Y209100D01*
X159400D01*
X157400Y205100D01*
Y205900D02*
X156200Y208300D01*
X158600D01*
X157400Y205900D01*
X150200Y53103D02*
X148200Y57103D01*
X152200D01*
X150200Y53103D01*
Y53903D02*
X149000Y56303D01*
X151400D01*
X150200Y53903D01*
X209300Y54600D02*
X207300Y58600D01*
X211300D01*
X209300Y54600D01*
Y55400D02*
X208100Y57800D01*
X210500D01*
X209300Y55400D01*
X153900Y205100D02*
X151900Y209100D01*
X155900D01*
X153900Y205100D01*
Y205900D02*
X152700Y208300D01*
X155100D01*
X153900Y205900D01*
X183500Y55500D02*
X184500Y56500D01*
X185500D01*
X184500Y57500D01*
X185500Y58500D01*
X184500D01*
X183500Y59500D01*
X182500Y58500D01*
X181500D01*
X182500Y57500D01*
X181500Y56500D01*
X182500D01*
X183500Y55500D01*
Y56300D02*
X184100Y56900D01*
X184700D01*
X184100Y57500D01*
X184700Y58100D01*
X184100D01*
X183500Y58700D01*
X182900Y58100D01*
X182300D01*
X182900Y57500D01*
X182300Y56900D01*
X182900D01*
X183500Y56300D01*
X236500Y168000D02*
X234500Y172000D01*
X238500D01*
X236500Y168000D01*
Y168800D02*
X235300Y171200D01*
X237700D01*
X236500Y168800D01*
X242800Y168000D02*
X240800Y172000D01*
X244800D01*
X242800Y168000D01*
Y168800D02*
X241600Y171200D01*
X244000D01*
X242800Y168800D01*
X239650Y165500D02*
X237650Y169500D01*
X241650D01*
X239650Y165500D01*
Y166300D02*
X238450Y168700D01*
X240850D01*
X239650Y166300D01*
X245950Y165500D02*
X243950Y169500D01*
X247950D01*
X245950Y165500D01*
Y166300D02*
X244750Y168700D01*
X247150D01*
X245950Y166300D01*
X183500Y324750D02*
X181500Y328750D01*
X185500D01*
X183500Y324750D01*
Y325550D02*
X182300Y327950D01*
X184700D01*
X183500Y325550D01*
X182300Y373900D02*
X180300Y377900D01*
X184300D01*
X182300Y373900D01*
Y374700D02*
X181100Y377100D01*
X183500D01*
X182300Y374700D01*
X180000Y324750D02*
X178000Y328750D01*
X182000D01*
X180000Y324750D01*
Y325550D02*
X178800Y327950D01*
X181200D01*
X180000Y325550D01*
X181100Y370200D02*
X179100Y374200D01*
X183100D01*
X181100Y370200D01*
Y371000D02*
X179900Y373400D01*
X182300D01*
X181100Y371000D01*
X259500Y276900D02*
X257500Y280900D01*
X261500D01*
X259500Y276900D01*
Y277700D02*
X258300Y280100D01*
X260700D01*
X259500Y277700D01*
X253000Y427100D02*
X251000Y431100D01*
X255000D01*
X253000Y427100D01*
Y427900D02*
X251800Y430300D01*
X254200D01*
X253000Y427900D01*
X263074Y276850D02*
X261074Y280850D01*
X265074D01*
X263074Y276850D01*
Y277650D02*
X261874Y280050D01*
X264274D01*
X263074Y277650D01*
X198500Y457000D02*
X196500Y461000D01*
X200500D01*
X198500Y457000D01*
Y457800D02*
X197300Y460200D01*
X199700D01*
X198500Y457800D01*
X262913Y273175D02*
X260913Y277175D01*
X264913D01*
X262913Y273175D01*
Y273975D02*
X261713Y276375D01*
X264113D01*
X262913Y273975D01*
X201600Y460100D02*
X199600Y464100D01*
X203600D01*
X201600Y460100D01*
Y460900D02*
X200400Y463300D01*
X202800D01*
X201600Y460900D01*
X266470Y273130D02*
X267470Y274130D01*
X268470D01*
X267470Y275130D01*
X268470Y276130D01*
X267470D01*
X266470Y277130D01*
X265470Y276130D01*
X264470D01*
X265470Y275130D01*
X264470Y274130D01*
X265470D01*
X266470Y273130D01*
Y273930D02*
X267070Y274530D01*
X267670D01*
X267070Y275130D01*
X267670Y275730D01*
X267070D01*
X266470Y276330D01*
X265870Y275730D01*
X265270D01*
X265870Y275130D01*
X265270Y274530D01*
X265870D01*
X266470Y273930D01*
X203200Y464000D02*
X201200Y468000D01*
X205200D01*
X203200Y464000D01*
Y464800D02*
X202000Y467200D01*
X204400D01*
X203200Y464800D01*
X251050Y277000D02*
X249050Y281000D01*
X253050D01*
X251050Y277000D01*
Y277800D02*
X249850Y280200D01*
X252250D01*
X251050Y277800D01*
X240225Y407413D02*
X238225Y411413D01*
X242225D01*
X240225Y407413D01*
Y408213D02*
X239025Y410613D01*
X241425D01*
X240225Y408213D01*
X247450Y276900D02*
X245450Y280900D01*
X249450D01*
X247450Y276900D01*
Y277700D02*
X246250Y280100D01*
X248650D01*
X247450Y277700D01*
X236550Y407574D02*
X234550Y411574D01*
X238550D01*
X236550Y407574D01*
Y408374D02*
X235350Y410774D01*
X237750D01*
X236550Y408374D01*
X247200Y281000D02*
X245200Y285000D01*
X249200D01*
X247200Y281000D01*
Y281800D02*
X246000Y284200D01*
X248400D01*
X247200Y281800D01*
X236500Y404000D02*
X234500Y408000D01*
X238500D01*
X236500Y404000D01*
Y404800D02*
X235300Y407200D01*
X237700D01*
X236500Y404800D01*
X250950Y273130D02*
X248950Y277130D01*
X252950D01*
X250950Y273130D01*
Y273930D02*
X249750Y276330D01*
X252150D01*
X250950Y273930D01*
X240270Y410970D02*
X241270Y411970D01*
X242270D01*
X241270Y412970D01*
X242270Y413970D01*
X241270D01*
X240270Y414970D01*
X239270Y413970D01*
X238270D01*
X239270Y412970D01*
X238270Y411970D01*
X239270D01*
X240270Y410970D01*
Y411770D02*
X240870Y412370D01*
X241470D01*
X240870Y412970D01*
X241470Y413570D01*
X240870D01*
X240270Y414170D01*
X239670Y413570D01*
X239070D01*
X239670Y412970D01*
X239070Y412370D01*
X239670D01*
X240270Y411770D01*
X254600Y273130D02*
X252600Y277130D01*
X256600D01*
X254600Y273130D01*
Y273930D02*
X253400Y276330D01*
X255800D01*
X254600Y273930D01*
X243945Y410809D02*
X244945Y411809D01*
X245944D01*
X244945Y412809D01*
X245944Y413809D01*
X244945D01*
X243945Y414809D01*
X242945Y413809D01*
X241945D01*
X242945Y412809D01*
X241945Y411809D01*
X242945D01*
X243945Y410809D01*
Y411609D02*
X244545Y412209D01*
X245145D01*
X244545Y412809D01*
X245145Y413409D01*
X244545D01*
X243945Y414009D01*
X243344Y413409D01*
X242744D01*
X243344Y412809D01*
X242744Y412209D01*
X243344D01*
X243945Y411609D01*
X31500Y446000D02*
X32500Y447000D01*
X33500D01*
X32500Y448000D01*
X33500Y449000D01*
X32500D01*
X31500Y450000D01*
X30500Y449000D01*
X29500D01*
X30500Y448000D01*
X29500Y447000D01*
X30500D01*
X31500Y446000D01*
Y446800D02*
X32100Y447400D01*
X32700D01*
X32100Y448000D01*
X32700Y448600D01*
X32100D01*
X31500Y449200D01*
X30900Y448600D01*
X30300D01*
X30900Y448000D01*
X30300Y447400D01*
X30900D01*
X31500Y446800D01*
X78000Y339000D02*
X79000Y340000D01*
X80000D01*
X79000Y341000D01*
X80000Y342000D01*
X79000D01*
X78000Y343000D01*
X77000Y342000D01*
X76000D01*
X77000Y341000D01*
X76000Y340000D01*
X77000D01*
X78000Y339000D01*
Y339800D02*
X78600Y340400D01*
X79200D01*
X78600Y341000D01*
X79200Y341600D01*
X78600D01*
X78000Y342200D01*
X77400Y341600D01*
X76800D01*
X77400Y341000D01*
X76800Y340400D01*
X77400D01*
X78000Y339800D01*
X375000Y536100D02*
X373000Y540100D01*
X377000D01*
X375000Y536100D01*
Y536900D02*
X373800Y539300D01*
X376200D01*
X375000Y536900D01*
Y502100D02*
X373000Y506100D01*
X377000D01*
X375000Y502100D01*
Y502900D02*
X373800Y505300D01*
X376200D01*
X375000Y502900D01*
Y437600D02*
X373000Y441600D01*
X377000D01*
X375000Y437600D01*
Y438400D02*
X373800Y440800D01*
X376200D01*
X375000Y438400D01*
Y403600D02*
X373000Y407600D01*
X377000D01*
X375000Y403600D01*
Y404400D02*
X373800Y406800D01*
X376200D01*
X375000Y404400D01*
Y339200D02*
X373000Y343200D01*
X377000D01*
X375000Y339200D01*
Y340000D02*
X373800Y342400D01*
X376200D01*
X375000Y340000D01*
Y305200D02*
X373000Y309200D01*
X377000D01*
X375000Y305200D01*
Y306000D02*
X373800Y308400D01*
X376200D01*
X375000Y306000D01*
Y240800D02*
X373000Y244800D01*
X377000D01*
X375000Y240800D01*
Y241600D02*
X373800Y244000D01*
X376200D01*
X375000Y241600D01*
Y206800D02*
X373000Y210800D01*
X377000D01*
X375000Y206800D01*
Y207600D02*
X373800Y210000D01*
X376200D01*
X375000Y207600D01*
Y142400D02*
X373000Y146400D01*
X377000D01*
X375000Y142400D01*
Y143200D02*
X373800Y145600D01*
X376200D01*
X375000Y143200D01*
Y108400D02*
X373000Y112400D01*
X377000D01*
X375000Y108400D01*
Y109200D02*
X373800Y111600D01*
X376200D01*
X375000Y109200D01*
Y43900D02*
X373000Y47900D01*
X377000D01*
X375000Y43900D01*
Y44700D02*
X373800Y47100D01*
X376200D01*
X375000Y44700D01*
Y9900D02*
X373000Y13900D01*
X377000D01*
X375000Y9900D01*
Y10700D02*
X373800Y13100D01*
X376200D01*
X375000Y10700D01*
X355500Y79000D02*
X353500Y83000D01*
X357500D01*
X355500Y79000D01*
Y79800D02*
X354300Y82200D01*
X356700D01*
X355500Y79800D01*
X345500Y79000D02*
X343500Y83000D01*
X347500D01*
X345500Y79000D01*
Y79800D02*
X344300Y82200D01*
X346700D01*
X345500Y79800D01*
X335500Y79000D02*
X333500Y83000D01*
X337500D01*
X335500Y79000D01*
Y79800D02*
X334300Y82200D01*
X336700D01*
X335500Y79800D01*
X325500Y79000D02*
X323500Y83000D01*
X327500D01*
X325500Y79000D01*
Y79800D02*
X324300Y82200D01*
X326700D01*
X325500Y79800D01*
X317000Y111000D02*
X315000Y115000D01*
X319000D01*
X317000Y111000D01*
Y111800D02*
X315800Y114200D01*
X318200D01*
X317000Y111800D01*
X333000Y111000D02*
X331000Y115000D01*
X335000D01*
X333000Y111000D01*
Y111800D02*
X331800Y114200D01*
X334200D01*
X333000Y111800D01*
X350000Y111000D02*
X348000Y115000D01*
X352000D01*
X350000Y111000D01*
Y111800D02*
X348800Y114200D01*
X351200D01*
X350000Y111800D01*
X366000Y111000D02*
X364000Y115000D01*
X368000D01*
X366000Y111000D01*
Y111800D02*
X364800Y114200D01*
X367200D01*
X366000Y111800D01*
X317000Y89000D02*
X315000Y93000D01*
X319000D01*
X317000Y89000D01*
Y89800D02*
X315800Y92200D01*
X318200D01*
X317000Y89800D01*
X333000Y89000D02*
X331000Y93000D01*
X335000D01*
X333000Y89000D01*
Y89800D02*
X331800Y92200D01*
X334200D01*
X333000Y89800D01*
X350000Y89000D02*
X348000Y93000D01*
X352000D01*
X350000Y89000D01*
Y89800D02*
X348800Y92200D01*
X351200D01*
X350000Y89800D01*
X366000Y89000D02*
X364000Y93000D01*
X368000D01*
X366000Y89000D01*
Y89800D02*
X364800Y92200D01*
X367200D01*
X366000Y89800D01*
X350500Y270000D02*
X348500Y274000D01*
X352500D01*
X350500Y270000D01*
Y270800D02*
X349300Y273200D01*
X351700D01*
X350500Y270800D01*
X340500Y270000D02*
X338500Y274000D01*
X342500D01*
X340500Y270000D01*
Y270800D02*
X339300Y273200D01*
X341700D01*
X340500Y270800D01*
X330500Y270000D02*
X328500Y274000D01*
X332500D01*
X330500Y270000D01*
Y270800D02*
X329300Y273200D01*
X331700D01*
X330500Y270800D01*
X320500Y270000D02*
X318500Y274000D01*
X322500D01*
X320500Y270000D01*
Y270800D02*
X319300Y273200D01*
X321700D01*
X320500Y270800D01*
X359000Y238000D02*
X357000Y242000D01*
X361000D01*
X359000Y238000D01*
Y238800D02*
X357800Y241200D01*
X360200D01*
X359000Y238800D01*
X343000Y238000D02*
X341000Y242000D01*
X345000D01*
X343000Y238000D01*
Y238800D02*
X341800Y241200D01*
X344200D01*
X343000Y238800D01*
X326000Y238000D02*
X324000Y242000D01*
X328000D01*
X326000Y238000D01*
Y238800D02*
X324800Y241200D01*
X327200D01*
X326000Y238800D01*
X310000Y238000D02*
X308000Y242000D01*
X312000D01*
X310000Y238000D01*
Y238800D02*
X308800Y241200D01*
X311200D01*
X310000Y238800D01*
X359000Y260000D02*
X357000Y264000D01*
X361000D01*
X359000Y260000D01*
Y260800D02*
X357800Y263200D01*
X360200D01*
X359000Y260800D01*
X343000Y260000D02*
X341000Y264000D01*
X345000D01*
X343000Y260000D01*
Y260800D02*
X341800Y263200D01*
X344200D01*
X343000Y260800D01*
X326000Y260000D02*
X324000Y264000D01*
X328000D01*
X326000Y260000D01*
Y260800D02*
X324800Y263200D01*
X327200D01*
X326000Y260800D01*
X310000Y260000D02*
X308000Y264000D01*
X312000D01*
X310000Y260000D01*
Y260800D02*
X308800Y263200D01*
X311200D01*
X310000Y260800D01*
X249150Y168000D02*
X247150Y172000D01*
X251150D01*
X249150Y168000D01*
Y168800D02*
X247950Y171200D01*
X250350D01*
X249150Y168800D01*
X310000Y117000D02*
X308000Y121000D01*
X312000D01*
X310000Y117000D01*
Y117800D02*
X308800Y120200D01*
X311200D01*
X310000Y117800D01*
X326000Y117000D02*
X324000Y121000D01*
X328000D01*
X326000Y117000D01*
Y117800D02*
X324800Y120200D01*
X327200D01*
X326000Y117800D01*
X342000Y117000D02*
X340000Y121000D01*
X344000D01*
X342000Y117000D01*
Y117800D02*
X340800Y120200D01*
X343200D01*
X342000Y117800D01*
X358000Y117000D02*
X356000Y121000D01*
X360000D01*
X358000Y117000D01*
Y117800D02*
X356800Y120200D01*
X359200D01*
X358000Y117800D01*
X375000Y30000D02*
X373000Y34000D01*
X377000D01*
X375000Y30000D01*
Y30800D02*
X373800Y33200D01*
X376200D01*
X375000Y30800D01*
Y128500D02*
X373000Y132500D01*
X377000D01*
X375000Y128500D01*
Y129300D02*
X373800Y131700D01*
X376200D01*
X375000Y129300D01*
X215200Y168500D02*
X213200Y172500D01*
X217200D01*
X215200Y168500D01*
Y169300D02*
X214000Y171700D01*
X216400D01*
X215200Y169300D01*
X255450Y204000D02*
X253450Y208000D01*
X257450D01*
X255450Y204000D01*
Y204800D02*
X254250Y207200D01*
X256650D01*
X255450Y204800D01*
X252300Y207000D02*
X250300Y211000D01*
X254300D01*
X252300Y207000D01*
Y207800D02*
X251100Y210200D01*
X253500D01*
X252300Y207800D01*
X249150Y204000D02*
X247150Y208000D01*
X251150D01*
X249150Y204000D01*
Y204800D02*
X247950Y207200D01*
X250350D01*
X249150Y204800D01*
X245950Y207000D02*
X243950Y211000D01*
X247950D01*
X245950Y207000D01*
Y207800D02*
X244750Y210200D01*
X247150D01*
X245950Y207800D01*
X242863Y204000D02*
X240863Y208000D01*
X244863D01*
X242863Y204000D01*
Y204800D02*
X241663Y207200D01*
X244063D01*
X242863Y204800D01*
X239700Y207000D02*
X237700Y211000D01*
X241700D01*
X239700Y207000D01*
Y207800D02*
X238500Y210200D01*
X240900D01*
X239700Y207800D01*
X236550Y204000D02*
X234550Y208000D01*
X238550D01*
X236550Y204000D01*
Y204800D02*
X235350Y207200D01*
X237750D01*
X236550Y204800D01*
X318000Y232000D02*
X316000Y236000D01*
X320000D01*
X318000Y232000D01*
Y232800D02*
X316800Y235200D01*
X319200D01*
X318000Y232800D01*
X334000Y232000D02*
X332000Y236000D01*
X336000D01*
X334000Y232000D01*
Y232800D02*
X332800Y235200D01*
X335200D01*
X334000Y232800D01*
X350000Y232000D02*
X348000Y236000D01*
X352000D01*
X350000Y232000D01*
Y232800D02*
X348800Y235200D01*
X351200D01*
X350000Y232800D01*
X366000Y232000D02*
X364000Y236000D01*
X368000D01*
X366000Y232000D01*
Y232800D02*
X364800Y235200D01*
X367200D01*
X366000Y232800D01*
X230250Y204000D02*
X228250Y208000D01*
X232250D01*
X230250Y204000D01*
Y204800D02*
X229050Y207200D01*
X231450D01*
X230250Y204800D01*
X227100Y207000D02*
X225100Y211000D01*
X229100D01*
X227100Y207000D01*
Y207800D02*
X225900Y210200D01*
X228300D01*
X227100Y207800D01*
X224000Y204000D02*
X222000Y208000D01*
X226000D01*
X224000Y204000D01*
Y204800D02*
X222800Y207200D01*
X225200D01*
X224000Y204800D01*
X220800Y207000D02*
X218800Y211000D01*
X222800D01*
X220800Y207000D01*
Y207800D02*
X219600Y210200D01*
X222000D01*
X220800Y207800D01*
X233400Y207000D02*
X231400Y211000D01*
X235400D01*
X233400Y207000D01*
Y207800D02*
X232200Y210200D01*
X234600D01*
X233400Y207800D01*
X228000Y219000D02*
X226000Y223000D01*
X230000D01*
X228000Y219000D01*
Y219800D02*
X226800Y222200D01*
X229200D01*
X228000Y219800D01*
X225000Y222000D02*
X223000Y226000D01*
X227000D01*
X225000Y222000D01*
Y222800D02*
X223800Y225200D01*
X226200D01*
X225000Y222800D01*
X375000Y221000D02*
X373000Y225000D01*
X377000D01*
X375000Y221000D01*
Y221800D02*
X373800Y224200D01*
X376200D01*
X375000Y221800D01*
Y418000D02*
X373000Y422000D01*
X377000D01*
X375000Y418000D01*
Y418800D02*
X373800Y421200D01*
X376200D01*
X375000Y418800D01*
Y516000D02*
X373000Y520000D01*
X377000D01*
X375000Y516000D01*
Y516800D02*
X373800Y519200D01*
X376200D01*
X375000Y516800D01*
Y319000D02*
X373000Y323000D01*
X377000D01*
X375000Y319000D01*
Y319800D02*
X373800Y322200D01*
X376200D01*
X375000Y319800D01*
X29000Y421000D02*
X27000Y425000D01*
X31000D01*
X29000Y421000D01*
Y421800D02*
X27800Y424200D01*
X30200D01*
X29000Y421800D01*
D169*
X128150Y195750D02*
G03*
X128150Y195750I-2000J0D01*
G01*
X263900D02*
G03*
X263900Y195750I-2000J0D01*
G01*
X128150Y353250D02*
G03*
X128150Y353250I-2000J0D01*
G01*
X263900D02*
G03*
X263900Y353250I-2000J0D01*
G01*
X73366Y127063D02*
G03*
X73366Y127063I-2000J0D01*
G01*
Y87693D02*
G03*
X73366Y87693I-2000J0D01*
G01*
M02*
