G04 Layer_Color=16711935*
%FSLAX25Y25*%
%MOIN*%
G70*
G01*
G75*
%ADD48C,0.00800*%
%ADD57R,0.55000X0.49000*%
%ADD88C,0.06200*%
%ADD92C,0.03900*%
%ADD113R,0.22500X0.06500*%
%ADD114R,0.34000X0.19000*%
G04:AMPARAMS|DCode=115|XSize=44mil|YSize=34mil|CornerRadius=0mil|HoleSize=0mil|Usage=FLASHONLY|Rotation=225.000|XOffset=0mil|YOffset=0mil|HoleType=Round|Shape=Rectangle|*
%AMROTATEDRECTD115*
4,1,4,0.00354,0.02758,0.02758,0.00354,-0.00354,-0.02758,-0.02758,-0.00354,0.00354,0.02758,0.0*
%
%ADD115ROTATEDRECTD115*%

%ADD116R,0.06400X0.01900*%
%ADD117O,0.06400X0.01900*%
%ADD118R,0.03400X0.04400*%
%ADD119R,0.06400X0.05400*%
%ADD120R,0.06400X0.06400*%
G04:AMPARAMS|DCode=121|XSize=44mil|YSize=34mil|CornerRadius=0mil|HoleSize=0mil|Usage=FLASHONLY|Rotation=135.000|XOffset=0mil|YOffset=0mil|HoleType=Round|Shape=Rectangle|*
%AMROTATEDRECTD121*
4,1,4,0.02758,-0.00354,0.00354,-0.02758,-0.02758,0.00354,-0.00354,0.02758,0.02758,-0.00354,0.0*
%
%ADD121ROTATEDRECTD121*%

%ADD122R,0.04400X0.03400*%
%ADD124R,0.18904X0.18904*%
%ADD126R,0.06400X0.06400*%
%ADD127R,0.20400X0.09400*%
%ADD144R,0.30400X0.30400*%
%ADD146C,0.12900*%
%ADD147C,0.06000*%
%ADD148R,0.10400X0.10400*%
%ADD149C,0.08400*%
%ADD150C,0.12400*%
%ADD151R,0.06200X0.06200*%
%ADD152C,0.11000*%
G04:AMPARAMS|DCode=153|XSize=216.99mil|YSize=257.94mil|CornerRadius=12.65mil|HoleSize=0mil|Usage=FLASHONLY|Rotation=90.000|XOffset=0mil|YOffset=0mil|HoleType=Round|Shape=RoundedRectangle|*
%AMROUNDEDRECTD153*
21,1,0.21699,0.23264,0,0,90.0*
21,1,0.19169,0.25794,0,0,90.0*
1,1,0.02530,0.11632,0.09585*
1,1,0.02530,0.11632,-0.09585*
1,1,0.02530,-0.11632,-0.09585*
1,1,0.02530,-0.11632,0.09585*
%
%ADD153ROUNDEDRECTD153*%
%ADD154C,0.04400*%
%ADD155C,0.03200*%
%ADD156C,0.03000*%
%ADD157C,0.04200*%
%ADD158R,0.29000X0.08500*%
%ADD159R,0.14000X0.07200*%
%ADD160R,0.10400X0.06400*%
%ADD161O,0.05124X0.01581*%
%ADD162R,0.05124X0.01581*%
%ADD163R,0.05400X0.06400*%
G04:AMPARAMS|DCode=164|XSize=51.24mil|YSize=15.81mil|CornerRadius=0mil|HoleSize=0mil|Usage=FLASHONLY|Rotation=315.000|XOffset=0mil|YOffset=0mil|HoleType=Round|Shape=Round|*
%AMOVALD164*
21,1,0.03543,0.01581,0.00000,0.00000,315.0*
1,1,0.01581,-0.01253,0.01253*
1,1,0.01581,0.01253,-0.01253*
%
%ADD164OVALD164*%

G04:AMPARAMS|DCode=165|XSize=51.24mil|YSize=15.81mil|CornerRadius=0mil|HoleSize=0mil|Usage=FLASHONLY|Rotation=315.000|XOffset=0mil|YOffset=0mil|HoleType=Round|Shape=Rectangle|*
%AMROTATEDRECTD165*
4,1,4,-0.02371,0.01253,-0.01253,0.02371,0.02371,-0.01253,0.01253,-0.02371,-0.02371,0.01253,0.0*
%
%ADD165ROTATEDRECTD165*%

%ADD166R,0.08500X0.08500*%
%ADD167R,0.10400X0.15800*%
D48*
X0Y364950D02*
Y550000D01*
X119300D01*
X0Y-0D02*
X75300D01*
X0D02*
Y168100D01*
X75300Y-0D02*
X400000D01*
X0Y168100D02*
Y364950D01*
X119300Y550000D02*
X400000D01*
Y-0D02*
Y550000D01*
D57*
X30000Y385500D02*
D03*
D88*
X318000Y176600D02*
D03*
Y166600D02*
D03*
X348000Y176600D02*
D03*
Y166600D02*
D03*
X378000Y176600D02*
D03*
Y166600D02*
D03*
X15451Y483210D02*
D03*
X28890Y79751D02*
D03*
Y89751D02*
D03*
Y99751D02*
D03*
X205300Y402181D02*
D03*
D92*
X29000Y430200D02*
D03*
X31500Y448000D02*
D03*
D113*
X78750Y160250D02*
D03*
D114*
X84500Y173000D02*
D03*
D115*
X175993Y117073D02*
D03*
X171397Y112477D02*
D03*
X182200Y449100D02*
D03*
X177604Y444504D02*
D03*
X194800Y462800D02*
D03*
X190204Y458204D02*
D03*
X220786Y419045D02*
D03*
X216190Y414449D02*
D03*
D116*
X47400Y301900D02*
D03*
X247500D02*
D03*
X176300D02*
D03*
X94300Y160400D02*
D03*
X176300Y244200D02*
D03*
X163900Y75900D02*
D03*
X211000D02*
D03*
D117*
X47400Y299340D02*
D03*
Y296780D02*
D03*
X30400Y301900D02*
D03*
Y299340D02*
D03*
Y296780D02*
D03*
X47400Y294220D02*
D03*
X30400D02*
D03*
X247500Y299340D02*
D03*
Y296780D02*
D03*
X230500Y301900D02*
D03*
Y299340D02*
D03*
Y296780D02*
D03*
X247500Y294220D02*
D03*
X230500D02*
D03*
X176300Y299340D02*
D03*
Y296780D02*
D03*
X159300Y301900D02*
D03*
Y299340D02*
D03*
Y296780D02*
D03*
X176300Y294220D02*
D03*
X159300D02*
D03*
X94300Y157840D02*
D03*
Y155280D02*
D03*
X77300Y160400D02*
D03*
Y157840D02*
D03*
Y155280D02*
D03*
X94300Y152720D02*
D03*
X77300D02*
D03*
X176300Y241640D02*
D03*
Y239080D02*
D03*
X159300Y244200D02*
D03*
Y241640D02*
D03*
Y239080D02*
D03*
X176300Y236520D02*
D03*
X159300D02*
D03*
X180900Y83580D02*
D03*
X163900D02*
D03*
X180900Y81020D02*
D03*
Y78460D02*
D03*
Y75900D02*
D03*
X163900Y81020D02*
D03*
Y78460D02*
D03*
X228000Y83580D02*
D03*
X211000D02*
D03*
X228000Y81020D02*
D03*
Y78460D02*
D03*
Y75900D02*
D03*
X211000Y81020D02*
D03*
Y78460D02*
D03*
D118*
X88690Y425649D02*
D03*
Y432149D02*
D03*
X109590D02*
D03*
Y438649D02*
D03*
X87000Y452500D02*
D03*
Y459000D02*
D03*
X113700Y378800D02*
D03*
Y372300D02*
D03*
X90300D02*
D03*
Y378800D02*
D03*
X73000Y304500D02*
D03*
Y311000D02*
D03*
X126000Y285500D02*
D03*
Y292000D02*
D03*
X196200Y76500D02*
D03*
Y83000D02*
D03*
X237900D02*
D03*
Y76500D02*
D03*
X237200Y68200D02*
D03*
Y61700D02*
D03*
X244300Y61600D02*
D03*
Y55100D02*
D03*
X182000Y68300D02*
D03*
Y61800D02*
D03*
X188500Y61700D02*
D03*
Y55200D02*
D03*
X190000Y83000D02*
D03*
Y76500D02*
D03*
X155600Y83100D02*
D03*
Y76600D02*
D03*
X202600Y83000D02*
D03*
Y76500D02*
D03*
X149000Y76600D02*
D03*
Y83100D02*
D03*
X218910Y401551D02*
D03*
Y408051D02*
D03*
X191590Y401551D02*
D03*
Y408051D02*
D03*
X29000Y458500D02*
D03*
Y452000D02*
D03*
D119*
X202100Y229000D02*
D03*
X211100D02*
D03*
X211400Y239800D02*
D03*
X202400D02*
D03*
X91000Y309500D02*
D03*
X82000D02*
D03*
Y299000D02*
D03*
X91000D02*
D03*
X108000Y290500D02*
D03*
X117000D02*
D03*
Y280000D02*
D03*
X108000D02*
D03*
D120*
X99700Y387400D02*
D03*
X86200D02*
D03*
X110900Y363500D02*
D03*
X97400D02*
D03*
X215400Y218100D02*
D03*
X201900D02*
D03*
X12400Y313900D02*
D03*
X25900D02*
D03*
X135487Y452721D02*
D03*
X121987D02*
D03*
X77500Y320500D02*
D03*
X91000D02*
D03*
X121500Y301500D02*
D03*
X108000D02*
D03*
X141100Y313720D02*
D03*
X154600D02*
D03*
X213000Y314220D02*
D03*
X226500D02*
D03*
X48300Y172400D02*
D03*
X61800D02*
D03*
X122300Y148600D02*
D03*
X108800D02*
D03*
X69000Y399500D02*
D03*
X82500D02*
D03*
X107200Y397300D02*
D03*
X93700D02*
D03*
D121*
X256390Y425249D02*
D03*
X260986Y420653D02*
D03*
X261610Y430251D02*
D03*
X266206Y425655D02*
D03*
X216173Y117507D02*
D03*
X220769Y112911D02*
D03*
X193447Y414794D02*
D03*
X188851Y419390D02*
D03*
D122*
X21900Y230610D02*
D03*
X28400D02*
D03*
X72200Y230249D02*
D03*
X78700D02*
D03*
X247993Y48973D02*
D03*
X254493D02*
D03*
X210007Y52827D02*
D03*
X203507D02*
D03*
X190493Y48373D02*
D03*
X196993D02*
D03*
X152507Y50727D02*
D03*
X146007D02*
D03*
X99300Y379000D02*
D03*
X105800D02*
D03*
X79900Y408100D02*
D03*
X73400D02*
D03*
X106400Y459500D02*
D03*
X99900D02*
D03*
X74900Y414500D02*
D03*
X68400D02*
D03*
X213500Y248500D02*
D03*
X207000D02*
D03*
X30900Y280400D02*
D03*
X37400D02*
D03*
Y273900D02*
D03*
X30900D02*
D03*
X23400Y279800D02*
D03*
X16900D02*
D03*
X37400Y286900D02*
D03*
X30900D02*
D03*
X239500Y274720D02*
D03*
X233000D02*
D03*
X239500Y286720D02*
D03*
X233000D02*
D03*
Y280720D02*
D03*
X239500D02*
D03*
X110600Y62600D02*
D03*
X117100D02*
D03*
X44800Y22500D02*
D03*
X51300D02*
D03*
X101900Y22600D02*
D03*
X108400D02*
D03*
X111100Y107600D02*
D03*
X117600D02*
D03*
X161600Y280720D02*
D03*
X168100D02*
D03*
Y286720D02*
D03*
X161600D02*
D03*
X168100Y274720D02*
D03*
X161600D02*
D03*
X145600Y279520D02*
D03*
X152100D02*
D03*
X223500Y279620D02*
D03*
X217000D02*
D03*
X86300Y145400D02*
D03*
X79800D02*
D03*
Y138900D02*
D03*
X86300D02*
D03*
X69800Y137800D02*
D03*
X63300D02*
D03*
X86300Y132400D02*
D03*
X79800D02*
D03*
X141900Y223620D02*
D03*
X135400D02*
D03*
X168400Y229120D02*
D03*
X161900D02*
D03*
Y222620D02*
D03*
X168400D02*
D03*
X226100Y40600D02*
D03*
X219600D02*
D03*
X244100Y68500D02*
D03*
X250600D02*
D03*
X239700Y40600D02*
D03*
X233200D02*
D03*
X189100Y68600D02*
D03*
X195600D02*
D03*
X174500Y40600D02*
D03*
X168000D02*
D03*
X160900D02*
D03*
X154400D02*
D03*
X208749Y388510D02*
D03*
X202249D02*
D03*
X172551Y405390D02*
D03*
X179051D02*
D03*
X171751Y421190D02*
D03*
X178251D02*
D03*
X94700Y406300D02*
D03*
X101200D02*
D03*
X341500Y157000D02*
D03*
X348000D02*
D03*
X341500Y196000D02*
D03*
X348000D02*
D03*
X311500Y157000D02*
D03*
X318000D02*
D03*
X311500Y196000D02*
D03*
X318000D02*
D03*
X161751Y216390D02*
D03*
X168251D02*
D03*
X371500Y196000D02*
D03*
X378000D02*
D03*
X371500Y157000D02*
D03*
X378000D02*
D03*
D124*
X205300Y402181D02*
D03*
D126*
X38700Y240110D02*
D03*
Y253610D02*
D03*
X88700D02*
D03*
Y240110D02*
D03*
X118600Y441100D02*
D03*
Y427600D02*
D03*
X79800D02*
D03*
Y441100D02*
D03*
X122300Y383900D02*
D03*
Y370400D02*
D03*
X56900Y295900D02*
D03*
Y309400D02*
D03*
X256500Y296720D02*
D03*
Y310220D02*
D03*
X127400Y71900D02*
D03*
Y85400D02*
D03*
X61600Y31800D02*
D03*
Y45300D02*
D03*
X118700Y45400D02*
D03*
Y31900D02*
D03*
X127500Y116900D02*
D03*
Y130400D02*
D03*
X186100Y293220D02*
D03*
Y306720D02*
D03*
X189500Y226020D02*
D03*
Y239520D02*
D03*
X150500Y228020D02*
D03*
Y241520D02*
D03*
D127*
X385200Y45900D02*
D03*
Y11900D02*
D03*
Y144400D02*
D03*
Y110400D02*
D03*
Y242800D02*
D03*
Y208800D02*
D03*
Y341200D02*
D03*
Y307200D02*
D03*
Y439600D02*
D03*
Y405600D02*
D03*
Y538100D02*
D03*
Y504100D02*
D03*
D144*
X31400Y396700D02*
D03*
D146*
X11811Y353139D02*
D03*
X283465D02*
D03*
Y179911D02*
D03*
X11811D02*
D03*
D147*
X126150Y195750D02*
D03*
X261900D02*
D03*
X126150Y353250D02*
D03*
X261900D02*
D03*
D148*
X114200Y478000D02*
D03*
Y498000D02*
D03*
X134200D02*
D03*
Y478000D02*
D03*
X264200Y478200D02*
D03*
Y498200D02*
D03*
X284200D02*
D03*
Y478200D02*
D03*
X189200D02*
D03*
Y498200D02*
D03*
X209200D02*
D03*
Y478200D02*
D03*
X39200Y478000D02*
D03*
Y498000D02*
D03*
X59200D02*
D03*
Y478000D02*
D03*
X155500Y7400D02*
D03*
Y27400D02*
D03*
X175500D02*
D03*
Y7400D02*
D03*
X230500D02*
D03*
Y27400D02*
D03*
X250500D02*
D03*
Y7400D02*
D03*
D149*
X124200Y488000D02*
D03*
X274200Y488200D02*
D03*
X199200D02*
D03*
X49200Y488000D02*
D03*
X165500Y17400D02*
D03*
X240500D02*
D03*
D150*
X279500Y528500D02*
D03*
Y58500D02*
D03*
X16000D02*
D03*
Y528500D02*
D03*
D151*
X318000Y186600D02*
D03*
X348000D02*
D03*
X378000D02*
D03*
X15451Y493210D02*
D03*
X28890Y109751D02*
D03*
D152*
X313000Y24000D02*
D03*
X363000D02*
D03*
X313000Y329000D02*
D03*
X363000D02*
D03*
D153*
X196100Y132300D02*
D03*
D154*
X71366Y127063D02*
D03*
Y87693D02*
D03*
D155*
X115000Y161000D02*
D03*
X125000Y164000D02*
D03*
X129000Y213000D02*
D03*
X214000Y73000D02*
D03*
X183000Y72000D02*
D03*
X162000D02*
D03*
X233000Y75500D02*
D03*
X231152Y85076D02*
D03*
X235160Y138803D02*
D03*
X243945Y113587D02*
D03*
X251945Y127087D02*
D03*
X263500Y190000D02*
D03*
X263200Y178000D02*
D03*
X243716Y147716D02*
D03*
X253640Y141607D02*
D03*
X262196Y150520D02*
D03*
X274000Y170000D02*
D03*
Y180000D02*
D03*
X270751Y159433D02*
D03*
X259771Y164129D02*
D03*
X252271Y156629D02*
D03*
X282000Y340000D02*
D03*
X267500Y202500D02*
D03*
X275000Y330000D02*
D03*
Y320000D02*
D03*
Y280000D02*
D03*
Y290000D02*
D03*
Y300000D02*
D03*
Y310000D02*
D03*
Y270000D02*
D03*
Y260000D02*
D03*
Y250000D02*
D03*
Y240000D02*
D03*
Y230000D02*
D03*
Y220000D02*
D03*
Y210000D02*
D03*
Y190000D02*
D03*
X282500Y197500D02*
D03*
X287500Y220000D02*
D03*
Y210000D02*
D03*
Y270000D02*
D03*
Y260000D02*
D03*
Y250000D02*
D03*
Y240000D02*
D03*
Y230000D02*
D03*
Y280000D02*
D03*
Y290000D02*
D03*
Y300000D02*
D03*
Y310000D02*
D03*
Y320000D02*
D03*
Y330000D02*
D03*
X183500Y224000D02*
D03*
X194200Y85500D02*
D03*
X156500Y254300D02*
D03*
X161500D02*
D03*
X166500D02*
D03*
X171500D02*
D03*
X156500Y249300D02*
D03*
X161500D02*
D03*
X166500D02*
D03*
X171500D02*
D03*
X151500D02*
D03*
Y254300D02*
D03*
X170000Y244300D02*
D03*
X165000D02*
D03*
X160000D02*
D03*
X126000Y297000D02*
D03*
X73000Y316000D02*
D03*
X89500Y129500D02*
D03*
X78000Y160500D02*
D03*
X83000D02*
D03*
X88000D02*
D03*
X69500Y180500D02*
D03*
Y175500D02*
D03*
Y170500D02*
D03*
Y165500D02*
D03*
X99500D02*
D03*
X94500D02*
D03*
X89500D02*
D03*
X84500D02*
D03*
X79500D02*
D03*
X74500D02*
D03*
X99500Y170500D02*
D03*
X94500D02*
D03*
X89500D02*
D03*
X84500D02*
D03*
X79500D02*
D03*
X74500D02*
D03*
X99500Y175500D02*
D03*
X94500D02*
D03*
X89500D02*
D03*
X84500D02*
D03*
X79500D02*
D03*
X74500D02*
D03*
X99500Y180500D02*
D03*
X94500D02*
D03*
X89500D02*
D03*
X84500D02*
D03*
X79500D02*
D03*
X74500D02*
D03*
X96457Y150563D02*
D03*
X246500Y46000D02*
D03*
X188000Y45500D02*
D03*
X257000Y47000D02*
D03*
X144507Y47727D02*
D03*
X199493Y47373D02*
D03*
X201000Y54000D02*
D03*
X158500Y72000D02*
D03*
X204927Y70993D02*
D03*
X263280Y418498D02*
D03*
X268500Y423500D02*
D03*
X251500Y71400D02*
D03*
X151800Y38000D02*
D03*
X217000D02*
D03*
X196500Y71500D02*
D03*
X185714Y80504D02*
D03*
X227600Y90500D02*
D03*
X206600D02*
D03*
X164800Y90400D02*
D03*
X184000Y90500D02*
D03*
X163008Y133500D02*
D03*
X148500Y111611D02*
D03*
X5000Y363500D02*
D03*
X10000D02*
D03*
X15000D02*
D03*
X20000D02*
D03*
X25000D02*
D03*
X30000D02*
D03*
X35000D02*
D03*
X40000D02*
D03*
X45000D02*
D03*
X50000D02*
D03*
X55000D02*
D03*
X5000Y368500D02*
D03*
X10000D02*
D03*
X15000D02*
D03*
X20000D02*
D03*
X25000D02*
D03*
X30000D02*
D03*
X35000D02*
D03*
X40000D02*
D03*
X45000D02*
D03*
X50000D02*
D03*
X55000D02*
D03*
X5000Y373500D02*
D03*
X10000D02*
D03*
X15000D02*
D03*
X20000D02*
D03*
X25000D02*
D03*
X30000D02*
D03*
X35000D02*
D03*
X40000D02*
D03*
X45000D02*
D03*
X50000D02*
D03*
X55000D02*
D03*
X5000Y378500D02*
D03*
X10000D02*
D03*
X15000D02*
D03*
X20000D02*
D03*
X25000D02*
D03*
X30000D02*
D03*
X35000D02*
D03*
X40000D02*
D03*
X45000D02*
D03*
X50000D02*
D03*
X55000D02*
D03*
X5000Y383500D02*
D03*
X10000D02*
D03*
X15000D02*
D03*
X20000D02*
D03*
X25000D02*
D03*
X30000D02*
D03*
X35000D02*
D03*
X40000D02*
D03*
X45000D02*
D03*
X50000D02*
D03*
X55000D02*
D03*
X5000Y388500D02*
D03*
X10000D02*
D03*
X15000D02*
D03*
X20000D02*
D03*
X25000D02*
D03*
X30000D02*
D03*
X35000D02*
D03*
X40000D02*
D03*
X45000D02*
D03*
X50000D02*
D03*
X55000D02*
D03*
X5000Y393500D02*
D03*
X10000D02*
D03*
X15000D02*
D03*
X20000D02*
D03*
X25000D02*
D03*
X30000D02*
D03*
X35000D02*
D03*
X40000D02*
D03*
X45000D02*
D03*
X50000D02*
D03*
X55000D02*
D03*
X5000Y398500D02*
D03*
X10000D02*
D03*
X15000D02*
D03*
X20000D02*
D03*
X25000D02*
D03*
X30000D02*
D03*
X35000D02*
D03*
X40000D02*
D03*
X45000D02*
D03*
X50000D02*
D03*
X55000D02*
D03*
X5000Y403500D02*
D03*
X10000D02*
D03*
X15000D02*
D03*
X20000D02*
D03*
X25000D02*
D03*
X30000D02*
D03*
X35000D02*
D03*
X40000D02*
D03*
X45000D02*
D03*
X50000D02*
D03*
X55000D02*
D03*
Y408500D02*
D03*
X50000D02*
D03*
X45000D02*
D03*
X40000D02*
D03*
X35000D02*
D03*
X30000D02*
D03*
X25000D02*
D03*
X20000D02*
D03*
X15000D02*
D03*
X10000D02*
D03*
X5000D02*
D03*
X69700Y410900D02*
D03*
X102600Y403600D02*
D03*
X94700D02*
D03*
X79000Y414000D02*
D03*
X83500Y408500D02*
D03*
X123000Y424000D02*
D03*
X84349Y432149D02*
D03*
X115500Y445500D02*
D03*
X87000Y420500D02*
D03*
X91000Y382000D02*
D03*
X106000Y382500D02*
D03*
X101500Y381000D02*
D03*
X92000Y366000D02*
D03*
X96000Y459500D02*
D03*
X90000Y460000D02*
D03*
X75000Y420000D02*
D03*
X218000Y323800D02*
D03*
X185000D02*
D03*
X87000Y372500D02*
D03*
X86500Y394000D02*
D03*
X57000Y450000D02*
D03*
X62500Y461000D02*
D03*
X139500Y452931D02*
D03*
X118000Y453000D02*
D03*
X112000Y436500D02*
D03*
X116000Y421500D02*
D03*
X113000Y431500D02*
D03*
X110000Y457500D02*
D03*
X86000Y449000D02*
D03*
X116400Y373000D02*
D03*
X110500Y382000D02*
D03*
X194200Y154100D02*
D03*
X197600Y465600D02*
D03*
X178825Y441020D02*
D03*
X235900Y453300D02*
D03*
X231622Y441231D02*
D03*
X218112Y454256D02*
D03*
X214800Y452100D02*
D03*
X163796Y426496D02*
D03*
X196000Y451400D02*
D03*
X192388Y453956D02*
D03*
X167326Y387457D02*
D03*
X197100Y150000D02*
D03*
X157019Y52157D02*
D03*
Y48256D02*
D03*
X219000Y439462D02*
D03*
X236100Y433000D02*
D03*
X240000Y437200D02*
D03*
X195974Y94974D02*
D03*
X232852Y80600D02*
D03*
X185448Y48084D02*
D03*
X214379Y48784D02*
D03*
Y52385D02*
D03*
X242707Y48184D02*
D03*
X127734Y390166D02*
D03*
Y383834D02*
D03*
Y377603D02*
D03*
X127949Y396297D02*
D03*
X181300Y417500D02*
D03*
Y410500D02*
D03*
X193300Y417000D02*
D03*
X197988Y418000D02*
D03*
X203894D02*
D03*
X189673Y403510D02*
D03*
X189173Y408000D02*
D03*
X221300D02*
D03*
X220800Y403510D02*
D03*
X212900Y409800D02*
D03*
X197700D02*
D03*
X203100D02*
D03*
X208000D02*
D03*
X209799Y418000D02*
D03*
X215705Y417000D02*
D03*
X189800Y426000D02*
D03*
X221173D02*
D03*
X199300Y444500D02*
D03*
X210800D02*
D03*
X227900Y428000D02*
D03*
X182200Y428008D02*
D03*
X181300Y407000D02*
D03*
Y421058D02*
D03*
X207482Y385754D02*
D03*
X240004Y421596D02*
D03*
X203600Y385800D02*
D03*
X169700Y418700D02*
D03*
X171349Y402810D02*
D03*
X194900Y167200D02*
D03*
X150000Y102000D02*
D03*
X69700Y403800D02*
D03*
X174800Y431900D02*
D03*
X137200Y468000D02*
D03*
X116100Y361000D02*
D03*
X154800Y276700D02*
D03*
X179320Y291200D02*
D03*
X206900Y311400D02*
D03*
X251300Y292000D02*
D03*
X213800Y276700D02*
D03*
X238100Y272180D02*
D03*
X170600Y271700D02*
D03*
X204400Y250700D02*
D03*
X181100Y234500D02*
D03*
X212000Y212500D02*
D03*
X132800Y220900D02*
D03*
X148100Y223100D02*
D03*
X170700Y212900D02*
D03*
X85100Y233900D02*
D03*
X34200Y233700D02*
D03*
X39400Y270600D02*
D03*
X13800Y276500D02*
D03*
X51200Y292000D02*
D03*
X5600Y315500D02*
D03*
X41100Y169900D02*
D03*
X59100Y134100D02*
D03*
X128500Y151600D02*
D03*
X123100Y110200D02*
D03*
X123700Y65100D02*
D03*
X114300Y25100D02*
D03*
X57900D02*
D03*
X184700Y363800D02*
D03*
X216500Y364000D02*
D03*
X135300Y311140D02*
D03*
X149850Y327600D02*
D03*
X130950D02*
D03*
X254100Y326800D02*
D03*
X130950Y205400D02*
D03*
X150050D02*
D03*
X149850Y170100D02*
D03*
X185900D02*
D03*
X219200Y170500D02*
D03*
X253950Y170100D02*
D03*
X176500Y249300D02*
D03*
Y254300D02*
D03*
X191100Y141500D02*
D03*
X196100D02*
D03*
X201100D02*
D03*
X206100D02*
D03*
X186100D02*
D03*
Y123100D02*
D03*
X206100D02*
D03*
X201100D02*
D03*
X196100D02*
D03*
X191100D02*
D03*
X186100Y127100D02*
D03*
X206100D02*
D03*
X201100D02*
D03*
X196100D02*
D03*
X191100D02*
D03*
Y137500D02*
D03*
X196100D02*
D03*
X201100D02*
D03*
X206100D02*
D03*
X186100D02*
D03*
X191100Y132300D02*
D03*
X186100D02*
D03*
X201100D02*
D03*
X206100D02*
D03*
X208000Y394562D02*
D03*
X203100D02*
D03*
X197700D02*
D03*
X212900D02*
D03*
Y404900D02*
D03*
Y400000D02*
D03*
X197700Y404900D02*
D03*
Y400000D02*
D03*
X223000Y435100D02*
D03*
X249800Y426100D02*
D03*
X143500Y445500D02*
D03*
X145000Y433820D02*
D03*
X147400Y71900D02*
D03*
X146700Y93300D02*
D03*
X143500Y80500D02*
D03*
X146300Y327500D02*
D03*
X142750D02*
D03*
X139200D02*
D03*
X135300D02*
D03*
X135750Y363400D02*
D03*
X145200D02*
D03*
X132500Y170200D02*
D03*
X145200D02*
D03*
X146600Y205400D02*
D03*
X150000Y63000D02*
D03*
X146571Y58100D02*
D03*
X150200Y55103D02*
D03*
X183500Y57500D02*
D03*
X236500Y170000D02*
D03*
X242800D02*
D03*
X239650Y167500D02*
D03*
X245950D02*
D03*
X259500Y278900D02*
D03*
X253000Y429100D02*
D03*
X263074Y278850D02*
D03*
X198500Y459000D02*
D03*
X262913Y275175D02*
D03*
X201600Y462100D02*
D03*
X266470Y275130D02*
D03*
X203200Y466000D02*
D03*
X251050Y279000D02*
D03*
X240225Y409413D02*
D03*
X247450Y278900D02*
D03*
X236550Y409574D02*
D03*
X247200Y283000D02*
D03*
X236500Y406000D02*
D03*
X250950Y275130D02*
D03*
X240270Y412970D02*
D03*
X254600Y275130D02*
D03*
X243945Y412809D02*
D03*
X375000Y538100D02*
D03*
Y504100D02*
D03*
Y439600D02*
D03*
Y405600D02*
D03*
Y341200D02*
D03*
Y307200D02*
D03*
Y242800D02*
D03*
Y208800D02*
D03*
Y144400D02*
D03*
Y110400D02*
D03*
Y45900D02*
D03*
Y11900D02*
D03*
X355500Y81000D02*
D03*
X345500D02*
D03*
X335500D02*
D03*
X325500D02*
D03*
X317000Y113000D02*
D03*
X333000D02*
D03*
X350000D02*
D03*
X366000D02*
D03*
X317000Y91000D02*
D03*
X333000D02*
D03*
X350000D02*
D03*
X366000D02*
D03*
X350500Y272000D02*
D03*
X340500D02*
D03*
X330500D02*
D03*
X320500D02*
D03*
X359000Y240000D02*
D03*
X343000D02*
D03*
X326000D02*
D03*
X310000D02*
D03*
X359000Y262000D02*
D03*
X343000D02*
D03*
X326000D02*
D03*
X310000D02*
D03*
X249150Y170000D02*
D03*
X310000Y119000D02*
D03*
X326000D02*
D03*
X342000D02*
D03*
X358000D02*
D03*
X375000Y32000D02*
D03*
Y130500D02*
D03*
X215200Y170500D02*
D03*
X255450Y206000D02*
D03*
X252300Y209000D02*
D03*
X249150Y206000D02*
D03*
X245950Y209000D02*
D03*
X242863Y206000D02*
D03*
X239700Y209000D02*
D03*
X236550Y206000D02*
D03*
X318000Y234000D02*
D03*
X334000D02*
D03*
X350000D02*
D03*
X366000D02*
D03*
X230250Y206000D02*
D03*
X227100Y209000D02*
D03*
X224000Y206000D02*
D03*
X220800Y209000D02*
D03*
X233400D02*
D03*
X228000Y221000D02*
D03*
X225000Y224000D02*
D03*
X375000Y223000D02*
D03*
Y420000D02*
D03*
Y518000D02*
D03*
Y321000D02*
D03*
X29000Y423000D02*
D03*
D156*
X216800Y134700D02*
D03*
X215000Y131500D02*
D03*
X219000Y130500D02*
D03*
X190030Y207666D02*
D03*
X193365D02*
D03*
X196700D02*
D03*
X188143Y375900D02*
D03*
X189343Y372200D02*
D03*
X223696D02*
D03*
X224896Y375900D02*
D03*
X224100Y326750D02*
D03*
X227600D02*
D03*
X220754D02*
D03*
X215200D02*
D03*
X208350D02*
D03*
X211850D02*
D03*
X209885Y372200D02*
D03*
X211085Y375900D02*
D03*
X188798Y324727D02*
D03*
X178416Y120000D02*
D03*
X160358Y85176D02*
D03*
X184800D02*
D03*
X192200Y91200D02*
D03*
X206524Y78256D02*
D03*
X207524Y85076D02*
D03*
X206200Y81800D02*
D03*
X145000Y387200D02*
D03*
X168300Y109300D02*
D03*
X221800Y108000D02*
D03*
X159600Y81800D02*
D03*
X164502Y40695D02*
D03*
X229673D02*
D03*
X229400Y389100D02*
D03*
X233000D02*
D03*
X236400Y326750D02*
D03*
X239900D02*
D03*
X243300Y326589D02*
D03*
X229200Y397738D02*
D03*
X232700Y399538D02*
D03*
X246800Y326589D02*
D03*
X191273Y327202D02*
D03*
X202011Y372200D02*
D03*
X202377Y323400D02*
D03*
X205277Y325100D02*
D03*
X203211Y375900D02*
D03*
X195337D02*
D03*
X196800Y327200D02*
D03*
X194060Y372198D02*
D03*
X199352Y324927D02*
D03*
X217759Y372200D02*
D03*
X218959Y375900D02*
D03*
X199748Y91200D02*
D03*
X159600Y78256D02*
D03*
X214600Y63100D02*
D03*
X164995Y207100D02*
D03*
X160900D02*
D03*
X212000Y60100D02*
D03*
X157400Y207100D02*
D03*
X209300Y56600D02*
D03*
X153900Y207100D02*
D03*
X183500Y326750D02*
D03*
X182300Y375900D02*
D03*
X180000Y326750D02*
D03*
X181100Y372200D02*
D03*
D157*
X102000Y159000D02*
D03*
X56900Y323400D02*
D03*
X108000Y311000D02*
D03*
X91100Y328700D02*
D03*
X127500Y139300D02*
D03*
X88200Y263110D02*
D03*
X38200D02*
D03*
X127400Y94300D02*
D03*
X70500Y45300D02*
D03*
X127600Y45400D02*
D03*
X201900Y211600D02*
D03*
X195000Y306720D02*
D03*
X256500Y319120D02*
D03*
X41100Y160500D02*
D03*
X121200Y241520D02*
D03*
X9700Y262510D02*
D03*
X59700D02*
D03*
X133100Y297000D02*
D03*
X108000Y271100D02*
D03*
X91000Y290100D02*
D03*
X203800Y297320D02*
D03*
X11000Y304900D02*
D03*
X89500Y85400D02*
D03*
X27400Y40000D02*
D03*
X82400Y45500D02*
D03*
X78000Y341000D02*
D03*
D158*
X164300Y251850D02*
D03*
D159*
X164800Y244300D02*
D03*
D160*
X25200Y240110D02*
D03*
Y253610D02*
D03*
X9700D02*
D03*
Y240110D02*
D03*
X75200D02*
D03*
Y253610D02*
D03*
X59700D02*
D03*
Y240110D02*
D03*
X114000Y116900D02*
D03*
Y130400D02*
D03*
X98500D02*
D03*
Y116900D02*
D03*
X105200Y31900D02*
D03*
Y45400D02*
D03*
X89700D02*
D03*
Y31900D02*
D03*
X48100Y31800D02*
D03*
Y45300D02*
D03*
X32600D02*
D03*
Y31800D02*
D03*
X113900Y71900D02*
D03*
Y85400D02*
D03*
X98400D02*
D03*
Y71900D02*
D03*
X65800Y146900D02*
D03*
Y160400D02*
D03*
X50000Y160500D02*
D03*
Y147000D02*
D03*
D161*
X180600Y49569D02*
D03*
X161900Y53506D02*
D03*
Y49569D02*
D03*
Y51537D02*
D03*
X180600D02*
D03*
Y47600D02*
D03*
Y53506D02*
D03*
Y55506D02*
D03*
X161900D02*
D03*
X219100D02*
D03*
X237800D02*
D03*
Y53506D02*
D03*
Y47600D02*
D03*
Y51537D02*
D03*
X219100D02*
D03*
Y49569D02*
D03*
Y53506D02*
D03*
X237800Y49569D02*
D03*
D162*
X161900Y47600D02*
D03*
X219100D02*
D03*
D163*
X21900Y297500D02*
D03*
Y288500D02*
D03*
X11600D02*
D03*
Y297500D02*
D03*
X23800Y421200D02*
D03*
Y430200D02*
D03*
X150600Y297220D02*
D03*
Y288220D02*
D03*
X141300Y288320D02*
D03*
Y297320D02*
D03*
X222000Y297220D02*
D03*
Y288220D02*
D03*
X212700Y288320D02*
D03*
Y297320D02*
D03*
X140400Y241520D02*
D03*
Y232520D02*
D03*
X130100D02*
D03*
Y241520D02*
D03*
D164*
X233215Y436669D02*
D03*
X222776Y452676D02*
D03*
X219992Y449892D02*
D03*
X221384Y451284D02*
D03*
X234607Y438061D02*
D03*
X231823Y435277D02*
D03*
X235999Y439453D02*
D03*
X237413Y440867D02*
D03*
X224190Y454090D02*
D03*
D165*
X218600Y448500D02*
D03*
D166*
X172456Y79785D02*
D03*
X219565D02*
D03*
D167*
X50000Y427000D02*
D03*
Y456000D02*
D03*
M02*
