%FSLAX25Y25*%
%MOIN*%
G70*
G01*
G75*
G04 Layer_Color=16711935*
%ADD10C,0.01000*%
%ADD11C,0.01100*%
%ADD12C,0.00900*%
%ADD13C,0.01500*%
%ADD14C,0.01600*%
%ADD15C,0.01063*%
%ADD16C,0.01400*%
%ADD17R,0.03500X0.10000*%
%ADD18R,0.30000X0.30000*%
%ADD19R,0.10827X0.03937*%
%ADD20R,0.02000X0.05200*%
G04:AMPARAMS|DCode=21|XSize=47.24mil|YSize=11.81mil|CornerRadius=0mil|HoleSize=0mil|Usage=FLASHONLY|Rotation=225.000|XOffset=0mil|YOffset=0mil|HoleType=Round|Shape=Round|*
%AMOVALD21*
21,1,0.03543,0.01181,0.00000,0.00000,225.0*
1,1,0.01181,0.01253,0.01253*
1,1,0.01181,-0.01253,-0.01253*
%
%ADD21OVALD21*%

G04:AMPARAMS|DCode=22|XSize=47.24mil|YSize=11.81mil|CornerRadius=0mil|HoleSize=0mil|Usage=FLASHONLY|Rotation=225.000|XOffset=0mil|YOffset=0mil|HoleType=Round|Shape=Rectangle|*
%AMROTATEDRECTD22*
4,1,4,0.01253,0.02088,0.02088,0.01253,-0.01253,-0.02088,-0.02088,-0.01253,0.01253,0.02088,0.0*
%
%ADD22ROTATEDRECTD22*%

G04:AMPARAMS|DCode=23|XSize=39.37mil|YSize=19.69mil|CornerRadius=0mil|HoleSize=0mil|Usage=FLASHONLY|Rotation=45.000|XOffset=0mil|YOffset=0mil|HoleType=Round|Shape=Rectangle|*
%AMROTATEDRECTD23*
4,1,4,-0.00696,-0.02088,-0.02088,-0.00696,0.00696,0.02088,0.02088,0.00696,-0.00696,-0.02088,0.0*
%
%ADD23ROTATEDRECTD23*%

%ADD24R,0.02000X0.01000*%
%ADD25R,0.01000X0.02000*%
%ADD26R,0.01063X0.03150*%
%ADD27R,0.03150X0.01063*%
%ADD28R,0.01181X0.02362*%
%ADD29R,0.06000X0.05000*%
%ADD30R,0.06000X0.02000*%
%ADD31O,0.06000X0.02000*%
%ADD32O,0.06000X0.01500*%
%ADD33R,0.06000X0.01500*%
%ADD34R,0.01200X0.06000*%
%ADD35O,0.01200X0.06000*%
%ADD36R,0.01800X0.05700*%
%ADD37R,0.06000X0.06000*%
%ADD38R,0.20000X0.09000*%
%ADD39R,0.24500X0.13000*%
%ADD40R,0.02200X0.10000*%
%ADD41R,0.03000X0.04000*%
%ADD42R,0.04000X0.03000*%
%ADD43R,0.06000X0.06000*%
G04:AMPARAMS|DCode=44|XSize=40mil|YSize=30mil|CornerRadius=0mil|HoleSize=0mil|Usage=FLASHONLY|Rotation=45.000|XOffset=0mil|YOffset=0mil|HoleType=Round|Shape=Rectangle|*
%AMROTATEDRECTD44*
4,1,4,-0.00354,-0.02475,-0.02475,-0.00354,0.00354,0.02475,0.02475,0.00354,-0.00354,-0.02475,0.0*
%
%ADD44ROTATEDRECTD44*%

%ADD45P,0.08485X4X90.0*%
G04:AMPARAMS|DCode=46|XSize=40mil|YSize=30mil|CornerRadius=0mil|HoleSize=0mil|Usage=FLASHONLY|Rotation=135.000|XOffset=0mil|YOffset=0mil|HoleType=Round|Shape=Rectangle|*
%AMROTATEDRECTD46*
4,1,4,0.02475,-0.00354,0.00354,-0.02475,-0.02475,0.00354,-0.00354,0.02475,0.02475,-0.00354,0.0*
%
%ADD46ROTATEDRECTD46*%

%ADD47R,0.18504X0.18504*%
%ADD48C,0.00800*%
%ADD49C,0.00600*%
%ADD50C,0.02800*%
%ADD51C,0.02000*%
%ADD52C,0.01200*%
%ADD53C,0.00700*%
%ADD54R,0.22500X0.25500*%
%ADD55R,0.55000X0.49000*%
%ADD56R,0.14500X0.19000*%
%ADD57R,0.28500X0.08000*%
%ADD58R,0.13500X0.07500*%
%ADD59C,0.08000*%
%ADD60R,0.10000X0.10000*%
%ADD61C,0.04000*%
%ADD62C,0.05800*%
%ADD63R,0.05800X0.05800*%
G04:AMPARAMS|DCode=64|XSize=212.99mil|YSize=253.94mil|CornerRadius=10.65mil|HoleSize=0mil|Usage=FLASHONLY|Rotation=90.000|XOffset=0mil|YOffset=0mil|HoleType=Round|Shape=RoundedRectangle|*
%AMROUNDEDRECTD64*
21,1,0.21299,0.23264,0,0,90.0*
21,1,0.19169,0.25394,0,0,90.0*
1,1,0.02130,0.11632,0.09585*
1,1,0.02130,0.11632,-0.09585*
1,1,0.02130,-0.11632,-0.09585*
1,1,0.02130,-0.11632,0.09585*
%
%ADD64ROUNDEDRECTD64*%
%ADD65C,0.02000*%
%ADD66C,0.10600*%
%ADD67C,0.12000*%
%ADD68C,0.12500*%
%ADD69C,0.02800*%
%ADD70C,0.03800*%
%ADD71C,0.03500*%
%ADD72C,0.02600*%
%ADD73C,0.04000*%
%ADD74C,0.03300*%
%ADD75C,0.00400*%
G04:AMPARAMS|DCode=76|XSize=235mil|YSize=140mil|CornerRadius=0mil|HoleSize=0mil|Usage=FLASHONLY|Rotation=135.000|XOffset=0mil|YOffset=0mil|HoleType=Round|Shape=Rectangle|*
%AMROTATEDRECTD76*
4,1,4,0.13258,-0.03359,0.03359,-0.13258,-0.13258,0.03359,-0.03359,0.13258,0.13258,-0.03359,0.0*
%
%ADD76ROTATEDRECTD76*%

G04:AMPARAMS|DCode=77|XSize=89.4mil|YSize=59.42mil|CornerRadius=0mil|HoleSize=0mil|Usage=FLASHONLY|Rotation=135.000|XOffset=0mil|YOffset=0mil|HoleType=Round|Shape=Rectangle|*
%AMROTATEDRECTD77*
4,1,4,0.05262,-0.01060,0.01060,-0.05262,-0.05262,0.01060,-0.01060,0.05262,0.05262,-0.01060,0.0*
%
%ADD77ROTATEDRECTD77*%

G04:AMPARAMS|DCode=78|XSize=188.32mil|YSize=137.38mil|CornerRadius=0mil|HoleSize=0mil|Usage=FLASHONLY|Rotation=45.000|XOffset=0mil|YOffset=0mil|HoleType=Round|Shape=Rectangle|*
%AMROTATEDRECTD78*
4,1,4,-0.01801,-0.11515,-0.11515,-0.01801,0.01801,0.11515,0.11515,0.01801,-0.01801,-0.11515,0.0*
%
%ADD78ROTATEDRECTD78*%

%ADD79R,0.05000X0.09500*%
%ADD80R,0.12000X0.14000*%
%ADD81R,0.12000X0.14500*%
%ADD82R,0.23500X0.14000*%
%ADD83R,0.12199X0.01800*%
%ADD84C,0.07600*%
%ADD85C,0.06400*%
%ADD86C,0.06600*%
%ADD87C,0.13000*%
%ADD88C,0.06200*%
%ADD89C,0.14400*%
%ADD90C,0.14900*%
%ADD91C,0.03600*%
%ADD92C,0.03900*%
%ADD93C,0.09400*%
%ADD94C,0.06800*%
%ADD95C,0.00900*%
%ADD96C,0.01200*%
%ADD97R,0.10000X0.15400*%
%ADD98R,0.10000X0.06000*%
%ADD99R,0.08100X0.08100*%
G04:AMPARAMS|DCode=100|XSize=47.24mil|YSize=11.81mil|CornerRadius=0mil|HoleSize=0mil|Usage=FLASHONLY|Rotation=315.000|XOffset=0mil|YOffset=0mil|HoleType=Round|Shape=Round|*
%AMOVALD100*
21,1,0.03543,0.01181,0.00000,0.00000,315.0*
1,1,0.01181,-0.01253,0.01253*
1,1,0.01181,0.01253,-0.01253*
%
%ADD100OVALD100*%

G04:AMPARAMS|DCode=101|XSize=47.24mil|YSize=11.81mil|CornerRadius=0mil|HoleSize=0mil|Usage=FLASHONLY|Rotation=315.000|XOffset=0mil|YOffset=0mil|HoleType=Round|Shape=Rectangle|*
%AMROTATEDRECTD101*
4,1,4,-0.02088,0.01253,-0.01253,0.02088,0.02088,-0.01253,0.01253,-0.02088,-0.02088,0.01253,0.0*
%
%ADD101ROTATEDRECTD101*%

%ADD102O,0.04724X0.01181*%
%ADD103R,0.04724X0.01181*%
%ADD104R,0.05000X0.06000*%
%ADD105C,0.03000*%
%ADD106R,0.15500X0.08500*%
%ADD107R,0.22500X0.17000*%
%ADD108R,0.12000X0.19000*%
%ADD109C,0.01181*%
%ADD110R,0.75000X0.15100*%
%ADD111R,0.34000X0.19000*%
%ADD112R,0.22500X0.06500*%
%ADD113R,0.13500X0.07000*%
%ADD114R,0.03900X0.10400*%
%ADD115R,0.30400X0.30400*%
%ADD116R,0.11227X0.04337*%
%ADD117R,0.02400X0.05600*%
G04:AMPARAMS|DCode=118|XSize=51.24mil|YSize=15.81mil|CornerRadius=0mil|HoleSize=0mil|Usage=FLASHONLY|Rotation=225.000|XOffset=0mil|YOffset=0mil|HoleType=Round|Shape=Round|*
%AMOVALD118*
21,1,0.03543,0.01581,0.00000,0.00000,225.0*
1,1,0.01581,0.01253,0.01253*
1,1,0.01581,-0.01253,-0.01253*
%
%ADD118OVALD118*%

G04:AMPARAMS|DCode=119|XSize=51.24mil|YSize=15.81mil|CornerRadius=0mil|HoleSize=0mil|Usage=FLASHONLY|Rotation=225.000|XOffset=0mil|YOffset=0mil|HoleType=Round|Shape=Rectangle|*
%AMROTATEDRECTD119*
4,1,4,0.01253,0.02371,0.02371,0.01253,-0.01253,-0.02371,-0.02371,-0.01253,0.01253,0.02371,0.0*
%
%ADD119ROTATEDRECTD119*%

G04:AMPARAMS|DCode=120|XSize=43.37mil|YSize=23.69mil|CornerRadius=0mil|HoleSize=0mil|Usage=FLASHONLY|Rotation=45.000|XOffset=0mil|YOffset=0mil|HoleType=Round|Shape=Rectangle|*
%AMROTATEDRECTD120*
4,1,4,-0.00696,-0.02371,-0.02371,-0.00696,0.00696,0.02371,0.02371,0.00696,-0.00696,-0.02371,0.0*
%
%ADD120ROTATEDRECTD120*%

%ADD121R,0.02400X0.01400*%
%ADD122R,0.01400X0.02400*%
%ADD123R,0.01463X0.03550*%
%ADD124R,0.03550X0.01463*%
%ADD125R,0.01581X0.02762*%
%ADD126R,0.06400X0.05400*%
%ADD127R,0.06400X0.02400*%
%ADD128O,0.06400X0.02400*%
%ADD129O,0.06400X0.01900*%
%ADD130R,0.06400X0.01900*%
%ADD131R,0.01600X0.06400*%
%ADD132O,0.01600X0.06400*%
%ADD133R,0.02400X0.06300*%
%ADD134R,0.06400X0.06400*%
%ADD135R,0.20400X0.09400*%
%ADD136R,0.24900X0.13400*%
%ADD137R,0.02600X0.10400*%
%ADD138R,0.03400X0.04400*%
%ADD139R,0.04400X0.03400*%
%ADD140R,0.06400X0.06400*%
G04:AMPARAMS|DCode=141|XSize=44mil|YSize=34mil|CornerRadius=0mil|HoleSize=0mil|Usage=FLASHONLY|Rotation=45.000|XOffset=0mil|YOffset=0mil|HoleType=Round|Shape=Rectangle|*
%AMROTATEDRECTD141*
4,1,4,-0.00354,-0.02758,-0.02758,-0.00354,0.00354,0.02758,0.02758,0.00354,-0.00354,-0.02758,0.0*
%
%ADD141ROTATEDRECTD141*%

%ADD142P,0.09051X4X90.0*%
G04:AMPARAMS|DCode=143|XSize=44mil|YSize=34mil|CornerRadius=0mil|HoleSize=0mil|Usage=FLASHONLY|Rotation=135.000|XOffset=0mil|YOffset=0mil|HoleType=Round|Shape=Rectangle|*
%AMROTATEDRECTD143*
4,1,4,0.02758,-0.00354,0.00354,-0.02758,-0.02758,0.00354,-0.00354,0.02758,0.02758,-0.00354,0.0*
%
%ADD143ROTATEDRECTD143*%

%ADD144R,0.18904X0.18904*%
%ADD145C,0.08400*%
%ADD146R,0.10400X0.10400*%
%ADD147C,0.04400*%
%ADD148R,0.06200X0.06200*%
G04:AMPARAMS|DCode=149|XSize=216.99mil|YSize=257.94mil|CornerRadius=12.65mil|HoleSize=0mil|Usage=FLASHONLY|Rotation=90.000|XOffset=0mil|YOffset=0mil|HoleType=Round|Shape=RoundedRectangle|*
%AMROUNDEDRECTD149*
21,1,0.21699,0.23264,0,0,90.0*
21,1,0.19169,0.25794,0,0,90.0*
1,1,0.02530,0.11632,0.09585*
1,1,0.02530,0.11632,-0.09585*
1,1,0.02530,-0.11632,-0.09585*
1,1,0.02530,-0.11632,0.09585*
%
%ADD149ROUNDEDRECTD149*%
%ADD150C,0.06000*%
%ADD151C,0.11000*%
%ADD152C,0.12400*%
%ADD153C,0.12900*%
%ADD154C,0.03200*%
%ADD155C,0.04200*%
%ADD156C,0.03000*%
%ADD157R,0.14000X0.07200*%
%ADD158R,0.29000X0.08500*%
%ADD159R,0.10400X0.15800*%
%ADD160R,0.10400X0.06400*%
%ADD161R,0.08500X0.08500*%
G04:AMPARAMS|DCode=162|XSize=51.24mil|YSize=15.81mil|CornerRadius=0mil|HoleSize=0mil|Usage=FLASHONLY|Rotation=315.000|XOffset=0mil|YOffset=0mil|HoleType=Round|Shape=Round|*
%AMOVALD162*
21,1,0.03543,0.01581,0.00000,0.00000,315.0*
1,1,0.01581,-0.01253,0.01253*
1,1,0.01581,0.01253,-0.01253*
%
%ADD162OVALD162*%

G04:AMPARAMS|DCode=163|XSize=51.24mil|YSize=15.81mil|CornerRadius=0mil|HoleSize=0mil|Usage=FLASHONLY|Rotation=315.000|XOffset=0mil|YOffset=0mil|HoleType=Round|Shape=Rectangle|*
%AMROTATEDRECTD163*
4,1,4,-0.02371,0.01253,-0.01253,0.02371,0.02371,-0.01253,0.01253,-0.02371,-0.02371,0.01253,0.0*
%
%ADD163ROTATEDRECTD163*%

%ADD164O,0.05124X0.01581*%
%ADD165R,0.05124X0.01581*%
%ADD166R,0.05400X0.06400*%
D48*
X400000Y-0D02*
Y550000D01*
X119300D02*
X400000D01*
X0Y168100D02*
Y364950D01*
X75300Y-0D02*
X400000D01*
X0D02*
Y168100D01*
Y-0D02*
X75300D01*
X0Y550000D02*
X119300D01*
X0Y364950D02*
Y550000D01*
D55*
X30000Y385500D02*
D03*
D88*
X28890Y99751D02*
D03*
Y89751D02*
D03*
Y79751D02*
D03*
X15451Y483210D02*
D03*
X378000Y166600D02*
D03*
Y176600D02*
D03*
X348000Y166600D02*
D03*
Y176600D02*
D03*
X318000Y166600D02*
D03*
Y176600D02*
D03*
X205300Y402181D02*
D03*
D92*
X31500Y448000D02*
D03*
X29000Y430200D02*
D03*
D111*
X84500Y173000D02*
D03*
D112*
X78750Y160250D02*
D03*
D115*
X31400Y396700D02*
D03*
D126*
X108000Y280000D02*
D03*
X117000D02*
D03*
Y290500D02*
D03*
X108000D02*
D03*
X91000Y299000D02*
D03*
X82000D02*
D03*
Y309500D02*
D03*
X91000D02*
D03*
X202400Y239800D02*
D03*
X211400D02*
D03*
X211100Y229000D02*
D03*
X202100D02*
D03*
D129*
X211000Y78460D02*
D03*
Y81020D02*
D03*
X228000Y75900D02*
D03*
Y78460D02*
D03*
Y81020D02*
D03*
X211000Y83580D02*
D03*
X228000D02*
D03*
X163900Y78460D02*
D03*
Y81020D02*
D03*
X180900Y75900D02*
D03*
Y78460D02*
D03*
Y81020D02*
D03*
X163900Y83580D02*
D03*
X180900D02*
D03*
X159300Y236520D02*
D03*
X176300D02*
D03*
X159300Y239080D02*
D03*
Y241640D02*
D03*
Y244200D02*
D03*
X176300Y239080D02*
D03*
Y241640D02*
D03*
X77300Y152720D02*
D03*
X94300D02*
D03*
X77300Y155280D02*
D03*
Y157840D02*
D03*
Y160400D02*
D03*
X94300Y155280D02*
D03*
Y157840D02*
D03*
X159300Y294220D02*
D03*
X176300D02*
D03*
X159300Y296780D02*
D03*
Y299340D02*
D03*
Y301900D02*
D03*
X176300Y296780D02*
D03*
Y299340D02*
D03*
X230500Y294220D02*
D03*
X247500D02*
D03*
X230500Y296780D02*
D03*
Y299340D02*
D03*
Y301900D02*
D03*
X247500Y296780D02*
D03*
Y299340D02*
D03*
X30400Y294220D02*
D03*
X47400D02*
D03*
X30400Y296780D02*
D03*
Y299340D02*
D03*
Y301900D02*
D03*
X47400Y296780D02*
D03*
Y299340D02*
D03*
D130*
X211000Y75900D02*
D03*
X163900D02*
D03*
X176300Y244200D02*
D03*
X94300Y160400D02*
D03*
X176300Y301900D02*
D03*
X247500D02*
D03*
X47400D02*
D03*
D134*
X93700Y397300D02*
D03*
X107200D02*
D03*
X82500Y399500D02*
D03*
X69000D02*
D03*
X108800Y148600D02*
D03*
X122300D02*
D03*
X61800Y172400D02*
D03*
X48300D02*
D03*
X226500Y314220D02*
D03*
X213000D02*
D03*
X154600Y313720D02*
D03*
X141100D02*
D03*
X108000Y301500D02*
D03*
X121500D02*
D03*
X91000Y320500D02*
D03*
X77500D02*
D03*
X121987Y452721D02*
D03*
X135487D02*
D03*
X25900Y313900D02*
D03*
X12400D02*
D03*
X201900Y218100D02*
D03*
X215400D02*
D03*
X97400Y363500D02*
D03*
X110900D02*
D03*
X86200Y387400D02*
D03*
X99700D02*
D03*
D135*
X385200Y504100D02*
D03*
Y538100D02*
D03*
Y405600D02*
D03*
Y439600D02*
D03*
Y307200D02*
D03*
Y341200D02*
D03*
Y208800D02*
D03*
Y242800D02*
D03*
Y110400D02*
D03*
Y144400D02*
D03*
Y11900D02*
D03*
Y45900D02*
D03*
D138*
X29000Y452000D02*
D03*
Y458500D02*
D03*
X191590Y408051D02*
D03*
Y401551D02*
D03*
X218910Y408051D02*
D03*
Y401551D02*
D03*
X149000Y83100D02*
D03*
Y76600D02*
D03*
X202600Y76500D02*
D03*
Y83000D02*
D03*
X155600Y76600D02*
D03*
Y83100D02*
D03*
X190000Y76500D02*
D03*
Y83000D02*
D03*
X188500Y55200D02*
D03*
Y61700D02*
D03*
X182000Y61800D02*
D03*
Y68300D02*
D03*
X244300Y55100D02*
D03*
Y61600D02*
D03*
X237200Y61700D02*
D03*
Y68200D02*
D03*
X237900Y76500D02*
D03*
Y83000D02*
D03*
X196200D02*
D03*
Y76500D02*
D03*
X126000Y292000D02*
D03*
Y285500D02*
D03*
X73000Y311000D02*
D03*
Y304500D02*
D03*
X90300Y378800D02*
D03*
Y372300D02*
D03*
X113700D02*
D03*
Y378800D02*
D03*
X87000Y459000D02*
D03*
Y452500D02*
D03*
X109590Y438649D02*
D03*
Y432149D02*
D03*
X88690D02*
D03*
Y425649D02*
D03*
D139*
X378000Y157000D02*
D03*
X371500D02*
D03*
X378000Y196000D02*
D03*
X371500D02*
D03*
X168251Y216390D02*
D03*
X161751D02*
D03*
X318000Y196000D02*
D03*
X311500D02*
D03*
X318000Y157000D02*
D03*
X311500D02*
D03*
X348000Y196000D02*
D03*
X341500D02*
D03*
X348000Y157000D02*
D03*
X341500D02*
D03*
X101200Y406300D02*
D03*
X94700D02*
D03*
X178251Y421190D02*
D03*
X171751D02*
D03*
X179051Y405390D02*
D03*
X172551D02*
D03*
X202249Y388510D02*
D03*
X208749D02*
D03*
X154400Y40600D02*
D03*
X160900D02*
D03*
X168000D02*
D03*
X174500D02*
D03*
X195600Y68600D02*
D03*
X189100D02*
D03*
X233200Y40600D02*
D03*
X239700D02*
D03*
X250600Y68500D02*
D03*
X244100D02*
D03*
X219600Y40600D02*
D03*
X226100D02*
D03*
X168400Y222620D02*
D03*
X161900D02*
D03*
Y229120D02*
D03*
X168400D02*
D03*
X135400Y223620D02*
D03*
X141900D02*
D03*
X79800Y132400D02*
D03*
X86300D02*
D03*
X63300Y137800D02*
D03*
X69800D02*
D03*
X86300Y138900D02*
D03*
X79800D02*
D03*
Y145400D02*
D03*
X86300D02*
D03*
X217000Y279620D02*
D03*
X223500D02*
D03*
X152100Y279520D02*
D03*
X145600D02*
D03*
X161600Y274720D02*
D03*
X168100D02*
D03*
X161600Y286720D02*
D03*
X168100D02*
D03*
Y280720D02*
D03*
X161600D02*
D03*
X117600Y107600D02*
D03*
X111100D02*
D03*
X108400Y22600D02*
D03*
X101900D02*
D03*
X51300Y22500D02*
D03*
X44800D02*
D03*
X117100Y62600D02*
D03*
X110600D02*
D03*
X239500Y280720D02*
D03*
X233000D02*
D03*
Y286720D02*
D03*
X239500D02*
D03*
X233000Y274720D02*
D03*
X239500D02*
D03*
X30900Y286900D02*
D03*
X37400D02*
D03*
X16900Y279800D02*
D03*
X23400D02*
D03*
X30900Y273900D02*
D03*
X37400D02*
D03*
Y280400D02*
D03*
X30900D02*
D03*
X207000Y248500D02*
D03*
X213500D02*
D03*
X68400Y414500D02*
D03*
X74900D02*
D03*
X99900Y459500D02*
D03*
X106400D02*
D03*
X73400Y408100D02*
D03*
X79900D02*
D03*
X105800Y379000D02*
D03*
X99300D02*
D03*
X146007Y50727D02*
D03*
X152507D02*
D03*
X196993Y48373D02*
D03*
X190493D02*
D03*
X203507Y52827D02*
D03*
X210007D02*
D03*
X254493Y48973D02*
D03*
X247993D02*
D03*
X78700Y230249D02*
D03*
X72200D02*
D03*
X28400Y230610D02*
D03*
X21900D02*
D03*
D140*
X150500Y241520D02*
D03*
Y228020D02*
D03*
X189500Y239520D02*
D03*
Y226020D02*
D03*
X186100Y306720D02*
D03*
Y293220D02*
D03*
X127500Y130400D02*
D03*
Y116900D02*
D03*
X118700Y31900D02*
D03*
Y45400D02*
D03*
X61600Y45300D02*
D03*
Y31800D02*
D03*
X127400Y85400D02*
D03*
Y71900D02*
D03*
X256500Y310220D02*
D03*
Y296720D02*
D03*
X56900Y309400D02*
D03*
Y295900D02*
D03*
X122300Y370400D02*
D03*
Y383900D02*
D03*
X79800Y441100D02*
D03*
Y427600D02*
D03*
X118600D02*
D03*
Y441100D02*
D03*
X88700Y240110D02*
D03*
Y253610D02*
D03*
X38700D02*
D03*
Y240110D02*
D03*
D141*
X216190Y414449D02*
D03*
X220786Y419045D02*
D03*
X190204Y458204D02*
D03*
X194800Y462800D02*
D03*
X177604Y444504D02*
D03*
X182200Y449100D02*
D03*
X171397Y112477D02*
D03*
X175993Y117073D02*
D03*
D143*
X188851Y419390D02*
D03*
X193447Y414794D02*
D03*
X220769Y112911D02*
D03*
X216173Y117507D02*
D03*
X266206Y425655D02*
D03*
X261610Y430251D02*
D03*
X260986Y420653D02*
D03*
X256390Y425249D02*
D03*
D144*
X205300Y402181D02*
D03*
D145*
X240500Y17400D02*
D03*
X165500D02*
D03*
X49200Y488000D02*
D03*
X199200Y488200D02*
D03*
X274200D02*
D03*
X124200Y488000D02*
D03*
D146*
X250500Y7400D02*
D03*
Y27400D02*
D03*
X230500D02*
D03*
Y7400D02*
D03*
X175500D02*
D03*
Y27400D02*
D03*
X155500D02*
D03*
Y7400D02*
D03*
X59200Y478000D02*
D03*
Y498000D02*
D03*
X39200D02*
D03*
Y478000D02*
D03*
X209200Y478200D02*
D03*
Y498200D02*
D03*
X189200D02*
D03*
Y478200D02*
D03*
X284200D02*
D03*
Y498200D02*
D03*
X264200D02*
D03*
Y478200D02*
D03*
X134200Y478000D02*
D03*
Y498000D02*
D03*
X114200D02*
D03*
Y478000D02*
D03*
D147*
X71366Y87693D02*
D03*
Y127063D02*
D03*
D148*
X28890Y109751D02*
D03*
X15451Y493210D02*
D03*
X378000Y186600D02*
D03*
X348000D02*
D03*
X318000D02*
D03*
D149*
X196100Y132300D02*
D03*
D150*
X261900Y353250D02*
D03*
X126150D02*
D03*
X261900Y195750D02*
D03*
X126150D02*
D03*
D151*
X363000Y329000D02*
D03*
X313000D02*
D03*
X363000Y24000D02*
D03*
X313000D02*
D03*
D152*
X16000Y528500D02*
D03*
Y58500D02*
D03*
X279500D02*
D03*
Y528500D02*
D03*
D153*
X11811Y179911D02*
D03*
X283465D02*
D03*
Y353139D02*
D03*
X11811D02*
D03*
D154*
X29000Y423000D02*
D03*
X375000Y321000D02*
D03*
Y518000D02*
D03*
Y420000D02*
D03*
Y223000D02*
D03*
X225000Y224000D02*
D03*
X228000Y221000D02*
D03*
X233400Y209000D02*
D03*
X220800D02*
D03*
X224000Y206000D02*
D03*
X227100Y209000D02*
D03*
X230250Y206000D02*
D03*
X366000Y234000D02*
D03*
X350000D02*
D03*
X334000D02*
D03*
X318000D02*
D03*
X236550Y206000D02*
D03*
X239700Y209000D02*
D03*
X242863Y206000D02*
D03*
X245950Y209000D02*
D03*
X249150Y206000D02*
D03*
X252300Y209000D02*
D03*
X255450Y206000D02*
D03*
X215200Y170500D02*
D03*
X375000Y130500D02*
D03*
Y32000D02*
D03*
X358000Y119000D02*
D03*
X342000D02*
D03*
X326000D02*
D03*
X310000D02*
D03*
X249150Y170000D02*
D03*
X310000Y262000D02*
D03*
X326000D02*
D03*
X343000D02*
D03*
X359000D02*
D03*
X310000Y240000D02*
D03*
X326000D02*
D03*
X343000D02*
D03*
X359000D02*
D03*
X320500Y272000D02*
D03*
X330500D02*
D03*
X340500D02*
D03*
X350500D02*
D03*
X366000Y91000D02*
D03*
X350000D02*
D03*
X333000D02*
D03*
X317000D02*
D03*
X366000Y113000D02*
D03*
X350000D02*
D03*
X333000D02*
D03*
X317000D02*
D03*
X325500Y81000D02*
D03*
X335500D02*
D03*
X345500D02*
D03*
X355500D02*
D03*
X375000Y11900D02*
D03*
Y45900D02*
D03*
Y110400D02*
D03*
Y144400D02*
D03*
Y208800D02*
D03*
Y242800D02*
D03*
Y307200D02*
D03*
Y341200D02*
D03*
Y405600D02*
D03*
Y439600D02*
D03*
Y504100D02*
D03*
Y538100D02*
D03*
X243945Y412809D02*
D03*
X254600Y275130D02*
D03*
X240270Y412970D02*
D03*
X250950Y275130D02*
D03*
X236500Y406000D02*
D03*
X247200Y283000D02*
D03*
X236550Y409574D02*
D03*
X247450Y278900D02*
D03*
X240225Y409413D02*
D03*
X251050Y279000D02*
D03*
X203200Y466000D02*
D03*
X266470Y275130D02*
D03*
X201600Y462100D02*
D03*
X262913Y275175D02*
D03*
X198500Y459000D02*
D03*
X263074Y278850D02*
D03*
X253000Y429100D02*
D03*
X259500Y278900D02*
D03*
X245950Y167500D02*
D03*
X239650D02*
D03*
X242800Y170000D02*
D03*
X236500D02*
D03*
X183500Y57500D02*
D03*
X150200Y55103D02*
D03*
X146571Y58100D02*
D03*
X150000Y63000D02*
D03*
X146600Y205400D02*
D03*
X145200Y170200D02*
D03*
X132500D02*
D03*
X145200Y363400D02*
D03*
X135750D02*
D03*
X135300Y327500D02*
D03*
X139200D02*
D03*
X142750D02*
D03*
X146300D02*
D03*
X143500Y80500D02*
D03*
X146700Y93300D02*
D03*
X147400Y71900D02*
D03*
X145000Y433820D02*
D03*
X143500Y445500D02*
D03*
X249800Y426100D02*
D03*
X223000Y435100D02*
D03*
X197700Y400000D02*
D03*
Y404900D02*
D03*
X212900Y400000D02*
D03*
Y404900D02*
D03*
Y394562D02*
D03*
X197700D02*
D03*
X203100D02*
D03*
X208000D02*
D03*
X206100Y132300D02*
D03*
X201100D02*
D03*
X186100D02*
D03*
X191100D02*
D03*
X186100Y137500D02*
D03*
X206100D02*
D03*
X201100D02*
D03*
X196100D02*
D03*
X191100D02*
D03*
Y127100D02*
D03*
X196100D02*
D03*
X201100D02*
D03*
X206100D02*
D03*
X186100D02*
D03*
X191100Y123100D02*
D03*
X196100D02*
D03*
X201100D02*
D03*
X206100D02*
D03*
X186100D02*
D03*
Y141500D02*
D03*
X206100D02*
D03*
X201100D02*
D03*
X196100D02*
D03*
X191100D02*
D03*
X176500Y254300D02*
D03*
Y249300D02*
D03*
X253950Y170100D02*
D03*
X219200Y170500D02*
D03*
X185900Y170100D02*
D03*
X149850D02*
D03*
X150050Y205400D02*
D03*
X130950D02*
D03*
X254100Y326800D02*
D03*
X130950Y327600D02*
D03*
X149850D02*
D03*
X135300Y311140D02*
D03*
X216500Y364000D02*
D03*
X184700Y363800D02*
D03*
X57900Y25100D02*
D03*
X114300D02*
D03*
X123700Y65100D02*
D03*
X123100Y110200D02*
D03*
X128500Y151600D02*
D03*
X59100Y134100D02*
D03*
X41100Y169900D02*
D03*
X5600Y315500D02*
D03*
X51200Y292000D02*
D03*
X13800Y276500D02*
D03*
X39400Y270600D02*
D03*
X34200Y233700D02*
D03*
X85100Y233900D02*
D03*
X170700Y212900D02*
D03*
X148100Y223100D02*
D03*
X132800Y220900D02*
D03*
X212000Y212500D02*
D03*
X181100Y234500D02*
D03*
X204400Y250700D02*
D03*
X170600Y271700D02*
D03*
X238100Y272180D02*
D03*
X213800Y276700D02*
D03*
X251300Y292000D02*
D03*
X206900Y311400D02*
D03*
X179320Y291200D02*
D03*
X154800Y276700D02*
D03*
X116100Y361000D02*
D03*
X137200Y468000D02*
D03*
X174800Y431900D02*
D03*
X69700Y403800D02*
D03*
X150000Y102000D02*
D03*
X194900Y167200D02*
D03*
X171349Y402810D02*
D03*
X169700Y418700D02*
D03*
X203600Y385800D02*
D03*
X240004Y421596D02*
D03*
X207482Y385754D02*
D03*
X181300Y421058D02*
D03*
Y407000D02*
D03*
X182200Y428008D02*
D03*
X227900Y428000D02*
D03*
X210800Y444500D02*
D03*
X199300D02*
D03*
X221173Y426000D02*
D03*
X189800D02*
D03*
X215705Y417000D02*
D03*
X209799Y418000D02*
D03*
X208000Y409800D02*
D03*
X203100D02*
D03*
X197700D02*
D03*
X212900D02*
D03*
X220800Y403510D02*
D03*
X221300Y408000D02*
D03*
X189173D02*
D03*
X189673Y403510D02*
D03*
X203894Y418000D02*
D03*
X197988D02*
D03*
X193300Y417000D02*
D03*
X181300Y410500D02*
D03*
Y417500D02*
D03*
X127949Y396297D02*
D03*
X127734Y377603D02*
D03*
Y383834D02*
D03*
Y390166D02*
D03*
X242707Y48184D02*
D03*
X214379Y52385D02*
D03*
Y48784D02*
D03*
X185448Y48084D02*
D03*
X232852Y80600D02*
D03*
X195974Y94974D02*
D03*
X240000Y437200D02*
D03*
X236100Y433000D02*
D03*
X219000Y439462D02*
D03*
X157019Y48256D02*
D03*
Y52157D02*
D03*
X197100Y150000D02*
D03*
X167326Y387457D02*
D03*
X192388Y453956D02*
D03*
X196000Y451400D02*
D03*
X163796Y426496D02*
D03*
X214800Y452100D02*
D03*
X218112Y454256D02*
D03*
X231622Y441231D02*
D03*
X235900Y453300D02*
D03*
X178825Y441020D02*
D03*
X197600Y465600D02*
D03*
X194200Y154100D02*
D03*
X110500Y382000D02*
D03*
X116400Y373000D02*
D03*
X86000Y449000D02*
D03*
X110000Y457500D02*
D03*
X113000Y431500D02*
D03*
X116000Y421500D02*
D03*
X112000Y436500D02*
D03*
X118000Y453000D02*
D03*
X139500Y452931D02*
D03*
X62500Y461000D02*
D03*
X57000Y450000D02*
D03*
X86500Y394000D02*
D03*
X87000Y372500D02*
D03*
X185000Y323800D02*
D03*
X218000D02*
D03*
X75000Y420000D02*
D03*
X90000Y460000D02*
D03*
X96000Y459500D02*
D03*
X92000Y366000D02*
D03*
X101500Y381000D02*
D03*
X106000Y382500D02*
D03*
X91000Y382000D02*
D03*
X87000Y420500D02*
D03*
X115500Y445500D02*
D03*
X84349Y432149D02*
D03*
X123000Y424000D02*
D03*
X83500Y408500D02*
D03*
X79000Y414000D02*
D03*
X94700Y403600D02*
D03*
X102600D02*
D03*
X69700Y410900D02*
D03*
X5000Y408500D02*
D03*
X10000D02*
D03*
X15000D02*
D03*
X20000D02*
D03*
X25000D02*
D03*
X30000D02*
D03*
X35000D02*
D03*
X40000D02*
D03*
X45000D02*
D03*
X50000D02*
D03*
X55000D02*
D03*
Y403500D02*
D03*
X50000D02*
D03*
X45000D02*
D03*
X40000D02*
D03*
X35000D02*
D03*
X30000D02*
D03*
X25000D02*
D03*
X20000D02*
D03*
X15000D02*
D03*
X10000D02*
D03*
X5000D02*
D03*
X55000Y398500D02*
D03*
X50000D02*
D03*
X45000D02*
D03*
X40000D02*
D03*
X35000D02*
D03*
X30000D02*
D03*
X25000D02*
D03*
X20000D02*
D03*
X15000D02*
D03*
X10000D02*
D03*
X5000D02*
D03*
X55000Y393500D02*
D03*
X50000D02*
D03*
X45000D02*
D03*
X40000D02*
D03*
X35000D02*
D03*
X30000D02*
D03*
X25000D02*
D03*
X20000D02*
D03*
X15000D02*
D03*
X10000D02*
D03*
X5000D02*
D03*
X55000Y388500D02*
D03*
X50000D02*
D03*
X45000D02*
D03*
X40000D02*
D03*
X35000D02*
D03*
X30000D02*
D03*
X25000D02*
D03*
X20000D02*
D03*
X15000D02*
D03*
X10000D02*
D03*
X5000D02*
D03*
X55000Y383500D02*
D03*
X50000D02*
D03*
X45000D02*
D03*
X40000D02*
D03*
X35000D02*
D03*
X30000D02*
D03*
X25000D02*
D03*
X20000D02*
D03*
X15000D02*
D03*
X10000D02*
D03*
X5000D02*
D03*
X55000Y378500D02*
D03*
X50000D02*
D03*
X45000D02*
D03*
X40000D02*
D03*
X35000D02*
D03*
X30000D02*
D03*
X25000D02*
D03*
X20000D02*
D03*
X15000D02*
D03*
X10000D02*
D03*
X5000D02*
D03*
X55000Y373500D02*
D03*
X50000D02*
D03*
X45000D02*
D03*
X40000D02*
D03*
X35000D02*
D03*
X30000D02*
D03*
X25000D02*
D03*
X20000D02*
D03*
X15000D02*
D03*
X10000D02*
D03*
X5000D02*
D03*
X55000Y368500D02*
D03*
X50000D02*
D03*
X45000D02*
D03*
X40000D02*
D03*
X35000D02*
D03*
X30000D02*
D03*
X25000D02*
D03*
X20000D02*
D03*
X15000D02*
D03*
X10000D02*
D03*
X5000D02*
D03*
X55000Y363500D02*
D03*
X50000D02*
D03*
X45000D02*
D03*
X40000D02*
D03*
X35000D02*
D03*
X30000D02*
D03*
X25000D02*
D03*
X20000D02*
D03*
X15000D02*
D03*
X10000D02*
D03*
X5000D02*
D03*
X148500Y111611D02*
D03*
X163008Y133500D02*
D03*
X184000Y90500D02*
D03*
X164800Y90400D02*
D03*
X206600Y90500D02*
D03*
X227600D02*
D03*
X185714Y80504D02*
D03*
X196500Y71500D02*
D03*
X217000Y38000D02*
D03*
X151800D02*
D03*
X251500Y71400D02*
D03*
X268500Y423500D02*
D03*
X263280Y418498D02*
D03*
X204927Y70993D02*
D03*
X158500Y72000D02*
D03*
X201000Y54000D02*
D03*
X199493Y47373D02*
D03*
X144507Y47727D02*
D03*
X257000Y47000D02*
D03*
X188000Y45500D02*
D03*
X246500Y46000D02*
D03*
X96457Y150563D02*
D03*
X74500Y180500D02*
D03*
X79500D02*
D03*
X84500D02*
D03*
X89500D02*
D03*
X94500D02*
D03*
X99500D02*
D03*
X74500Y175500D02*
D03*
X79500D02*
D03*
X84500D02*
D03*
X89500D02*
D03*
X94500D02*
D03*
X99500D02*
D03*
X74500Y170500D02*
D03*
X79500D02*
D03*
X84500D02*
D03*
X89500D02*
D03*
X94500D02*
D03*
X99500D02*
D03*
X74500Y165500D02*
D03*
X79500D02*
D03*
X84500D02*
D03*
X89500D02*
D03*
X94500D02*
D03*
X99500D02*
D03*
X69500D02*
D03*
Y170500D02*
D03*
Y175500D02*
D03*
Y180500D02*
D03*
X88000Y160500D02*
D03*
X83000D02*
D03*
X78000D02*
D03*
X89500Y129500D02*
D03*
X73000Y316000D02*
D03*
X126000Y297000D02*
D03*
X160000Y244300D02*
D03*
X165000D02*
D03*
X170000D02*
D03*
X151500Y254300D02*
D03*
Y249300D02*
D03*
X171500D02*
D03*
X166500D02*
D03*
X161500D02*
D03*
X156500D02*
D03*
X171500Y254300D02*
D03*
X166500D02*
D03*
X161500D02*
D03*
X156500D02*
D03*
X194200Y85500D02*
D03*
X183500Y224000D02*
D03*
X287500Y330000D02*
D03*
Y320000D02*
D03*
Y310000D02*
D03*
Y300000D02*
D03*
Y290000D02*
D03*
Y280000D02*
D03*
Y230000D02*
D03*
Y240000D02*
D03*
Y250000D02*
D03*
Y260000D02*
D03*
Y270000D02*
D03*
Y210000D02*
D03*
Y220000D02*
D03*
X282500Y197500D02*
D03*
X275000Y190000D02*
D03*
Y210000D02*
D03*
Y220000D02*
D03*
Y230000D02*
D03*
Y240000D02*
D03*
Y250000D02*
D03*
Y260000D02*
D03*
Y270000D02*
D03*
Y310000D02*
D03*
Y300000D02*
D03*
Y290000D02*
D03*
Y280000D02*
D03*
Y320000D02*
D03*
Y330000D02*
D03*
X267500Y202500D02*
D03*
X282000Y340000D02*
D03*
X252271Y156629D02*
D03*
X259771Y164129D02*
D03*
X270751Y159433D02*
D03*
X274000Y180000D02*
D03*
Y170000D02*
D03*
X262196Y150520D02*
D03*
X253640Y141607D02*
D03*
X243716Y147716D02*
D03*
X263200Y178000D02*
D03*
X263500Y190000D02*
D03*
X251945Y127087D02*
D03*
X243945Y113587D02*
D03*
X235160Y138803D02*
D03*
X231152Y85076D02*
D03*
X233000Y75500D02*
D03*
X162000Y72000D02*
D03*
X183000D02*
D03*
X214000Y73000D02*
D03*
X129000Y213000D02*
D03*
X125000Y164000D02*
D03*
X115000Y161000D02*
D03*
D155*
X78000Y341000D02*
D03*
X82400Y45500D02*
D03*
X27400Y40000D02*
D03*
X89500Y85400D02*
D03*
X11000Y304900D02*
D03*
X203800Y297320D02*
D03*
X91000Y290100D02*
D03*
X108000Y271100D02*
D03*
X133100Y297000D02*
D03*
X59700Y262510D02*
D03*
X9700D02*
D03*
X121200Y241520D02*
D03*
X41100Y160500D02*
D03*
X256500Y319120D02*
D03*
X195000Y306720D02*
D03*
X201900Y211600D02*
D03*
X127600Y45400D02*
D03*
X70500Y45300D02*
D03*
X127400Y94300D02*
D03*
X38200Y263110D02*
D03*
X88200D02*
D03*
X127500Y139300D02*
D03*
X91100Y328700D02*
D03*
X108000Y311000D02*
D03*
X56900Y323400D02*
D03*
X102000Y159000D02*
D03*
D156*
X181100Y372200D02*
D03*
X180000Y326750D02*
D03*
X182300Y375900D02*
D03*
X183500Y326750D02*
D03*
X153900Y207100D02*
D03*
X209300Y56600D02*
D03*
X157400Y207100D02*
D03*
X212000Y60100D02*
D03*
X160900Y207100D02*
D03*
X164995D02*
D03*
X214600Y63100D02*
D03*
X159600Y78256D02*
D03*
X199748Y91200D02*
D03*
X218959Y375900D02*
D03*
X217759Y372200D02*
D03*
X199352Y324927D02*
D03*
X194060Y372198D02*
D03*
X196800Y327200D02*
D03*
X195337Y375900D02*
D03*
X203211D02*
D03*
X205277Y325100D02*
D03*
X202377Y323400D02*
D03*
X202011Y372200D02*
D03*
X191273Y327202D02*
D03*
X246800Y326589D02*
D03*
X232700Y399538D02*
D03*
X229200Y397738D02*
D03*
X243300Y326589D02*
D03*
X239900Y326750D02*
D03*
X236400D02*
D03*
X233000Y389100D02*
D03*
X229400D02*
D03*
X229673Y40695D02*
D03*
X164502D02*
D03*
X159600Y81800D02*
D03*
X221800Y108000D02*
D03*
X168300Y109300D02*
D03*
X145000Y387200D02*
D03*
X206200Y81800D02*
D03*
X207524Y85076D02*
D03*
X206524Y78256D02*
D03*
X192200Y91200D02*
D03*
X184800Y85176D02*
D03*
X160358D02*
D03*
X178416Y120000D02*
D03*
X188798Y324727D02*
D03*
X211085Y375900D02*
D03*
X209885Y372200D02*
D03*
X211850Y326750D02*
D03*
X208350D02*
D03*
X215200D02*
D03*
X220754D02*
D03*
X227600D02*
D03*
X224100D02*
D03*
X224896Y375900D02*
D03*
X223696Y372200D02*
D03*
X189343D02*
D03*
X188143Y375900D02*
D03*
X196700Y207666D02*
D03*
X193365D02*
D03*
X190030D02*
D03*
X219000Y130500D02*
D03*
X215000Y131500D02*
D03*
X216800Y134700D02*
D03*
D157*
X164800Y244300D02*
D03*
D158*
X164300Y251850D02*
D03*
D159*
X50000Y456000D02*
D03*
Y427000D02*
D03*
D160*
X50000Y147000D02*
D03*
Y160500D02*
D03*
X65800Y160400D02*
D03*
Y146900D02*
D03*
X98400Y71900D02*
D03*
Y85400D02*
D03*
X113900D02*
D03*
Y71900D02*
D03*
X32600Y31800D02*
D03*
Y45300D02*
D03*
X48100D02*
D03*
Y31800D02*
D03*
X89700Y31900D02*
D03*
Y45400D02*
D03*
X105200D02*
D03*
Y31900D02*
D03*
X98500Y116900D02*
D03*
Y130400D02*
D03*
X114000D02*
D03*
Y116900D02*
D03*
X59700Y240110D02*
D03*
Y253610D02*
D03*
X75200D02*
D03*
Y240110D02*
D03*
X9700D02*
D03*
Y253610D02*
D03*
X25200D02*
D03*
Y240110D02*
D03*
D161*
X219565Y79785D02*
D03*
X172456D02*
D03*
D162*
X224190Y454090D02*
D03*
X237413Y440867D02*
D03*
X235999Y439453D02*
D03*
X231823Y435277D02*
D03*
X234607Y438061D02*
D03*
X221384Y451284D02*
D03*
X219992Y449892D02*
D03*
X222776Y452676D02*
D03*
X233215Y436669D02*
D03*
D163*
X218600Y448500D02*
D03*
D164*
X237800Y49569D02*
D03*
X219100Y53506D02*
D03*
Y49569D02*
D03*
Y51537D02*
D03*
X237800D02*
D03*
Y47600D02*
D03*
Y53506D02*
D03*
Y55506D02*
D03*
X219100D02*
D03*
X161900D02*
D03*
X180600D02*
D03*
Y53506D02*
D03*
Y47600D02*
D03*
Y51537D02*
D03*
X161900D02*
D03*
Y49569D02*
D03*
Y53506D02*
D03*
X180600Y49569D02*
D03*
D165*
X219100Y47600D02*
D03*
X161900D02*
D03*
D166*
X130100Y241520D02*
D03*
Y232520D02*
D03*
X140400D02*
D03*
Y241520D02*
D03*
X212700Y297320D02*
D03*
Y288320D02*
D03*
X222000Y288220D02*
D03*
Y297220D02*
D03*
X141300Y297320D02*
D03*
Y288320D02*
D03*
X150600Y288220D02*
D03*
Y297220D02*
D03*
X23800Y430200D02*
D03*
Y421200D02*
D03*
X11600Y297500D02*
D03*
Y288500D02*
D03*
X21900D02*
D03*
Y297500D02*
D03*
M02*
