G04 Layer_Physical_Order=3*
G04 Layer_Color=128*
%FSLAX25Y25*%
%MOIN*%
G70*
G01*
G75*
%ADD48C,0.00800*%
%ADD73C,0.04000*%
%ADD84C,0.14900*%
%ADD85C,0.06400*%
%ADD86C,0.07600*%
%ADD87C,0.14400*%
%ADD88C,0.06200*%
%ADD89C,0.13000*%
%ADD90C,0.06600*%
%ADD91C,0.03600*%
%ADD92C,0.03900*%
%ADD93C,0.09400*%
%ADD94C,0.06800*%
D48*
X22000Y104500D02*
X51000D01*
X57500Y155500D02*
Y178500D01*
X111500Y232500D01*
X140000D01*
Y290000D01*
X220000D01*
X115000Y265000D02*
Y302500D01*
X22000Y117000D02*
X32612Y127612D01*
X22000Y104500D02*
Y117000D01*
X37500Y94000D02*
Y104500D01*
X22500Y94000D02*
X37500D01*
X22500Y52500D02*
Y94000D01*
Y52500D02*
X32500D01*
Y35000D02*
Y52500D01*
X0Y35000D02*
X32500D01*
X22500Y84500D02*
X37500D01*
X22500Y72500D02*
X37500D01*
X75500Y50000D01*
X42000Y84500D02*
X87500Y57500D01*
X37500Y84500D02*
X42000D01*
X47000Y104500D02*
X62500D01*
X87000Y80000D01*
X102500D02*
Y91000D01*
X57500Y136000D02*
X102500Y91000D01*
X57500Y136000D02*
Y156000D01*
X87000Y80000D02*
X102500D01*
X77500Y41500D02*
X87500D01*
X77500D02*
Y47796D01*
X75500Y50000D02*
X77500Y48800D01*
Y47796D02*
Y48800D01*
X87500Y41500D02*
Y57500D01*
X124000Y41500D02*
X142500D01*
X149500Y48500D01*
X168500D01*
X173500Y53500D01*
X198000D01*
X203000Y48500D01*
X225500D01*
X218000D02*
Y62500D01*
X142500D02*
X218000D01*
X135000Y55000D02*
X142500Y62500D01*
X124000Y55000D02*
X135000D01*
X124000Y41500D02*
Y55000D01*
X65000Y27500D02*
Y56217D01*
Y27500D02*
X150500D01*
Y33000D01*
X251000D01*
Y51500D01*
X228092D02*
X251000D01*
X225500Y48908D02*
X228092Y51500D01*
X87500Y41500D02*
X124000D01*
X122500Y100000D02*
X134500D01*
X170908Y85000D02*
X214000D01*
Y62500D02*
Y85000D01*
X122500Y82000D02*
Y100000D01*
Y82000D02*
X134500D01*
X154000Y62500D01*
X134500Y100000D02*
X142288Y107788D01*
X147712D01*
X170500Y85000D01*
X177500D01*
X122500Y131000D02*
Y142500D01*
Y131000D02*
X144000D01*
X162500Y112500D01*
X217500D01*
Y125000D01*
X167500D02*
X217500D01*
X150000Y142500D02*
X167500Y125000D01*
X122500Y142500D02*
X150000D01*
X195000Y217500D02*
X207500D01*
X195000Y180000D02*
Y217500D01*
X187500Y172500D02*
X195000Y180000D01*
X187500Y147000D02*
Y172500D01*
Y147000D02*
X199500D01*
Y165500D01*
X207500Y173500D01*
Y217500D01*
X115000Y302500D02*
X220000D01*
Y290000D02*
Y302500D01*
X200000Y348000D02*
X210500Y358500D01*
X210469Y385736D02*
X210500Y358500D01*
X199000Y370000D02*
Y386108D01*
X190000Y361000D02*
X199000Y370000D01*
X190000Y302500D02*
Y361000D01*
X249500Y315280D02*
Y373780D01*
X259500Y315280D02*
Y360780D01*
X249500Y315280D02*
X259500D01*
Y360780D02*
Y395400D01*
X223300Y431600D02*
X259500Y395400D01*
X191120Y431600D02*
X223300D01*
X249500Y373780D02*
Y377300D01*
X213900Y420000D02*
X249500Y384400D01*
Y377300D02*
Y384400D01*
X199000Y378200D02*
Y386300D01*
X210500Y378400D02*
Y386300D01*
Y386200D02*
X228300D01*
Y389300D01*
Y405600D01*
X227100Y406800D02*
X228300Y405600D01*
X182410Y402810D02*
X187200Y407600D01*
X187170Y417729D02*
X187200Y407600D01*
X213900Y420000D02*
X220300Y413600D01*
X187200Y420000D02*
X213900D01*
X187200Y416100D02*
Y420000D01*
X199000Y384500D02*
Y387600D01*
X210500Y384800D02*
Y387600D01*
X199000D02*
Y389300D01*
X210500D01*
Y387600D02*
Y389300D01*
X103000Y323400D02*
X182410Y402810D01*
X116480Y306780D02*
X199000Y389300D01*
X84500Y335800D02*
X120000Y371300D01*
Y403100D01*
X147600D01*
X183300Y423900D02*
X187200Y420000D01*
X32100Y127100D02*
X33200Y128200D01*
X0Y270000D02*
X7300D01*
X95000Y258110D02*
Y270000D01*
X112200Y302500D02*
X116480Y306780D01*
X84500Y330200D02*
X112200Y302500D01*
X97200Y317600D02*
X103200Y323600D01*
X81700Y333000D02*
X84500Y330200D01*
X81700Y333000D02*
X85200Y336500D01*
X81700Y283300D02*
X95000Y270000D01*
X81700Y283300D02*
Y333000D01*
X56900Y342400D02*
X82800Y368300D01*
Y385400D01*
Y455400D01*
X69300Y336500D02*
X97700Y364900D01*
Y388800D01*
X105900Y397000D01*
Y461400D01*
X120000D01*
X82800Y455400D02*
Y473100D01*
X149500D01*
X222500Y450700D02*
Y461700D01*
X190300D02*
X222500D01*
X139900Y403100D02*
X152900D01*
X222500Y446200D02*
Y450700D01*
X205600Y446200D02*
X216600D01*
X183300Y423900D02*
X205600Y446200D01*
X216600D02*
X222500D01*
X152900Y403100D02*
X153100D01*
X172388Y422412D01*
X173900Y423900D02*
X183300D01*
X171600Y421600D02*
X173900Y423900D01*
X166600Y438000D02*
X179600D01*
X185800Y444200D01*
Y457200D01*
X190300Y461700D01*
X120000Y429800D02*
X158400D01*
X166500Y437900D01*
X120000Y429800D02*
Y461400D01*
X149500Y473100D02*
X239500D01*
X232600Y436100D02*
X239500Y443000D01*
Y473100D01*
X222500Y446200D02*
X232600Y436100D01*
X37200Y258110D02*
X44900D01*
X33200Y218200D02*
Y247700D01*
X10900Y270000D02*
X33200Y247700D01*
X5800Y270000D02*
X10900D01*
X83500Y258110D02*
X108110D01*
X115000Y265000D01*
X44900Y258110D02*
X83500D01*
X33200Y128200D02*
Y218200D01*
X31800Y263510D02*
Y290331D01*
Y263510D02*
X37200Y258110D01*
X31800Y290331D02*
Y317300D01*
X56900Y342400D01*
X200Y317300D02*
X31800D01*
X67500Y334700D02*
X69300Y336500D01*
X67500Y258110D02*
Y334700D01*
X259500Y395400D02*
Y421600D01*
Y427700D01*
X272300D01*
Y302500D02*
Y427700D01*
X220000Y302500D02*
X272300D01*
X200000Y315280D02*
X249500D01*
X200000D02*
Y348000D01*
X23000Y487200D02*
Y550000D01*
X11400Y487200D02*
X23000D01*
X11400Y462600D02*
Y487200D01*
Y462600D02*
X37900Y436100D01*
Y425600D02*
Y436100D01*
X0Y425600D02*
X37900D01*
X63700D01*
Y349200D02*
Y425600D01*
X0Y364950D02*
Y550000D01*
X119300D01*
X0Y-0D02*
X75300D01*
X0D02*
Y168100D01*
X75300Y-0D02*
X400000D01*
X0Y168100D02*
Y364950D01*
X119300Y550000D02*
X400000D01*
Y-0D02*
Y550000D01*
D73*
X0Y0D02*
Y550000D01*
X400000D01*
Y0D02*
Y550000D01*
X0Y0D02*
X400000D01*
D84*
X11811Y353139D02*
D03*
X283465D02*
D03*
Y179911D02*
D03*
X11811D02*
D03*
D85*
X126150Y195750D02*
D03*
X261900D02*
D03*
X126150Y353250D02*
D03*
X261900D02*
D03*
X71366Y127063D02*
D03*
Y87693D02*
D03*
D86*
X124200Y488000D02*
D03*
X274200Y488200D02*
D03*
X199200D02*
D03*
X49200Y488000D02*
D03*
X165500Y17400D02*
D03*
X240500D02*
D03*
D87*
X279500Y528500D02*
D03*
Y58500D02*
D03*
X16000D02*
D03*
Y528500D02*
D03*
D88*
X318000Y176600D02*
D03*
Y186600D02*
D03*
Y166600D02*
D03*
X348000Y176600D02*
D03*
Y186600D02*
D03*
Y166600D02*
D03*
X378000Y176600D02*
D03*
Y186600D02*
D03*
Y166600D02*
D03*
D89*
X313000Y24000D02*
D03*
X363000D02*
D03*
X313000Y329000D02*
D03*
X363000D02*
D03*
D90*
X15451Y483210D02*
D03*
X28890Y89751D02*
D03*
D91*
X115000Y161000D02*
D03*
X125000Y164000D02*
D03*
X129000Y213000D02*
D03*
X214000Y73000D02*
D03*
X183000Y72000D02*
D03*
X162000D02*
D03*
X233000Y75500D02*
D03*
X216800Y134700D02*
D03*
X215000Y131500D02*
D03*
X219000Y130500D02*
D03*
X190030Y207666D02*
D03*
X193365D02*
D03*
X196700D02*
D03*
X235160Y138803D02*
D03*
X243945Y113587D02*
D03*
X251945Y127087D02*
D03*
X263500Y190000D02*
D03*
X263200Y178000D02*
D03*
X243716Y147716D02*
D03*
X253640Y141607D02*
D03*
X262196Y150520D02*
D03*
X274000Y170000D02*
D03*
Y180000D02*
D03*
X270751Y159433D02*
D03*
X259771Y164129D02*
D03*
X252271Y156629D02*
D03*
X282000Y340000D02*
D03*
X267500Y202500D02*
D03*
X275000Y330000D02*
D03*
Y320000D02*
D03*
Y280000D02*
D03*
Y290000D02*
D03*
Y300000D02*
D03*
Y310000D02*
D03*
Y270000D02*
D03*
Y260000D02*
D03*
Y250000D02*
D03*
Y240000D02*
D03*
Y230000D02*
D03*
Y220000D02*
D03*
Y210000D02*
D03*
Y190000D02*
D03*
X282500Y197500D02*
D03*
X287500Y220000D02*
D03*
Y210000D02*
D03*
Y270000D02*
D03*
Y260000D02*
D03*
Y250000D02*
D03*
Y240000D02*
D03*
Y230000D02*
D03*
Y280000D02*
D03*
Y290000D02*
D03*
Y300000D02*
D03*
Y310000D02*
D03*
Y320000D02*
D03*
Y330000D02*
D03*
X183500Y224000D02*
D03*
X194200Y85500D02*
D03*
X126000Y297000D02*
D03*
X73000Y316000D02*
D03*
X257000Y47000D02*
D03*
X144507Y47727D02*
D03*
X199493Y47373D02*
D03*
X201000Y54000D02*
D03*
X158500Y72000D02*
D03*
X204927Y70993D02*
D03*
X151800Y38000D02*
D03*
X217000D02*
D03*
X227600Y90500D02*
D03*
X206600D02*
D03*
X164800Y90400D02*
D03*
X184000Y90500D02*
D03*
X69700Y410900D02*
D03*
X102600Y403600D02*
D03*
X79000Y414000D02*
D03*
X83500Y408500D02*
D03*
X123000Y424000D02*
D03*
X84349Y432149D02*
D03*
X91000Y382000D02*
D03*
X106000Y382500D02*
D03*
X96000Y459500D02*
D03*
X90000Y460000D02*
D03*
X75000Y420000D02*
D03*
X218000Y323800D02*
D03*
X185000D02*
D03*
X86500Y394000D02*
D03*
X57000Y450000D02*
D03*
X62500Y461000D02*
D03*
X139500Y452931D02*
D03*
X118000Y453000D02*
D03*
X112000Y436500D02*
D03*
X116000Y421500D02*
D03*
X116400Y373000D02*
D03*
X197600Y465600D02*
D03*
X235900Y453300D02*
D03*
X214800Y452100D02*
D03*
X163796Y426496D02*
D03*
X196000Y451400D02*
D03*
X197100Y150000D02*
D03*
X188143Y375900D02*
D03*
X189343Y372200D02*
D03*
X223696D02*
D03*
X224896Y375900D02*
D03*
X224100Y326750D02*
D03*
X227600D02*
D03*
X220754D02*
D03*
X215200D02*
D03*
X208350D02*
D03*
X211850D02*
D03*
X209885Y372200D02*
D03*
X211085Y375900D02*
D03*
X188798Y324727D02*
D03*
X160358Y85176D02*
D03*
X184800D02*
D03*
X192200Y91200D02*
D03*
X206524Y78256D02*
D03*
X207524Y85076D02*
D03*
X145000Y387200D02*
D03*
X168300Y109300D02*
D03*
X221800Y108000D02*
D03*
X181300Y417500D02*
D03*
Y410500D02*
D03*
X193300Y417000D02*
D03*
X197988Y418000D02*
D03*
X203894D02*
D03*
X189173Y408000D02*
D03*
X221300D02*
D03*
X212900Y409800D02*
D03*
X197700D02*
D03*
X203100D02*
D03*
X208000D02*
D03*
X209799Y418000D02*
D03*
X215705Y417000D02*
D03*
X199300Y444500D02*
D03*
X210800D02*
D03*
X227900Y428000D02*
D03*
X182200Y428008D02*
D03*
X207482Y385754D02*
D03*
X240004Y421596D02*
D03*
X169700Y418700D02*
D03*
X171349Y402810D02*
D03*
X194900Y167200D02*
D03*
X164502Y40695D02*
D03*
X229673D02*
D03*
X229400Y389100D02*
D03*
X233000D02*
D03*
X236400Y326750D02*
D03*
X239900D02*
D03*
X243300Y326589D02*
D03*
X229200Y397738D02*
D03*
X232700Y399538D02*
D03*
X246800Y326589D02*
D03*
X191273Y327202D02*
D03*
X202011Y372200D02*
D03*
X202377Y323400D02*
D03*
X205277Y325100D02*
D03*
X203211Y375900D02*
D03*
X195337D02*
D03*
X196800Y327200D02*
D03*
X194060Y372198D02*
D03*
X199352Y324927D02*
D03*
X69700Y403800D02*
D03*
X174800Y431900D02*
D03*
X137200Y468000D02*
D03*
X116100Y361000D02*
D03*
X154800Y276700D02*
D03*
X179320Y291200D02*
D03*
X206900Y311400D02*
D03*
X251300Y292000D02*
D03*
X213800Y276700D02*
D03*
X238100Y272180D02*
D03*
X170600Y271700D02*
D03*
X204400Y250700D02*
D03*
X181100Y234500D02*
D03*
X212000Y212500D02*
D03*
X132800Y220900D02*
D03*
X148100Y223100D02*
D03*
X170700Y212900D02*
D03*
X85100Y233900D02*
D03*
X34200Y233700D02*
D03*
X39400Y270600D02*
D03*
X13800Y276500D02*
D03*
X51200Y292000D02*
D03*
X5600Y315500D02*
D03*
X41100Y169900D02*
D03*
X59100Y134100D02*
D03*
X128500Y151600D02*
D03*
X123100Y110200D02*
D03*
X123700Y65100D02*
D03*
X114300Y25100D02*
D03*
X57900D02*
D03*
X184700Y363800D02*
D03*
X217759Y372200D02*
D03*
X218959Y375900D02*
D03*
X216500Y364000D02*
D03*
X135300Y311140D02*
D03*
X149850Y327600D02*
D03*
X130950D02*
D03*
X254100Y326800D02*
D03*
X130950Y205400D02*
D03*
X150050D02*
D03*
X149850Y170100D02*
D03*
X185900D02*
D03*
X219200Y170500D02*
D03*
X253950Y170100D02*
D03*
X199748Y91200D02*
D03*
X159600Y78256D02*
D03*
X208000Y394562D02*
D03*
X203100D02*
D03*
X197700D02*
D03*
X212900D02*
D03*
Y404900D02*
D03*
Y400000D02*
D03*
X197700Y404900D02*
D03*
Y400000D02*
D03*
X249800Y426100D02*
D03*
X143500Y445500D02*
D03*
X146700Y93300D02*
D03*
X143500Y80500D02*
D03*
X146300Y327500D02*
D03*
X142750D02*
D03*
X139200D02*
D03*
X135300D02*
D03*
X135750Y363400D02*
D03*
X145200D02*
D03*
X132500Y170200D02*
D03*
X145200D02*
D03*
X146600Y205400D02*
D03*
X150000Y63000D02*
D03*
X214600Y63100D02*
D03*
X164995Y207100D02*
D03*
X160900D02*
D03*
X146571Y58100D02*
D03*
X212000Y60100D02*
D03*
X157400Y207100D02*
D03*
X150200Y55103D02*
D03*
X209300Y56600D02*
D03*
X153900Y207100D02*
D03*
X236500Y170000D02*
D03*
X242800D02*
D03*
X239650Y167500D02*
D03*
X245950D02*
D03*
X183500Y326750D02*
D03*
X182300Y375900D02*
D03*
X180000Y326750D02*
D03*
X181100Y372200D02*
D03*
X259500Y278900D02*
D03*
X253000Y429100D02*
D03*
X263074Y278850D02*
D03*
X198500Y459000D02*
D03*
X262913Y275175D02*
D03*
X201600Y462100D02*
D03*
X203200Y466000D02*
D03*
X251050Y279000D02*
D03*
X240225Y409413D02*
D03*
X247450Y278900D02*
D03*
X236550Y409574D02*
D03*
X247200Y283000D02*
D03*
X236500Y406000D02*
D03*
X250950Y275130D02*
D03*
X254600D02*
D03*
X375000Y538100D02*
D03*
Y504100D02*
D03*
Y439600D02*
D03*
Y405600D02*
D03*
Y341200D02*
D03*
Y307200D02*
D03*
Y242800D02*
D03*
Y208800D02*
D03*
Y144400D02*
D03*
Y110400D02*
D03*
Y45900D02*
D03*
Y11900D02*
D03*
X355500Y81000D02*
D03*
X345500D02*
D03*
X335500D02*
D03*
X325500D02*
D03*
X317000Y113000D02*
D03*
X333000D02*
D03*
X350000D02*
D03*
X366000D02*
D03*
X317000Y91000D02*
D03*
X333000D02*
D03*
X350000D02*
D03*
X366000D02*
D03*
X350500Y272000D02*
D03*
X340500D02*
D03*
X330500D02*
D03*
X320500D02*
D03*
X359000Y240000D02*
D03*
X343000D02*
D03*
X326000D02*
D03*
X310000D02*
D03*
X359000Y262000D02*
D03*
X343000D02*
D03*
X326000D02*
D03*
X310000D02*
D03*
X249150Y170000D02*
D03*
X310000Y119000D02*
D03*
X326000D02*
D03*
X342000D02*
D03*
X358000D02*
D03*
X375000Y32000D02*
D03*
Y130500D02*
D03*
X215200Y170500D02*
D03*
X255450Y206000D02*
D03*
X252300Y209000D02*
D03*
X249150Y206000D02*
D03*
X245950Y209000D02*
D03*
X242863Y206000D02*
D03*
X239700Y209000D02*
D03*
X236550Y206000D02*
D03*
X318000Y234000D02*
D03*
X334000D02*
D03*
X350000D02*
D03*
X366000D02*
D03*
X230250Y206000D02*
D03*
X227100Y209000D02*
D03*
X224000Y206000D02*
D03*
X220800Y209000D02*
D03*
X233400D02*
D03*
X228000Y221000D02*
D03*
X225000Y224000D02*
D03*
X375000Y223000D02*
D03*
Y420000D02*
D03*
Y518000D02*
D03*
Y321000D02*
D03*
D92*
X231152Y85076D02*
D03*
X102000Y159000D02*
D03*
X156500Y254300D02*
D03*
X161500D02*
D03*
X166500D02*
D03*
X171500D02*
D03*
X156500Y249300D02*
D03*
X161500D02*
D03*
X166500D02*
D03*
X171500D02*
D03*
X151500D02*
D03*
Y254300D02*
D03*
X170000Y244300D02*
D03*
X165000D02*
D03*
X160000D02*
D03*
X56900Y323400D02*
D03*
X89500Y129500D02*
D03*
X78000Y160500D02*
D03*
X83000D02*
D03*
X88000D02*
D03*
X69500Y180500D02*
D03*
Y175500D02*
D03*
Y170500D02*
D03*
Y165500D02*
D03*
X99500D02*
D03*
X94500D02*
D03*
X89500D02*
D03*
X84500D02*
D03*
X79500D02*
D03*
X74500D02*
D03*
X99500Y170500D02*
D03*
X94500D02*
D03*
X89500D02*
D03*
X84500D02*
D03*
X79500D02*
D03*
X74500D02*
D03*
X99500Y175500D02*
D03*
X94500D02*
D03*
X89500D02*
D03*
X84500D02*
D03*
X79500D02*
D03*
X74500D02*
D03*
X99500Y180500D02*
D03*
X94500D02*
D03*
X89500D02*
D03*
X84500D02*
D03*
X79500D02*
D03*
X74500D02*
D03*
X96457Y150563D02*
D03*
X251500Y71400D02*
D03*
X196500Y71500D02*
D03*
X185714Y80504D02*
D03*
X163008Y133500D02*
D03*
X148500Y111611D02*
D03*
X5000Y363500D02*
D03*
X10000D02*
D03*
X15000D02*
D03*
X20000D02*
D03*
X25000D02*
D03*
X30000D02*
D03*
X35000D02*
D03*
X40000D02*
D03*
X45000D02*
D03*
X50000D02*
D03*
X55000D02*
D03*
X5000Y368500D02*
D03*
X10000D02*
D03*
X15000D02*
D03*
X20000D02*
D03*
X25000D02*
D03*
X30000D02*
D03*
X35000D02*
D03*
X40000D02*
D03*
X45000D02*
D03*
X50000D02*
D03*
X55000D02*
D03*
X5000Y373500D02*
D03*
X10000D02*
D03*
X15000D02*
D03*
X20000D02*
D03*
X25000D02*
D03*
X30000D02*
D03*
X35000D02*
D03*
X40000D02*
D03*
X45000D02*
D03*
X50000D02*
D03*
X55000D02*
D03*
X5000Y378500D02*
D03*
X10000D02*
D03*
X15000D02*
D03*
X20000D02*
D03*
X25000D02*
D03*
X30000D02*
D03*
X35000D02*
D03*
X40000D02*
D03*
X45000D02*
D03*
X50000D02*
D03*
X55000D02*
D03*
X5000Y383500D02*
D03*
X10000D02*
D03*
X15000D02*
D03*
X20000D02*
D03*
X25000D02*
D03*
X30000D02*
D03*
X35000D02*
D03*
X40000D02*
D03*
X45000D02*
D03*
X50000D02*
D03*
X55000D02*
D03*
X5000Y388500D02*
D03*
X10000D02*
D03*
X15000D02*
D03*
X20000D02*
D03*
X25000D02*
D03*
X30000D02*
D03*
X35000D02*
D03*
X40000D02*
D03*
X45000D02*
D03*
X50000D02*
D03*
X55000D02*
D03*
X5000Y393500D02*
D03*
X10000D02*
D03*
X15000D02*
D03*
X20000D02*
D03*
X25000D02*
D03*
X30000D02*
D03*
X35000D02*
D03*
X40000D02*
D03*
X45000D02*
D03*
X50000D02*
D03*
X55000D02*
D03*
X5000Y398500D02*
D03*
X10000D02*
D03*
X15000D02*
D03*
X20000D02*
D03*
X25000D02*
D03*
X30000D02*
D03*
X35000D02*
D03*
X40000D02*
D03*
X45000D02*
D03*
X50000D02*
D03*
X55000D02*
D03*
X5000Y403500D02*
D03*
X10000D02*
D03*
X15000D02*
D03*
X20000D02*
D03*
X25000D02*
D03*
X30000D02*
D03*
X35000D02*
D03*
X40000D02*
D03*
X45000D02*
D03*
X50000D02*
D03*
X55000D02*
D03*
Y408500D02*
D03*
X50000D02*
D03*
X45000D02*
D03*
X40000D02*
D03*
X35000D02*
D03*
X30000D02*
D03*
X25000D02*
D03*
X20000D02*
D03*
X15000D02*
D03*
X10000D02*
D03*
X5000D02*
D03*
X167326Y387457D02*
D03*
X157019Y48256D02*
D03*
X219000Y439462D02*
D03*
X236100Y433000D02*
D03*
X240000Y437200D02*
D03*
X195974Y94974D02*
D03*
X232852Y80600D02*
D03*
X185448Y48084D02*
D03*
X214379Y48784D02*
D03*
X242707Y48184D02*
D03*
X127734Y390166D02*
D03*
Y383834D02*
D03*
Y377603D02*
D03*
X59700Y262510D02*
D03*
X108000Y271100D02*
D03*
X91000Y290100D02*
D03*
X176500Y249300D02*
D03*
Y254300D02*
D03*
X191100Y141500D02*
D03*
X196100D02*
D03*
X201100D02*
D03*
X206100D02*
D03*
X186100D02*
D03*
Y123100D02*
D03*
X206100D02*
D03*
X201100D02*
D03*
X196100D02*
D03*
X191100D02*
D03*
X186100Y127100D02*
D03*
X206100D02*
D03*
X201100D02*
D03*
X196100D02*
D03*
X191100D02*
D03*
Y137500D02*
D03*
X196100D02*
D03*
X201100D02*
D03*
X206100D02*
D03*
X186100D02*
D03*
X191100Y132300D02*
D03*
X186100D02*
D03*
X201100D02*
D03*
X206100D02*
D03*
X223000Y435100D02*
D03*
X183500Y57500D02*
D03*
X266470Y275130D02*
D03*
X240270Y412970D02*
D03*
X243945Y412809D02*
D03*
X31500Y448000D02*
D03*
D93*
X114200Y478000D02*
D03*
Y498000D02*
D03*
X134200D02*
D03*
Y478000D02*
D03*
X264200Y478200D02*
D03*
Y498200D02*
D03*
X284200D02*
D03*
Y478200D02*
D03*
X189200D02*
D03*
Y498200D02*
D03*
X209200D02*
D03*
Y478200D02*
D03*
X39200Y478000D02*
D03*
Y498000D02*
D03*
X59200D02*
D03*
Y478000D02*
D03*
X155500Y7400D02*
D03*
Y27400D02*
D03*
X175500D02*
D03*
Y7400D02*
D03*
X230500D02*
D03*
Y27400D02*
D03*
X250500D02*
D03*
Y7400D02*
D03*
D94*
X196100Y132300D02*
D03*
X205300Y402181D02*
D03*
M02*
